<svg xmlns="http://www.w3.org/2000/svg" xmlns:xlink="http://www.w3.org/1999/xlink" width="149.512" height="149.513" viewBox="0 0 149.512 149.513">
  <defs>
    <clipPath id="clip-path">
      <path id="Trazado_1870" data-name="Trazado 1870" d="M188.522,353.482a1.526,1.526,0,1,0,1.526-1.526,1.525,1.525,0,0,0-1.526,1.526m9.153,0a1.526,1.526,0,1,0,1.526-1.526,1.525,1.525,0,0,0-1.526,1.526m6.1,0a1.526,1.526,0,1,0,1.526-1.526,1.525,1.525,0,0,0-1.526,1.526m3.052,0a1.526,1.526,0,1,0,1.526-1.526,1.525,1.525,0,0,0-1.526,1.526m-97.641-3.052a1.526,1.526,0,1,0,1.526-1.526,1.526,1.526,0,0,0-1.526,1.526m15.258,0a1.526,1.526,0,0,1,0,3.052,431517.92,431517.92,0,0,1,3.052-3.052,1.526,1.526,0,0,0-3.052,0m6.1,0a1.526,1.526,0,0,1,0,3.052,4355.564,4355.564,0,0,1,3.05-3.052,1.525,1.525,0,1,0-3.05,0m3.05,0a1.526,1.526,0,1,1,0,3.052,3.412,3.412,0,1,0,0-3.052m3.052,0a1.526,1.526,0,1,1,0,3.052,3.412,3.412,0,1,0,0-3.052m3.052,0a1.526,1.526,0,1,1,0,3.052,3.412,3.412,0,1,0,0-3.052m18.308,0a1.526,1.526,0,1,0,1.526-1.526,1.525,1.525,0,0,0-1.526,1.526m21.359,0a1.525,1.525,0,1,0,1.524-1.526,1.524,1.524,0,0,0-1.524,1.526m3.05,0a1.526,1.526,0,1,0,1.526-1.526,1.525,1.525,0,0,0-1.526,1.526m27.462,0a1.526,1.526,0,1,1,0,3.052,3.412,3.412,0,1,0,0-3.052m3.05,0a1.526,1.526,0,1,1,0,3.052,3.412,3.412,0,1,0,0-3.052m-109.846-3.052a1.526,1.526,0,0,1,0,3.052,431517.924,431517.924,0,0,1,3.052-3.052,1.526,1.526,0,0,0-3.052,0m15.258,0a1.526,1.526,0,1,1,0,3.052,1.526,1.526,0,1,1,0,3.052,2.412,2.412,0,1,0,1.526-4.577,1.525,1.525,0,1,0-1.526-1.526m9.155,0a1.526,1.526,0,1,0,1.526-1.524,1.524,1.524,0,0,0-1.526,1.524m42.717,0a1.526,1.526,0,1,1,0,3.052,1.526,1.526,0,1,1,0,3.052,215760.578,215760.578,0,0,1,3.052-3.052,1.526,1.526,0,1,1,0-3.052,1.526,1.526,0,0,0-3.052,0m18.308,0a1.526,1.526,0,1,0,1.526-1.524,1.524,1.524,0,0,0-1.526,1.524m6.1,0a1.526,1.526,0,0,1,0,3.052,4355.5,4355.5,0,0,1,3.05-3.052,1.525,1.525,0,0,0-3.05,0m6.1,0a1.526,1.526,0,1,0,1.526-1.524,1.524,1.524,0,0,0-1.526,1.524m21.359,0a1.526,1.526,0,1,0,1.526-1.524,1.525,1.525,0,0,0-1.526,1.524m-112.9-3.05a1.526,1.526,0,1,0,1.526-1.526,1.526,1.526,0,0,0-1.526,1.526m6.1,0a1.525,1.525,0,1,1,0,3.05,1.526,1.526,0,1,1,0,3.052,1.526,1.526,0,1,1,0,3.052,2.412,2.412,0,1,0,1.526-4.577,3.411,3.411,0,0,1,1.526-4.576,1.526,1.526,0,0,0-3.052,0m21.359,0a1.526,1.526,0,1,0,1.526-1.526,1.525,1.525,0,0,0-1.526,1.526m3.052,0a1.526,1.526,0,1,0,1.526-1.526,1.525,1.525,0,0,0-1.526,1.526m24.409,0a1.525,1.525,0,1,1,0,3.05,1.526,1.526,0,1,1,0,3.052,431517.923,431517.923,0,0,1,3.052-3.052,1.525,1.525,0,1,1,0-3.05,1.526,1.526,0,0,0-3.052,0m3.052,0a1.526,1.526,0,1,0,1.526-1.526,1.525,1.525,0,0,0-1.526,1.526m6.1,0a1.526,1.526,0,1,0,1.526-1.526,1.525,1.525,0,0,0-1.526,1.526m12.2,0a1.525,1.525,0,1,1,0,3.05,3.411,3.411,0,1,0,0-3.05m12.2,0A1.526,1.526,0,1,0,199.2,342.8a1.525,1.525,0,0,0-1.526,1.526m27.462,0a1.525,1.525,0,1,1,0,3.05,1.526,1.526,0,1,1,0,3.052,1.526,1.526,0,1,1,0,3.052,2.412,2.412,0,0,0,1.526-4.577,3.412,3.412,0,0,1,1.524-4.576,1.525,1.525,0,1,0-3.05,0m-140.36,0a4.577,4.577,0,1,0,4.577-4.577,4.577,4.577,0,0,0-4.577,4.577m27.462-3.052a1.526,1.526,0,1,1,0,3.052,1.525,1.525,0,1,1,0,3.05,2.412,2.412,0,1,0,1.526-4.576,1.526,1.526,0,1,0-1.526-1.526m9.155,0a1.526,1.526,0,0,1,0,3.052,1.525,1.525,0,1,1,0,3.05,1.526,1.526,0,0,1,0,3.052,431517.92,431517.92,0,0,1,3.052-3.052,1.525,1.525,0,1,1,0-3.05,1.526,1.526,0,1,1,0-3.052,1.526,1.526,0,0,0-3.052,0m3.052,0a1.526,1.526,0,1,0,1.526-1.526,1.525,1.525,0,0,0-1.526,1.526m24.409,0a1.526,1.526,0,0,1,0,3.052,1.525,1.525,0,1,1,0,3.05,1.526,1.526,0,0,1,0,3.052,2.412,2.412,0,1,0,1.526-4.576,3.412,3.412,0,0,1,1.526-4.577,1.526,1.526,0,0,0-3.052,0m3.052,0a1.526,1.526,0,1,1,0,3.052,1.525,1.525,0,1,1,0,3.05,1.526,1.526,0,1,1,0,3.052,1.526,1.526,0,1,1,0,3.052,2.412,2.412,0,1,0,1.526-4.577,3.411,3.411,0,0,1,1.526-4.576,1.526,1.526,0,0,1,0-3.052,1.526,1.526,0,0,0-3.052,0m3.052,0a1.526,1.526,0,0,1,0,3.052,1.525,1.525,0,1,1,0,3.05,1.526,1.526,0,0,1,0,3.052,1.526,1.526,0,0,1,0,3.052,431517.92,431517.92,0,0,1,3.052-3.052,1.526,1.526,0,1,1,0-3.052,1.525,1.525,0,1,1,0-3.05,1.526,1.526,0,1,1,0-3.052,1.526,1.526,0,0,0-3.052,0m48.82,0a1.526,1.526,0,1,1,0,3.052,1.525,1.525,0,1,1,0,3.05A2.412,2.412,0,1,0,205.3,342.8a1.526,1.526,0,1,0-1.526-1.526m3.052,0a1.526,1.526,0,1,1,0,3.052,3.412,3.412,0,1,0,0-3.052m3.052,0a1.526,1.526,0,1,1,0,3.052,3.412,3.412,0,1,0,0-3.052m6.1,0a1.526,1.526,0,1,1,0,3.052,3.412,3.412,0,1,0,0-3.052m3.052,0a1.526,1.526,0,1,1,0,3.052,1.525,1.525,0,1,1,0,3.05,2.412,2.412,0,1,0,1.526-4.576,1.526,1.526,0,1,0-1.526-1.526m-109.846-3.052a1.526,1.526,0,1,0,1.526-1.526,1.526,1.526,0,0,0-1.526,1.526m6.1,0a1.526,1.526,0,1,0,1.526-1.526,1.525,1.525,0,0,0-1.526,1.526m3.052,0a1.526,1.526,0,1,0,1.526-1.526,1.525,1.525,0,0,0-1.526,1.526m12.206,0a1.526,1.526,0,0,1,0,3.052,4355.564,4355.564,0,0,1,3.05-3.052,1.525,1.525,0,1,0-3.05,0m3.05,0a1.526,1.526,0,1,1,0,3.052,1.526,1.526,0,1,1,0,3.052,2.412,2.412,0,1,0,1.526-4.577,1.526,1.526,0,1,0-1.526-1.526m3.052,0a1.526,1.526,0,1,0,1.526-1.526,1.525,1.525,0,0,0-1.526,1.526m24.411,0a1.525,1.525,0,1,0,1.526-1.526,1.524,1.524,0,0,0-1.526,1.526m3.05,0a1.526,1.526,0,1,0,1.526-1.526,1.525,1.525,0,0,0-1.526,1.526m12.206,0a1.526,1.526,0,1,1,0,3.052,1.526,1.526,0,1,1,0,3.052,1.525,1.525,0,1,1,0,3.05,1.526,1.526,0,1,1,0,3.052,1.526,1.526,0,1,1,0,3.052,431517.92,431517.92,0,0,1,3.052-3.052,1.526,1.526,0,1,1,0-3.052,1.525,1.525,0,1,1,0-3.05,1.526,1.526,0,1,1,0-3.052,1.526,1.526,0,1,1,0-3.052,1.526,1.526,0,0,0-3.052,0m6.1,0a1.526,1.526,0,1,1,0,3.052,431517.92,431517.92,0,0,1,3.052-3.052,1.526,1.526,0,0,0-3.052,0m9.155,0a1.526,1.526,0,1,1,0,3.052,1.526,1.526,0,1,1,0,3.052,1.525,1.525,0,1,1,0,3.05,1.526,1.526,0,1,1,0,3.052,1.526,1.526,0,1,1,0,3.052A2.412,2.412,0,1,0,193.1,348.9a3.411,3.411,0,0,1,1.526-4.576,1.526,1.526,0,1,1,0-3.052,1.526,1.526,0,1,1,0-3.052,1.526,1.526,0,0,0-3.052,0m3.052,0a1.525,1.525,0,1,0,1.524-1.526,1.524,1.524,0,0,0-1.524,1.526m27.461,0a1.526,1.526,0,1,0,1.526-1.526,1.526,1.526,0,0,0-1.526,1.526m3.052,0a1.525,1.525,0,1,0,1.526-1.526,1.525,1.525,0,0,0-1.526,1.526m-103.743-3.052a1.526,1.526,0,1,0,1.526-1.526,1.525,1.525,0,0,0-1.526,1.526m3.052,0a1.526,1.526,0,1,0,1.526-1.526,1.525,1.525,0,0,0-1.526,1.526m27.461,0a1.526,1.526,0,1,0,1.526-1.526,1.525,1.525,0,0,0-1.526,1.526m36.615,0a1.526,1.526,0,1,0,1.526-1.526,1.525,1.525,0,0,0-1.526,1.526m9.153,0a1.526,1.526,0,1,0,1.526-1.526,1.525,1.525,0,0,0-1.526,1.526m9.155,0a1.526,1.526,0,1,0,1.526-1.526,1.525,1.525,0,0,0-1.526,1.526m9.153,0a1.526,1.526,0,1,0,1.526-1.526,1.526,1.526,0,0,0-1.526,1.526M81.728,344.364v-.035a7.628,7.628,0,1,1,7.627,7.645h-.017a7.628,7.628,0,0,1-7.611-7.611m7.611-10.731A10.681,10.681,0,0,0,78.676,344.3v.033a10.679,10.679,0,1,0,10.679-10.7Zm16.8-1.509a1.526,1.526,0,0,1,0,3.052,143843.621,143843.621,0,0,1,3.052-3.052,1.526,1.526,0,0,0-3.052,0m30.514,0a1.526,1.526,0,1,0,1.526-1.524,1.524,1.524,0,0,0-1.526,1.524m6.1,0a1.526,1.526,0,0,1,0,3.052,107881.906,107881.906,0,0,1,3.052-3.052,1.526,1.526,0,0,0-3.052,0m21.358,0a1.526,1.526,0,1,0,1.526-1.524,1.524,1.524,0,0,0-1.526,1.524m3.052,0a1.526,1.526,0,0,1,0,3.052,1.526,1.526,0,1,1,0,3.052,431517.925,431517.925,0,0,1,3.052-3.052,1.526,1.526,0,0,1,0-3.052,1.526,1.526,0,0,0-3.052,0m3.052,0a1.526,1.526,0,0,1,0,3.052,1.526,1.526,0,0,1,0,3.052,215760.578,215760.578,0,0,1,3.052-3.052,1.526,1.526,0,1,1,0-3.052,1.526,1.526,0,0,0-3.052,0m9.155,0a1.526,1.526,0,0,1,0,3.052,1.526,1.526,0,0,1,0,3.052,4355.564,4355.564,0,0,1,3.05-3.052,1.526,1.526,0,0,1,0-3.052,1.525,1.525,0,0,0-3.05,0m15.256,0a1.525,1.525,0,1,0,1.524-1.524,1.523,1.523,0,0,0-1.524,1.524m-115.949-3.05a1.526,1.526,0,1,0,1.526-1.526,1.526,1.526,0,0,0-1.526,1.526m18.308,0a1.525,1.525,0,1,0,1.526-1.526,1.525,1.525,0,0,0-1.526,1.526m33.565,0a1.525,1.525,0,1,0,1.524-1.526,1.524,1.524,0,0,0-1.524,1.526m24.409,0a1.526,1.526,0,1,0,1.526-1.526,1.525,1.525,0,0,0-1.526,1.526m3.052,0a1.525,1.525,0,1,1,0,3.05,1.526,1.526,0,0,1,0,3.052,1.526,1.526,0,0,1,0,3.052,1.526,1.526,0,0,1,0,3.052,431517.923,431517.923,0,0,1,3.052-3.052,1.526,1.526,0,1,1,0-3.052,1.526,1.526,0,0,1,0-3.052,1.525,1.525,0,1,1,0-3.05,1.526,1.526,0,0,0-3.052,0m18.308,0a1.525,1.525,0,1,1,0,3.05,3.411,3.411,0,1,0,0-3.05m15.256,0a1.526,1.526,0,1,0,1.526-1.526,1.525,1.525,0,0,0-1.526,1.526m9.153,0a1.525,1.525,0,1,1,0,3.05,1.526,1.526,0,0,1,0,3.052,1.526,1.526,0,1,1,0,3.052,1.526,1.526,0,1,1,0,3.052,431517.92,431517.92,0,0,1,3.052-3.052,1.526,1.526,0,1,1,0-3.052,1.526,1.526,0,0,1,0-3.052,1.525,1.525,0,1,1,0-3.05,1.526,1.526,0,0,0-3.052,0m6.1,0a1.526,1.526,0,1,0,1.526-1.526,1.525,1.525,0,0,0-1.526,1.526m3.052,0a1.525,1.525,0,1,0,1.526-1.526,1.525,1.525,0,0,0-1.526,1.526m3.05,0a1.525,1.525,0,1,1,0,3.05,1.526,1.526,0,0,1,0,3.052,1.526,1.526,0,1,1,0,3.052,1.526,1.526,0,1,1,0,3.052,1.526,1.526,0,1,1,0,3.052,2.412,2.412,0,1,0,1.526-4.577,3.412,3.412,0,0,1,1.526-4.577,1.526,1.526,0,0,1,0-3.052,1.525,1.525,0,1,1,0-3.05,1.526,1.526,0,0,0-3.052,0m3.052,0a1.526,1.526,0,1,0,1.526-1.526,1.526,1.526,0,0,0-1.526,1.526m6.1,0a1.525,1.525,0,1,1,0,3.05,3.411,3.411,0,1,0,0-3.05M84.778,326.021a1.526,1.526,0,1,1,0,3.052,1.526,1.526,0,1,0,1.526-1.526,1.526,1.526,0,1,0-1.526-1.526m3.052,0a1.526,1.526,0,1,0,1.526-1.526,1.526,1.526,0,0,0-1.526,1.526m12.2,0a1.526,1.526,0,1,1,0,3.052,431517.913,431517.913,0,0,1,3.052-3.052,1.526,1.526,0,0,0-3.052,0m9.155,0a1.526,1.526,0,1,1,0,3.052,1.525,1.525,0,1,1,0,3.05,2.412,2.412,0,1,0,1.526-4.576,1.526,1.526,0,1,0-1.526-1.526m6.1,0a1.526,1.526,0,1,1,0,3.052,1.525,1.525,0,1,1,0,3.05,2.412,2.412,0,1,0,1.526-4.576,1.526,1.526,0,1,0-1.526-1.526m9.155,0a1.526,1.526,0,0,1,0,3.052,431517.913,431517.913,0,0,1,3.052-3.052,1.526,1.526,0,0,0-3.052,0m21.359,0a1.526,1.526,0,1,1,0,3.052,1.525,1.525,0,1,1,0,3.05,1.526,1.526,0,1,1,0,3.052,1.526,1.526,0,1,1,0,3.052,1.526,1.526,0,1,1,0,3.052,1.526,1.526,0,1,1,0,3.052,2.412,2.412,0,0,0,1.526-4.577,3.413,3.413,0,0,1,1.524-4.577,1.526,1.526,0,0,1,0-3.052,1.525,1.525,0,0,1,0-3.05,1.526,1.526,0,0,1,0-3.052,1.525,1.525,0,1,0-3.05,0m6.1,0a1.526,1.526,0,1,1,0,3.052,3.412,3.412,0,1,0,0-3.052m15.256,0a1.526,1.526,0,1,0,1.526-1.526,1.525,1.525,0,0,0-1.526,1.526m6.1,0a1.526,1.526,0,1,1,0,3.052,1.525,1.525,0,1,1,0,3.05,1.526,1.526,0,0,1,0,3.052,1.526,1.526,0,0,1,0,3.052,431517.92,431517.92,0,0,1,3.052-3.052,1.526,1.526,0,0,1,0-3.052,1.525,1.525,0,1,1,0-3.05,1.526,1.526,0,1,1,0-3.052,1.526,1.526,0,0,0-3.052,0m6.1,0a1.525,1.525,0,1,0,1.524-1.526,1.524,1.524,0,0,0-1.524,1.526m24.409,0a1.526,1.526,0,0,1,0,3.052,1.526,1.526,0,1,0,1.526-1.526,1.526,1.526,0,1,0-1.526-1.526m21.359,0a1.525,1.525,0,1,0,1.526-1.526,1.525,1.525,0,0,0-1.526,1.526M81.728,322.97a1.526,1.526,0,0,1,0,3.052,1.526,1.526,0,0,1,0,3.052,2.412,2.412,0,0,0,1.526-4.577,1.526,1.526,0,1,0-1.526-1.526m15.256,0a1.525,1.525,0,1,0,1.526-1.526,1.525,1.525,0,0,0-1.526,1.526m6.1,0a1.526,1.526,0,1,0,1.526-1.526,1.526,1.526,0,0,0-1.526,1.526m24.412,0a1.526,1.526,0,1,1,0,3.052,1.526,1.526,0,1,1,0,3.052,1.525,1.525,0,1,1,0,3.05,1.526,1.526,0,0,1,0,3.052,1.526,1.526,0,1,1,0,3.052,1.526,1.526,0,1,1,0,3.052,2.412,2.412,0,1,0,1.526-4.577,3.412,3.412,0,0,1,1.526-4.577,1.525,1.525,0,1,1,0-3.05,1.526,1.526,0,0,1,0-3.052,1.526,1.526,0,0,1,0-3.052,1.526,1.526,0,0,0-3.052,0m6.1,0a1.526,1.526,0,1,1,0,3.052,1.526,1.526,0,1,1,0,3.052,1.525,1.525,0,1,1,0,3.05,2.412,2.412,0,1,0,1.526-4.576,3.412,3.412,0,0,1,1.526-4.577,1.526,1.526,0,0,0-3.052,0m6.1,0a1.526,1.526,0,1,0,1.526-1.526,1.525,1.525,0,0,0-1.526,1.526m18.308,0a1.526,1.526,0,1,0,1.526-1.526,1.525,1.525,0,0,0-1.526,1.526m12.2,0a1.526,1.526,0,1,0,1.526-1.526,1.525,1.525,0,0,0-1.526,1.526m15.256,0a1.526,1.526,0,0,1,0,3.052,1.526,1.526,0,0,1,0,3.052,1.525,1.525,0,1,1,0,3.05,1.526,1.526,0,0,1,0,3.052,107881.906,107881.906,0,0,1,3.052-3.052,1.525,1.525,0,1,1,0-3.05,1.526,1.526,0,1,1,0-3.052,1.526,1.526,0,1,1,0-3.052,1.526,1.526,0,0,0-3.052,0m27.461,0a1.526,1.526,0,1,0,1.526-1.526,1.526,1.526,0,0,0-1.526,1.526M90.881,319.918a1.526,1.526,0,1,0,1.526-1.526,1.526,1.526,0,0,0-1.526,1.526m3.052,0a1.526,1.526,0,0,1,0,3.052,431517.914,431517.914,0,0,1,3.052-3.052,1.526,1.526,0,0,0-3.052,0m18.308,0a1.526,1.526,0,1,1,0,3.052,1.526,1.526,0,1,1,0,3.052,2.412,2.412,0,1,0,1.526-4.577,1.526,1.526,0,1,0-1.526-1.526m6.1,0a1.526,1.526,0,1,1,0,3.052,3.412,3.412,0,1,0,0-3.052m36.615,0a1.526,1.526,0,1,1,0,3.052,431517.914,431517.914,0,0,1,3.052-3.052,1.526,1.526,0,0,0-3.052,0m6.1,0a1.526,1.526,0,1,1,0,3.052,1.526,1.526,0,1,1,0,3.052,1.526,1.526,0,1,1,0,3.052,1.525,1.525,0,1,1,0,3.05,2.412,2.412,0,0,0,1.526-4.576,3.413,3.413,0,0,1,1.524-4.577,1.526,1.526,0,0,1,0-3.052,1.525,1.525,0,1,0-3.05,0m3.05,0a1.526,1.526,0,1,0,1.526-1.526,1.525,1.525,0,0,0-1.526,1.526m18.308,0a1.526,1.526,0,0,1,0,3.052,431517.914,431517.914,0,0,1,3.052-3.052,1.526,1.526,0,0,0-3.052,0M81.728,316.867a1.525,1.525,0,1,0,1.526-1.526,1.524,1.524,0,0,0-1.526,1.526m15.256,0a1.525,1.525,0,1,0,1.526-1.526,1.524,1.524,0,0,0-1.526,1.526m9.153,0a1.526,1.526,0,1,0,1.526-1.526,1.525,1.525,0,0,0-1.526,1.526m18.309,0a1.526,1.526,0,0,1,0,3.052,431517.913,431517.913,0,0,1,3.052-3.052,1.526,1.526,0,1,0-3.052,0m6.1,0a1.526,1.526,0,0,1,0,3.052,4355.564,4355.564,0,0,1,3.05-3.052,1.525,1.525,0,1,0-3.05,0m3.05,0a1.526,1.526,0,1,0,1.526-1.526,1.524,1.524,0,0,0-1.526,1.526m3.052,0a1.526,1.526,0,1,1,0,3.052,3.412,3.412,0,1,0,0-3.052m6.1,0a1.526,1.526,0,1,0,1.526-1.526,1.524,1.524,0,0,0-1.526,1.526m6.1,0a1.526,1.526,0,0,1,0,3.052,1.526,1.526,0,0,1,0,3.052,1.526,1.526,0,0,1,0,3.052,1.526,1.526,0,0,1,0,3.052,1.526,1.526,0,1,0,1.526-1.526,3.412,3.412,0,0,1,1.526-4.577,1.526,1.526,0,0,1,0-3.052,1.526,1.526,0,0,1,0-3.052,1.526,1.526,0,1,0-3.052,0m30.514,0a1.526,1.526,0,0,1,0,3.052,4355.564,4355.564,0,0,1,3.05-3.052,1.525,1.525,0,1,0-3.05,0m6.1,0A1.526,1.526,0,1,0,187,315.341a1.524,1.524,0,0,0-1.526,1.526m3.052,0a1.526,1.526,0,1,1,0,3.052,1.526,1.526,0,1,1,0,3.052,1.526,1.526,0,1,1,0,3.052,2.412,2.412,0,1,0,1.526-4.577,3.412,3.412,0,0,1,1.526-4.577,1.526,1.526,0,1,0-3.052,0m9.153,0a1.526,1.526,0,1,1,0,3.052,1.526,1.526,0,1,1,0,3.052,431524.389,431524.389,0,0,1,3.052-3.052,1.526,1.526,0,1,1,0-3.052,1.526,1.526,0,1,0-3.052,0m24.411,0a1.526,1.526,0,1,0,1.526-1.526,1.525,1.525,0,0,0-1.526,1.526m-143.41-3.05a1.526,1.526,0,1,0,1.526-1.526,1.525,1.525,0,0,0-1.526,1.526m12.2,0a1.526,1.526,0,1,0,1.526-1.526,1.525,1.525,0,0,0-1.526,1.526m3.052,0a1.526,1.526,0,1,0,1.526-1.526,1.525,1.525,0,0,0-1.526,1.526m21.359,0a1.525,1.525,0,1,1,0,3.05,1.526,1.526,0,1,1,0,3.052,2.412,2.412,0,0,0,1.526-4.577,1.525,1.525,0,1,0-1.526-1.524m39.667,0a1.526,1.526,0,1,0,1.526-1.526,1.524,1.524,0,0,0-1.526,1.526m3.052,0a1.526,1.526,0,1,0,1.526-1.526,1.524,1.524,0,0,0-1.526,1.526m15.256,0a1.525,1.525,0,1,1,0,3.05,1.526,1.526,0,1,1,0,3.052,431517.914,431517.914,0,0,1,3.052-3.052,1.525,1.525,0,1,1,0-3.05,1.526,1.526,0,0,0-3.052,0m3.052,0a1.526,1.526,0,1,0,1.526-1.526,1.523,1.523,0,0,0-1.526,1.526m6.1,0a1.526,1.526,0,1,0,1.526-1.526,1.524,1.524,0,0,0-1.526,1.526m9.155,0a1.525,1.525,0,1,1,0,3.05,1.526,1.526,0,1,1,0,3.052,1.526,1.526,0,1,1,0,3.052,2.412,2.412,0,1,0,1.526-4.577,3.409,3.409,0,0,1,1.526-4.576,1.526,1.526,0,0,0-3.052,0m3.052,0a1.525,1.525,0,0,1,0,3.05,1.526,1.526,0,0,1,0,3.052,1.526,1.526,0,0,1,0,3.052,1.526,1.526,0,0,1,0,3.052,4355.5,4355.5,0,0,1,3.05-3.052,1.526,1.526,0,0,1,0-3.052,1.526,1.526,0,0,1,0-3.052,1.525,1.525,0,1,1,0-3.05,1.525,1.525,0,1,0-3.05,0m9.153,0a1.526,1.526,0,1,0,1.526-1.526,1.524,1.524,0,0,0-1.526,1.526m3.052,0a1.525,1.525,0,1,1,0,3.05,1.526,1.526,0,1,1,0,3.052,1.526,1.526,0,1,1,0,3.052,2.412,2.412,0,1,0,1.526-4.577,3.409,3.409,0,0,1,1.526-4.576,1.526,1.526,0,0,0-3.052,0m3.052,0a1.525,1.525,0,1,1,0,3.05,1.526,1.526,0,1,1,0,3.052,2.412,2.412,0,0,0,1.526-4.577,1.525,1.525,0,1,0-1.526-1.524m3.05,0a1.526,1.526,0,1,0,1.526-1.526,1.525,1.525,0,0,0-1.526,1.526m3.052,0a1.525,1.525,0,1,1,0,3.05,1.526,1.526,0,1,1,0,3.052,2.412,2.412,0,0,0,1.526-4.577,1.525,1.525,0,1,0-1.526-1.524M81.728,310.765a1.525,1.525,0,1,0,1.526-1.526,1.525,1.525,0,0,0-1.526,1.526m3.05,0a1.526,1.526,0,1,1,0,3.052,1.525,1.525,0,1,1,0,3.05,1.526,1.526,0,1,1,0,3.052,1.526,1.526,0,1,0,1.526-1.526,3.409,3.409,0,0,1,1.526-4.576,1.526,1.526,0,1,1,0-3.052,1.526,1.526,0,0,0-3.052,0m3.052,0a1.526,1.526,0,1,1,0,3.052,1.525,1.525,0,1,1,0,3.05,1.526,1.526,0,0,1,0,3.052,1.526,1.526,0,1,0,1.526-1.526,3.409,3.409,0,0,1,1.526-4.576,1.526,1.526,0,1,1,0-3.052,1.526,1.526,0,1,0-3.052,0m9.155,0a1.525,1.525,0,1,0,1.526-1.526,1.525,1.525,0,0,0-1.526,1.526m3.05,0a1.526,1.526,0,1,1,0,3.052,1.525,1.525,0,1,1,0,3.05,1.526,1.526,0,1,1,0,3.052,431517.913,431517.913,0,0,1,3.052-3.052,1.525,1.525,0,1,1,0-3.05,1.526,1.526,0,1,1,0-3.052,1.526,1.526,0,0,0-3.052,0m21.361,0a1.526,1.526,0,1,1,0,3.052,1.525,1.525,0,1,1,0,3.05,1.526,1.526,0,1,1,0,3.052,1.526,1.526,0,1,1,0,3.052,431517.913,431517.913,0,0,1,3.052-3.052,1.526,1.526,0,1,1,0-3.052,1.525,1.525,0,1,1,0-3.05,1.526,1.526,0,1,1,0-3.052,1.526,1.526,0,0,0-3.052,0m6.1,0a1.526,1.526,0,1,0,1.526-1.526,1.525,1.525,0,0,0-1.526,1.526m3.052,0a1.525,1.525,0,1,0,1.524-1.526,1.524,1.524,0,0,0-1.524,1.526m15.256,0a1.525,1.525,0,1,0,1.526-1.526,1.524,1.524,0,0,0-1.526,1.526m3.05,0a1.526,1.526,0,1,0,1.526-1.526,1.525,1.525,0,0,0-1.526,1.526m3.052,0a1.526,1.526,0,1,1,0,3.052,1.525,1.525,0,1,1,0,3.05,4400.153,4400.153,0,0,1,3.052-3.05,1.526,1.526,0,1,1,0-3.052,1.526,1.526,0,0,0-3.052,0m9.155,0a1.525,1.525,0,1,0,1.526-1.526,1.524,1.524,0,0,0-1.526,1.526m6.1,0a1.526,1.526,0,0,1,0,3.052,431517.913,431517.913,0,0,1,3.052-3.052,1.526,1.526,0,0,0-3.052,0m3.052,0a1.526,1.526,0,1,1,0,3.052,1.525,1.525,0,1,1,0,3.05,4227.678,4227.678,0,0,1,3.052-3.05,1.526,1.526,0,1,1,0-3.052,1.526,1.526,0,0,0-3.052,0m15.256,0A1.526,1.526,0,1,0,187,309.24a1.525,1.525,0,0,0-1.526,1.526m3.052,0a1.526,1.526,0,1,0,1.526-1.526,1.525,1.525,0,0,0-1.526,1.526m9.153,0a1.526,1.526,0,1,0,1.526-1.526,1.525,1.525,0,0,0-1.526,1.526m3.052,0a1.526,1.526,0,1,0,1.526-1.526,1.525,1.525,0,0,0-1.526,1.526m18.308,0a1.526,1.526,0,0,1,0,3.052,215760.574,215760.574,0,0,1,3.052-3.052,1.526,1.526,0,0,0-3.052,0m3.052,0a1.526,1.526,0,1,0,1.526-1.526,1.526,1.526,0,0,0-1.526,1.526m3.052,0a1.526,1.526,0,1,1,0,3.052,1.525,1.525,0,1,1,0,3.05,215873.1,215873.1,0,0,1,3.05-3.05,1.526,1.526,0,0,1,0-3.052,1.525,1.525,0,1,0-3.05,0M133.6,307.714a1.526,1.526,0,1,0,1.526-1.526,1.525,1.525,0,0,0-1.526,1.526m3.052,0a1.526,1.526,0,1,0,1.526-1.526,1.525,1.525,0,0,0-1.526,1.526m3.052,0a1.526,1.526,0,1,1,0,3.052,1.526,1.526,0,1,1,0,3.052,21691450680614.81,21691450680614.81,0,0,1,3.052-3.052,1.526,1.526,0,1,1,0-3.052,1.526,1.526,0,0,0-3.052,0m15.256,0a1.526,1.526,0,1,0,1.526-1.526,1.525,1.525,0,0,0-1.526,1.526m21.359,0a1.526,1.526,0,1,0,1.526-1.526,1.524,1.524,0,0,0-1.526,1.526m27.461,0a1.526,1.526,0,1,0,1.526-1.526,1.525,1.525,0,0,0-1.526,1.526m3.052,0a1.526,1.526,0,1,0,1.526-1.526,1.525,1.525,0,0,0-1.526,1.526m6.1,0a1.526,1.526,0,1,0,1.526-1.526,1.526,1.526,0,0,0-1.526,1.526m-131.2-3.052a1.525,1.525,0,1,0,1.526-1.526,1.525,1.525,0,0,0-1.526,1.526m15.256,0a1.525,1.525,0,1,0,1.526-1.526,1.525,1.525,0,0,0-1.526,1.526m3.05,0a1.526,1.526,0,1,0,1.526-1.526,1.526,1.526,0,0,0-1.526,1.526m3.052,0a1.526,1.526,0,1,1,0,3.052,1.526,1.526,0,1,1,0,3.052,1.526,1.526,0,1,1,0,3.052,431517.909,431517.909,0,0,1,3.052-3.052,1.526,1.526,0,1,1,0-3.052,1.526,1.526,0,1,1,0-3.052,1.526,1.526,0,0,0-3.052,0m3.052,0a1.526,1.526,0,1,0,1.526-1.526,1.526,1.526,0,0,0-1.526,1.526m6.1,0a1.526,1.526,0,1,1,0,3.052,1.526,1.526,0,1,1,0,3.052,1.526,1.526,0,1,1,0,3.052,2.412,2.412,0,1,0,1.526-4.577,3.412,3.412,0,0,1,1.526-4.577,1.526,1.526,0,0,0-3.052,0m18.309,0a1.525,1.525,0,1,0,1.524-1.526,1.524,1.524,0,0,0-1.524,1.526m15.256,0a1.525,1.525,0,1,0,1.526-1.526,1.524,1.524,0,0,0-1.526,1.526m12.2,0a1.526,1.526,0,1,1,0,3.052,431517.909,431517.909,0,0,1,3.052-3.052,1.526,1.526,0,0,0-3.052,0m3.052,0a1.525,1.525,0,1,0,1.526-1.526,1.524,1.524,0,0,0-1.526,1.526m21.358,0a1.526,1.526,0,1,0,1.526-1.526,1.525,1.525,0,0,0-1.526,1.526m3.052,0A1.526,1.526,0,1,0,187,303.137a1.525,1.525,0,0,0-1.526,1.526m9.155,0a1.525,1.525,0,1,0,1.524-1.526,1.524,1.524,0,0,0-1.524,1.526m21.358,0a1.526,1.526,0,1,0,1.526-1.526,1.526,1.526,0,0,0-1.526,1.526m3.052,0a1.526,1.526,0,1,0,1.526-1.526,1.525,1.525,0,0,0-1.526,1.526M84.778,301.611a1.526,1.526,0,0,0,1.526,1.526,1.526,1.526,0,1,0,1.526,1.526,1.526,1.526,0,0,0-1.526-1.526,1.526,1.526,0,1,0-1.526-1.526m3.052,0a1.526,1.526,0,1,0,1.526-1.526,1.526,1.526,0,0,0-1.526,1.526m3.052,0a1.526,1.526,0,1,0,1.526-1.526,1.526,1.526,0,0,0-1.526,1.526m18.308,0a1.526,1.526,0,1,0,1.526-1.526,1.526,1.526,0,0,0-1.526,1.526m9.155,0a1.525,1.525,0,0,0,1.526,1.526,3.412,3.412,0,0,1-1.526,4.577,50613384921398.59,50613384921398.59,0,0,1,3.052-3.052,1.526,1.526,0,0,0-1.526-1.526,1.526,1.526,0,1,0-1.526-1.526m9.155,0a1.525,1.525,0,0,0,1.526,1.526,1.526,1.526,0,1,0,1.526,1.526,1.525,1.525,0,0,0-1.526-1.526,1.526,1.526,0,1,0-1.526-1.526m12.2,0a1.526,1.526,0,1,0,1.526-1.526,1.525,1.525,0,0,0-1.526,1.526m12.2,0a1.526,1.526,0,1,0,1.526-1.526,1.525,1.525,0,0,0-1.526,1.526m3.052,0a1.526,1.526,0,1,0,1.526-1.526,1.525,1.525,0,0,0-1.526,1.526m9.153,0a1.525,1.525,0,0,0,1.526,1.526,3.412,3.412,0,0,1-1.526,4.577,1.526,1.526,0,1,1,0,3.052,431517.909,431517.909,0,0,1,3.052-3.052,1.526,1.526,0,1,1,0-3.052,1.526,1.526,0,0,0-1.526-1.526,1.526,1.526,0,1,0-1.526-1.526m27.462,0a1.525,1.525,0,0,0,1.526,1.526,1.526,1.526,0,1,0,1.526,1.526,1.525,1.525,0,0,0-1.526-1.526,1.526,1.526,0,1,0-1.526-1.526m-94.59-3.05a1.525,1.525,0,1,0,1.526-1.526,1.524,1.524,0,0,0-1.526,1.526m24.411,0a1.524,1.524,0,0,0,1.526,1.524,1.526,1.526,0,1,0,1.526,1.526,1.525,1.525,0,0,0-1.526-1.526,1.525,1.525,0,1,0-1.526-1.524m3.052,0a1.526,1.526,0,1,0,1.526-1.526,1.524,1.524,0,0,0-1.526,1.526m33.564,0a1.526,1.526,0,1,0,1.526-1.526,1.524,1.524,0,0,0-1.526,1.526m15.256,0a1.524,1.524,0,0,0,1.526,1.524,1.526,1.526,0,0,0,0,3.052,1.526,1.526,0,1,0,1.526,1.526,1.525,1.525,0,0,0-1.526-1.526,1.526,1.526,0,0,0,0-3.052,1.525,1.525,0,1,0-1.526-1.524m21.359,0a1.525,1.525,0,1,0,1.524-1.526,1.523,1.523,0,0,0-1.524,1.526m12.2,0a1.526,1.526,0,1,0,1.526-1.526,1.524,1.524,0,0,0-1.526,1.526m3.052,0a1.524,1.524,0,0,0,1.526,1.524,1.526,1.526,0,1,0,1.524,1.526,1.525,1.525,0,0,0-1.524-1.526,1.525,1.525,0,1,0-1.526-1.524M78.676,295.509a1.526,1.526,0,0,0,1.526,1.526,1.525,1.525,0,1,0,0,3.05,1.526,1.526,0,0,0,0,3.052,1.526,1.526,0,1,0,1.526,1.526,1.526,1.526,0,0,0-1.526-1.526,1.526,1.526,0,0,0,0-3.052,1.525,1.525,0,1,0,0-3.05,1.526,1.526,0,1,0-1.526-1.526m12.2,0a1.526,1.526,0,1,0,1.526-1.526,1.526,1.526,0,0,0-1.526,1.526m3.052,0a1.526,1.526,0,0,0,1.526,1.526,1.525,1.525,0,1,0,0,3.05,1.526,1.526,0,1,0,1.526,1.526,1.526,1.526,0,0,0-1.526-1.526,1.525,1.525,0,1,0,0-3.05,1.526,1.526,0,1,0-1.526-1.526m9.153,0a1.526,1.526,0,1,0,1.526-1.526,1.526,1.526,0,0,0-1.526,1.526m3.052,0a1.526,1.526,0,0,0,1.526,1.526,1.525,1.525,0,1,0,1.526,1.526,1.526,1.526,0,0,0-1.526-1.526,1.526,1.526,0,1,0-1.526-1.526m3.052,0a1.526,1.526,0,1,0,1.526-1.526,1.526,1.526,0,0,0-1.526,1.526m3.052,0a1.526,1.526,0,1,0,1.526-1.526,1.525,1.525,0,0,0-1.526,1.526m21.359,0a1.525,1.525,0,0,0,1.526,1.526,1.525,1.525,0,1,0,1.526,1.526,1.525,1.525,0,0,0-1.526-1.526,1.526,1.526,0,1,0-1.526-1.526m6.1,0a1.526,1.526,0,1,0,1.526-1.526,1.525,1.525,0,0,0-1.526,1.526m24.409,0a1.526,1.526,0,1,0,1.526-1.526,1.525,1.525,0,0,0-1.526,1.526m15.258,0a1.524,1.524,0,0,0,1.524,1.526,1.525,1.525,0,0,0,0,3.05,1.526,1.526,0,1,0,1.526,1.526,1.524,1.524,0,0,0-1.526-1.526,1.525,1.525,0,1,0,0-3.05,1.526,1.526,0,1,0-1.524-1.526m3.05,0a1.526,1.526,0,1,0,1.526-1.526,1.525,1.525,0,0,0-1.526,1.526m3.052,0A1.525,1.525,0,0,0,187,297.035a1.525,1.525,0,1,0,1.526,1.526A1.525,1.525,0,0,0,187,297.035a1.526,1.526,0,1,0-1.526-1.526m3.052,0a1.525,1.525,0,0,0,1.526,1.526,1.525,1.525,0,1,0,1.526,1.526,1.525,1.525,0,0,0-1.526-1.526,1.526,1.526,0,1,0-1.526-1.526m12.2,0a1.525,1.525,0,0,0,1.526,1.526,1.525,1.525,0,1,0,0,3.05,1.526,1.526,0,0,0,0,3.052,1.526,1.526,0,1,0,1.526,1.526,1.525,1.525,0,0,0-1.526-1.526,1.526,1.526,0,0,0,0-3.052,1.525,1.525,0,1,0,0-3.05,1.526,1.526,0,1,0-1.526-1.526m3.052,0a1.525,1.525,0,0,0,1.526,1.526,1.525,1.525,0,1,0,1.526,1.526,1.525,1.525,0,0,0-1.526-1.526,1.526,1.526,0,1,0-1.526-1.526m18.308,0a1.526,1.526,0,0,0,1.526,1.526,1.525,1.525,0,1,0,0,3.05,1.526,1.526,0,0,0,0,3.052,1.526,1.526,0,1,0,1.526,1.526,1.526,1.526,0,0,0-1.526-1.526,1.526,1.526,0,1,0,0-3.052,1.525,1.525,0,1,0,0-3.05,1.526,1.526,0,1,0-1.526-1.526M81.728,292.458a1.525,1.525,0,0,0,1.526,1.526,1.526,1.526,0,0,0,0,3.052,1.525,1.525,0,1,0,1.524,1.526,1.525,1.525,0,0,0-1.524-1.526,1.526,1.526,0,0,0,0-3.052,1.526,1.526,0,1,0-1.526-1.526m15.256,0a1.525,1.525,0,1,0,1.526-1.526,1.525,1.525,0,0,0-1.526,1.526m21.359,0a1.525,1.525,0,0,0,1.526,1.526,1.526,1.526,0,1,0,1.526,1.526,1.525,1.525,0,0,0-1.526-1.526,1.526,1.526,0,1,0-1.526-1.526m3.052,0a1.526,1.526,0,1,0,1.526-1.526,1.525,1.525,0,0,0-1.526,1.526m6.1,0a1.526,1.526,0,1,0,1.526-1.526,1.525,1.525,0,0,0-1.526,1.526m3.052,0a1.525,1.525,0,1,0,1.524-1.526,1.524,1.524,0,0,0-1.524,1.526m18.306,0a1.525,1.525,0,0,0,1.526,1.526,1.526,1.526,0,0,0,0,3.052,1.525,1.525,0,1,0,0,3.05,1.526,1.526,0,0,0,0,3.052,1.526,1.526,0,1,0,1.526,1.526,1.525,1.525,0,0,0-1.526-1.526,1.526,1.526,0,0,0,0-3.052,1.525,1.525,0,1,0,0-3.05,1.526,1.526,0,0,0,0-3.052,1.526,1.526,0,1,0-1.526-1.526m3.052,0a1.525,1.525,0,0,0,1.526,1.526,1.526,1.526,0,1,0,1.526,1.526,1.525,1.525,0,0,0-1.526-1.526,1.526,1.526,0,1,0-1.526-1.526m3.052,0a1.526,1.526,0,1,0,1.526-1.526,1.525,1.525,0,0,0-1.526,1.526m6.1,0a1.524,1.524,0,0,0,1.526,1.526,1.526,1.526,0,0,0,0,3.052,1.525,1.525,0,1,0,1.524,1.526,1.524,1.524,0,0,0-1.524-1.526,1.526,1.526,0,0,0,0-3.052,1.526,1.526,0,1,0-1.526-1.526m15.256,0a1.524,1.524,0,0,0,1.526,1.526,1.526,1.526,0,0,0,0,3.052,1.525,1.525,0,1,0,0,3.05,1.526,1.526,0,1,0,1.526,1.526,1.524,1.524,0,0,0-1.526-1.526,1.525,1.525,0,1,0,0-3.05,1.526,1.526,0,1,0,0-3.052,1.526,1.526,0,1,0-1.526-1.526m18.308,0a1.525,1.525,0,1,0,1.524-1.526,1.524,1.524,0,0,0-1.524,1.526m12.2,0a1.526,1.526,0,1,0,1.526-1.526,1.525,1.525,0,0,0-1.526,1.526m6.1,0a1.526,1.526,0,0,0,1.526,1.526,1.526,1.526,0,1,0,0,3.052,1.525,1.525,0,1,0,0,3.05,1.526,1.526,0,1,0,1.526,1.526,1.526,1.526,0,0,0-1.526-1.526,1.525,1.525,0,1,0,0-3.05,1.526,1.526,0,1,0,0-3.052,1.526,1.526,0,1,0-1.526-1.526m3.052,0a1.526,1.526,0,0,0,1.526,1.526,1.526,1.526,0,1,0,0,3.052,1.525,1.525,0,1,0,1.526,1.526,1.526,1.526,0,0,0-1.526-1.526,1.526,1.526,0,0,0,0-3.052,1.526,1.526,0,1,0-1.526-1.526m-100.692-3.052a1.525,1.525,0,0,0,1.526,1.526,1.526,1.526,0,1,0,0,3.052,1.526,1.526,0,1,0,0,3.052,1.525,1.525,0,1,0,1.526,1.526,1.525,1.525,0,0,0-1.526-1.526,1.526,1.526,0,0,0,0-3.052,1.526,1.526,0,0,0,0-3.052,1.526,1.526,0,1,0-1.526-1.526m21.359,0a1.525,1.525,0,0,0,1.526,1.526,1.526,1.526,0,1,0,0,3.052,1.526,1.526,0,1,0,0,3.052,1.525,1.525,0,1,0,0,3.05,1.526,1.526,0,1,0,1.526,1.526,1.525,1.525,0,0,0-1.526-1.526,1.525,1.525,0,1,0,0-3.05,1.526,1.526,0,0,0,0-3.052,1.526,1.526,0,0,0,0-3.052,1.526,1.526,0,1,0-1.526-1.526m54.923,0a1.526,1.526,0,1,0,1.526-1.526,1.525,1.525,0,0,0-1.526,1.526m27.461,0a1.525,1.525,0,0,0,1.526,1.526,1.526,1.526,0,0,0,0,3.052,1.526,1.526,0,0,0,0,3.052,1.525,1.525,0,1,0,1.526,1.526,1.525,1.525,0,0,0-1.526-1.526,1.526,1.526,0,1,0,0-3.052,1.526,1.526,0,1,0,0-3.052,1.526,1.526,0,1,0-1.526-1.526m3.052,0a1.526,1.526,0,1,0,1.526-1.526,1.526,1.526,0,0,0-1.526,1.526m-143.41-3.052A1.526,1.526,0,0,0,80.2,287.88a1.526,1.526,0,1,0,1.526,1.526A1.526,1.526,0,0,0,80.2,287.88a1.526,1.526,0,1,0-1.526-1.526m9.153,0a1.526,1.526,0,1,0,1.526-1.526,1.526,1.526,0,0,0-1.526,1.526m6.1,0a1.526,1.526,0,1,0,1.526-1.526,1.526,1.526,0,0,0-1.526,1.526m3.052,0a1.525,1.525,0,1,0,1.526-1.526,1.525,1.525,0,0,0-1.526,1.526m3.05,0a1.526,1.526,0,0,0,1.526,1.526,1.526,1.526,0,0,0,0,3.052,1.526,1.526,0,0,0,0,3.052,1.526,1.526,0,0,0,0,3.052,1.525,1.525,0,1,0,1.526,1.526,1.526,1.526,0,0,0-1.526-1.526,1.526,1.526,0,1,0,0-3.052,1.526,1.526,0,1,0,0-3.052,1.526,1.526,0,1,0,0-3.052,1.526,1.526,0,1,0-1.526-1.526m6.1,0a1.526,1.526,0,1,0,1.526-1.526,1.526,1.526,0,0,0-1.526,1.526m6.1,0a1.525,1.525,0,0,0,1.526,1.526,1.526,1.526,0,1,0,1.526,1.526,1.525,1.525,0,0,0-1.526-1.526,1.526,1.526,0,1,0-1.526-1.526m12.206,0a1.525,1.525,0,0,0,1.526,1.526,1.526,1.526,0,1,0,1.526,1.526,1.525,1.525,0,0,0-1.526-1.526,1.526,1.526,0,1,0-1.526-1.526m6.1,0a1.525,1.525,0,1,0,1.524-1.526,1.524,1.524,0,0,0-1.524,1.526m12.2,0a1.525,1.525,0,0,0,1.526,1.526,1.526,1.526,0,0,0,0,3.052,1.526,1.526,0,0,0,0,3.052,1.526,1.526,0,0,0,0,3.052,1.525,1.525,0,1,0,1.526,1.526,1.525,1.525,0,0,0-1.526-1.526,1.526,1.526,0,0,0,0-3.052,1.526,1.526,0,0,0,0-3.052,1.526,1.526,0,0,0,0-3.052,1.526,1.526,0,1,0-1.526-1.526m6.1,0a1.526,1.526,0,1,0,1.526-1.526,1.525,1.525,0,0,0-1.526,1.526m3.052,0a1.526,1.526,0,1,0,1.526-1.526,1.525,1.525,0,0,0-1.526,1.526m3.052,0a1.526,1.526,0,1,0,1.526-1.526,1.525,1.525,0,0,0-1.526,1.526m18.308,0a1.525,1.525,0,0,0,1.526,1.526,1.526,1.526,0,1,0,1.526,1.526,1.525,1.525,0,0,0-1.526-1.526,1.526,1.526,0,1,0-1.526-1.526m30.512,0a1.526,1.526,0,1,0,1.526-1.526,1.525,1.525,0,0,0-1.526,1.526m3.052,0a1.526,1.526,0,1,0,1.526-1.526,1.525,1.525,0,0,0-1.526,1.526m3.052,0a1.525,1.525,0,0,0,1.526,1.526,1.526,1.526,0,1,0,0,3.052,1.526,1.526,0,1,0,1.524,1.526,1.525,1.525,0,0,0-1.524-1.526,1.526,1.526,0,0,0,0-3.052,1.526,1.526,0,1,0-1.526-1.526m6.1,0a1.526,1.526,0,1,0,1.526-1.526,1.526,1.526,0,0,0-1.526,1.526m9.155,0a1.525,1.525,0,1,0,1.526-1.526,1.525,1.525,0,0,0-1.526,1.526M109.188,283.3a1.526,1.526,0,1,0,1.526-1.524,1.526,1.526,0,0,0-1.526,1.524m9.155,0a1.526,1.526,0,1,0,1.526-1.524,1.525,1.525,0,0,0-1.526,1.524m15.256,0a1.526,1.526,0,1,0,1.526-1.524A1.525,1.525,0,0,0,133.6,283.3m3.052,0a1.526,1.526,0,1,0,1.526-1.524,1.525,1.525,0,0,0-1.526,1.524m42.718,0a1.524,1.524,0,0,0,1.524,1.526,1.526,1.526,0,1,0,1.526,1.526,1.524,1.524,0,0,0-1.526-1.526,1.525,1.525,0,1,0-1.524-1.526m6.1,0A1.525,1.525,0,0,0,187,284.829a1.526,1.526,0,1,0,1.526,1.526A1.525,1.525,0,0,0,187,284.829a1.525,1.525,0,1,0-1.526-1.526m-100.693-3.05a1.526,1.526,0,0,0,1.526,1.526,1.525,1.525,0,1,0,0,3.05,1.526,1.526,0,1,0,1.526,1.526,1.526,1.526,0,0,0-1.526-1.526,1.525,1.525,0,1,0,0-3.05,1.526,1.526,0,1,0-1.526-1.526m12.206,0a1.525,1.525,0,1,0,1.526-1.526,1.525,1.525,0,0,0-1.526,1.526m24.411,0a1.525,1.525,0,0,0,1.526,1.526,1.525,1.525,0,1,0,0,3.05,1.526,1.526,0,1,0,1.526,1.526,1.525,1.525,0,0,0-1.526-1.526,1.525,1.525,0,1,0,0-3.05,1.526,1.526,0,1,0-1.526-1.526m30.512,0a1.526,1.526,0,1,0,1.526-1.526,1.525,1.525,0,0,0-1.526,1.526m9.155,0a1.524,1.524,0,0,0,1.526,1.526,1.525,1.525,0,1,0,1.524,1.524,1.524,1.524,0,0,0-1.524-1.524,1.526,1.526,0,1,0-1.526-1.526m15.256,0a1.524,1.524,0,0,0,1.526,1.526,1.525,1.525,0,1,0,0,3.05,1.526,1.526,0,1,0,1.526,1.526,1.524,1.524,0,0,0-1.526-1.526,1.525,1.525,0,1,0,0-3.05,1.526,1.526,0,1,0-1.526-1.526m6.1,0a1.526,1.526,0,1,0,1.526-1.526,1.525,1.525,0,0,0-1.526,1.526m24.411,0a1.526,1.526,0,1,0,1.526-1.526,1.525,1.525,0,0,0-1.526,1.526M78.676,277.2a1.526,1.526,0,1,0,1.526-1.526,1.527,1.527,0,0,0-1.526,1.526m3.052,0a1.526,1.526,0,0,0,1.526,1.526,1.526,1.526,0,1,0,1.524,1.526,1.525,1.525,0,0,0-1.524-1.526,1.526,1.526,0,1,0-1.526-1.526m6.1,0a1.527,1.527,0,0,0,1.526,1.526,1.526,1.526,0,1,0,1.526,1.526,1.526,1.526,0,0,0-1.526-1.526,1.526,1.526,0,1,0-1.526-1.526m18.308,0a1.526,1.526,0,1,0,1.526-1.526,1.527,1.527,0,0,0-1.526,1.526m6.1,0a1.526,1.526,0,1,0,1.526-1.526,1.526,1.526,0,0,0-1.526,1.526m3.052,0a1.526,1.526,0,0,0,1.526,1.526,1.526,1.526,0,1,0,1.526,1.526,1.525,1.525,0,0,0-1.526-1.526,1.526,1.526,0,1,0-1.526-1.526m9.155,0a1.526,1.526,0,0,0,1.526,1.526,1.526,1.526,0,1,0,1.526,1.526,1.525,1.525,0,0,0-1.526-1.526,1.526,1.526,0,1,0-1.526-1.526m9.153,0a1.526,1.526,0,1,0,1.526-1.526A1.526,1.526,0,0,0,133.6,277.2m9.155,0a1.526,1.526,0,0,0,1.526,1.526,1.526,1.526,0,1,0,1.526,1.526,1.525,1.525,0,0,0-1.526-1.526,1.526,1.526,0,1,0-1.526-1.526m21.358,0a1.526,1.526,0,0,0,1.526,1.526,1.526,1.526,0,0,0,0,3.052,1.525,1.525,0,1,0,0,3.05,1.526,1.526,0,0,0,0,3.052,1.526,1.526,0,1,0,1.526,1.526,1.525,1.525,0,0,0-1.526-1.526,1.526,1.526,0,0,0,0-3.052,1.525,1.525,0,1,0,0-3.05,1.526,1.526,0,0,0,0-3.052,1.526,1.526,0,1,0-1.526-1.526m3.052,0a1.526,1.526,0,0,0,1.526,1.526,1.526,1.526,0,1,0,1.526,1.526,1.525,1.525,0,0,0-1.526-1.526,1.526,1.526,0,1,0-1.526-1.526m3.052,0a1.526,1.526,0,0,0,1.526,1.526,1.526,1.526,0,0,0,0,3.052,1.525,1.525,0,1,0,0,3.05,1.526,1.526,0,0,0,0,3.052,1.526,1.526,0,1,0,1.526,1.526,1.525,1.525,0,0,0-1.526-1.526,1.526,1.526,0,1,0,0-3.052,1.525,1.525,0,1,0,0-3.05,1.526,1.526,0,1,0,0-3.052,1.526,1.526,0,1,0-1.526-1.526m18.308,0a1.526,1.526,0,1,0,1.526-1.526,1.526,1.526,0,0,0-1.526,1.526m3.052,0a1.526,1.526,0,1,0,1.526-1.526,1.526,1.526,0,0,0-1.526,1.526m3.052,0a1.525,1.525,0,0,0,1.524,1.526,1.526,1.526,0,0,0,0,3.052,1.525,1.525,0,1,0,1.526,1.524,1.524,1.524,0,0,0-1.526-1.524,1.526,1.526,0,0,0,0-3.052,1.526,1.526,0,1,0-1.524-1.526m3.05,0a1.526,1.526,0,0,0,1.526,1.526,1.526,1.526,0,0,0,0,3.052,1.525,1.525,0,1,0,0,3.05,1.526,1.526,0,0,0,0,3.052,1.526,1.526,0,1,0,0,3.052,1.526,1.526,0,1,0,0,3.052,1.526,1.526,0,1,0,1.526,1.526,1.525,1.525,0,0,0-1.526-1.526,1.526,1.526,0,1,0,0-3.052,1.526,1.526,0,1,0,0-3.052,1.526,1.526,0,1,0,0-3.052,1.525,1.525,0,1,0,0-3.05,1.526,1.526,0,1,0,0-3.052,1.526,1.526,0,1,0-1.526-1.526m-112.9-3.052a1.526,1.526,0,1,0,1.526-1.526,1.527,1.527,0,0,0-1.526,1.526m6.1,0a1.527,1.527,0,0,0,1.526,1.526,1.526,1.526,0,1,0,0,3.052,1.526,1.526,0,0,0,0,3.052,1.525,1.525,0,1,0,0,3.05,1.526,1.526,0,0,0,0,3.052,1.526,1.526,0,1,0,1.526,1.526,1.526,1.526,0,0,0-1.526-1.526,1.526,1.526,0,0,0,0-3.052,1.525,1.525,0,1,0,0-3.05,1.526,1.526,0,0,0,0-3.052,1.526,1.526,0,1,0,0-3.052,1.526,1.526,0,1,0-1.526-1.526m6.1,0a1.525,1.525,0,1,0,1.526-1.526,1.526,1.526,0,0,0-1.526,1.526m3.05,0a1.526,1.526,0,1,0,1.526-1.526,1.527,1.527,0,0,0-1.526,1.526m3.052,0a1.527,1.527,0,0,0,1.526,1.526,1.526,1.526,0,1,0,0,3.052,1.526,1.526,0,0,0,0,3.052,1.525,1.525,0,1,0,0,3.05,1.526,1.526,0,1,0,1.526,1.526,1.526,1.526,0,0,0-1.526-1.526,1.525,1.525,0,1,0,0-3.05,1.526,1.526,0,0,0,0-3.052,1.526,1.526,0,1,0,0-3.052,1.526,1.526,0,1,0-1.526-1.526m15.258,0a1.526,1.526,0,1,0,1.526-1.526,1.526,1.526,0,0,0-1.526,1.526m42.718,0a1.525,1.525,0,1,0,1.526-1.526,1.525,1.525,0,0,0-1.526,1.526m42.717,0a1.526,1.526,0,1,0,1.526-1.526,1.526,1.526,0,0,0-1.526,1.526m3.052,0a1.526,1.526,0,1,0,1.526-1.526,1.526,1.526,0,0,0-1.526,1.526m6.1,0a1.527,1.527,0,0,0,1.526,1.526,1.526,1.526,0,1,0,0,3.052,1.526,1.526,0,0,0,0,3.052,1.525,1.525,0,1,0,0,3.05,1.526,1.526,0,1,0,1.526,1.526,1.526,1.526,0,0,0-1.526-1.526,1.525,1.525,0,1,0,0-3.05,1.526,1.526,0,0,0,0-3.052,1.526,1.526,0,1,0,0-3.052,1.526,1.526,0,1,0-1.526-1.526m6.1,0a1.526,1.526,0,1,0,1.526-1.526,1.526,1.526,0,0,0-1.526,1.526M93.932,271.1a1.527,1.527,0,0,0,1.526,1.526,1.526,1.526,0,1,0,1.526,1.526,1.526,1.526,0,0,0-1.526-1.526,1.526,1.526,0,1,0-1.526-1.526m12.2,0a1.526,1.526,0,1,0,1.526-1.526,1.527,1.527,0,0,0-1.526,1.526m15.258,0a1.526,1.526,0,0,0,1.526,1.526,1.526,1.526,0,1,0,1.526,1.526,1.525,1.525,0,0,0-1.526-1.526,1.526,1.526,0,1,0-1.526-1.526m6.1,0a1.526,1.526,0,1,0,1.526-1.526A1.526,1.526,0,0,0,127.5,271.1m3.052,0a1.525,1.525,0,0,0,1.524,1.526,1.526,1.526,0,0,0,0,3.052,1.526,1.526,0,0,0,0,3.052,1.526,1.526,0,1,0,1.526,1.526,1.524,1.524,0,0,0-1.526-1.526,1.526,1.526,0,1,0,0-3.052,1.526,1.526,0,1,0,0-3.052,1.526,1.526,0,1,0-1.524-1.526m24.409,0a1.526,1.526,0,0,0,1.526,1.526,1.526,1.526,0,1,0,1.526,1.526,1.525,1.525,0,0,0-1.526-1.526,1.526,1.526,0,1,0-1.526-1.526m12.2,0a1.526,1.526,0,1,0,1.526-1.526,1.526,1.526,0,0,0-1.526,1.526m3.052,0a1.526,1.526,0,1,0,1.526-1.526,1.526,1.526,0,0,0-1.526,1.526m3.052,0a1.526,1.526,0,0,0,1.526,1.526,1.526,1.526,0,1,0,1.526,1.526,1.525,1.525,0,0,0-1.526-1.526,1.526,1.526,0,1,0-1.526-1.526m3.052,0a1.526,1.526,0,1,0,1.526-1.526,1.525,1.525,0,0,0-1.526,1.526m9.153,0A1.526,1.526,0,1,0,187,269.573a1.526,1.526,0,0,0-1.526,1.526m3.052,0a1.526,1.526,0,1,0,1.526-1.526,1.526,1.526,0,0,0-1.526,1.526m12.2,0a1.526,1.526,0,0,0,1.526,1.526,1.526,1.526,0,1,0,0,3.052,1.526,1.526,0,1,0,0,3.052,1.526,1.526,0,0,0,0,3.052,1.525,1.525,0,1,0,0,3.05,1.526,1.526,0,1,0,1.526,1.526,1.525,1.525,0,0,0-1.526-1.526,1.525,1.525,0,1,0,0-3.05,1.526,1.526,0,0,0,0-3.052,1.526,1.526,0,1,0,0-3.052,1.526,1.526,0,1,0,0-3.052,1.526,1.526,0,1,0-1.526-1.526M96.984,268.047a1.525,1.525,0,1,0,1.526-1.526,1.525,1.525,0,0,0-1.526,1.526m3.05,0a1.526,1.526,0,1,0,1.526-1.526,1.526,1.526,0,0,0-1.526,1.526m9.155,0a1.526,1.526,0,0,0,1.526,1.526,1.526,1.526,0,0,0,0,3.052,1.526,1.526,0,1,0,1.526,1.526,1.526,1.526,0,0,0-1.526-1.526,1.526,1.526,0,0,0,0-3.052,1.526,1.526,0,1,0-1.526-1.526m3.052,0a1.525,1.525,0,0,0,1.526,1.526,1.526,1.526,0,1,0,1.526,1.526,1.525,1.525,0,0,0-1.526-1.526,1.526,1.526,0,1,0-1.526-1.526m3.052,0a1.525,1.525,0,0,0,1.526,1.526,1.526,1.526,0,1,0,1.526,1.526,1.525,1.525,0,0,0-1.526-1.526,1.526,1.526,0,1,0-1.526-1.526m42.718,0a1.525,1.525,0,0,0,1.526,1.526,1.526,1.526,0,0,0,0,3.052,1.526,1.526,0,1,0,0,3.052,1.526,1.526,0,1,0,0,3.052,1.526,1.526,0,0,0,0,3.052,1.525,1.525,0,1,0,0,3.05,1.526,1.526,0,0,0,0,3.052,1.526,1.526,0,1,0,1.526,1.526,1.525,1.525,0,0,0-1.526-1.526,1.526,1.526,0,0,0,0-3.052,1.525,1.525,0,1,0,0-3.05,1.526,1.526,0,0,0,0-3.052,1.526,1.526,0,1,0,0-3.052,1.526,1.526,0,1,0,0-3.052,1.526,1.526,0,0,0,0-3.052,1.526,1.526,0,1,0-1.526-1.526m6.1,0a1.526,1.526,0,1,0,1.526-1.526,1.525,1.525,0,0,0-1.526,1.526m30.514,0a1.524,1.524,0,0,0,1.524,1.526,1.526,1.526,0,1,0,1.526,1.526,1.524,1.524,0,0,0-1.526-1.526,1.526,1.526,0,1,0-1.524-1.526m3.05,0a1.525,1.525,0,0,0,1.526,1.526,1.526,1.526,0,1,0,1.526,1.526,1.525,1.525,0,0,0-1.526-1.526,1.526,1.526,0,1,0-1.526-1.526m18.308,0a1.526,1.526,0,0,0,1.526,1.526,1.526,1.526,0,1,0,1.526,1.526,1.526,1.526,0,0,0-1.526-1.526,1.526,1.526,0,1,0-1.526-1.526m3.052,0a1.526,1.526,0,1,0,1.526-1.526,1.525,1.525,0,0,0-1.526,1.526m6.1,0a1.525,1.525,0,0,0,1.526,1.526,1.526,1.526,0,0,0,0,3.052,1.526,1.526,0,1,0,0,3.052,1.526,1.526,0,1,0,1.524,1.526,1.525,1.525,0,0,0-1.524-1.526,1.526,1.526,0,0,0,0-3.052,1.526,1.526,0,0,0,0-3.052,1.526,1.526,0,1,0-1.526-1.526M78.676,265a1.526,1.526,0,1,0,1.526-1.526A1.526,1.526,0,0,0,78.676,265m6.1,0a1.526,1.526,0,1,0,1.526-1.526A1.526,1.526,0,0,0,84.778,265m33.565,0a1.525,1.525,0,0,0,1.526,1.524,1.526,1.526,0,1,0,1.526,1.526,1.525,1.525,0,0,0-1.526-1.526A1.525,1.525,0,1,0,118.343,265m18.308,0a1.525,1.525,0,0,0,1.526,1.524,1.526,1.526,0,1,0,0,3.052,1.526,1.526,0,0,0,0,3.052,1.526,1.526,0,1,0,0,3.052A1.526,1.526,0,1,0,139.7,277.2a1.525,1.525,0,0,0-1.526-1.526,1.526,1.526,0,1,0,0-3.052,1.526,1.526,0,0,0,0-3.052,1.526,1.526,0,0,0,0-3.052A1.525,1.525,0,1,0,136.651,265m3.052,0a1.525,1.525,0,0,0,1.526,1.524,1.526,1.526,0,1,0,0,3.052,1.526,1.526,0,0,0,0,3.052,1.526,1.526,0,1,0,0,3.052,1.526,1.526,0,1,0,0,3.052,1.526,1.526,0,0,0,0,3.052,1.525,1.525,0,1,0,0,3.05,1.526,1.526,0,0,0,0,3.052,1.526,1.526,0,1,0,1.526,1.526,1.525,1.525,0,0,0-1.526-1.526,1.526,1.526,0,0,0,0-3.052,1.525,1.525,0,1,0,0-3.05,1.526,1.526,0,0,0,0-3.052,1.526,1.526,0,1,0,0-3.052,1.526,1.526,0,1,0,0-3.052,1.526,1.526,0,0,0,0-3.052,1.526,1.526,0,1,0,0-3.052A1.525,1.525,0,1,0,139.7,265m6.1,0a1.524,1.524,0,0,0,1.526,1.524,1.526,1.526,0,1,0,0,3.052,1.526,1.526,0,1,0,0,3.052,1.526,1.526,0,1,0,0,3.052,1.526,1.526,0,1,0,0,3.052,1.526,1.526,0,1,0,0,3.052,1.525,1.525,0,1,0,0,3.05,1.526,1.526,0,1,0,0,3.052,1.526,1.526,0,1,0,0,3.052,1.526,1.526,0,1,0,0,3.052,1.526,1.526,0,1,0,0,3.052,1.525,1.525,0,1,0,1.524,1.526,1.524,1.524,0,0,0-1.524-1.526,1.526,1.526,0,0,0,0-3.052,1.526,1.526,0,0,0,0-3.052,1.526,1.526,0,0,0,0-3.052,1.526,1.526,0,0,0,0-3.052,1.525,1.525,0,0,0,0-3.05,1.526,1.526,0,0,0,0-3.052,1.526,1.526,0,0,0,0-3.052,1.526,1.526,0,0,0,0-3.052,1.526,1.526,0,0,0,0-3.052,1.526,1.526,0,0,0,0-3.052A1.525,1.525,0,1,0,145.805,265m6.1,0a1.525,1.525,0,0,0,1.526,1.524,1.526,1.526,0,1,0,0,3.052,1.526,1.526,0,1,0,0,3.052,1.526,1.526,0,1,0,1.526,1.526,1.525,1.525,0,0,0-1.526-1.526,1.526,1.526,0,0,0,0-3.052,1.526,1.526,0,1,0,0-3.052A1.525,1.525,0,1,0,151.907,265m70.179,0a1.526,1.526,0,0,0,1.526,1.524,1.526,1.526,0,0,0,0,3.052,1.526,1.526,0,0,0,0,3.052,1.526,1.526,0,1,0,0,3.052,1.526,1.526,0,1,0,0,3.052,1.526,1.526,0,1,0,1.526,1.526,1.526,1.526,0,0,0-1.526-1.526,1.526,1.526,0,1,0,0-3.052,1.526,1.526,0,1,0,0-3.052,1.526,1.526,0,1,0,0-3.052,1.526,1.526,0,1,0,0-3.052A1.525,1.525,0,1,0,222.086,265M81.728,261.945a1.525,1.525,0,1,0,1.526-1.526,1.526,1.526,0,0,0-1.526,1.526m15.256,0a1.525,1.525,0,1,0,1.526-1.526,1.526,1.526,0,0,0-1.526,1.526m6.1,0a1.527,1.527,0,0,0,1.526,1.526,1.525,1.525,0,1,0,0,3.05,1.526,1.526,0,1,0,1.526,1.526,1.526,1.526,0,0,0-1.526-1.526,1.525,1.525,0,1,0,0-3.05,1.526,1.526,0,1,0-1.526-1.526m6.1,0a1.526,1.526,0,1,0,1.526-1.526,1.527,1.527,0,0,0-1.526,1.526m15.258,0a1.526,1.526,0,0,0,1.526,1.526A1.525,1.525,0,1,0,127.5,265a1.525,1.525,0,0,0-1.526-1.526,1.526,1.526,0,1,0-1.526-1.526m9.153,0a1.526,1.526,0,0,0,1.526,1.526,1.525,1.525,0,1,0,0,3.05,1.526,1.526,0,1,0,0,3.052,1.526,1.526,0,1,0,1.526,1.526,1.525,1.525,0,0,0-1.526-1.526,1.526,1.526,0,0,0,0-3.052,1.525,1.525,0,1,0,0-3.05,1.526,1.526,0,1,0-1.526-1.526m33.564,0a1.526,1.526,0,0,0,1.526,1.526A1.525,1.525,0,1,0,170.214,265a1.525,1.525,0,0,0-1.526-1.526,1.526,1.526,0,1,0-1.526-1.526m6.1,0a1.526,1.526,0,0,0,1.526,1.526A1.525,1.525,0,1,0,176.318,265a1.525,1.525,0,0,0-1.526-1.526,1.526,1.526,0,1,0-1.526-1.526m6.1,0a1.525,1.525,0,1,0,1.524-1.526,1.525,1.525,0,0,0-1.524,1.526m9.153,0a1.526,1.526,0,0,0,1.526,1.526A1.525,1.525,0,1,0,191.574,265a1.525,1.525,0,0,0-1.526-1.526,1.526,1.526,0,1,0-1.526-1.526m12.2,0a1.526,1.526,0,0,0,1.526,1.526A1.525,1.525,0,1,0,203.778,265a1.525,1.525,0,0,0-1.526-1.526,1.526,1.526,0,1,0-1.526-1.526m3.052,0a1.526,1.526,0,0,0,1.526,1.526,1.525,1.525,0,1,0,0,3.05,1.526,1.526,0,1,0,1.526,1.526,1.525,1.525,0,0,0-1.526-1.526,1.525,1.525,0,1,0,0-3.05,1.526,1.526,0,1,0-1.526-1.526m3.052,0a1.526,1.526,0,0,0,1.526,1.526A1.525,1.525,0,1,0,209.881,265a1.525,1.525,0,0,0-1.526-1.526,1.526,1.526,0,1,0-1.526-1.526m6.1,0a1.527,1.527,0,0,0,1.526,1.526,1.525,1.525,0,1,0,0,3.05,1.526,1.526,0,1,0,1.526,1.526,1.526,1.526,0,0,0-1.526-1.526,1.525,1.525,0,1,0,0-3.05,1.526,1.526,0,1,0-1.526-1.526m3.052,0a1.526,1.526,0,1,0,1.526-1.526,1.527,1.527,0,0,0-1.526,1.526m9.155,0a1.525,1.525,0,1,0,1.526-1.526,1.526,1.526,0,0,0-1.526,1.526m-140.36-3.052a1.526,1.526,0,1,0,1.526-1.526,1.527,1.527,0,0,0-1.526,1.526m3.052,0a1.527,1.527,0,0,0,1.526,1.526,1.526,1.526,0,0,0,0,3.052,1.525,1.525,0,1,0,0,3.05,1.526,1.526,0,1,0,1.526,1.526,1.526,1.526,0,0,0-1.526-1.526,1.525,1.525,0,1,0,0-3.05,1.526,1.526,0,0,0,0-3.052,1.526,1.526,0,1,0-1.526-1.526m12.2,0a1.526,1.526,0,1,0,1.526-1.526,1.527,1.527,0,0,0-1.526,1.526m12.206,0a1.526,1.526,0,1,0,1.526-1.526,1.526,1.526,0,0,0-1.526,1.526m6.1,0a1.526,1.526,0,1,0,1.526-1.526,1.526,1.526,0,0,0-1.526,1.526m3.052,0a1.526,1.526,0,1,0,1.526-1.526,1.526,1.526,0,0,0-1.526,1.526m6.1,0a1.526,1.526,0,0,0,1.526,1.526,1.526,1.526,0,0,0,0,3.052A1.525,1.525,0,1,0,130.549,265a1.525,1.525,0,0,0-1.526-1.526,1.526,1.526,0,0,0,0-3.052,1.526,1.526,0,1,0-1.526-1.526m12.2,0a1.526,1.526,0,1,0,1.526-1.526,1.526,1.526,0,0,0-1.526,1.526m9.153,0a1.526,1.526,0,0,0,1.526,1.526,1.526,1.526,0,0,0,0,3.052,1.525,1.525,0,1,0,0,3.05,1.526,1.526,0,0,0,0,3.052,1.526,1.526,0,0,0,0,3.052,1.526,1.526,0,1,0,1.526,1.526,1.525,1.525,0,0,0-1.526-1.526,1.526,1.526,0,0,0,0-3.052,1.526,1.526,0,0,0,0-3.052,1.525,1.525,0,1,0,0-3.05,1.526,1.526,0,0,0,0-3.052,1.526,1.526,0,1,0-1.526-1.526m12.206,0a1.525,1.525,0,0,0,1.526,1.526,1.526,1.526,0,0,0,0,3.052A1.525,1.525,0,1,0,164.111,265a1.524,1.524,0,0,0-1.524-1.526,1.526,1.526,0,0,0,0-3.052,1.526,1.526,0,1,0-1.526-1.526m21.358,0a1.526,1.526,0,0,0,1.526,1.526,1.526,1.526,0,0,0,0,3.052A1.525,1.525,0,1,0,185.471,265a1.525,1.525,0,0,0-1.526-1.526,1.526,1.526,0,0,0,0-3.052,1.526,1.526,0,1,0-1.526-1.526m3.052,0A1.526,1.526,0,1,0,187,257.368a1.526,1.526,0,0,0-1.526,1.526m6.1,0a1.526,1.526,0,1,0,1.526-1.526,1.526,1.526,0,0,0-1.526,1.526m3.052,0a1.525,1.525,0,0,0,1.524,1.526,1.526,1.526,0,1,0,1.526,1.526,1.524,1.524,0,0,0-1.526-1.526,1.526,1.526,0,1,0-1.524-1.526m15.256,0a1.526,1.526,0,0,0,1.526,1.526,1.526,1.526,0,0,0,0,3.052,1.525,1.525,0,1,0,0,3.05,1.526,1.526,0,1,0,0,3.052,1.526,1.526,0,0,0,0,3.052,1.526,1.526,0,1,0,1.524,1.526,1.525,1.525,0,0,0-1.524-1.526,1.526,1.526,0,0,0,0-3.052,1.526,1.526,0,0,0,0-3.052,1.525,1.525,0,0,0,0-3.05,1.526,1.526,0,0,0,0-3.052,1.526,1.526,0,1,0-1.526-1.526M93.932,255.842a1.526,1.526,0,1,0,1.526-1.526,1.527,1.527,0,0,0-1.526,1.526m3.052,0a1.525,1.525,0,1,0,1.526-1.526,1.526,1.526,0,0,0-1.526,1.526m6.1,0a1.526,1.526,0,1,0,1.526-1.526,1.527,1.527,0,0,0-1.526,1.526m12.206,0a1.526,1.526,0,0,0,1.526,1.526,1.526,1.526,0,1,0,1.526,1.526,1.525,1.525,0,0,0-1.526-1.526,1.526,1.526,0,1,0-1.526-1.526m9.155,0a1.526,1.526,0,1,0,1.526-1.526,1.526,1.526,0,0,0-1.526,1.526m12.2,0a1.526,1.526,0,0,0,1.526,1.526,1.526,1.526,0,1,0,1.526,1.526,1.525,1.525,0,0,0-1.526-1.526,1.526,1.526,0,1,0-1.526-1.526m6.1,0a1.526,1.526,0,0,0,1.526,1.526,1.526,1.526,0,0,0,0,3.052,1.526,1.526,0,0,0,0,3.052A1.525,1.525,0,1,0,145.805,265a1.525,1.525,0,0,0-1.526-1.526,1.526,1.526,0,0,0,0-3.052,1.526,1.526,0,0,0,0-3.052,1.526,1.526,0,1,0-1.526-1.526m9.153,0a1.526,1.526,0,0,0,1.526,1.526,1.526,1.526,0,1,0,1.526,1.526,1.525,1.525,0,0,0-1.526-1.526,1.526,1.526,0,1,0-1.526-1.526m6.1,0a1.526,1.526,0,1,0,1.526-1.526,1.526,1.526,0,0,0-1.526,1.526m6.1,0a1.526,1.526,0,0,0,1.526,1.526,1.526,1.526,0,1,0,1.526,1.526,1.525,1.525,0,0,0-1.526-1.526,1.526,1.526,0,1,0-1.526-1.526m12.206,0a1.525,1.525,0,0,0,1.526,1.526,1.526,1.526,0,0,0,0,3.052,1.526,1.526,0,0,0,0,3.052A1.525,1.525,0,1,0,179.369,265a1.524,1.524,0,0,0-1.526-1.526,1.526,1.526,0,0,0,0-3.052,1.526,1.526,0,1,0,0-3.052,1.526,1.526,0,1,0-1.526-1.526m12.2,0a1.526,1.526,0,1,0,1.526-1.526,1.526,1.526,0,0,0-1.526,1.526m9.153,0a1.526,1.526,0,0,0,1.526,1.526,1.526,1.526,0,1,0,1.526,1.526,1.525,1.525,0,0,0-1.526-1.526,1.526,1.526,0,1,0-1.526-1.526m15.256,0a1.526,1.526,0,1,0,1.526-1.526,1.527,1.527,0,0,0-1.526,1.526m3.052,0a1.526,1.526,0,1,0,1.526-1.526,1.527,1.527,0,0,0-1.526,1.526M78.676,252.791a1.526,1.526,0,1,0,1.526-1.526,1.526,1.526,0,0,0-1.526,1.526m3.052,0a1.525,1.525,0,0,0,1.526,1.526,1.526,1.526,0,1,0,1.524,1.526,1.525,1.525,0,0,0-1.524-1.526,1.526,1.526,0,1,0-1.526-1.526m24.409,0a1.526,1.526,0,1,0,1.526-1.526,1.526,1.526,0,0,0-1.526,1.526m21.361,0a1.526,1.526,0,1,0,1.526-1.526,1.525,1.525,0,0,0-1.526,1.526m6.1,0a1.526,1.526,0,1,0,1.526-1.526,1.525,1.525,0,0,0-1.526,1.526m12.206,0a1.525,1.525,0,1,0,1.526-1.526,1.524,1.524,0,0,0-1.526,1.526m27.461,0a1.525,1.525,0,0,0,1.526,1.526,1.526,1.526,0,1,0,1.526,1.526,1.525,1.525,0,0,0-1.526-1.526,1.526,1.526,0,1,0-1.526-1.526m6.1,0a1.525,1.525,0,1,0,1.524-1.526,1.524,1.524,0,0,0-1.524,1.526m6.1,0A1.526,1.526,0,1,0,187,251.265a1.525,1.525,0,0,0-1.526,1.526m6.1,0a1.526,1.526,0,1,0,1.526-1.526,1.525,1.525,0,0,0-1.526,1.526m18.308,0a1.525,1.525,0,1,0,1.526-1.526,1.525,1.525,0,0,0-1.526,1.526m-112.9-3.05a1.525,1.525,0,1,0,1.526-1.526,1.525,1.525,0,0,0-1.526,1.526m6.1,0a1.526,1.526,0,1,0,1.526-1.526,1.526,1.526,0,0,0-1.526,1.526m6.1,0a1.526,1.526,0,0,0,1.526,1.524,1.526,1.526,0,1,0,0,3.052,1.526,1.526,0,1,0,1.526,1.526,1.526,1.526,0,0,0-1.526-1.526,1.526,1.526,0,1,0,0-3.052,1.525,1.525,0,1,0-1.526-1.524m6.1,0a1.526,1.526,0,1,0,1.526-1.526,1.525,1.525,0,0,0-1.526,1.526m15.258,0a1.524,1.524,0,0,0,1.524,1.524,1.526,1.526,0,0,0,0,3.052,1.526,1.526,0,1,0,1.526,1.526,1.524,1.524,0,0,0-1.526-1.526,1.526,1.526,0,1,0,0-3.052,1.525,1.525,0,1,0-1.524-1.524m24.409,0a1.525,1.525,0,0,0,1.526,1.524,1.526,1.526,0,0,0,0,3.052,1.526,1.526,0,0,0,0,3.052,1.526,1.526,0,1,0,1.526,1.526,1.525,1.525,0,0,0-1.526-1.526,1.526,1.526,0,1,0,0-3.052,1.526,1.526,0,1,0,0-3.052,1.525,1.525,0,1,0-1.526-1.524m12.2,0a1.525,1.525,0,0,0,1.526,1.524,1.526,1.526,0,1,0,1.526,1.526,1.525,1.525,0,0,0-1.526-1.526,1.525,1.525,0,1,0-1.526-1.524m3.052,0a1.525,1.525,0,0,0,1.526,1.524,1.526,1.526,0,0,0,0,3.052,1.526,1.526,0,0,0,0,3.052,1.526,1.526,0,0,0,0,3.052,1.526,1.526,0,1,0,1.526,1.526,1.525,1.525,0,0,0-1.526-1.526,1.526,1.526,0,1,0,0-3.052,1.526,1.526,0,1,0,0-3.052,1.526,1.526,0,1,0,0-3.052,1.525,1.525,0,1,0-1.526-1.524m12.2,0a1.526,1.526,0,1,0,1.526-1.526,1.525,1.525,0,0,0-1.526,1.526m12.206,0a1.524,1.524,0,0,0,1.524,1.524,1.526,1.526,0,1,0,1.526,1.526,1.524,1.524,0,0,0-1.526-1.526,1.525,1.525,0,1,0-1.524-1.524m9.153,0a1.525,1.525,0,0,0,1.526,1.524,1.526,1.526,0,1,0,1.526,1.526,1.525,1.525,0,0,0-1.526-1.526,1.525,1.525,0,1,0-1.526-1.524m18.308,0a1.526,1.526,0,0,0,1.526,1.524,1.526,1.526,0,1,0,1.526,1.526,1.526,1.526,0,0,0-1.526-1.526,1.525,1.525,0,1,0-1.526-1.524M81.728,246.689a1.525,1.525,0,1,0,1.526-1.526,1.526,1.526,0,0,0-1.526,1.526m3.05,0a1.527,1.527,0,0,0,1.526,1.526,1.525,1.525,0,1,0,0,3.05,1.526,1.526,0,1,0,1.526,1.526,1.526,1.526,0,0,0-1.526-1.526,1.525,1.525,0,1,0,0-3.05,1.526,1.526,0,1,0-1.526-1.526m33.565,0a1.526,1.526,0,0,0,1.526,1.526,1.525,1.525,0,1,0,0,3.05,1.526,1.526,0,1,0,1.526,1.526,1.525,1.525,0,0,0-1.526-1.526,1.525,1.525,0,1,0,0-3.05,1.526,1.526,0,1,0-1.526-1.526m6.1,0a1.526,1.526,0,1,0,1.526-1.526,1.526,1.526,0,0,0-1.526,1.526m15.256,0a1.526,1.526,0,1,0,1.526-1.526,1.526,1.526,0,0,0-1.526,1.526m36.615,0a1.526,1.526,0,1,0,1.526-1.526,1.525,1.525,0,0,0-1.526,1.526m24.409,0a1.526,1.526,0,0,0,1.526,1.526,1.525,1.525,0,1,0,0,3.05,1.526,1.526,0,0,0,0,3.052,1.526,1.526,0,1,0,1.526,1.526,1.525,1.525,0,0,0-1.526-1.526,1.526,1.526,0,1,0,0-3.052,1.525,1.525,0,1,0,0-3.05,1.526,1.526,0,1,0-1.526-1.526m6.1,0a1.526,1.526,0,0,0,1.526,1.526,1.525,1.525,0,1,0,0,3.05,1.526,1.526,0,1,0,0,3.052,1.526,1.526,0,1,0,1.526,1.526,1.525,1.525,0,0,0-1.526-1.526,1.526,1.526,0,0,0,0-3.052,1.525,1.525,0,1,0,0-3.05,1.526,1.526,0,1,0-1.526-1.526m6.1,0a1.527,1.527,0,0,0,1.526,1.526,1.525,1.525,0,1,0,1.526,1.526,1.526,1.526,0,0,0-1.526-1.526,1.526,1.526,0,1,0-1.526-1.526m6.1,0a1.526,1.526,0,0,0,1.526,1.526,1.525,1.525,0,1,0,0,3.05,1.526,1.526,0,0,0,0,3.052,1.526,1.526,0,1,0,1.526,1.526,1.525,1.525,0,0,0-1.526-1.526,1.526,1.526,0,1,0,0-3.052,1.525,1.525,0,1,0,0-3.05,1.526,1.526,0,1,0-1.526-1.526m6.1,0a1.526,1.526,0,0,0,1.526,1.526,1.525,1.525,0,1,0,1.524,1.526,1.525,1.525,0,0,0-1.524-1.526,1.526,1.526,0,1,0-1.526-1.526M87.829,243.638a1.527,1.527,0,0,0,1.526,1.526,1.526,1.526,0,1,0,0,3.052,1.525,1.525,0,1,0,0,3.05,1.526,1.526,0,1,0,1.526,1.526,1.526,1.526,0,0,0-1.526-1.526,1.525,1.525,0,1,0,0-3.05,1.526,1.526,0,0,0,0-3.052,1.526,1.526,0,1,0-1.526-1.526m9.155,0a1.525,1.525,0,1,0,1.526-1.526,1.526,1.526,0,0,0-1.526,1.526m6.1,0a1.526,1.526,0,1,0,1.526-1.526,1.527,1.527,0,0,0-1.526,1.526m33.565,0a1.526,1.526,0,0,0,1.526,1.526,1.526,1.526,0,1,0,1.526,1.526,1.525,1.525,0,0,0-1.526-1.526,1.526,1.526,0,1,0-1.526-1.526m6.1,0a1.526,1.526,0,0,0,1.526,1.526,1.526,1.526,0,1,0,1.526,1.526,1.525,1.525,0,0,0-1.526-1.526,1.526,1.526,0,1,0-1.526-1.526m3.052,0a1.525,1.525,0,0,0,1.526,1.526,1.526,1.526,0,1,0,1.524,1.526,1.524,1.524,0,0,0-1.524-1.526,1.526,1.526,0,1,0-1.526-1.526m6.1,0a1.526,1.526,0,0,0,1.526,1.526,1.526,1.526,0,1,0,0,3.052,1.525,1.525,0,1,0,1.526,1.526,1.525,1.525,0,0,0-1.526-1.526,1.526,1.526,0,0,0,0-3.052,1.526,1.526,0,1,0-1.526-1.526m18.308,0a1.526,1.526,0,1,0,1.526-1.526,1.526,1.526,0,0,0-1.526,1.526m9.155,0a1.525,1.525,0,0,0,1.524,1.526,1.526,1.526,0,1,0,1.526,1.526,1.524,1.524,0,0,0-1.526-1.526,1.526,1.526,0,1,0-1.524-1.526m3.05,0a1.526,1.526,0,1,0,1.526-1.526,1.526,1.526,0,0,0-1.526,1.526m6.1,0a1.526,1.526,0,0,0,1.526,1.526,1.526,1.526,0,1,0,0,3.052,1.525,1.525,0,1,0,1.526,1.526,1.525,1.525,0,0,0-1.526-1.526,1.526,1.526,0,0,0,0-3.052,1.526,1.526,0,1,0-1.526-1.526m6.1,0a1.525,1.525,0,1,0,1.524-1.526,1.525,1.525,0,0,0-1.524,1.526m3.05,0a1.526,1.526,0,0,0,1.526,1.526,1.526,1.526,0,1,0,0,3.052,1.525,1.525,0,1,0,1.526,1.526,1.525,1.525,0,0,0-1.526-1.526,1.526,1.526,0,1,0,0-3.052,1.526,1.526,0,1,0-1.526-1.526m24.411,0a1.526,1.526,0,1,0,1.526-1.526,1.527,1.527,0,0,0-1.526,1.526m-122.052-3.052a1.526,1.526,0,1,0,1.526-1.526,1.527,1.527,0,0,0-1.526,1.526m6.1,0a1.527,1.527,0,0,0,1.526,1.526,1.526,1.526,0,1,0,1.526,1.526,1.526,1.526,0,0,0-1.526-1.526,1.526,1.526,0,1,0-1.526-1.526m6.1,0a1.526,1.526,0,1,0,1.526-1.526,1.526,1.526,0,0,0-1.526,1.526m3.052,0a1.526,1.526,0,0,0,1.526,1.526,1.526,1.526,0,1,0,1.526,1.526,1.525,1.525,0,0,0-1.526-1.526,1.526,1.526,0,1,0-1.526-1.526m18.308,0a1.526,1.526,0,0,0,1.526,1.526,1.526,1.526,0,1,0,1.526,1.526,1.525,1.525,0,0,0-1.526-1.526,1.526,1.526,0,1,0-1.526-1.526m24.411,0a1.526,1.526,0,0,0,1.526,1.526,1.526,1.526,0,1,0,1.526,1.526,1.525,1.525,0,0,0-1.526-1.526,1.526,1.526,0,1,0-1.526-1.526m6.1,0a1.526,1.526,0,0,0,1.526,1.526,1.526,1.526,0,0,0,0,3.052,1.526,1.526,0,0,0,0,3.052,1.525,1.525,0,1,0,1.526,1.526,1.525,1.525,0,0,0-1.526-1.526,1.526,1.526,0,1,0,0-3.052,1.526,1.526,0,0,0,0-3.052,1.526,1.526,0,1,0-1.526-1.526m3.052,0a1.526,1.526,0,1,0,1.526-1.526,1.526,1.526,0,0,0-1.526,1.526m6.1,0a1.526,1.526,0,0,0,1.526,1.526,1.526,1.526,0,1,0,1.526,1.526,1.525,1.525,0,0,0-1.526-1.526,1.526,1.526,0,1,0-1.526-1.526m3.052,0a1.526,1.526,0,1,0,1.526-1.526,1.525,1.525,0,0,0-1.526,1.526m15.256,0a1.526,1.526,0,1,0,1.526-1.526,1.526,1.526,0,0,0-1.526,1.526m9.153,0a1.526,1.526,0,1,0,1.526-1.526,1.526,1.526,0,0,0-1.526,1.526m24.411,0a1.525,1.525,0,1,0,1.526-1.526,1.526,1.526,0,0,0-1.526,1.526M78.676,237.535A1.527,1.527,0,0,0,80.2,239.06a1.526,1.526,0,0,0,0,3.052,1.526,1.526,0,1,0,1.526,1.526,1.526,1.526,0,0,0-1.526-1.526,1.526,1.526,0,1,0,0-3.052,1.526,1.526,0,1,0-1.526-1.526m3.052,0a1.525,1.525,0,1,0,1.526-1.526,1.526,1.526,0,0,0-1.526,1.526m6.1,0a1.526,1.526,0,1,0,1.526-1.526,1.527,1.527,0,0,0-1.526,1.526m9.155,0a1.525,1.525,0,1,0,1.526-1.526,1.526,1.526,0,0,0-1.526,1.526m12.2,0a1.526,1.526,0,1,0,1.526-1.526,1.527,1.527,0,0,0-1.526,1.526m9.155,0a1.526,1.526,0,0,0,1.526,1.526,1.526,1.526,0,1,0,1.526,1.526,1.525,1.525,0,0,0-1.526-1.526,1.526,1.526,0,1,0-1.526-1.526m3.052,0a1.526,1.526,0,0,0,1.526,1.526,1.526,1.526,0,0,0,0,3.052,1.526,1.526,0,1,0,1.526,1.526,1.525,1.525,0,0,0-1.526-1.526,1.526,1.526,0,1,0,0-3.052,1.526,1.526,0,1,0-1.526-1.526m9.155,0a1.525,1.525,0,0,0,1.524,1.526,1.526,1.526,0,0,0,0,3.052,1.526,1.526,0,1,0,1.526,1.526,1.524,1.524,0,0,0-1.526-1.526,1.526,1.526,0,1,0,0-3.052,1.526,1.526,0,1,0-1.524-1.526m18.306,0a1.526,1.526,0,0,0,1.526,1.526,1.526,1.526,0,0,0,0,3.052,1.526,1.526,0,0,0,0,3.052,1.526,1.526,0,1,0,1.526,1.526,1.525,1.525,0,0,0-1.526-1.526,1.526,1.526,0,0,0,0-3.052,1.526,1.526,0,0,0,0-3.052,1.526,1.526,0,1,0-1.526-1.526m6.1,0a1.526,1.526,0,0,0,1.526,1.526,1.526,1.526,0,0,0,0,3.052,1.526,1.526,0,1,0,1.526,1.526,1.525,1.525,0,0,0-1.526-1.526,1.526,1.526,0,1,0,0-3.052,1.526,1.526,0,1,0-1.526-1.526m24.411,0a1.525,1.525,0,1,0,1.524-1.526,1.525,1.525,0,0,0-1.524,1.526m3.05,0a1.526,1.526,0,1,0,1.526-1.526,1.526,1.526,0,0,0-1.526,1.526m3.052,0A1.526,1.526,0,0,0,187,239.06a1.526,1.526,0,0,0,0,3.052,1.526,1.526,0,1,0,1.526,1.526A1.525,1.525,0,0,0,187,242.112a1.526,1.526,0,0,0,0-3.052,1.526,1.526,0,1,0-1.526-1.526m9.155,0a1.525,1.525,0,1,0,1.524-1.526,1.525,1.525,0,0,0-1.524,1.526m3.05,0a1.526,1.526,0,1,0,1.526-1.526,1.526,1.526,0,0,0-1.526,1.526m6.1,0a1.526,1.526,0,1,0,1.526-1.526,1.526,1.526,0,0,0-1.526,1.526m3.052,0a1.526,1.526,0,0,0,1.526,1.526,1.526,1.526,0,1,0,1.526,1.526,1.525,1.525,0,0,0-1.526-1.526,1.526,1.526,0,1,0-1.526-1.526m-115.949-3.05a1.526,1.526,0,1,0,1.526-1.526,1.526,1.526,0,0,0-1.526,1.526m3.052,0a1.526,1.526,0,0,0,1.526,1.524,1.526,1.526,0,0,0,0,3.052,1.526,1.526,0,0,0,0,3.052,1.526,1.526,0,0,0,0,3.052,1.526,1.526,0,1,0,0,3.052,1.525,1.525,0,1,0,1.526,1.526,1.526,1.526,0,0,0-1.526-1.526,1.526,1.526,0,1,0,0-3.052,1.526,1.526,0,0,0,0-3.052,1.526,1.526,0,1,0,0-3.052,1.526,1.526,0,1,0,0-3.052,1.525,1.525,0,1,0-1.526-1.524m6.1,0a1.526,1.526,0,1,0,1.526-1.526,1.526,1.526,0,0,0-1.526,1.526m24.412,0a1.525,1.525,0,0,0,1.526,1.524,1.526,1.526,0,1,0,1.526,1.526,1.525,1.525,0,0,0-1.526-1.526,1.525,1.525,0,1,0-1.526-1.524m45.768,0a1.526,1.526,0,1,0,1.526-1.526,1.525,1.525,0,0,0-1.526,1.526m21.359,0a1.526,1.526,0,1,0,1.526-1.526,1.525,1.525,0,0,0-1.526,1.526m21.358,0a1.526,1.526,0,1,0,1.526-1.526,1.526,1.526,0,0,0-1.526,1.526m-131.2-3.052a1.525,1.525,0,1,0,1.526-1.526,1.526,1.526,0,0,0-1.526,1.526m3.05,0a1.526,1.526,0,1,0,1.526-1.526,1.527,1.527,0,0,0-1.526,1.526m12.206,0a1.525,1.525,0,1,0,1.526-1.526,1.526,1.526,0,0,0-1.526,1.526m30.514,0a1.526,1.526,0,0,0,1.526,1.526,1.525,1.525,0,1,0,0,3.05,1.526,1.526,0,1,0,0,3.052,1.526,1.526,0,1,0,0,3.052,1.526,1.526,0,1,0,1.526,1.526,1.525,1.525,0,0,0-1.526-1.526,1.526,1.526,0,0,0,0-3.052,1.526,1.526,0,0,0,0-3.052,1.525,1.525,0,1,0,0-3.05,1.526,1.526,0,1,0-1.526-1.526m21.358,0a1.526,1.526,0,1,0,1.526-1.526,1.526,1.526,0,0,0-1.526,1.526m3.052,0a1.526,1.526,0,1,0,1.526-1.526,1.526,1.526,0,0,0-1.526,1.526m3.052,0a1.526,1.526,0,1,0,1.526-1.526,1.526,1.526,0,0,0-1.526,1.526m6.1,0a1.525,1.525,0,0,0,1.526,1.526,1.525,1.525,0,1,0,0,3.05,1.526,1.526,0,0,0,0,3.052,1.526,1.526,0,0,0,0,3.052,1.526,1.526,0,1,0,1.524,1.526,1.524,1.524,0,0,0-1.524-1.526,1.526,1.526,0,0,0,0-3.052,1.526,1.526,0,0,0,0-3.052,1.525,1.525,0,0,0,0-3.05,1.526,1.526,0,1,0-1.526-1.526m39.665,0a1.526,1.526,0,1,0,1.526-1.526,1.526,1.526,0,0,0-1.526,1.526m3.052,0a1.526,1.526,0,1,0,1.526-1.526,1.526,1.526,0,0,0-1.526,1.526m6.1,0a1.526,1.526,0,0,0,1.526,1.526,1.525,1.525,0,1,0,0,3.05,1.526,1.526,0,1,0,0,3.052,1.526,1.526,0,1,0,1.524,1.526,1.525,1.525,0,0,0-1.524-1.526,1.526,1.526,0,0,0,0-3.052,1.525,1.525,0,0,0,0-3.05,1.526,1.526,0,1,0-1.526-1.526m6.1,0a1.527,1.527,0,0,0,1.526,1.526,1.525,1.525,0,1,0,0,3.05,1.526,1.526,0,1,0,0,3.052,1.526,1.526,0,1,0,0,3.052,1.526,1.526,0,1,0,1.526,1.526,1.526,1.526,0,0,0-1.526-1.526,1.526,1.526,0,0,0,0-3.052,1.526,1.526,0,0,0,0-3.052,1.525,1.525,0,1,0,0-3.05,1.526,1.526,0,1,0-1.526-1.526m3.052,0a1.526,1.526,0,0,0,1.526,1.526,1.525,1.525,0,1,0,1.526,1.526,1.525,1.525,0,0,0-1.526-1.526,1.526,1.526,0,1,0-1.526-1.526m3.052,0a1.527,1.527,0,0,0,1.526,1.526,1.525,1.525,0,1,0,1.526,1.526,1.526,1.526,0,0,0-1.526-1.526,1.526,1.526,0,1,0-1.526-1.526m-115.949-3.052a1.526,1.526,0,1,0,1.526-1.526,1.527,1.527,0,0,0-1.526,1.526m12.206,0a1.526,1.526,0,0,0,1.526,1.526,1.526,1.526,0,1,0,1.526,1.526,1.525,1.525,0,0,0-1.526-1.526,1.526,1.526,0,1,0-1.526-1.526m6.1,0a1.526,1.526,0,1,0,1.526-1.526,1.526,1.526,0,0,0-1.526,1.526m12.2,0a1.526,1.526,0,0,0,1.526,1.526,1.526,1.526,0,1,0,0,3.052,1.525,1.525,0,1,0,1.526,1.526,1.525,1.525,0,0,0-1.526-1.526,1.526,1.526,0,0,0,0-3.052,1.526,1.526,0,1,0-1.526-1.526m6.1,0a1.526,1.526,0,1,0,1.526-1.526,1.526,1.526,0,0,0-1.526,1.526m24.409,0a1.526,1.526,0,0,0,1.526,1.526,1.526,1.526,0,0,0,0,3.052,1.525,1.525,0,1,0,1.526,1.526,1.525,1.525,0,0,0-1.526-1.526,1.526,1.526,0,1,0,0-3.052,1.526,1.526,0,1,0-1.526-1.526m12.206,0a1.525,1.525,0,1,0,1.524-1.526,1.525,1.525,0,0,0-1.524,1.526m-57.975-3.052a1.526,1.526,0,0,0,1.526,1.526,1.526,1.526,0,1,0,1.526,1.526,1.525,1.525,0,0,0-1.526-1.526,1.526,1.526,0,1,0-1.526-1.526m12.2,0a1.526,1.526,0,1,0,1.526-1.526,1.526,1.526,0,0,0-1.526,1.526m6.1,0a1.526,1.526,0,0,0,1.526,1.526,1.526,1.526,0,1,0,0,3.052,1.526,1.526,0,1,0,0,3.052,1.525,1.525,0,1,0,1.526,1.526,1.525,1.525,0,0,0-1.526-1.526,1.526,1.526,0,1,0,0-3.052,1.526,1.526,0,1,0,0-3.052,1.526,1.526,0,1,0-1.526-1.526m12.2,0a1.526,1.526,0,1,0,1.526-1.526,1.526,1.526,0,0,0-1.526,1.526m12.2,0a1.526,1.526,0,0,0,1.526,1.526,1.526,1.526,0,0,0,0,3.052,1.526,1.526,0,0,0,0,3.052,1.525,1.525,0,1,0,1.526,1.526,1.525,1.525,0,0,0-1.526-1.526,1.526,1.526,0,1,0,0-3.052,1.526,1.526,0,1,0,0-3.052,1.526,1.526,0,1,0-1.526-1.526m6.1,0a1.526,1.526,0,1,0,1.526-1.526,1.526,1.526,0,0,0-1.526,1.526m6.1,0a1.526,1.526,0,1,0,1.526-1.526,1.525,1.525,0,0,0-1.526,1.526m24.409,0a1.526,1.526,0,1,0,1.526-1.526,1.526,1.526,0,0,0-1.526,1.526m-97.642-3.052a1.527,1.527,0,0,0,1.526,1.526,1.526,1.526,0,1,0,1.526,1.526,1.526,1.526,0,0,0-1.526-1.526,1.526,1.526,0,1,0-1.526-1.526m6.1,0a1.527,1.527,0,0,0,1.526,1.526,1.526,1.526,0,0,0,0,3.052,1.526,1.526,0,1,0,1.526,1.526,1.526,1.526,0,0,0-1.526-1.526,1.526,1.526,0,1,0,0-3.052,1.526,1.526,0,1,0-1.526-1.526m18.309,0a1.526,1.526,0,0,0,1.526,1.526,1.526,1.526,0,1,0,1.526,1.526,1.525,1.525,0,0,0-1.526-1.526,1.526,1.526,0,1,0-1.526-1.526m54.922,0a1.526,1.526,0,0,0,1.526,1.526,1.526,1.526,0,0,0,0,3.052,1.526,1.526,0,0,0,0,3.052,1.526,1.526,0,1,0,1.526,1.526,1.525,1.525,0,0,0-1.526-1.526,1.526,1.526,0,1,0,0-3.052,1.526,1.526,0,1,0,0-3.052,1.526,1.526,0,1,0-1.526-1.526m6.1,0a1.526,1.526,0,0,0,1.526,1.526,1.526,1.526,0,1,0,0,3.052,1.526,1.526,0,1,0,0,3.052,1.526,1.526,0,1,0,0,3.052,1.525,1.525,0,1,0,1.526,1.526,1.525,1.525,0,0,0-1.526-1.526,1.526,1.526,0,0,0,0-3.052,1.526,1.526,0,0,0,0-3.052,1.526,1.526,0,1,0,0-3.052,1.526,1.526,0,1,0-1.526-1.526m3.052,0a1.526,1.526,0,1,0,1.526-1.526,1.526,1.526,0,0,0-1.526,1.526m3.052,0a1.525,1.525,0,0,0,1.524,1.526,1.526,1.526,0,1,0,1.526,1.526,1.524,1.524,0,0,0-1.526-1.526,1.526,1.526,0,1,0-1.524-1.526m-79.334-3.052a1.525,1.525,0,0,0,1.526,1.526,1.526,1.526,0,1,0,0,3.052,1.526,1.526,0,1,0,0,3.052,1.526,1.526,0,1,0,0,3.052,1.526,1.526,0,1,0,0,3.052,1.525,1.525,0,1,0,1.526,1.526,1.525,1.525,0,0,0-1.526-1.526,1.526,1.526,0,1,0,0-3.052,1.526,1.526,0,0,0,0-3.052,1.526,1.526,0,0,0,0-3.052,1.526,1.526,0,0,0,0-3.052,1.526,1.526,0,1,0-1.526-1.526m33.564,0a1.526,1.526,0,1,0,1.526-1.526,1.525,1.525,0,0,0-1.526,1.526m3.052,0a1.526,1.526,0,1,0,1.526-1.526,1.525,1.525,0,0,0-1.526,1.526m-21.358-3.052a1.524,1.524,0,0,0,1.524,1.526,1.526,1.526,0,0,0,0,3.052,1.526,1.526,0,1,0,1.526,1.526,1.524,1.524,0,0,0-1.526-1.526,1.526,1.526,0,1,0,0-3.052,1.526,1.526,0,1,0-1.524-1.526m9.153,0a1.526,1.526,0,1,0,1.526-1.526,1.525,1.525,0,0,0-1.526,1.526m6.1,0a1.524,1.524,0,0,0,1.526,1.526,1.526,1.526,0,1,0,0,3.052,1.526,1.526,0,1,0,0,3.052,1.526,1.526,0,1,0,0,3.052,1.526,1.526,0,1,0,0,3.052,1.526,1.526,0,1,0,1.524,1.526,1.524,1.524,0,0,0-1.524-1.526,1.526,1.526,0,0,0,0-3.052,1.526,1.526,0,0,0,0-3.052,1.526,1.526,0,0,0,0-3.052,1.526,1.526,0,0,0,0-3.052,1.526,1.526,0,1,0-1.526-1.526m9.153,0a1.525,1.525,0,0,0,1.526,1.526,1.526,1.526,0,1,0,1.526,1.526,1.526,1.526,0,0,0-1.526-1.526,1.526,1.526,0,1,0-1.526-1.526m9.153,0a1.526,1.526,0,1,0,1.526-1.526,1.525,1.525,0,0,0-1.526,1.526m3.052,0a1.526,1.526,0,1,0,1.526-1.526,1.525,1.525,0,0,0-1.526,1.526m3.052,0a1.526,1.526,0,1,0,1.526-1.526,1.525,1.525,0,0,0-1.526,1.526m3.052,0a1.525,1.525,0,0,0,1.526,1.526,1.526,1.526,0,0,0,0,3.052,1.526,1.526,0,1,0,1.526,1.526,1.525,1.525,0,0,0-1.526-1.526,1.526,1.526,0,1,0,0-3.052,1.526,1.526,0,1,0-1.526-1.526m-88.488,0a4.577,4.577,0,1,0,4.577-4.577,4.578,4.578,0,0,0-4.577,4.577m27.462-3.05a1.525,1.525,0,0,0,1.526,1.524,1.526,1.526,0,1,0,0,3.052,1.526,1.526,0,1,0,1.526,1.526,1.526,1.526,0,0,0-1.526-1.526,1.526,1.526,0,1,0,0-3.052,1.526,1.526,0,1,0-1.526-1.524m9.155,0a1.525,1.525,0,0,0,1.526,1.524,1.526,1.526,0,1,0,0,3.052,1.526,1.526,0,1,0,1.526,1.526,1.526,1.526,0,0,0-1.526-1.526,1.526,1.526,0,1,0,0-3.052,1.526,1.526,0,1,0-1.526-1.524m12.2,0a1.525,1.525,0,0,0,1.526,1.524,1.526,1.526,0,1,0,1.526,1.526,1.526,1.526,0,0,0-1.526-1.526,1.526,1.526,0,1,0-1.526-1.524m18.308,0a1.526,1.526,0,1,0,1.526-1.527,1.525,1.525,0,0,0-1.526,1.527m9.155,0a1.524,1.524,0,0,0,1.526,1.524,1.526,1.526,0,1,0,0,3.052,1.526,1.526,0,1,0,1.524,1.526,1.525,1.525,0,0,0-1.524-1.526,1.526,1.526,0,0,0,0-3.052,1.526,1.526,0,1,0-1.526-1.524m15.256,0a1.524,1.524,0,0,0,1.526,1.524,1.526,1.526,0,1,0,1.526,1.526,1.525,1.525,0,0,0-1.526-1.526,1.526,1.526,0,1,0-1.526-1.524m3.052,0a1.525,1.525,0,1,0,1.524-1.527,1.524,1.524,0,0,0-1.524,1.527m33.562,3.05a4.577,4.577,0,1,0,4.577-4.577,4.577,4.577,0,0,0-4.577,4.577m-109.846-6.1a1.526,1.526,0,0,0,1.526,1.526,1.526,1.526,0,0,0,0,3.052,1.526,1.526,0,1,0,1.526,1.526,1.527,1.527,0,0,0-1.526-1.526,1.526,1.526,0,1,0,0-3.052,1.526,1.526,0,1,0-1.526-1.526m36.617,0a1.526,1.526,0,1,0,1.526-1.526,1.525,1.525,0,0,0-1.526,1.526m9.153,0a1.525,1.525,0,0,0,1.526,1.526,1.526,1.526,0,1,0,1.526,1.527,1.526,1.526,0,0,0-1.526-1.527,1.526,1.526,0,1,0-1.526-1.526m18.308,0a1.526,1.526,0,1,0,1.526-1.526,1.525,1.525,0,0,0-1.526,1.526m24.411,0a1.526,1.526,0,1,0,1.526-1.526,1.525,1.525,0,0,0-1.526,1.526m3.052,0a1.525,1.525,0,1,0,1.524-1.526,1.524,1.524,0,0,0-1.524,1.526m3.05,0A1.525,1.525,0,0,0,199.2,211.6a1.526,1.526,0,1,0,0,3.052,1.526,1.526,0,1,0,1.526,1.526,1.526,1.526,0,0,0-1.526-1.526,1.526,1.526,0,1,0,0-3.052,1.526,1.526,0,1,0-1.526-1.526m12.206,6.07a7.628,7.628,0,0,1,15.256,0v.033a7.629,7.629,0,0,1-7.629,7.612h-.018a7.628,7.628,0,0,1-7.609-7.645m7.609-10.629a10.68,10.68,0,1,0,10.7,10.7v-.034a10.679,10.679,0,0,0-10.679-10.662h-.018M81.711,216.159a7.63,7.63,0,0,1,7.611-7.612h.033A7.629,7.629,0,0,1,89.34,223.8h-.018a7.628,7.628,0,0,1-7.611-7.645m7.644-10.664a10.68,10.68,0,1,0,.035,0Zm16.782,1.526a1.526,1.526,0,0,0,1.526,1.526,1.526,1.526,0,1,0,0,3.052,1.526,1.526,0,1,0,0,3.052,1.526,1.526,0,1,0,0,3.052,1.526,1.526,0,1,0,1.526,1.526,1.527,1.527,0,0,0-1.526-1.526,1.526,1.526,0,1,0,0-3.052,1.526,1.526,0,0,0,0-3.052,1.526,1.526,0,0,0,0-3.052,1.526,1.526,0,1,0-1.526-1.526m3.052,0a1.526,1.526,0,0,0,1.526,1.526,1.526,1.526,0,1,0,0,3.052,1.526,1.526,0,0,0,0,3.052,1.526,1.526,0,1,0,1.526,1.526,1.527,1.527,0,0,0-1.526-1.526,1.526,1.526,0,1,0,0-3.052,1.526,1.526,0,1,0,0-3.052,1.526,1.526,0,1,0-1.526-1.526m3.052,0a1.526,1.526,0,1,0,1.526-1.526,1.525,1.525,0,0,0-1.526,1.526m3.052,0a1.525,1.525,0,0,0,1.526,1.526,1.526,1.526,0,1,0,1.526,1.526,1.526,1.526,0,0,0-1.526-1.526,1.526,1.526,0,1,0-1.526-1.526m3.052,0a1.525,1.525,0,0,0,1.526,1.526,1.526,1.526,0,1,0,0,3.052,1.526,1.526,0,1,0,1.526,1.527,1.526,1.526,0,0,0-1.526-1.527,1.526,1.526,0,1,0,0-3.052,1.526,1.526,0,1,0-1.526-1.526m3.052,0a1.526,1.526,0,1,0,1.526-1.526,1.525,1.525,0,0,0-1.526,1.526m3.052,0a1.525,1.525,0,0,0,1.526,1.526,1.526,1.526,0,0,0,0,3.052,1.526,1.526,0,0,0,0,3.052,1.526,1.526,0,1,0,1.526,1.526,1.526,1.526,0,0,0-1.526-1.526,1.526,1.526,0,1,0,0-3.052,1.526,1.526,0,1,0,0-3.052,1.526,1.526,0,1,0-1.526-1.526m6.1,0a1.524,1.524,0,0,0,1.524,1.526,1.526,1.526,0,1,0,1.526,1.526,1.525,1.525,0,0,0-1.526-1.526,1.526,1.526,0,1,0-1.524-1.526m3.05,0a1.526,1.526,0,1,0,1.526-1.526,1.525,1.525,0,0,0-1.526,1.526m3.052,0a1.526,1.526,0,1,0,1.526-1.526,1.525,1.525,0,0,0-1.526,1.526m6.1,0a1.525,1.525,0,0,0,1.526,1.526,1.526,1.526,0,1,0,1.526,1.526,1.526,1.526,0,0,0-1.526-1.526,1.526,1.526,0,1,0-1.526-1.526m3.052,0a1.525,1.525,0,1,0,1.526-1.526,1.524,1.524,0,0,0-1.526,1.526m9.153,0a1.525,1.525,0,0,0,1.526,1.526,1.526,1.526,0,1,0,1.526,1.526,1.526,1.526,0,0,0-1.526-1.526,1.526,1.526,0,1,0-1.526-1.526m3.052,0a1.525,1.525,0,0,0,1.526,1.526,1.526,1.526,0,0,0,0,3.052,1.526,1.526,0,0,0,0,3.052,1.526,1.526,0,1,0,0,3.052,1.526,1.526,0,0,0,0,3.052,1.526,1.526,0,0,0,0,3.052,1.526,1.526,0,0,0,0,3.052,1.526,1.526,0,0,0,0,3.052,1.526,1.526,0,0,0,0,3.052,1.525,1.525,0,1,0,1.526,1.526,1.525,1.525,0,0,0-1.526-1.526,1.526,1.526,0,1,0,0-3.052,1.526,1.526,0,1,0,0-3.052,1.526,1.526,0,1,0,0-3.052,1.526,1.526,0,1,0,0-3.052,1.526,1.526,0,1,0,0-3.052,1.526,1.526,0,1,0,0-3.052,1.526,1.526,0,1,0,0-3.052,1.526,1.526,0,1,0,0-3.052,1.526,1.526,0,1,0-1.526-1.526m6.1,0a1.526,1.526,0,1,0,1.526-1.526,1.525,1.525,0,0,0-1.526,1.526m6.1,0a1.525,1.525,0,0,0,1.526,1.526,1.526,1.526,0,1,0,1.526,1.526,1.526,1.526,0,0,0-1.526-1.526,1.526,1.526,0,1,0-1.526-1.526m15.256,0A1.525,1.525,0,0,0,187,208.547a1.526,1.526,0,1,0,1.526,1.526A1.526,1.526,0,0,0,187,208.547a1.526,1.526,0,1,0-1.526-1.526m3.052,0a1.526,1.526,0,1,0,1.526-1.526,1.525,1.525,0,0,0-1.526,1.526m12.2,0a1.525,1.525,0,0,0,1.526,1.526,1.526,1.526,0,0,0,0,3.052,1.526,1.526,0,1,0,1.526,1.527,1.526,1.526,0,0,0-1.526-1.527,1.526,1.526,0,1,0,0-3.052,1.526,1.526,0,1,0-1.526-1.526" transform="translate(-78.676 -205.495)" fill="none"/>
    </clipPath>
  </defs>
  <g id="QR_edu" clip-path="url(#clip-path)">
    <rect id="Rectngulo_1318" data-name="Rectngulo 1318" width="169.515" height="169.514" transform="translate(-9.831 -9.831)"/>
  </g>
</svg>
