<svg xmlns="http://www.w3.org/2000/svg" xmlns:xlink="http://www.w3.org/1999/xlink" width="154.728" height="154.776" viewBox="0 0 154.728 154.776">
  <defs>
    <clipPath id="clip-path">
      <path id="Trazado_1860" data-name="Trazado 1860" d="M327.129,354.886h.045a1.427,1.427,0,1,0-.045,0m5.8,0h.041a1.429,1.429,0,1,0-.041,0m2.9,0h.039a1.428,1.428,0,1,0-.039,0m11.588,0h.041a1.429,1.429,0,1,0-.041,0m2.9,0h.037a1.431,1.431,0,1,0-.037,0m2.9,0h.036a1.433,1.433,0,1,0-.036,0m8.691,0h.038a1.432,1.432,0,1,0-.038,0m2.9,0h.034a1.432,1.432,0,1,0-.034,0m2.9,0h.031a1.434,1.434,0,1,0-.031,0m2.9,0h.03a1.436,1.436,0,1,0-.03,0m11.59,0h.031a1.434,1.434,0,1,0-.031,0m5.8,0h.026a1.437,1.437,0,1,0-.026,0m2.9,0h.024a1.437,1.437,0,1,0-.024,0m5.8,0h.019a1.44,1.44,0,1,0-.019,0m2.9,0h.018a1.442,1.442,0,1,0-.018,0m5.8,0h.014a1.443,1.443,0,1,0-.014,0m5.8,0h.009a1.445,1.445,0,1,0-.009,0m5.8,0h.006a1.448,1.448,0,1,0-.006,0m2.9,0h0a1.449,1.449,0,1,0,1.448-1.449,1.452,1.452,0,0,0-1.448,1.449m2.9,0a1.45,1.45,0,1,0,1.449-1.449,1.452,1.452,0,0,0-1.449,1.449m20.282,0a1.449,1.449,0,1,0,1.449-1.449,1.45,1.45,0,0,0-1.449,1.449m-124.646-2.9.062,0a1.386,1.386,0,1,0-.062,0m8.691,0,.063,0a1.386,1.386,0,1,0-.063,0m2.9,0,.062,0a1.386,1.386,0,1,0-.062,0m8.691,0,.062,0a1.386,1.386,0,1,0-.062,0m14.487,0,.062,0a1.386,1.386,0,1,0-.062,0m2.9,0,.062,0a1.387,1.387,0,1,0-.062,0m2.9,0,.057,0a1.385,1.385,0,1,0-.057,0m2.9,0,.055,0a1.385,1.385,0,1,0-.055,0m2.9,0,.054,0a1.386,1.386,0,1,0-.054,0m2.9,0,.051,0a1.384,1.384,0,1,0-.051,0m2.9,0,.048,0a1.383,1.383,0,1,0-.048,0m11.588,0,.051,0a1.384,1.384,0,1,0-.051,0m2.9,0,.051,0a1.384,1.384,0,1,0-.051,0m2.9,0,.045,0a1.382,1.382,0,1,0-.045,0m23.177,0,.047,0a1.384,1.384,0,1,0-.047,0m20.282,0,.045,0a1.382,1.382,0,1,0-.045,0m8.691,0,.047,0a1.382,1.382,0,1,0-.047,0m-118.845-2.9.1,0a1.363,1.363,0,1,0-.1,0m2.9,0,.1,0a1.362,1.362,0,1,0-.1,0m5.8,0,.1,0a1.363,1.363,0,1,0-.1,0m5.8,0,.091,0a1.362,1.362,0,1,0-.091,0m2.9,0,.089,0a1.362,1.362,0,1,0-.089,0m11.59,0,.089,0a1.362,1.362,0,1,0-.089,0m2.9,0,.087,0a1.362,1.362,0,1,0-.087,0m2.9,0,.086,0a1.362,1.362,0,1,0-.086,0m17.383,0,.081,0a1.362,1.362,0,1,0-.081,0m5.8,0,.08,0a1.363,1.363,0,1,0-.08,0m2.9,0,.081,0a1.363,1.363,0,1,0-.081,0m2.9,0,.079,0a1.36,1.36,0,1,0-.079,0m2.9,0,.074,0a1.362,1.362,0,1,0-.074,0m5.8,0,.07,0a1.36,1.36,0,1,0-.07,0m8.693,0,.07,0a1.358,1.358,0,1,0-.07,0m5.8,0,.068,0a1.36,1.36,0,1,0-.068,0m11.589,0,.066,0a1.359,1.359,0,1,0-.066,0m2.9,0,.065,0a1.359,1.359,0,1,0-.065,0m2.9,0,.061,0a1.355,1.355,0,1,0-.061,0m8.691,0,.062,0a1.356,1.356,0,1,0-.062,0m8.691,0,.063,0a1.357,1.357,0,1,0-.063,0m-124.678-2.9.156.008a1.317,1.317,0,1,0-.156-.008m5.8,0,.153.008a1.317,1.317,0,1,0-.153-.008m2.9,0,.15.008a1.316,1.316,0,1,0-.15-.008m8.691,0,.151.008a1.317,1.317,0,1,0-.151-.008m5.8,0,.147.008a1.316,1.316,0,1,0-.147-.008m2.9,0,.146.008a1.316,1.316,0,1,0-.146-.008m2.9,0,.143.008a1.316,1.316,0,1,0-.143-.008m5.8,0,.138.008a1.316,1.316,0,1,0-.138-.008m2.9,0,.137.008a1.316,1.316,0,1,0-.137-.008m11.589,0,.135.008a1.315,1.315,0,1,0-.135-.008m8.691,0,.133.008a1.316,1.316,0,1,0-.133-.008m5.8,0,.135.008a1.318,1.318,0,1,0-.135-.008m8.692,0,.134.008a1.316,1.316,0,1,0-.134-.008m5.8,0,.129.008a1.316,1.316,0,1,0-.129-.008m2.9,0,.126.008a1.316,1.316,0,1,0-.126-.008m8.691,0,.128.008a1.316,1.316,0,1,0-.128-.008m2.9,0,.126.008a1.317,1.317,0,1,0-.126-.008m2.9,0,.123.008a1.315,1.315,0,1,0-.123-.008m5.8,0,.119.008a1.316,1.316,0,1,0-.119-.008m5.8,0,.115.008a1.315,1.315,0,1,0-.115-.008m5.8,0,.109.008a1.313,1.313,0,1,0-.109-.008m2.9,0,.108.008a1.314,1.314,0,1,0-.108-.008m5.8,0,.1.008a1.31,1.31,0,1,0-.1-.008m2.9,0,.1.008a1.312,1.312,0,1,0-.1-.008m-124.727-2.9.245.009a1.291,1.291,0,1,0-.245-.009m5.8,0,.242.009a1.292,1.292,0,1,0-.242-.009m5.8,0,.239.009a1.292,1.292,0,1,0-.239-.009m2.9,0,.234.009a1.293,1.293,0,1,0-.234-.009m5.8,0,.233.009a1.295,1.295,0,1,0-.233-.009m2.9,0,.231.009a1.294,1.294,0,1,0-.231-.009m8.691,0,.231.009a1.3,1.3,0,1,0-.231-.009m2.9,0,.228.009a1.295,1.295,0,1,0-.228-.009m5.8,0,.224.009a1.3,1.3,0,1,0-.224-.009m5.8,0,.221.009a1.3,1.3,0,1,0-.221-.009m2.9,0,.218.009a1.3,1.3,0,1,0-.218-.009m2.9,0,.215.009a1.3,1.3,0,1,0-.215-.009m2.9,0,.21.009a1.3,1.3,0,1,0-.21-.009m2.9,0,.21.009a1.3,1.3,0,1,0-.21-.009m2.9,0,.207.009a1.3,1.3,0,1,0-.207-.009m5.8,0,.21.009a1.3,1.3,0,1,0-.21-.009m5.8,0,.2.009a1.3,1.3,0,1,0-.2-.009m2.9,0,.2.009a1.3,1.3,0,1,0-.2-.009m2.9,0,.2.009a1.3,1.3,0,1,0-.2-.009m5.8,0,.194.009a1.3,1.3,0,1,0-.194-.009m2.9,0,.191.009a1.3,1.3,0,1,0-.191-.009m2.9,0,.189.009a1.3,1.3,0,1,0-.189-.009m5.8,0,.183.009a1.3,1.3,0,1,0-.183-.009m5.8,0,.18.009a1.3,1.3,0,1,0-.18-.009m2.9,0,.176.009a1.3,1.3,0,1,0-.176-.009m2.9,0,.175.009a1.305,1.305,0,1,0-.175-.009m2.9,0,.173.009a1.305,1.305,0,1,0-.173-.009m2.9,0,.171.009a1.3,1.3,0,1,0-.171-.009m2.9,0,.168.009a1.3,1.3,0,1,0-.168-.009m5.8,0,.165.009a1.3,1.3,0,1,0-.165-.009m5.8,0,.161.009a1.3,1.3,0,1,0-.161-.009m-116-2.9.267.01a1.279,1.279,0,1,0-.267-.01m5.8,0,.263.01a1.281,1.281,0,1,0-.263-.01m17.385,0,.261.01a1.279,1.279,0,1,0-.261-.01m8.691,0,.263.01a1.28,1.28,0,1,0-.263-.01m2.9,0,.261.01a1.282,1.282,0,1,0-.261-.01m11.589,0,.258.01a1.282,1.282,0,1,0-.258-.01m8.691,0,.266.01a1.281,1.281,0,1,0-.266-.01m17.385,0,.261.01a1.28,1.28,0,1,0-.261-.01m5.8,0,.258.01a1.282,1.282,0,1,0-.258-.01m5.8,0,.252.01a1.284,1.284,0,1,0-.252-.01m8.691,0,.252.01a1.283,1.283,0,1,0-.252-.01m11.589,0,.252.01a1.283,1.283,0,1,0-.252-.01m2.9,0,.252.01a1.284,1.284,0,1,0-.252-.01m5.8,0,.246.01a1.283,1.283,0,1,0-.246-.01m-124.679-2.9.341.012a1.255,1.255,0,1,0-.341-.012m2.9,0,.338.012a1.254,1.254,0,1,0-.338-.012m2.9,0,.336.012a1.256,1.256,0,1,0-.336-.012m2.9,0,.335.012a1.257,1.257,0,1,0-.335-.012m11.589,0,.335.012a1.257,1.257,0,1,0-.335-.012m5.8,0,.332.012a1.258,1.258,0,1,0-.332-.012m5.8,0,.326.012a1.258,1.258,0,1,0-.326-.012m5.8,0,.323.012a1.259,1.259,0,1,0-.323-.012m2.9,0,.318.012a1.259,1.259,0,1,0-.318-.012m2.9,0,.318.012a1.262,1.262,0,1,0-.318-.012m2.9,0,.317.012a1.262,1.262,0,1,0-.317-.012m5.8,0,.311.012a1.264,1.264,0,1,0-.311-.012m5.8,0,.3.012a1.264,1.264,0,1,0-.3-.012m2.9,0,.3.012a1.264,1.264,0,1,0-.3-.012m2.9,0,.3.012a1.265,1.265,0,1,0-.3-.012m2.9,0,.3.012a1.264,1.264,0,1,0-.3-.012m14.485,0,.3.012a1.266,1.266,0,1,0-.3-.012m2.9,0,.3.012a1.264,1.264,0,1,0-.3-.012m2.9,0,.3.012a1.267,1.267,0,1,0-.3-.012m5.8,0,.293.012a1.267,1.267,0,1,0-.293-.012m2.9,0,.29.012a1.268,1.268,0,1,0-.29-.012m2.9,0,.29.012a1.269,1.269,0,1,0-.29-.012m2.9,0,.285.012a1.269,1.269,0,1,0-.285-.012m2.9,0,.282.012a1.27,1.27,0,1,0-.282-.012m5.8,0,.278.012a1.271,1.271,0,1,0-.278-.012m5.8,0,.275.012a1.272,1.272,0,1,0-.275-.012m5.8,0,.272.012a1.274,1.274,0,1,0-.272-.012m2.9,0,.27.012a1.274,1.274,0,1,0-.27-.012m2.9,0,.266.012a1.273,1.273,0,1,0-.266-.012m-127.6-2.9.387.013a1.237,1.237,0,1,0-.387-.013m8.691,0,.389.013a1.237,1.237,0,1,0-.389-.013m11.59,0,.389.013a1.237,1.237,0,1,0-.389-.013m2.9,0,.387.013a1.236,1.236,0,1,0-.387-.013m2.9,0,.384.013a1.237,1.237,0,1,0-.384-.013m5.8,0,.38.013a1.238,1.238,0,1,0-.38-.013m2.9,0,.378.013a1.24,1.24,0,1,0-.378-.013m2.9,0,.377.013a1.239,1.239,0,1,0-.377-.013m2.9,0,.372.013a1.24,1.24,0,1,0-.372-.013m2.9,0,.372.013a1.24,1.24,0,1,0-.372-.013m2.9,0,.37.013a1.242,1.242,0,1,0-.37-.013m11.589,0,.368.013a1.243,1.243,0,1,0-.368-.013m2.9,0,.368.013a1.243,1.243,0,1,0-.368-.013m5.8,0,.368.013a1.243,1.243,0,1,0-.368-.013m2.9,0,.362.013a1.245,1.245,0,1,0-.362-.013m5.8,0,.357.013a1.245,1.245,0,1,0-.357-.013m5.8,0,.353.013a1.246,1.246,0,1,0-.353-.013m8.693,0,.353.013a1.245,1.245,0,1,0-.353-.013m5.8,0,.35.013a1.248,1.248,0,1,0-.35-.013m2.9,0,.348.013a1.247,1.247,0,1,0-.348-.013m5.8,0,.342.013a1.25,1.25,0,1,0-.342-.013m11.589,0,.342.013a1.249,1.249,0,1,0-.342-.013m2.9,0,.341.013a1.249,1.249,0,1,0-.341-.013m-133.378-2.9.443.018a1.211,1.211,0,1,0-.443-.018m8.691,0,.443.018a1.21,1.21,0,1,0-.443-.018m5.8,0,.438.018a1.211,1.211,0,1,0-.438-.018m2.9,0,.437.018a1.212,1.212,0,1,0-.437-.018m11.59,0,.435.018a1.211,1.211,0,1,0-.435-.018m2.9,0,.435.018a1.213,1.213,0,1,0-.435-.018m2.9,0,.434.018a1.214,1.214,0,1,0-.434-.018m8.693,0,.434.018a1.213,1.213,0,1,0-.434-.018m5.8,0,.429.018a1.215,1.215,0,1,0-.429-.018m2.9,0,.429.018a1.215,1.215,0,1,0-.429-.018m2.9,0,.423.018a1.214,1.214,0,1,0-.423-.018m2.9,0,.423.018a1.217,1.217,0,1,0-.423-.018m2.9,0,.422.018a1.217,1.217,0,1,0-.422-.018m2.9,0,.419.018a1.217,1.217,0,1,0-.419-.018m2.9,0,.416.018a1.218,1.218,0,1,0-.416-.018m2.9,0,.411.018a1.22,1.22,0,1,0-.411-.018m2.9,0,.41.018a1.219,1.219,0,1,0-.41-.018m5.8,0,.41.018a1.219,1.219,0,1,0-.41-.018m5.8,0,.4.018a1.222,1.222,0,1,0-.4-.018m11.589,0,.4.018a1.221,1.221,0,1,0-.4-.018m2.9,0,.4.018a1.222,1.222,0,1,0-.4-.018m20.282,0,.4.018a1.222,1.222,0,1,0-.4-.018m2.9,0,.4.018a1.222,1.222,0,1,0-.4-.018m2.9,0,.4.018a1.223,1.223,0,1,0-.4-.018m2.9,0,.395.018a1.223,1.223,0,1,0-.395-.018m2.9,0,.393.018a1.225,1.225,0,1,0-.393-.018m8.693,0,.393.018a1.224,1.224,0,1,0-.393-.018m2.9,0,.392.018a1.224,1.224,0,1,0-.392-.018m-147.846-2.9.477.018a1.2,1.2,0,1,0-.477-.018m2.9,0,.476.018a1.2,1.2,0,1,0-.476-.018m23.177,0,.476.018a1.2,1.2,0,1,0-.476-.018m8.693,0,.474.018a1.2,1.2,0,1,0-.474-.018m17.383,0,.476.018a1.2,1.2,0,1,0-.476-.018m8.691,0,.476.018a1.2,1.2,0,1,0-.476-.018m2.9,0,.474.018a1.2,1.2,0,1,0-.474-.018m20.282,0,.474.018a1.2,1.2,0,1,0-.474-.018m2.9,0,.476.018a1.2,1.2,0,1,0-.476-.018m2.9,0,.47.018a1.2,1.2,0,1,0-.47-.018m5.8,0,.465.018a1.2,1.2,0,1,0-.465-.018m2.9,0,.464.018a1.205,1.205,0,1,0-.464-.018m2.9,0,.461.018a1.205,1.205,0,1,0-.461-.018m5.8,0,.458.018a1.206,1.206,0,1,0-.458-.018m2.9,0,.456.018a1.208,1.208,0,1,0-.456-.018m5.8,0,.45.018a1.208,1.208,0,1,0-.45-.018m2.9,0,.45.018a1.209,1.209,0,1,0-.45-.018m5.8,0,.444.018a1.211,1.211,0,1,0-.444-.018m11.59,0,.444.018a1.211,1.211,0,1,0-.444-.018m5.8,0,.44.018a1.21,1.21,0,1,0-.44-.018m-144.958-2.9.534.019a1.182,1.182,0,1,0-.534-.019m2.9,0,.531.019a1.183,1.183,0,1,0-.531-.019m5.8,0,.527.019a1.184,1.184,0,1,0-.527-.019m2.9,0,.527.019a1.185,1.185,0,1,0-.527-.019m2.9,0,.522.019a1.185,1.185,0,1,0-.522-.019m2.9,0,.519.019a1.186,1.186,0,1,0-.519-.019m8.691,0,.521.019a1.186,1.186,0,1,0-.521-.019m11.588,0,.521.019a1.187,1.187,0,1,0-.521-.019m5.8,0,.518.019a1.187,1.187,0,1,0-.518-.019m2.9,0,.516.019a1.187,1.187,0,1,0-.516-.019m2.9,0,.513.019a1.188,1.188,0,1,0-.513-.019m5.8,0,.509.019a1.189,1.189,0,1,0-.509-.019m5.8,0,.506.019a1.191,1.191,0,1,0-.506-.019m5.8,0,.5.019a1.19,1.19,0,1,0-.5-.019m2.9,0,.5.019a1.193,1.193,0,1,0-.5-.019m2.9,0,.5.019a1.194,1.194,0,1,0-.5-.019m5.8,0,.488.019a1.195,1.195,0,1,0-.488-.019m5.8,0,.486.019a1.2,1.2,0,1,0-.486-.019m11.589,0,.488.019a1.195,1.195,0,1,0-.488-.019m8.69,0,.489.019a1.2,1.2,0,1,0-.489-.019m2.9,0,.486.019a1.194,1.194,0,1,0-.486-.019m8.691,0,.486.019a1.2,1.2,0,1,0-.486-.019m2.9,0,.485.019a1.2,1.2,0,1,0-.485-.019m8.691,0,.485.019a1.2,1.2,0,1,0-.485-.019m2.9,0,.483.019a1.2,1.2,0,1,0-.483-.019m8.691,0,.483.019a1.2,1.2,0,1,0-.483-.019m2.9,0,.482.019a1.2,1.2,0,1,0-.482-.019m5.8,0,.477.019a1.2,1.2,0,1,0-.477-.019m-144.966-2.9.579.026a1.162,1.162,0,1,0-.579-.026m5.8,0,.573.026a1.161,1.161,0,1,0-.573-.026m5.8,0,.57.026a1.164,1.164,0,1,0-.57-.026m5.8,0,.566.026a1.163,1.163,0,1,0-.566-.026m2.9,0,.563.026a1.166,1.166,0,1,0-.563-.026m2.9,0,.563.026a1.166,1.166,0,1,0-.563-.026m2.9,0,.558.026a1.165,1.165,0,1,0-.558-.026m5.8,0,.557.026a1.168,1.168,0,1,0-.557-.026m2.9,0,.552.026a1.168,1.168,0,1,0-.552-.026m2.9,0,.551.026a1.168,1.168,0,1,0-.551-.026m5.8,0,.548.026a1.169,1.169,0,1,0-.548-.026m11.59,0,.546.026a1.169,1.169,0,1,0-.546-.026m17.382,0,.548.026a1.17,1.17,0,1,0-.548-.026m2.9,0,.54.026a1.17,1.17,0,1,0-.54-.026m5.8,0,.54.026a1.172,1.172,0,1,0-.54-.026m14.487,0,.542.026a1.171,1.171,0,1,0-.542-.026m14.487,0,.542.026a1.17,1.17,0,1,0-.542-.026m8.693,0,.542.026a1.169,1.169,0,1,0-.542-.026m5.8,0,.537.026a1.173,1.173,0,1,0-.537-.026m8.693,0,.537.026a1.172,1.172,0,1,0-.537-.026m5.8,0,.534.026a1.173,1.173,0,1,0-.534-.026m-142.06-2.9.627.026a1.15,1.15,0,1,0-.627-.026m8.693,0,.626.026a1.149,1.149,0,1,0-.626-.026m8.691,0,.626.026a1.149,1.149,0,1,0-.626-.026m2.9,0,.626.026a1.15,1.15,0,1,0-.626-.026m2.9,0,.621.026a1.15,1.15,0,1,0-.621-.026m5.8,0,.618.026a1.152,1.152,0,1,0-.618-.026m5.8,0,.615.026a1.152,1.152,0,1,0-.615-.026m14.488,0,.614.026a1.151,1.151,0,1,0-.614-.026m2.9,0,.612.026a1.152,1.152,0,1,0-.612-.026m2.9,0,.611.026a1.154,1.154,0,1,0-.611-.026m2.9,0,.608.026a1.154,1.154,0,1,0-.608-.026m5.8,0,.6.026a1.156,1.156,0,1,0-.6-.026m2.9,0,.6.026a1.156,1.156,0,1,0-.6-.026m2.9,0,.6.026a1.156,1.156,0,1,0-.6-.026m17.385,0,.6.026a1.156,1.156,0,1,0-.6-.026m2.9,0,.6.026a1.156,1.156,0,1,0-.6-.026m2.9,0,.594.026a1.157,1.157,0,1,0-.594-.026m2.9,0,.593.026a1.157,1.157,0,1,0-.593-.026m2.9,0,.591.026a1.159,1.159,0,1,0-.591-.026m5.8,0,.585.026a1.159,1.159,0,1,0-.585-.026m2.9,0,.585.026a1.16,1.16,0,1,0-.585-.026m17.382,0,.585.026a1.161,1.161,0,1,0-.585-.026m2.9,0,.581.026a1.16,1.16,0,1,0-.581-.026m11.588,0,.582.026a1.16,1.16,0,1,0-.582-.026m2.9,0,.581.026a1.161,1.161,0,1,0-.581-.026m2.9,0,.579.026a1.161,1.161,0,1,0-.579-.026m-144.975-2.9.69.027a1.131,1.131,0,1,0-.69-.027m2.9,0,.689.027a1.132,1.132,0,1,0-.689-.027m2.9,0,.686.027a1.132,1.132,0,1,0-.686-.027m2.9,0,.683.027a1.132,1.132,0,1,0-.683-.027m5.8,0,.68.027a1.135,1.135,0,1,0-.68-.027m5.8,0,.675.027a1.135,1.135,0,1,0-.675-.027m5.8,0,.671.027a1.136,1.136,0,1,0-.671-.027m5.8,0,.666.027a1.137,1.137,0,1,0-.666-.027m2.9,0,.665.027a1.137,1.137,0,1,0-.665-.027m2.9,0,.662.027a1.139,1.139,0,1,0-.662-.027m2.9,0,.66.027a1.138,1.138,0,1,0-.66-.027m2.9,0,.657.027a1.139,1.139,0,1,0-.657-.027m2.9,0,.657.027A1.14,1.14,0,1,0,341,317.2m2.9,0,.656.027a1.141,1.141,0,1,0-.656-.027m5.8,0,.65.027a1.142,1.142,0,1,0-.65-.027m2.9,0,.648.027a1.143,1.143,0,1,0-.648-.027m17.385,0,.647.027a1.142,1.142,0,1,0-.647-.027m2.9,0,.642.027a1.144,1.144,0,1,0-.642-.027m8.691,0,.648.027a1.143,1.143,0,1,0-.648-.027m8.693,0,.647.027a1.142,1.142,0,1,0-.647-.027m2.9,0,.645.027a1.143,1.143,0,1,0-.645-.027m8.691,0,.647.027a1.143,1.143,0,1,0-.647-.027m8.692,0,.645.027a1.142,1.142,0,1,0-.645-.027m2.9,0,.642.027a1.143,1.143,0,1,0-.642-.027m5.8,0,.639.027a1.145,1.145,0,1,0-.639-.027m2.9,0,.635.027a1.144,1.144,0,1,0-.635-.027m8.691,0,.636.027a1.145,1.145,0,1,0-.636-.027m2.9,0,.635.027a1.146,1.146,0,1,0-.635-.027m5.8,0,.63.027a1.145,1.145,0,1,0-.63-.027m5.8,0,.627.027a1.148,1.148,0,1,0-.627-.027m-150.76-2.9.729.03a1.118,1.118,0,1,0-.729-.03m8.691,0,.729.03a1.119,1.119,0,1,0-.729-.03m2.9,0,.729.03a1.119,1.119,0,1,0-.729-.03m5.8,0,.722.03a1.121,1.121,0,1,0-.722-.03m2.9,0,.722.03a1.121,1.121,0,1,0-.722-.03m2.9,0,.717.03a1.121,1.121,0,1,0-.717-.03m2.9,0,.716.03a1.122,1.122,0,1,0-.716-.03m8.691,0,.717.03a1.122,1.122,0,1,0-.717-.03m2.9,0,.714.03a1.123,1.123,0,1,0-.714-.03m2.9,0,.713.03a1.122,1.122,0,1,0-.713-.03m2.9,0,.71.03a1.123,1.123,0,1,0-.71-.03m8.691,0,.711.03a1.124,1.124,0,1,0-.711-.03m2.9,0,.71.03a1.124,1.124,0,1,0-.71-.03m5.8,0,.705.03a1.125,1.125,0,1,0-.705-.03m11.59,0,.7.03a1.123,1.123,0,1,0-.7-.03m2.9,0,.7.03a1.125,1.125,0,1,0-.7-.03m2.9,0,.7.03a1.127,1.127,0,1,0-.7-.03m2.9,0,.7.03a1.126,1.126,0,1,0-.7-.03m14.488,0,.7.03a1.125,1.125,0,1,0-.7-.03m11.586,0,.7.03a1.126,1.126,0,1,0-.7-.03m2.9,0,.7.03a1.125,1.125,0,1,0-.7-.03m20.281,0,.7.03a1.126,1.126,0,1,0-.7-.03m11.588,0,.7.03a1.127,1.127,0,1,0-.7-.03m2.9,0,.695.03a1.127,1.127,0,1,0-.695-.03m2.9,0,.692.03a1.126,1.126,0,1,0-.692-.03m2.9,0,.69.03a1.129,1.129,0,1,0-.69-.03M294.53,311.4l.776.033a1.105,1.105,0,1,0-.776-.033m5.8,0,.771.033a1.106,1.106,0,1,0-.771-.033m5.8,0,.768.033a1.108,1.108,0,1,0-.768-.033m8.692,0,.767.033a1.107,1.107,0,1,0-.767-.033m2.9,0,.764.033a1.109,1.109,0,1,0-.764-.033m2.9,0,.762.033a1.108,1.108,0,1,0-.762-.033m5.8,0,.758.033a1.109,1.109,0,1,0-.758-.033m2.9,0,.756.033a1.11,1.11,0,1,0-.756-.033m2.9,0,.753.033a1.111,1.111,0,1,0-.753-.033m11.589,0,.755.033a1.111,1.111,0,1,0-.755-.033m2.9,0,.753.033a1.111,1.111,0,1,0-.753-.033m2.9,0,.752.033a1.112,1.112,0,1,0-.752-.033m8.692,0,.75.033a1.111,1.111,0,1,0-.75-.033m2.9,0,.749.033a1.111,1.111,0,1,0-.749-.033m14.487,0,.746.033a1.112,1.112,0,1,0-.746-.033m2.9,0,.746.033a1.113,1.113,0,1,0-.746-.033m14.488,0,.746.033a1.111,1.111,0,1,0-.746-.033m2.9,0,.744.033a1.113,1.113,0,1,0-.744-.033m2.9,0,.743.033a1.114,1.114,0,1,0-.743-.033m8.691,0,.744.033a1.113,1.113,0,1,0-.744-.033m2.9,0,.74.033a1.113,1.113,0,1,0-.74-.033m5.8,0,.738.033a1.115,1.115,0,1,0-.738-.033m2.9,0,.734.033a1.115,1.115,0,1,0-.734-.033m8.693,0,.732.033a1.114,1.114,0,1,0-.732-.033m8.69,0,.737.033a1.115,1.115,0,1,0-.737-.033m2.9,0,.734.033a1.115,1.115,0,1,0-.734-.033m2.9,0,.731.033a1.116,1.116,0,1,0-.731-.033m2.9,0,.729.033a1.117,1.117,0,1,0-.729-.033m-147.888-2.9.857.033a1.088,1.088,0,1,0-.857-.033m5.8,0,.852.033a1.09,1.09,0,1,0-.852-.033m8.691,0,.852.033a1.09,1.09,0,1,0-.852-.033m5.8,0,.846.033a1.09,1.09,0,1,0-.846-.033m2.9,0,.846.033a1.091,1.091,0,1,0-.846-.033m8.693,0,.846.033a1.09,1.09,0,1,0-.846-.033m5.8,0,.842.033a1.091,1.091,0,1,0-.842-.033m5.8,0,.839.033a1.092,1.092,0,1,0-.839-.033m5.8,0,.834.033a1.094,1.094,0,1,0-.834-.033m5.8,0,.828.033a1.093,1.093,0,1,0-.828-.033m5.8,0,.825.033a1.1,1.1,0,1,0-.825-.033m5.8,0,.821.033a1.1,1.1,0,1,0-.821-.033m2.9,0,.819.033a1.1,1.1,0,1,0-.819-.033m8.691,0,.818.033a1.1,1.1,0,1,0-.818-.033m2.9,0,.815.033a1.1,1.1,0,1,0-.815-.033m8.691,0,.816.033a1.1,1.1,0,1,0-.816-.033m5.8,0,.815.033A1.1,1.1,0,1,0,393,308.5m2.9,0,.81.033a1.1,1.1,0,1,0-.81-.033m2.9,0,.809.033a1.1,1.1,0,1,0-.809-.033m2.9,0,.809.033a1.1,1.1,0,1,0-.809-.033m2.9,0,.8.033a1.1,1.1,0,1,0-.8-.033m2.9,0,.8.033a1.1,1.1,0,1,0-.8-.033m2.9,0,.8.033a1.1,1.1,0,1,0-.8-.033m2.9,0,.8.033a1.1,1.1,0,1,0-.8-.033m2.9,0,.8.033a1.1,1.1,0,1,0-.8-.033m5.8,0,.791.033a1.1,1.1,0,1,0-.791-.033m2.9,0,.791.033a1.1,1.1,0,1,0-.791-.033m2.9,0,.786.033a1.1,1.1,0,1,0-.786-.033m5.8,0,.783.033a1.1,1.1,0,1,0-.783-.033m5.8,0,.78.033a1.1,1.1,0,1,0-.78-.033m5.8,0,.776.033a1.107,1.107,0,1,0-.776-.033m-150.8-2.9.917.036a1.074,1.074,0,1,0-.917-.036m2.9,0,.914.036a1.075,1.075,0,1,0-.914-.036m5.8,0,.911.036a1.076,1.076,0,1,0-.911-.036m2.9,0,.908.036a1.075,1.075,0,1,0-.908-.036m2.9,0,.9.036a1.078,1.078,0,1,0-.9-.036m8.691,0,.9.036a1.077,1.077,0,1,0-.9-.036m2.9,0,.9.036a1.077,1.077,0,1,0-.9-.036m2.9,0,.9.036a1.078,1.078,0,1,0-.9-.036m2.9,0,.9.036a1.078,1.078,0,1,0-.9-.036m2.9,0,.9.036a1.079,1.079,0,1,0-.9-.036m2.9,0,.894.036a1.079,1.079,0,1,0-.894-.036m8.691,0,.9.036a1.079,1.079,0,1,0-.9-.036m17.385,0,.894.036a1.079,1.079,0,1,0-.894-.036m5.8,0,.891.036a1.079,1.079,0,1,0-.891-.036m2.9,0,.89.036a1.08,1.08,0,1,0-.89-.036m2.9,0,.887.036a1.08,1.08,0,1,0-.887-.036m2.9,0,.881.036a1.081,1.081,0,1,0-.881-.036m2.9,0,.881.036a1.082,1.082,0,1,0-.881-.036m2.9,0,.881.036a1.082,1.082,0,1,0-.881-.036m2.9,0,.879.036a1.081,1.081,0,1,0-.879-.036m5.8,0,.875.036a1.083,1.083,0,1,0-.875-.036m8.693,0,.875.036a1.082,1.082,0,1,0-.875-.036m5.8,0,.872.036a1.084,1.084,0,1,0-.872-.036m14.487,0,.872.036a1.083,1.083,0,1,0-.872-.036m2.9,0,.869.036a1.085,1.085,0,1,0-.869-.036m2.9,0,.866.036a1.084,1.084,0,1,0-.866-.036m5.8,0,.861.036a1.086,1.086,0,1,0-.861-.036m8.693,0,.863.036a1.085,1.085,0,1,0-.863-.036m2.9,0,.861.036a1.085,1.085,0,1,0-.861-.036m2.9,0,.858.036a1.086,1.086,0,1,0-.858-.036m2.9,0,.857.036a1.087,1.087,0,1,0-.857-.036m-150.767-2.9.966.039a1.064,1.064,0,1,0-.966-.039m2.9,0,.963.039a1.065,1.065,0,1,0-.963-.039m2.9,0,.962.039a1.066,1.066,0,1,0-.962-.039m2.9,0,.959.039a1.066,1.066,0,1,0-.959-.039m8.691,0,.959.039a1.066,1.066,0,1,0-.959-.039m8.693,0,.959.039a1.065,1.065,0,1,0-.959-.039m2.9,0,.957.039a1.067,1.067,0,1,0-.957-.039m2.9,0,.956.039a1.067,1.067,0,1,0-.956-.039m14.486,0,.957.039a1.067,1.067,0,1,0-.957-.039m2.9,0,.954.039a1.066,1.066,0,1,0-.954-.039m5.8,0,.95.039a1.068,1.068,0,1,0-.95-.039m5.8,0,.945.039a1.067,1.067,0,1,0-.945-.039m2.9,0,.942.039a1.069,1.069,0,1,0-.942-.039m14.487,0,.939.039a1.069,1.069,0,1,0-.939-.039m5.8,0,.938.039a1.069,1.069,0,1,0-.938-.039m8.691,0,.939.039a1.07,1.07,0,1,0-.939-.039m2.9,0,.938.039a1.069,1.069,0,1,0-.938-.039m2.9,0,.935.039a1.07,1.07,0,1,0-.935-.039m2.9,0,.933.039a1.07,1.07,0,1,0-.933-.039m11.59,0,.933.039a1.07,1.07,0,1,0-.933-.039m5.8,0,.929.039a1.072,1.072,0,1,0-.929-.039m5.8,0,.923.039a1.071,1.071,0,1,0-.923-.039m5.8,0,.921.039a1.073,1.073,0,1,0-.921-.039m2.9,0,.917.039a1.073,1.073,0,1,0-.917-.039m2.9,0,.915.039a1.073,1.073,0,1,0-.915-.039m11.588,0,.917.039a1.073,1.073,0,1,0-.917-.039m-136.293-2.9,1.038.041a1.053,1.053,0,1,0-1.038-.041m2.9,0,1.034.041a1.053,1.053,0,1,0-1.034-.041m5.8,0,1.031.041a1.054,1.054,0,1,0-1.031-.041m11.59,0,1.029.041a1.054,1.054,0,1,0-1.029-.041m2.9,0,1.028.041a1.054,1.054,0,1,0-1.028-.041m2.9,0,1.025.041a1.055,1.055,0,1,0-1.025-.041m5.8,0,1.02.041a1.055,1.055,0,1,0-1.02-.041m2.9,0,1.02.041a1.055,1.055,0,1,0-1.02-.041m2.9,0,1.019.041a1.056,1.056,0,1,0-1.019-.041m2.9,0,1.016.041a1.056,1.056,0,1,0-1.016-.041m2.9,0,1.013.041a1.056,1.056,0,1,0-1.013-.041m5.8,0,1.01.041a1.057,1.057,0,1,0-1.01-.041m2.9,0,1.005.041a1.057,1.057,0,1,0-1.005-.041m2.9,0,1.005.041a1.058,1.058,0,1,0-1.005-.041m5.8,0,1,.041a1.058,1.058,0,1,0-1-.041m2.9,0,1,.041a1.059,1.059,0,1,0-1-.041m2.9,0,.993.041a1.06,1.06,0,1,0-.993-.041m2.9,0,.992.041a1.06,1.06,0,1,0-.992-.041m8.693,0,1,.041a1.058,1.058,0,1,0-1-.041m5.8,0,.992.041a1.06,1.06,0,1,0-.992-.041m2.9,0,.989.041a1.06,1.06,0,1,0-.989-.041m5.8,0,.984.041a1.062,1.062,0,1,0-.984-.041m11.59,0,.984.041a1.061,1.061,0,1,0-.984-.041m5.8,0,.981.041a1.062,1.062,0,1,0-.981-.041m5.8,0,.974.041a1.062,1.062,0,1,0-.974-.041m8.691,0,.975.041a1.062,1.062,0,1,0-.975-.041m5.8,0,.972.041a1.063,1.063,0,1,0-.972-.041m2.9,0,.971.041a1.064,1.064,0,1,0-.971-.041m2.9,0,.968.041a1.064,1.064,0,1,0-.968-.041m2.9,0,.966.041A1.065,1.065,0,1,0,445,299.8m-147.881-2.9,1.086.044a1.045,1.045,0,1,0-1.086-.044m2.9,0,1.085.044a1.046,1.046,0,1,0-1.085-.044m2.9,0,1.082.044a1.046,1.046,0,1,0-1.082-.044m2.9,0,1.08.044a1.046,1.046,0,1,0-1.08-.044m5.8,0,1.074.044a1.047,1.047,0,1,0-1.074-.044m11.59,0,1.074.044a1.046,1.046,0,1,0-1.074-.044m2.9,0,1.073.044a1.048,1.048,0,1,0-1.073-.044m2.9,0,1.073.044A1.048,1.048,0,1,0,329,296.9m5.8,0,1.067.044a1.048,1.048,0,1,0-1.067-.044m5.8,0,1.064.044a1.048,1.048,0,1,0-1.064-.044m20.281,0,1.064.044a1.049,1.049,0,1,0-1.064-.044m2.9,0,1.061.044a1.049,1.049,0,1,0-1.061-.044m5.8,0,1.056.044a1.05,1.05,0,1,0-1.056-.044m5.8,0,1.049.044a1.049,1.049,0,1,0-1.049-.044m20.281,0,1.052.044a1.05,1.05,0,1,0-1.052-.044m2.9,0,1.049.044a1.05,1.05,0,1,0-1.049-.044m2.9,0,1.049.044a1.051,1.051,0,1,0-1.049-.044m8.691,0,1.049.044a1.051,1.051,0,1,0-1.049-.044m8.693,0,1.047.044a1.05,1.05,0,1,0-1.047-.044m8.691,0,1.047.044a1.051,1.051,0,1,0-1.047-.044m2.9,0,1.047.044a1.051,1.051,0,1,0-1.047-.044m2.9,0,1.043.044a1.05,1.05,0,1,0-1.043-.044m5.8,0,1.041.044a1.052,1.052,0,1,0-1.041-.044m5.8,0,1.035.044a1.052,1.052,0,1,0-1.035-.044M294.194,294l1.112.043a1.043,1.043,0,1,0-1.112-.043m14.485,0,1.112.043a1.044,1.044,0,1,0-1.112-.043m8.693,0,1.11.043a1.043,1.043,0,1,0-1.11-.043m8.691,0,1.112.043a1.043,1.043,0,1,0-1.112-.043m5.8,0,1.107.043a1.044,1.044,0,1,0-1.107-.043m2.9,0,1.106.043a1.043,1.043,0,1,0-1.106-.043m5.8,0,1.1.043a1.045,1.045,0,1,0-1.1-.043m14.487,0,1.1.043a1.044,1.044,0,1,0-1.1-.043m2.9,0,1.1.043a1.044,1.044,0,1,0-1.1-.043m14.487,0,1.1.043a1.045,1.045,0,1,0-1.1-.043m5.8,0,1.094.043a1.045,1.045,0,1,0-1.094-.043m8.693,0,1.094.043a1.044,1.044,0,1,0-1.094-.043m5.8,0,1.092.043A1.046,1.046,0,1,0,392.72,294m2.9,0,1.091.043a1.046,1.046,0,1,0-1.091-.043m2.9,0,1.086.043A1.045,1.045,0,1,0,398.52,294m11.588,0,1.088.043a1.046,1.046,0,1,0-1.088-.043m2.9,0,1.085.043a1.046,1.046,0,1,0-1.085-.043m11.588,0,1.086.043A1.047,1.047,0,1,0,424.6,294m11.59,0,1.086.043a1.046,1.046,0,1,0-1.086-.043m-140.935-2.851h.054a1.422,1.422,0,1,0-.054,0m5.8,0h.049a1.426,1.426,0,1,0-.049,0m2.9,0H304a1.426,1.426,0,1,0-.047,0m2.9,0h.045a1.425,1.425,0,1,0-.045,0m5.8,0h.041a1.431,1.431,0,1,0-.041,0m5.8,0h.035a1.434,1.434,0,1,0-.035,0m2.9,0h.034a1.434,1.434,0,1,0-.034,0m5.8,0h.029a1.435,1.435,0,1,0-.029,0m5.8,0h.024a1.437,1.437,0,1,0-.024,0m5.8,0h.021a1.439,1.439,0,1,0-.021,0m2.9,0h.02a1.44,1.44,0,1,0-.02,0m2.9,0h.018a1.44,1.44,0,1,0-.018,0m5.8,0h.013a1.444,1.444,0,1,0-.013,0m5.8,0h.01a1.446,1.446,0,1,0-.01,0m2.9,0h.006a1.446,1.446,0,1,0-.006,0m2.9,0h0a1.447,1.447,0,1,0,1.445-1.449,1.448,1.448,0,0,0-1.445,1.449m11.59,0a1.449,1.449,0,1,0,1.448-1.449,1.449,1.449,0,0,0-1.448,1.449m5.8,0a1.45,1.45,0,1,0,1.451-1.449,1.451,1.451,0,0,0-1.451,1.449m2.9,0a1.45,1.45,0,1,0,1.449-1.449,1.449,1.449,0,0,0-1.449,1.449m2.9,0a1.449,1.449,0,1,0,1.449-1.449,1.45,1.45,0,0,0-1.449,1.449m10.454-.049,1.131.049a1.039,1.039,0,1,0-1.131-.049m2.9,0,1.13.049a1.039,1.039,0,1,0-1.13-.049m5.8,0,1.127.049a1.04,1.04,0,1,0-1.127-.049m2.9,0,1.124.049a1.04,1.04,0,1,0-1.124-.049m5.8,0,1.119.049a1.041,1.041,0,1,0-1.119-.049m11.59,0,1.119.049a1.04,1.04,0,1,0-1.119-.049m5.8,0,1.116.049a1.041,1.041,0,1,0-1.116-.049m2.9,0,1.112.049a1.04,1.04,0,1,0-1.112-.049m2.9,0,1.112.049a1.042,1.042,0,1,0-1.112-.049m-140.954-2.851h.1a1.4,1.4,0,1,0-.1,0m2.9,0h.1a1.4,1.4,0,1,0-.1,0m5.8,0H304a1.4,1.4,0,1,0-.091,0m2.9,0h.092a1.406,1.406,0,1,0-.092,0m8.693,0h.09a1.4,1.4,0,1,0-.09,0m2.9,0h.087a1.406,1.406,0,1,0-.087,0m8.691,0h.089a1.407,1.407,0,1,0-.089,0m2.9,0h.087a1.406,1.406,0,1,0-.087,0m5.8,0h.083a1.41,1.41,0,1,0-.083,0m8.691,0h.084a1.409,1.409,0,1,0-.084,0m5.8,0h.078a1.409,1.409,0,1,0-.078,0m2.9,0h.077a1.413,1.413,0,1,0-.077,0m5.8,0h.071a1.413,1.413,0,1,0-.071,0m5.8,0h.069a1.417,1.417,0,1,0-.069,0m11.589,0h.066a1.417,1.417,0,1,0-.066,0m2.9,0h.065a1.417,1.417,0,1,0-.065,0m5.8,0h.066a1.417,1.417,0,1,0-.066,0m2.9,0h.059a1.42,1.42,0,1,0-.059,0m2.9,0h.058a1.422,1.422,0,1,0-.058,0m2.9,0h.057a1.422,1.422,0,1,0-.057,0m8.692,0h.057a1.421,1.421,0,1,0-.057,0m2.9,0h.054a1.422,1.422,0,1,0-.054,0m8.691,0h.054a1.423,1.423,0,1,0-.054,0m8.693,0h.053a1.422,1.422,0,1,0-.053,0m8.691,0h.054a1.422,1.422,0,1,0-.054,0m2.9,0h.052a1.425,1.425,0,1,0-.052,0m8.691,0h.054a1.422,1.422,0,1,0-.054,0m-147.864-2.9h.158a1.374,1.374,0,1,0-.158,0m5.8,0h.152a1.377,1.377,0,1,0-.152,0m5.8,0h.149a1.377,1.377,0,1,0-.149,0m2.9,0h.144a1.379,1.379,0,1,0-.144,0m2.9,0h.143a1.381,1.381,0,1,0-.143,0m2.9,0h.141a1.381,1.381,0,1,0-.141,0m2.9,0h.137a1.383,1.383,0,1,0-.137,0m5.8,0h.134a1.384,1.384,0,1,0-.134,0m8.691,0h.134a1.384,1.384,0,1,0-.134,0m5.8,0h.131a1.386,1.386,0,1,0-.131,0m8.691,0h.132a1.386,1.386,0,1,0-.132,0m5.8,0h.126a1.388,1.388,0,1,0-.126,0m2.9,0h.126a1.389,1.389,0,1,0-.126,0m8.691,0h.126a1.389,1.389,0,1,0-.126,0m2.9,0h.122a1.388,1.388,0,1,0-.122,0m2.9,0h.12a1.391,1.391,0,1,0-.12,0m2.9,0h.116a1.394,1.394,0,1,0-.116,0m2.9,0h.114a1.393,1.393,0,1,0-.114,0m8.693,0h.12a1.389,1.389,0,1,0-.12,0m8.69,0h.119a1.393,1.393,0,1,0-.119,0m8.691,0h.12a1.392,1.392,0,1,0-.12,0m17.385,0h.117a1.392,1.392,0,1,0-.117,0m2.9,0h.116a1.394,1.394,0,1,0-.116,0m2.9,0h.114a1.393,1.393,0,1,0-.114,0m2.9,0h.11a1.4,1.4,0,1,0-.11,0m2.9,0h.109a1.4,1.4,0,1,0-.109,0m2.9,0h.107a1.4,1.4,0,1,0-.107,0m5.8,0h.1a1.4,1.4,0,1,0-.1,0m2.9,0h.1a1.4,1.4,0,1,0-.1,0m2.9,0h.1a1.4,1.4,0,1,0-.1,0m-139.173-2.9h.2a1.35,1.35,0,1,0-.2,0m11.587,0h.2a1.352,1.352,0,1,0-.2,0m8.693,0h.2a1.351,1.351,0,1,0-.2,0m5.8,0h.2a1.355,1.355,0,1,0-.2,0m2.9,0h.2a1.354,1.354,0,1,0-.2,0m2.9,0h.2a1.354,1.354,0,1,0-.2,0m8.691,0h.2a1.355,1.355,0,1,0-.2,0m5.8,0h.192a1.357,1.357,0,1,0-.192,0m8.691,0h.194a1.357,1.357,0,1,0-.194,0m2.9,0h.19a1.357,1.357,0,1,0-.19,0m11.588,0h.189a1.359,1.359,0,1,0-.189,0m2.9,0h.188a1.359,1.359,0,1,0-.188,0m2.9,0h.189a1.359,1.359,0,1,0-.189,0m2.9,0h.189a1.358,1.358,0,1,0-.189,0m5.8,0h.182a1.363,1.363,0,1,0-.182,0m2.9,0h.18a1.364,1.364,0,1,0-.18,0m2.9,0h.176a1.363,1.363,0,1,0-.176,0m2.9,0h.174a1.366,1.366,0,1,0-.174,0m5.8,0h.17a1.366,1.366,0,1,0-.17,0m8.691,0h.17a1.367,1.367,0,1,0-.17,0m2.9,0h.169a1.368,1.368,0,1,0-.169,0m2.9,0h.167a1.37,1.37,0,1,0-.167,0m2.9,0h.162a1.369,1.369,0,1,0-.162,0m11.588,0h.164a1.37,1.37,0,1,0-.164,0m5.8,0h.16a1.373,1.373,0,1,0-.16,0m2.9,0h.157a1.373,1.373,0,1,0-.157,0m2.9,0h.156a1.375,1.375,0,1,0-.156,0m-144.972-2.9.264,0a1.306,1.306,0,1,0-.264,0m5.8,0,.26,0a1.3,1.3,0,1,0-.26,0m5.8,0,.255,0a1.309,1.309,0,1,0-.255,0m5.8,0,.249,0a1.31,1.31,0,1,0-.249,0m2.9,0,.249,0a1.311,1.311,0,1,0-.249,0m2.9,0,.246,0a1.311,1.311,0,1,0-.246,0m11.59,0,.246,0a1.311,1.311,0,1,0-.246,0m5.8,0,.243,0a1.312,1.312,0,1,0-.243,0m5.8,0,.239,0a1.315,1.315,0,1,0-.239,0m11.59,0,.237,0a1.314,1.314,0,1,0-.237,0m5.8,0,.235,0a1.316,1.316,0,1,0-.235,0m5.8,0,.229,0a1.316,1.316,0,1,0-.229,0m5.8,0,.224,0a1.318,1.318,0,1,0-.224,0m5.8,0,.224,0a1.32,1.32,0,1,0-.224,0m8.691,0,.224,0a1.32,1.32,0,1,0-.224,0m2.9,0,.219,0a1.319,1.319,0,1,0-.219,0m8.691,0,.221,0a1.319,1.319,0,1,0-.221,0m2.9,0,.219,0a1.321,1.321,0,1,0-.219,0m2.9,0,.218,0a1.322,1.322,0,1,0-.218,0m5.8,0,.212,0a1.324,1.324,0,1,0-.212,0m8.691,0,.212,0a1.324,1.324,0,1,0-.212,0m5.8,0,.206,0a1.323,1.323,0,1,0-.206,0m5.8,0,.2,0a1.326,1.326,0,1,0-.2,0m11.59,0,.2,0a1.326,1.326,0,1,0-.2,0m-150.781-2.9.327.008a1.273,1.273,0,1,0-.327-.008m5.8,0,.323.008a1.274,1.274,0,1,0-.323-.008m5.8,0,.318.008a1.274,1.274,0,1,0-.318-.008m11.59,0,.315.008a1.274,1.274,0,1,0-.315-.008m2.9,0,.315.008a1.277,1.277,0,1,0-.315-.008m2.9,0,.314.008a1.277,1.277,0,1,0-.314-.008m2.9,0,.311.008a1.277,1.277,0,1,0-.311-.008m5.8,0,.306.008a1.28,1.28,0,1,0-.306-.008m5.8,0,.3.008a1.28,1.28,0,1,0-.3-.008m2.9,0,.3.008a1.281,1.281,0,1,0-.3-.008m5.8,0,.3.008a1.283,1.283,0,1,0-.3-.008m5.8,0,.291.008a1.283,1.283,0,1,0-.291-.008m8.691,0,.293.008a1.283,1.283,0,1,0-.293-.008m2.9,0,.289.008a1.284,1.284,0,1,0-.289-.008m11.588,0,.288.008a1.284,1.284,0,1,0-.288-.008m2.9,0,.288.008a1.285,1.285,0,1,0-.288-.008m5.8,0,.288.008a1.284,1.284,0,1,0-.288-.008m14.485,0,.285.008a1.287,1.287,0,1,0-.285-.008m5.8,0,.281.008a1.287,1.287,0,1,0-.281-.008m2.9,0,.279.008a1.288,1.288,0,1,0-.279-.008m5.8,0,.273.008a1.289,1.289,0,1,0-.273-.008m5.8,0,.269.008a1.29,1.29,0,1,0-.269-.008m2.9,0,.267.008a1.292,1.292,0,1,0-.267-.008m11.59,0,.267.008a1.292,1.292,0,1,0-.267-.008m5.8,0,.263.008a1.291,1.291,0,1,0-.263-.008m-142.1-2.9.4.009a1.242,1.242,0,1,0-.4-.009m5.8,0,.395.009a1.246,1.246,0,1,0-.395-.009m2.9,0,.392.009a1.244,1.244,0,1,0-.392-.009m2.9,0,.389.009a1.246,1.246,0,1,0-.389-.009m2.9,0,.387.009a1.248,1.248,0,1,0-.387-.009m2.9,0,.386.009a1.247,1.247,0,1,0-.386-.009m2.9,0,.381.009a1.249,1.249,0,1,0-.381-.009m2.9,0,.381.009a1.25,1.25,0,1,0-.381-.009m17.384,0,.381.009a1.25,1.25,0,1,0-.381-.009m2.9,0,.38.009a1.249,1.249,0,1,0-.38-.009m2.9,0,.377.009a1.251,1.251,0,1,0-.377-.009m2.9,0,.375.009a1.252,1.252,0,1,0-.375-.009m2.9,0,.372.009a1.252,1.252,0,1,0-.372-.009m2.9,0,.369.009a1.252,1.252,0,1,0-.369-.009m5.8,0,.366.009a1.255,1.255,0,1,0-.366-.009m5.8,0,.362.009a1.255,1.255,0,1,0-.362-.009m2.9,0,.36.009a1.257,1.257,0,1,0-.36-.009m2.9,0,.357.009a1.257,1.257,0,1,0-.357-.009m2.9,0,.351.009a1.259,1.259,0,1,0-.351-.009m2.9,0,.351.009a1.259,1.259,0,1,0-.351-.009m2.9,0,.35.009a1.259,1.259,0,1,0-.35-.009m5.8,0,.351.009a1.259,1.259,0,1,0-.351-.009m2.9,0,.344.009a1.261,1.261,0,1,0-.344-.009m2.9,0,.344.009a1.263,1.263,0,1,0-.344-.009m14.487,0,.344.009a1.261,1.261,0,1,0-.344-.009m17.383,0,.342.009a1.263,1.263,0,1,0-.342-.009m2.9,0,.341.009a1.262,1.262,0,1,0-.341-.009m2.9,0,.338.009a1.265,1.265,0,1,0-.338-.009m2.9,0,.336.009a1.264,1.264,0,1,0-.336-.009m2.9,0,.333.009a1.265,1.265,0,1,0-.333-.009m2.9,0,.333.009a1.266,1.266,0,1,0-.333-.009m2.9,0,.33.009a1.266,1.266,0,1,0-.33-.009m5.8,0,.326.009a1.268,1.268,0,1,0-.326-.009m-150.794-2.9.462.012a1.216,1.216,0,1,0-.462-.012m11.588,0,.464.012a1.216,1.216,0,1,0-.464-.012m2.9,0,.459.012a1.217,1.217,0,1,0-.459-.012m8.691,0,.459.012a1.217,1.217,0,1,0-.459-.012m5.8,0,.456.012a1.219,1.219,0,1,0-.456-.012m5.8,0,.453.012a1.22,1.22,0,1,0-.453-.012m5.8,0,.447.012a1.221,1.221,0,1,0-.447-.012m2.9,0,.446.012a1.223,1.223,0,1,0-.446-.012m14.486,0,.446.012a1.221,1.221,0,1,0-.446-.012m5.8,0,.441.012a1.224,1.224,0,1,0-.441-.012m2.9,0,.44.012a1.223,1.223,0,1,0-.44-.012m2.9,0,.438.012a1.225,1.225,0,1,0-.438-.012m2.9,0,.435.012a1.225,1.225,0,1,0-.435-.012m5.8,0,.428.012a1.228,1.228,0,1,0-.428-.012m2.9,0,.426.012a1.228,1.228,0,1,0-.426-.012m8.691,0,.434.012a1.225,1.225,0,1,0-.434-.012m2.9,0,.426.012a1.228,1.228,0,1,0-.426-.012m2.9,0,.426.012a1.229,1.229,0,1,0-.426-.012m8.693,0,.425.012a1.228,1.228,0,1,0-.425-.012m2.9,0,.425.012a1.229,1.229,0,1,0-.425-.012m5.8,0,.42.012a1.231,1.231,0,1,0-.42-.012m2.9,0,.417.012a1.231,1.231,0,1,0-.417-.012m2.9,0,.414.012a1.231,1.231,0,1,0-.414-.012m5.8,0,.41.012a1.233,1.233,0,1,0-.41-.012m5.8,0,.407.012a1.235,1.235,0,1,0-.407-.012m2.9,0,.4.012a1.236,1.236,0,1,0-.4-.012m8.693,0,.405.012a1.234,1.234,0,1,0-.405-.012m5.8,0,.4.012a1.237,1.237,0,1,0-.4-.012m2.9,0,.4.012a1.237,1.237,0,1,0-.4-.012m-147.873-2.9.512.013a1.2,1.2,0,1,0-.512-.013m2.9,0,.51.013a1.2,1.2,0,1,0-.51-.013m2.9,0,.506.013a1.2,1.2,0,1,0-.506-.013m2.9,0,.506.013a1.2,1.2,0,1,0-.506-.013m2.9,0,.5.013a1.2,1.2,0,1,0-.5-.013m2.9,0,.5.013a1.2,1.2,0,1,0-.5-.013m5.8,0,.5.013a1.2,1.2,0,1,0-.5-.013m11.589,0,.5.013a1.2,1.2,0,1,0-.5-.013m5.8,0,.492.013a1.2,1.2,0,1,0-.492-.013m11.589,0,.492.013a1.2,1.2,0,1,0-.492-.013m5.8,0,.488.013a1.205,1.205,0,1,0-.488-.013m2.9,0,.486.013a1.2,1.2,0,1,0-.486-.013m11.588,0,.486.013a1.206,1.206,0,1,0-.486-.013m2.9,0,.483.013a1.205,1.205,0,1,0-.483-.013m5.8,0,.479.013a1.209,1.209,0,1,0-.479-.013m2.9,0,.476.013a1.208,1.208,0,1,0-.476-.013m2.9,0,.477.013a1.208,1.208,0,1,0-.477-.013m2.9,0,.479.013a1.209,1.209,0,1,0-.479-.013m8.691,0,.476.013a1.21,1.21,0,1,0-.476-.013m11.59,0,.476.013a1.21,1.21,0,1,0-.476-.013m5.8,0,.47.013a1.211,1.211,0,1,0-.47-.013m5.8,0,.467.013a1.212,1.212,0,1,0-.467-.013m14.485,0,.467.013a1.213,1.213,0,1,0-.467-.013m2.9,0,.462.013a1.212,1.212,0,1,0-.462-.013m8.691,0,.464.013a1.213,1.213,0,1,0-.464-.013m2.9,0,.462.013a1.214,1.214,0,1,0-.462-.013m-150.74-2.9.545.018a1.181,1.181,0,1,0-.545-.018m8.691,0,.545.018a1.181,1.181,0,1,0-.545-.018m5.8,0,.539.018a1.183,1.183,0,1,0-.539-.018m5.8,0,.536.018a1.183,1.183,0,1,0-.536-.018m2.9,0,.531.018a1.184,1.184,0,1,0-.531-.018m2.9,0,.531.018a1.185,1.185,0,1,0-.531-.018m14.487,0,.531.018a1.185,1.185,0,1,0-.531-.018m2.9,0,.528.018a1.185,1.185,0,1,0-.528-.018m2.9,0,.527.018a1.186,1.186,0,1,0-.527-.018m20.281,0,.527.018a1.186,1.186,0,1,0-.527-.018m2.9,0,.524.018a1.186,1.186,0,1,0-.524-.018m11.589,0,.521.018a1.186,1.186,0,1,0-.521-.018m2.9,0,.521.018a1.187,1.187,0,1,0-.521-.018m2.9,0,.522.018a1.188,1.188,0,1,0-.522-.018m2.9,0,.522.018a1.187,1.187,0,1,0-.522-.018m2.9,0,.515.018a1.189,1.189,0,1,0-.515-.018m11.588,0,.516.018a1.189,1.189,0,1,0-.516-.018m11.589,0,.516.018a1.189,1.189,0,1,0-.516-.018m5.8,0,.513.018a1.19,1.19,0,1,0-.513-.018m2.9,0,.509.018a1.191,1.191,0,1,0-.509-.018m23.176,0,.512.018a1.191,1.191,0,1,0-.512-.018m-144.936-2.9.584.02a1.167,1.167,0,1,0-.584-.02m2.9,0,.581.02a1.167,1.167,0,1,0-.581-.02m2.9,0,.579.02a1.17,1.17,0,1,0-.579-.02m2.9,0,.579.02a1.17,1.17,0,1,0-.579-.02m5.8,0,.572.02a1.171,1.171,0,1,0-.572-.02m8.691,0,.573.02a1.172,1.172,0,1,0-.573-.02m2.9,0,.572.02a1.172,1.172,0,1,0-.572-.02m2.9,0,.567.02a1.171,1.171,0,1,0-.567-.02m5.8,0,.564.02a1.174,1.174,0,1,0-.564-.02m5.8,0,.56.02a1.174,1.174,0,1,0-.56-.02m8.691,0,.561.02a1.175,1.175,0,1,0-.561-.02m2.9,0,.56.02a1.175,1.175,0,1,0-.56-.02m2.9,0,.555.02a1.175,1.175,0,1,0-.555-.02m8.69,0,.558.02a1.176,1.176,0,1,0-.558-.02m11.589,0,.554.02a1.176,1.176,0,1,0-.554-.02m2.9,0,.552.02a1.176,1.176,0,1,0-.552-.02m31.869,0,.557.02a1.176,1.176,0,1,0-.557-.02m8.693,0,.557.02a1.175,1.175,0,1,0-.557-.02m2.9,0,.554.02a1.177,1.177,0,1,0-.554-.02m5.8,0,.549.02a1.177,1.177,0,1,0-.549-.02m5.8,0,.545.02a1.179,1.179,0,1,0-.545-.02m2.9,0,.543.02a1.18,1.18,0,1,0-.543-.02m-139.178-2.9.653.02a1.148,1.148,0,1,0-.653-.02m2.9,0,.651.02a1.149,1.149,0,1,0-.651-.02m2.9,0,.648.02a1.149,1.149,0,1,0-.648-.02m2.9,0,.645.02a1.15,1.15,0,1,0-.645-.02m2.9,0,.645.02a1.151,1.151,0,1,0-.645-.02m8.693,0,.644.02a1.151,1.151,0,1,0-.644-.02m2.9,0,.641.02a1.151,1.151,0,1,0-.641-.02m2.9,0,.639.02a1.152,1.152,0,1,0-.639-.02m5.8,0,.635.02a1.153,1.153,0,1,0-.635-.02m2.9,0,.633.02a1.153,1.153,0,1,0-.633-.02m2.9,0,.63.02a1.155,1.155,0,1,0-.63-.02m2.9,0,.63.02a1.155,1.155,0,1,0-.63-.02m11.59,0,.63.02a1.155,1.155,0,1,0-.63-.02m2.9,0,.629.02a1.156,1.156,0,1,0-.629-.02m2.9,0,.624.02a1.155,1.155,0,1,0-.624-.02m2.9,0,.624.02a1.157,1.157,0,1,0-.624-.02m2.9,0,.621.02a1.158,1.158,0,1,0-.621-.02m2.9,0,.62.02a1.157,1.157,0,1,0-.62-.02m2.9,0,.617.02a1.158,1.158,0,1,0-.617-.02m5.8,0,.612.02a1.159,1.159,0,1,0-.612-.02m2.9,0,.608.02a1.162,1.162,0,1,0-.608-.02m2.9,0,.606.02a1.161,1.161,0,1,0-.606-.02m2.9,0,.6.02a1.162,1.162,0,1,0-.6-.02m2.9,0,.606.02a1.162,1.162,0,1,0-.606-.02m17.385,0,.6.02a1.162,1.162,0,1,0-.6-.02m2.9,0,.6.02a1.163,1.163,0,1,0-.6-.02m8.691,0,.6.02a1.163,1.163,0,1,0-.6-.02m5.8,0,.6.02a1.163,1.163,0,1,0-.6-.02m2.9,0,.6.02a1.165,1.165,0,1,0-.6-.02m2.9,0,.593.02a1.165,1.165,0,1,0-.593-.02m8.691,0,.594.02a1.165,1.165,0,1,0-.594-.02m2.9,0,.591.02a1.165,1.165,0,1,0-.591-.02m2.9,0,.591.02a1.166,1.166,0,1,0-.591-.02m2.9,0,.588.02a1.166,1.166,0,1,0-.588-.02m2.9,0,.585.02a1.167,1.167,0,1,0-.585-.02m2.9,0,.584.02a1.169,1.169,0,1,0-.584-.02m-150.778-2.9.7.023a1.131,1.131,0,1,0-.7-.023m11.59,0,.7.023a1.13,1.13,0,1,0-.7-.023m2.9,0,.7.023a1.133,1.133,0,1,0-.7-.023m2.9,0,.7.023a1.133,1.133,0,1,0-.7-.023m2.9,0,.7.023a1.133,1.133,0,1,0-.7-.023m2.9,0,.693.023a1.134,1.134,0,1,0-.693-.023m14.487,0,.693.023a1.134,1.134,0,1,0-.693-.023m14.485,0,.7.023a1.134,1.134,0,1,0-.7-.023m8.691,0,.7.023a1.134,1.134,0,1,0-.7-.023m5.8,0,.692.023a1.134,1.134,0,1,0-.692-.023m8.691,0,.692.023a1.135,1.135,0,1,0-.692-.023m2.9,0,.687.023a1.136,1.136,0,1,0-.687-.023m2.9,0,.684.023a1.135,1.135,0,1,0-.684-.023m5.8,0,.686.023a1.137,1.137,0,1,0-.686-.023m5.8,0,.678.023a1.138,1.138,0,1,0-.678-.023m2.9,0,.678.023a1.139,1.139,0,1,0-.678-.023m2.9,0,.675.023a1.139,1.139,0,1,0-.675-.023m2.9,0,.672.023a1.139,1.139,0,1,0-.672-.023m2.9,0,.671.023a1.14,1.14,0,1,0-.671-.023m2.9,0,.669.023a1.14,1.14,0,1,0-.669-.023m2.9,0,.668.023a1.142,1.142,0,1,0-.668-.023m5.8,0,.662.023a1.142,1.142,0,1,0-.662-.023m8.691,0,.662.023a1.142,1.142,0,1,0-.662-.023m2.9,0,.66.023a1.144,1.144,0,1,0-.66-.023m2.9,0,.659.023a1.143,1.143,0,1,0-.659-.023m2.9,0,.656.023a1.145,1.145,0,1,0-.656-.023m5.8,0,.651.023a1.145,1.145,0,1,0-.651-.023m-139.175-2.9.758.026a1.116,1.116,0,1,0-.758-.026m5.8,0,.753.026a1.117,1.117,0,1,0-.753-.026m23.179,0,.752.026a1.116,1.116,0,1,0-.752-.026m5.8,0,.75.026a1.118,1.118,0,1,0-.75-.026m2.9,0,.744.026a1.117,1.117,0,1,0-.744-.026m5.8,0,.743.026a1.12,1.12,0,1,0-.743-.026m5.8,0,.738.026a1.12,1.12,0,1,0-.738-.026m5.8,0,.734.026a1.121,1.121,0,1,0-.734-.026m8.693,0,.732.026a1.12,1.12,0,1,0-.732-.026m5.8,0,.731.026a1.123,1.123,0,1,0-.731-.026m5.8,0,.725.026a1.123,1.123,0,1,0-.725-.026m11.588,0,.728.026a1.122,1.122,0,1,0-.728-.026m2.9,0,.728.026a1.122,1.122,0,1,0-.728-.026m5.8,0,.72.026a1.124,1.124,0,1,0-.72-.026m2.9,0,.719.026a1.126,1.126,0,1,0-.719-.026m2.9,0,.716.026a1.125,1.125,0,1,0-.716-.026m2.9,0,.713.026a1.126,1.126,0,1,0-.713-.026m8.691,0,.714.026a1.126,1.126,0,1,0-.714-.026m8.693,0,.714.026a1.125,1.125,0,1,0-.714-.026m2.9,0,.711.026a1.126,1.126,0,1,0-.711-.026m2.9,0,.71.026a1.128,1.128,0,1,0-.71-.026m14.487,0,.711.026a1.127,1.127,0,1,0-.711-.026m2.9,0,.708.026a1.127,1.127,0,1,0-.708-.026m2.9,0,.705.026a1.127,1.127,0,1,0-.705-.026m2.9,0,.7.026a1.129,1.129,0,1,0-.7-.026m-150.767-2.9.813.027a1.1,1.1,0,1,0-.813-.027m2.9,0,.812.027a1.1,1.1,0,1,0-.812-.027m2.9,0,.809.027a1.1,1.1,0,1,0-.809-.027m5.8,0,.806.027a1.1,1.1,0,1,0-.806-.027m5.8,0,.8.027a1.1,1.1,0,1,0-.8-.027m2.9,0,.8.027a1.106,1.106,0,1,0-.8-.027m11.59,0,.8.027a1.1,1.1,0,1,0-.8-.027m2.9,0,.8.027a1.1,1.1,0,1,0-.8-.027m5.8,0,.792.027a1.107,1.107,0,1,0-.792-.027m2.9,0,.789.027a1.107,1.107,0,1,0-.789-.027m2.9,0,.788.027a1.107,1.107,0,1,0-.788-.027m2.9,0,.786.027a1.108,1.108,0,1,0-.786-.027m8.693,0,.785.027a1.108,1.108,0,1,0-.785-.027m11.588,0,.786.027a1.107,1.107,0,1,0-.786-.027m2.9,0,.783.027a1.108,1.108,0,1,0-.783-.027m14.487,0,.785.027a1.108,1.108,0,1,0-.785-.027m5.8,0,.779.027a1.109,1.109,0,1,0-.779-.027m5.8,0,.776.027a1.11,1.11,0,1,0-.776-.027m5.8,0,.771.027a1.112,1.112,0,1,0-.771-.027m5.8,0,.767.027a1.111,1.111,0,1,0-.767-.027m2.9,0,.765.027a1.112,1.112,0,1,0-.765-.027m2.9,0,.764.027a1.114,1.114,0,1,0-.764-.027m14.487,0,.764.027a1.114,1.114,0,1,0-.764-.027m5.8,0,.758.027a1.114,1.114,0,1,0-.758-.027m2.9,0,.756.027a1.116,1.116,0,1,0-.756-.027m11.59,0,.756.027a1.115,1.115,0,1,0-.756-.027m-150.766-2.9.864.03a1.088,1.088,0,1,0-.864-.03m8.691,0,.864.03a1.089,1.089,0,1,0-.864-.03m2.9,0,.864.03a1.089,1.089,0,1,0-.864-.03m23.179,0,.863.03a1.088,1.088,0,1,0-.863-.03m11.59,0,.863.03a1.087,1.087,0,1,0-.863-.03m11.588,0,.863.03a1.088,1.088,0,1,0-.863-.03m2.9,0,.861.03a1.088,1.088,0,1,0-.861-.03m2.9,0,.858.03a1.089,1.089,0,1,0-.858-.03m2.9,0,.857.03a1.089,1.089,0,1,0-.857-.03m11.588,0,.854.03a1.09,1.09,0,1,0-.854-.03m5.8,0,.852.03a1.091,1.091,0,1,0-.852-.03m2.9,0,.852.03a1.09,1.09,0,1,0-.852-.03m2.9,0,.852.03a1.09,1.09,0,1,0-.852-.03m11.589,0,.848.03a1.09,1.09,0,1,0-.848-.03m2.9,0,.846.03a1.092,1.092,0,1,0-.846-.03m2.9,0,.846.03a1.093,1.093,0,1,0-.846-.03m5.8,0,.84.03a1.093,1.093,0,1,0-.84-.03m2.9,0,.839.03a1.094,1.094,0,1,0-.839-.03m2.9,0,.836.03a1.094,1.094,0,1,0-.836-.03m5.8,0,.831.03a1.095,1.095,0,1,0-.831-.03m5.8,0,.828.03a1.1,1.1,0,1,0-.828-.03m5.8,0,.822.03a1.1,1.1,0,1,0-.822-.03m2.9,0,.821.03a1.1,1.1,0,1,0-.821-.03m5.8,0,.818.03a1.1,1.1,0,1,0-.818-.03m5.8,0,.813.03a1.1,1.1,0,1,0-.813-.03m-142.072-2.9.918.031a1.077,1.077,0,1,0-.918-.031m2.9,0,.917.031a1.076,1.076,0,1,0-.917-.031m2.9,0,.912.031a1.077,1.077,0,1,0-.912-.031m2.9,0,.911.031a1.078,1.078,0,1,0-.911-.031m5.8,0,.906.031a1.079,1.079,0,1,0-.906-.031m8.693,0,.906.031a1.078,1.078,0,1,0-.906-.031m2.9,0,.906.031a1.079,1.079,0,1,0-.906-.031m2.9,0,.9.031a1.079,1.079,0,1,0-.9-.031m2.9,0,.9.031a1.08,1.08,0,1,0-.9-.031m2.9,0,.9.031a1.08,1.08,0,1,0-.9-.031m11.589,0,.9.031a1.08,1.08,0,1,0-.9-.031m17.384,0,.9.031a1.081,1.081,0,1,0-.9-.031m2.9,0,.9.031a1.081,1.081,0,1,0-.9-.031m2.9,0,.89.031a1.081,1.081,0,1,0-.89-.031m11.587,0,.9.031a1.081,1.081,0,1,0-.9-.031m5.8,0,.891.031a1.081,1.081,0,1,0-.891-.031m8.691,0,.891.031a1.082,1.082,0,1,0-.891-.031m5.8,0,.887.031a1.081,1.081,0,1,0-.887-.031m2.9,0,.885.031a1.083,1.083,0,1,0-.885-.031m2.9,0,.884.031a1.084,1.084,0,1,0-.884-.031m2.9,0,.881.031a1.084,1.084,0,1,0-.881-.031m5.8,0,.876.031a1.085,1.085,0,1,0-.876-.031m2.9,0,.873.031a1.085,1.085,0,1,0-.873-.031m8.691,0,.875.031a1.085,1.085,0,1,0-.875-.031m2.9,0,.872.031a1.085,1.085,0,1,0-.872-.031m5.8,0,.869.031a1.086,1.086,0,1,0-.869-.031m5.8,0,.864.031a1.088,1.088,0,1,0-.864-.031m-142.073-2.9.971.033a1.067,1.067,0,1,0-.971-.033m17.385,0,.969.033a1.065,1.065,0,1,0-.969-.033m2.9,0,.968.033a1.066,1.066,0,1,0-.968-.033m5.8,0,.965.033a1.067,1.067,0,1,0-.965-.033m2.9,0,.96.033a1.068,1.068,0,1,0-.96-.033m5.8,0,.957.033a1.068,1.068,0,1,0-.957-.033m2.9,0,.957.033a1.069,1.069,0,1,0-.957-.033m2.9,0,.954.033a1.069,1.069,0,1,0-.954-.033m2.9,0,.951.033a1.069,1.069,0,1,0-.951-.033m8.691,0,.953.033a1.069,1.069,0,1,0-.953-.033m5.8,0,.948.033a1.07,1.07,0,1,0-.948-.033m2.9,0,.945.033a1.07,1.07,0,1,0-.945-.033m11.589,0,.942.033a1.07,1.07,0,1,0-.942-.033m2.9,0,.942.033a1.072,1.072,0,1,0-.942-.033m5.8,0,.942.033a1.07,1.07,0,1,0-.942-.033m2.9,0,.936.033a1.072,1.072,0,1,0-.936-.033m2.9,0,.936.033a1.073,1.073,0,1,0-.936-.033m5.8,0,.93.033a1.073,1.073,0,1,0-.93-.033m5.8,0,.927.033a1.074,1.074,0,1,0-.927-.033m11.588,0,.927.033a1.075,1.075,0,1,0-.927-.033m5.8,0,.923.033a1.075,1.075,0,1,0-.923-.033m5.8,0,.918.033a1.075,1.075,0,1,0-.918-.033m8.691,0,.918.033a1.075,1.075,0,1,0-.918-.033m2.9,0,.917.033a1.076,1.076,0,1,0-.917-.033m2.9,0,.915.033a1.076,1.076,0,1,0-.915-.033m-142.064-2.9L298.2,239a1.059,1.059,0,1,0-1.013-.036m5.8,0L304,239a1.059,1.059,0,1,0-1.007-.036m5.8,0,1,.036a1.059,1.059,0,1,0-1-.036m2.9,0,1,.036a1.06,1.06,0,1,0-1-.036m17.385,0,1,.036a1.06,1.06,0,1,0-1-.036m8.691,0,1,.036a1.06,1.06,0,1,0-1-.036m5.8,0,1,.036a1.061,1.061,0,1,0-1-.036m5.8,0,.993.036a1.061,1.061,0,1,0-.993-.036m26.076,0,.99.036a1.061,1.061,0,1,0-.99-.036m2.9,0,.989.036a1.062,1.062,0,1,0-.989-.036m2.9,0,.99.036a1.061,1.061,0,1,0-.99-.036m5.8,0,.984.036a1.062,1.062,0,1,0-.984-.036m2.9,0,.983.036a1.063,1.063,0,1,0-.983-.036m2.9,0,.981.036a1.064,1.064,0,1,0-.981-.036m14.487,0,.981.036a1.064,1.064,0,1,0-.981-.036m2.9,0,.978.036a1.063,1.063,0,1,0-.978-.036m2.9,0,.977.036a1.064,1.064,0,1,0-.977-.036m5.8,0,.971.036a1.065,1.065,0,1,0-.971-.036m23.177,0,.972.036a1.064,1.064,0,1,0-.972-.036m2.9,0,.969.036a1.064,1.064,0,1,0-.969-.036m-150.748-2.9,1.059.038a1.052,1.052,0,1,0-1.059-.038m5.8,0,1.053.038a1.051,1.051,0,1,0-1.053-.038m2.9,0L304,236.1a1.053,1.053,0,1,0-1.052-.038m2.9,0,1.052.038a1.053,1.053,0,1,0-1.052-.038m17.385,0,1.049.038a1.052,1.052,0,1,0-1.049-.038m11.59,0,1.049.038a1.052,1.052,0,1,0-1.049-.038m5.8,0,1.046.038a1.053,1.053,0,1,0-1.046-.038m8.69,0,1.047.038a1.053,1.053,0,1,0-1.047-.038m5.8,0,1.043.038a1.054,1.054,0,1,0-1.043-.038m2.9,0,1.04.038a1.054,1.054,0,1,0-1.04-.038m2.9,0,1.038.038a1.054,1.054,0,1,0-1.038-.038m2.9,0,1.035.038a1.054,1.054,0,1,0-1.035-.038m5.8,0,1.031.038a1.055,1.055,0,1,0-1.031-.038m31.87,0,1.032.038a1.056,1.056,0,1,0-1.032-.038m17.384,0,1.031.038a1.056,1.056,0,1,0-1.031-.038m5.8,0,1.026.038a1.056,1.056,0,1,0-1.026-.038m5.8,0,1.023.038a1.057,1.057,0,1,0-1.023-.038m2.9,0,1.019.038a1.056,1.056,0,1,0-1.019-.038m5.8,0,1.017.038a1.058,1.058,0,1,0-1.017-.038m5.8,0,1.011.038a1.057,1.057,0,1,0-1.011-.038m-150.758-2.9,1.112.039a1.043,1.043,0,1,0-1.112-.039m2.9,0,1.11.039a1.044,1.044,0,1,0-1.11-.039m2.9,0,1.107.039a1.044,1.044,0,1,0-1.107-.039m2.9,0,1.1.039a1.044,1.044,0,1,0-1.1-.039m8.691,0,1.1.039a1.044,1.044,0,1,0-1.1-.039m5.8,0,1.1.039a1.045,1.045,0,1,0-1.1-.039m14.487,0,1.1.039a1.045,1.045,0,1,0-1.1-.039m2.9,0,1.1.039a1.045,1.045,0,1,0-1.1-.039m5.8,0,1.1.039a1.045,1.045,0,1,0-1.1-.039m8.691,0,1.1.039a1.046,1.046,0,1,0-1.1-.039m8.691,0,1.1.039a1.046,1.046,0,1,0-1.1-.039m2.9,0,1.094.039a1.045,1.045,0,1,0-1.094-.039m8.691,0,1.094.039a1.046,1.046,0,1,0-1.094-.039m2.9,0,1.088.039a1.046,1.046,0,1,0-1.088-.039m8.691,0,1.094.039a1.045,1.045,0,1,0-1.094-.039m5.8,0,1.088.039a1.047,1.047,0,1,0-1.088-.039m2.9,0,1.086.039a1.046,1.046,0,1,0-1.086-.039m14.485,0,1.088.039a1.047,1.047,0,1,0-1.088-.039m5.8,0,1.082.039a1.047,1.047,0,1,0-1.082-.039m5.8,0,1.079.039a1.047,1.047,0,1,0-1.079-.039m5.8,0,1.073.039a1.049,1.049,0,1,0-1.073-.039m5.8,0,1.067.039a1.049,1.049,0,1,0-1.067-.039m2.9,0,1.067.039a1.049,1.049,0,1,0-1.067-.039m2.9,0,1.064.039a1.049,1.049,0,1,0-1.064-.039m2.9,0,1.064.039a1.05,1.05,0,1,0-1.064-.039m2.9,0,1.061.039a1.05,1.05,0,1,0-1.061-.039m2.9,0,1.058.039a1.05,1.05,0,1,0-1.058-.039m-147.876-2.9,1.173.042a1.036,1.036,0,1,0-1.173-.042m2.9,0,1.172.042a1.037,1.037,0,1,0-1.172-.042m2.9,0,1.169.042a1.036,1.036,0,1,0-1.169-.042m2.9,0L304,230.3a1.037,1.037,0,1,0-1.166-.042m5.8,0,1.163.042a1.038,1.038,0,1,0-1.163-.042m8.691,0,1.163.042a1.038,1.038,0,1,0-1.163-.042m2.9,0,1.16.042a1.037,1.037,0,1,0-1.16-.042m5.8,0,1.157.042a1.038,1.038,0,1,0-1.157-.042m8.691,0,1.158.042a1.038,1.038,0,1,0-1.158-.042m2.9,0,1.154.042a1.037,1.037,0,1,0-1.154-.042m5.8,0,1.152.042a1.039,1.039,0,1,0-1.152-.042m2.9,0,1.148.042a1.038,1.038,0,1,0-1.148-.042m8.691,0,1.149.042a1.038,1.038,0,1,0-1.149-.042m2.9,0,1.146.042a1.039,1.039,0,1,0-1.146-.042m2.9,0,1.146.042a1.039,1.039,0,1,0-1.146-.042m2.9,0,1.142.042a1.038,1.038,0,1,0-1.142-.042m2.9,0,1.14.042a1.04,1.04,0,1,0-1.14-.042m2.9,0,1.139.042a1.04,1.04,0,1,0-1.139-.042m5.8,0,1.131.042a1.04,1.04,0,1,0-1.131-.042m2.9,0,1.131.042a1.041,1.041,0,1,0-1.131-.042m17.385,0,1.131.042a1.04,1.04,0,1,0-1.131-.042m2.9,0,1.13.042a1.04,1.04,0,1,0-1.13-.042m2.9,0,1.128.042a1.041,1.041,0,1,0-1.128-.042m2.9,0,1.127.042a1.042,1.042,0,1,0-1.127-.042m8.693,0,1.125.042a1.041,1.041,0,1,0-1.125-.042m2.9,0,1.125.042a1.042,1.042,0,1,0-1.125-.042m2.9,0,1.121.042a1.042,1.042,0,1,0-1.121-.042m2.9,0,1.119.042a1.042,1.042,0,1,0-1.119-.042m2.9,0,1.118.042a1.042,1.042,0,1,0-1.118-.042m11.588,0,1.119.042a1.042,1.042,0,1,0-1.119-.042m2.9,0,1.116.042a1.042,1.042,0,1,0-1.116-.042m5.8,0,1.112.042a1.043,1.043,0,1,0-1.112-.042m-147.9-2.9,1.247.043a1.03,1.03,0,1,0-1.247-.043m5.8,0,1.244.043a1.031,1.031,0,1,0-1.244-.043m2.9,0,1.242.043a1.031,1.031,0,1,0-1.242-.043m5.8,0,1.236.043a1.032,1.032,0,1,0-1.236-.043m2.9,0,1.235.043a1.031,1.031,0,1,0-1.235-.043m2.9,0,1.23.043a1.032,1.032,0,1,0-1.23-.043m14.487,0,1.23.043a1.031,1.031,0,1,0-1.23-.043m2.9,0,1.23.043a1.032,1.032,0,1,0-1.23-.043m2.9,0,1.229.043a1.032,1.032,0,1,0-1.229-.043m14.486,0,1.229.043a1.032,1.032,0,1,0-1.229-.043m5.8,0,1.223.043a1.031,1.031,0,1,0-1.223-.043m2.9,0,1.223.043a1.033,1.033,0,1,0-1.223-.043m2.9,0,1.221.043a1.033,1.033,0,1,0-1.221-.043m2.9,0,1.217.043a1.032,1.032,0,1,0-1.217-.043m2.9,0,1.215.043a1.033,1.033,0,1,0-1.215-.043m2.9,0,1.211.043a1.034,1.034,0,1,0-1.211-.043m2.9,0,1.209.043a1.033,1.033,0,1,0-1.209-.043m14.487,0,1.212.043a1.033,1.033,0,1,0-1.212-.043m2.9,0,1.209.043a1.033,1.033,0,1,0-1.209-.043m2.9,0,1.208.043a1.034,1.034,0,1,0-1.208-.043m2.9,0,1.206.043a1.034,1.034,0,1,0-1.206-.043m5.8,0,1.2.043a1.034,1.034,0,1,0-1.2-.043m2.9,0,1.2.043a1.035,1.035,0,1,0-1.2-.043m5.8,0,1.194.043a1.034,1.034,0,1,0-1.194-.043m2.9,0,1.194.043a1.035,1.035,0,1,0-1.194-.043m2.9,0,1.19.043a1.035,1.035,0,1,0-1.19-.043m2.9,0,1.187.043a1.035,1.035,0,1,0-1.187-.043m2.9,0,1.187.043a1.035,1.035,0,1,0-1.187-.043m5.8,0,1.182.043a1.036,1.036,0,1,0-1.182-.043m2.9,0,1.179.043a1.036,1.036,0,1,0-1.179-.043m2.9,0,1.178.043a1.036,1.036,0,1,0-1.178-.043m5.8,0,1.175.043a1.037,1.037,0,1,0-1.175-.043m-121.8-2.9,1.29.045a1.028,1.028,0,1,0-1.29-.045m2.9,0,1.287.045a1.028,1.028,0,1,0-1.287-.045m8.691,0,1.287.045a1.028,1.028,0,1,0-1.287-.045m2.9,0,1.286.045a1.028,1.028,0,1,0-1.286-.045m8.691,0,1.287.045a1.028,1.028,0,1,0-1.287-.045m2.9,0,1.284.045a1.028,1.028,0,1,0-1.284-.045m2.9,0,1.283.045a1.028,1.028,0,1,0-1.283-.045m2.9,0,1.281.045a1.029,1.029,0,1,0-1.281-.045m2.9,0,1.28.045a1.028,1.028,0,1,0-1.28-.045m5.8,0,1.275.045a1.029,1.029,0,1,0-1.275-.045m2.9,0,1.272.045a1.029,1.029,0,1,0-1.272-.045m11.59,0,1.269.045a1.029,1.029,0,1,0-1.269-.045m2.9,0,1.269.045a1.03,1.03,0,1,0-1.269-.045m2.9,0,1.269.045a1.029,1.029,0,1,0-1.269-.045m2.9,0,1.269.045a1.028,1.028,0,1,0-1.269-.045m2.9,0,1.263.045a1.03,1.03,0,1,0-1.263-.045m2.9,0,1.263.045a1.03,1.03,0,1,0-1.263-.045m2.9,0,1.26.045a1.029,1.029,0,1,0-1.26-.045m2.9,0,1.257.045a1.03,1.03,0,1,0-1.257-.045m2.9,0,1.256.045a1.03,1.03,0,1,0-1.256-.045m2.9,0,1.254.045a1.03,1.03,0,1,0-1.254-.045m2.9,0,1.251.045a1.03,1.03,0,1,0-1.251-.045m2.9,0,1.25.045a1.03,1.03,0,1,0-1.25-.045m2.9,0,1.247.045a1.03,1.03,0,1,0-1.247-.045m8.691,0,1.247.045a1.03,1.03,0,1,0-1.247-.045m-101.524-2.9,1.365.049a1.024,1.024,0,1,0-1.365-.049m5.8,0,1.362.049a1.025,1.025,0,1,0-1.362-.049m5.8,0,1.359.049a1.025,1.025,0,1,0-1.359-.049m5.8,0,1.355.049a1.025,1.025,0,1,0-1.355-.049m5.8,0,1.35.049a1.025,1.025,0,1,0-1.35-.049m5.8,0,1.346.049a1.025,1.025,0,1,0-1.346-.049m5.8,0,1.341.049a1.025,1.025,0,1,0-1.341-.049m5.8,0,1.337.049a1.026,1.026,0,1,0-1.337-.049m5.8,0,1.332.049a1.025,1.025,0,1,0-1.332-.049m5.8,0,1.329.049a1.026,1.026,0,1,0-1.329-.049m5.8,0,1.322.049a1.025,1.025,0,1,0-1.322-.049m5.8,0,1.322.049a1.025,1.025,0,1,0-1.322-.049m5.8,0,1.316.049a1.026,1.026,0,1,0-1.316-.049m5.8,0,1.313.049a1.026,1.026,0,1,0-1.313-.049m5.8,0,1.307.049a1.026,1.026,0,1,0-1.307-.049m5.8,0,1.3.049a1.026,1.026,0,1,0-1.3-.049m5.8,0,1.3.049a1.027,1.027,0,1,0-1.3-.049m5.8,0,1.295.049a1.026,1.026,0,1,0-1.295-.049m5.8,0,1.29.049a1.027,1.027,0,1,0-1.29-.049m-104.409-2.9,1.4.049a1.025,1.025,0,1,0-1.4-.049m2.9,0,1.4.049a1.026,1.026,0,1,0-1.4-.049m8.691,0,1.4.049a1.026,1.026,0,1,0-1.4-.049m8.693,0,1.4.049a1.025,1.025,0,1,0-1.4-.049m2.9,0,1.4.049a1.026,1.026,0,1,0-1.4-.049m14.487,0,1.4.049a1.026,1.026,0,1,0-1.4-.049m5.8,0,1.391.049a1.025,1.025,0,1,0-1.391-.049m2.9,0,1.389.049a1.026,1.026,0,1,0-1.389-.049m11.59,0,1.386.049a1.025,1.025,0,1,0-1.386-.049m5.8,0,1.386.049a1.025,1.025,0,1,0-1.386-.049m8.691,0,1.386.049a1.025,1.025,0,1,0-1.386-.049m2.9,0,1.383.049a1.025,1.025,0,1,0-1.383-.049m2.9,0,1.382.049a1.026,1.026,0,1,0-1.382-.049m2.9,0,1.379.049a1.025,1.025,0,1,0-1.379-.049m5.8,0,1.376.049a1.025,1.025,0,1,0-1.376-.049m2.9,0,1.373.049a1.025,1.025,0,1,0-1.373-.049m5.8,0,1.368.049a1.025,1.025,0,1,0-1.368-.049m2.9,0,1.367.049a1.025,1.025,0,1,0-1.367-.049m-98.56-2.9,1.416.051a1.026,1.026,0,1,0-1.416-.051m14.487,0,1.416.051a1.026,1.026,0,1,0-1.416-.051m2.9,0,1.415.051a1.025,1.025,0,1,0-1.415-.051m17.384,0,1.415.051a1.026,1.026,0,1,0-1.415-.051m11.589,0,1.415.051a1.025,1.025,0,1,0-1.415-.051m2.9,0,1.413.051a1.026,1.026,0,1,0-1.413-.051m2.9,0,1.41.051a1.025,1.025,0,1,0-1.41-.051m2.9,0,1.4.051a1.025,1.025,0,1,0-1.4-.051m2.9,0,1.4.051a1.026,1.026,0,1,0-1.4-.051m2.9,0,1.4.051a1.025,1.025,0,1,0-1.4-.051m28.972,0,1.406.051a1.026,1.026,0,1,0-1.406-.051m5.8,0,1.4.051a1.025,1.025,0,1,0-1.4-.051m2.9,0,1.4.051a1.026,1.026,0,1,0-1.4-.051m-98.6-2.9,1.485.054a1.027,1.027,0,1,0-1.485-.054m2.9,0,1.484.054a1.027,1.027,0,1,0-1.484-.054m2.9,0,1.482.054a1.027,1.027,0,1,0-1.482-.054m5.8,0,1.479.054a1.027,1.027,0,1,0-1.479-.054m5.8,0,1.473.054a1.026,1.026,0,1,0-1.473-.054m2.9,0,1.472.054a1.027,1.027,0,1,0-1.472-.054m8.693,0,1.472.054a1.026,1.026,0,1,0-1.472-.054m2.9,0,1.47.054a1.026,1.026,0,1,0-1.47-.054m2.9,0,1.467.054a1.026,1.026,0,1,0-1.467-.054m5.8,0,1.463.054a1.026,1.026,0,1,0-1.463-.054m5.8,0,1.46.054a1.026,1.026,0,1,0-1.46-.054m5.8,0,1.454.054a1.025,1.025,0,1,0-1.454-.054m2.9,0,1.449.054a1.025,1.025,0,1,0-1.449-.054m2.9,0,1.449.054a1.026,1.026,0,1,0-1.449-.054m5.8,0,1.448.054a1.025,1.025,0,1,0-1.448-.054m2.9,0,1.449.054a1.026,1.026,0,1,0-1.449-.054m2.9,0,1.442.054a1.025,1.025,0,1,0-1.442-.054m2.9,0,1.442.054a1.026,1.026,0,1,0-1.442-.054m2.9,0,1.439.054a1.025,1.025,0,1,0-1.439-.054m5.8,0,1.434.054a1.026,1.026,0,1,0-1.434-.054m5.8,0,1.43.054a1.025,1.025,0,1,0-1.43-.054m2.9,0,1.428.054a1.026,1.026,0,1,0-1.428-.054m5.8,0,1.424.054a1.025,1.025,0,1,0-1.424-.054m2.9,0,1.422.054a1.025,1.025,0,1,0-1.422-.054m5.8,0,1.416.054a1.025,1.025,0,1,0-1.416-.054m-98.6-2.9,1.509.057a1.028,1.028,0,1,0-1.509-.057m2.9,0,1.506.057a1.028,1.028,0,1,0-1.506-.057m2.9,0,1.506.057a1.028,1.028,0,1,0-1.506-.057m2.9,0,1.5.057a1.028,1.028,0,1,0-1.5-.057m14.487,0,1.5.057a1.028,1.028,0,1,0-1.5-.057m5.8,0,1.5.057a1.027,1.027,0,1,0-1.5-.057m2.9,0,1.5.057a1.027,1.027,0,1,0-1.5-.057m2.9,0,1.494.057a1.028,1.028,0,1,0-1.494-.057m8.691,0,1.5.057a1.028,1.028,0,1,0-1.5-.057m5.8,0,1.487.057a1.027,1.027,0,1,0-1.487-.057m11.588,0,1.5.057a1.028,1.028,0,1,0-1.5-.057m2.9,0,1.488.057a1.027,1.027,0,1,0-1.488-.057m2.9,0,1.487.057a1.027,1.027,0,1,0-1.487-.057m20.281,0,1.487.057a1.027,1.027,0,1,0-1.487-.057m8.691,0,1.487.057a1.027,1.027,0,1,0-1.487-.057m-101.494-2.9,1.575.059a1.033,1.033,0,1,0-1.575-.059m5.8,0,1.571.059a1.032,1.032,0,1,0-1.571-.059m2.9,0,1.569.059a1.032,1.032,0,1,0-1.569-.059m5.8,0,1.565.059a1.032,1.032,0,1,0-1.565-.059m2.9,0,1.563.059a1.032,1.032,0,1,0-1.563-.059m5.8,0,1.56.059a1.032,1.032,0,1,0-1.56-.059m2.9,0,1.559.059a1.032,1.032,0,1,0-1.559-.059m2.9,0,1.556.059a1.031,1.031,0,1,0-1.556-.059m2.9,0,1.553.059a1.031,1.031,0,1,0-1.553-.059m2.9,0,1.551.059a1.031,1.031,0,1,0-1.551-.059m5.8,0,1.545.059a1.03,1.03,0,1,0-1.545-.059m5.8,0,1.544.059a1.031,1.031,0,1,0-1.544-.059m2.9,0,1.539.059a1.03,1.03,0,1,0-1.539-.059m2.9,0,1.538.059a1.03,1.03,0,1,0-1.538-.059m2.9,0,1.533.059a1.03,1.03,0,1,0-1.533-.059m8.691,0,1.539.059a1.031,1.031,0,1,0-1.539-.059m2.9,0,1.538.059a1.03,1.03,0,1,0-1.538-.059m5.8,0,1.532.059a1.03,1.03,0,1,0-1.532-.059m2.9,0,1.529.059a1.03,1.03,0,1,0-1.529-.059m5.8,0,1.524.059a1.03,1.03,0,1,0-1.524-.059m2.9,0,1.523.059a1.029,1.029,0,1,0-1.523-.059m2.9,0,1.52.059a1.029,1.029,0,1,0-1.52-.059m2.9,0,1.518.059a1.029,1.029,0,1,0-1.518-.059m2.9,0,1.515.059a1.029,1.029,0,1,0-1.515-.059m2.9,0,1.514.059a1.029,1.029,0,1,0-1.514-.059m2.9,0,1.512.059a1.029,1.029,0,1,0-1.512-.059m2.9,0,1.508.059a1.028,1.028,0,1,0-1.508-.059m-95.706-2.9,1.6.062a1.035,1.035,0,1,0-1.6-.062m2.9,0,1.6.062a1.035,1.035,0,1,0-1.6-.062m5.8,0,1.6.062a1.034,1.034,0,1,0-1.6-.062m8.691,0,1.6.062a1.035,1.035,0,1,0-1.6-.062m8.691,0,1.6.062a1.035,1.035,0,1,0-1.6-.062m2.9,0,1.6.062a1.034,1.034,0,1,0-1.6-.062m2.9,0,1.595.062a1.034,1.034,0,1,0-1.595-.062m14.487,0,1.593.062a1.034,1.034,0,1,0-1.593-.062m5.8,0,1.587.062a1.033,1.033,0,1,0-1.587-.062m5.8,0,1.587.062a1.033,1.033,0,1,0-1.587-.062m11.59,0,1.586.062a1.033,1.033,0,1,0-1.586-.062m5.8,0,1.583.062a1.033,1.033,0,1,0-1.583-.062m2.9,0,1.58.062a1.032,1.032,0,1,0-1.58-.062m8.691,0,1.58.062a1.033,1.033,0,1,0-1.58-.062m5.8,0,1.578.062a1.033,1.033,0,1,0-1.578-.062" transform="translate(-294.132 -202.718)" fill="none"/>
    </clipPath>
    <clipPath id="clip-path-2">
      <path id="Trazado_1861" data-name="Trazado 1861" d="M304.31,220.279a7.3,7.3,0,0,1,0-14.6h.033a7.3,7.3,0,0,1-.015,14.6h-.018m.033-17.52a10.217,10.217,0,1,0,.033,0Z" transform="translate(-294.143 -202.759)" fill="none"/>
    </clipPath>
    <clipPath id="clip-path-3">
      <path id="Trazado_1862" data-name="Trazado 1862" d="M298.023,211.031a4.38,4.38,0,1,0,4.381-4.379,4.379,4.379,0,0,0-4.381,4.379" transform="translate(-298.023 -206.652)" fill="none"/>
    </clipPath>
    <clipPath id="clip-path-4">
      <path id="Trazado_1863" data-name="Trazado 1863" d="M393.843,220.255a7.3,7.3,0,1,1,7.317-7.315v.033a7.3,7.3,0,0,1-7.3,7.282h-.015m0-17.484A10.218,10.218,0,1,0,404.08,213v-.032a10.215,10.215,0,0,0-10.215-10.2h-.018" transform="translate(-383.646 -202.771)" fill="none"/>
    </clipPath>
    <clipPath id="clip-path-5">
      <path id="Trazado_1864" data-name="Trazado 1864" d="M387.536,211.031a4.38,4.38,0,1,0,4.379-4.379,4.378,4.378,0,0,0-4.379,4.379" transform="translate(-387.536 -206.652)" fill="none"/>
    </clipPath>
    <clipPath id="clip-path-6">
      <path id="Trazado_1865" data-name="Trazado 1865" d="M304.341,309.816a7.3,7.3,0,0,1-7.288-7.288V302.5a7.3,7.3,0,1,1,7.3,7.32h-.016m-.009-17.553a10.215,10.215,0,0,0-10.2,10.2v.033a10.217,10.217,0,1,0,10.218-10.233h-.018" transform="translate(-294.132 -292.263)" fill="none"/>
    </clipPath>
    <clipPath id="clip-path-7">
      <path id="Trazado_1866" data-name="Trazado 1866" d="M298.023,300.545a4.38,4.38,0,1,0,4.381-4.381,4.379,4.379,0,0,0-4.381,4.381" transform="translate(-298.023 -296.164)" fill="none"/>
    </clipPath>
  </defs>
  <g id="qr_san_j" transform="translate(-509.275 -617.19)">
    <g id="Grupo_2541" data-name="Grupo 2541" transform="translate(509.275 617.19)" clip-path="url(#clip-path)">
      <rect id="Rectngulo_1305" data-name="Rectngulo 1305" width="160.96" height="160.96" transform="translate(-2.369 -3.479)"/>
    </g>
    <g id="Grupo_2543" data-name="Grupo 2543" transform="translate(509.291 617.251)" clip-path="url(#clip-path-2)">
      <rect id="Rectngulo_1306" data-name="Rectngulo 1306" width="20.437" height="20.437" transform="translate(-0.017 0)"/>
    </g>
    <g id="Grupo_2545" data-name="Grupo 2545" transform="translate(515.112 623.092)" clip-path="url(#clip-path-3)">
      <rect id="Rectngulo_1307" data-name="Rectngulo 1307" width="8.759" height="8.759" transform="translate(0.001)"/>
    </g>
    <g id="Grupo_2547" data-name="Grupo 2547" transform="translate(643.569 617.269)" clip-path="url(#clip-path-4)">
      <rect id="Rectngulo_1308" data-name="Rectngulo 1308" width="20.437" height="20.437" transform="translate(-0.002 -0.018)"/>
    </g>
    <g id="Grupo_2549" data-name="Grupo 2549" transform="translate(649.405 623.092)" clip-path="url(#clip-path-5)">
      <rect id="Rectngulo_1309" data-name="Rectngulo 1309" width="8.759" height="8.759" transform="translate(0.001)"/>
    </g>
    <g id="Grupo_2551" data-name="Grupo 2551" transform="translate(509.275 751.531)" clip-path="url(#clip-path-6)">
      <rect id="Rectngulo_1310" data-name="Rectngulo 1310" width="20.437" height="20.437" transform="translate(0 0.015)"/>
    </g>
    <g id="Grupo_2553" data-name="Grupo 2553" transform="translate(515.112 757.383)" clip-path="url(#clip-path-7)">
      <rect id="Rectngulo_1311" data-name="Rectngulo 1311" width="8.759" height="8.759" transform="translate(0.001 0.001)"/>
    </g>
  </g>
</svg>
