<svg xmlns="http://www.w3.org/2000/svg" width="154.781" height="154.854" viewBox="0 0 154.781 154.854">
  <path id="QR_DAE" d="M162.73,458.8a2.433,2.433,0,0,0,2.405,2.405,2.367,2.367,0,0,0,2.405-2.405,2.433,2.433,0,0,0-2.405-2.405h0a2.489,2.489,0,0,0-2.405,2.3h0m4.706.1a2.433,2.433,0,0,0,2.405,2.405,2.367,2.367,0,0,0,2.405-2.405,2.433,2.433,0,0,0-2.405-2.405h0a2.489,2.489,0,0,0-2.405,2.3h0m51.559.1a2.433,2.433,0,0,0,2.405,2.405,2.367,2.367,0,0,0,2.405-2.405A2.433,2.433,0,0,0,221.4,456.4h0a2.489,2.489,0,0,0-2.405,2.3h0m9.2.1a2.433,2.433,0,0,0,2.405,2.405,2.367,2.367,0,0,0,2.405-2.405A2.433,2.433,0,0,0,230.6,456.4h0a2.489,2.489,0,0,0-2.405,2.3h0m28.237.1a2.433,2.433,0,0,0,2.405,2.405,2.367,2.367,0,0,0,2.405-2.405,2.433,2.433,0,0,0-2.405-2.405h0a2.489,2.489,0,0,0-2.405,2.3h0m-98.412-4.706a2.489,2.489,0,0,0,2.3,2.405h0a2.449,2.449,0,0,0-2.3,1.778,2.385,2.385,0,1,0-1.673,2.928,2.27,2.27,0,0,0,1.673-1.673,2.385,2.385,0,1,0,4.6-1.255,2.449,2.449,0,0,0-2.3-1.778,2.433,2.433,0,0,0,2.405-2.405,2.405,2.405,0,0,0-4.811,0h0m32.943-.523a2.385,2.385,0,1,0-1.673,2.928,2.27,2.27,0,0,0,1.673-1.673,2.385,2.385,0,1,0,1.673-2.928,2.27,2.27,0,0,0-1.673,1.673m4.6.523a2.433,2.433,0,0,0,2.405,2.405,2.367,2.367,0,0,0,2.405-2.405,2.433,2.433,0,0,0-2.405-2.405h0a2.489,2.489,0,0,0-2.405,2.3h0m14.014.1a2.433,2.433,0,0,0,2.405,2.405,2.367,2.367,0,0,0,2.405-2.405,2.433,2.433,0,0,0-2.405-2.405h0a2.489,2.489,0,0,0-2.405,2.3h0m4.706.1a2.489,2.489,0,0,0,2.3,2.405h0a2.405,2.405,0,1,0,0,4.811,2.367,2.367,0,0,0,2.405-2.405h0a2.489,2.489,0,0,0-2.3-2.405h0a2.405,2.405,0,1,0,0-4.811,2.367,2.367,0,0,0-2.405,2.405h0m18.825,0a2.489,2.489,0,0,0,2.3,2.405h0a2.405,2.405,0,1,0,0,4.811,2.367,2.367,0,0,0,2.405-2.405h0a2.489,2.489,0,0,0-2.3-2.405h0a2.405,2.405,0,1,0,0-4.811,2.367,2.367,0,0,0-2.405,2.405h0m18.72,0a2.433,2.433,0,0,0,2.405,2.405,2.367,2.367,0,0,0,2.405-2.405,2.433,2.433,0,0,0-2.405-2.405h0a2.489,2.489,0,0,0-2.405,2.3h0m14.014.1a2.433,2.433,0,0,0,2.405,2.405,2.367,2.367,0,0,0,2.405-2.405,2.433,2.433,0,0,0-2.405-2.405h0a2.489,2.489,0,0,0-2.405,2.3h0M162.73,449.494a2.433,2.433,0,0,0,2.405,2.405,2.367,2.367,0,0,0,2.405-2.405,2.433,2.433,0,0,0-2.405-2.405h0a2.489,2.489,0,0,0-2.405,2.3h0m14.014.1a2.489,2.489,0,0,0,2.3,2.405h0a2.354,2.354,0,0,0-.1,4.706h0a2.405,2.405,0,1,0,0,4.811,2.367,2.367,0,0,0,2.405-2.405h0a2.489,2.489,0,0,0-2.3-2.405h0a2.354,2.354,0,0,0,.1-4.706h0a2.405,2.405,0,1,0,0-4.811,2.367,2.367,0,0,0-2.405,2.405h0m23.531,0a2.489,2.489,0,0,0,2.3,2.405h0a2.354,2.354,0,1,0-.1,4.706h0a2.405,2.405,0,1,0,0,4.811,2.367,2.367,0,0,0,2.405-2.405h0a2.489,2.489,0,0,0-2.3-2.405h0a2.354,2.354,0,0,0,.1-4.706h0a2.405,2.405,0,1,0,0-4.811,2.367,2.367,0,0,0-2.405,2.405h0m-46.853-4.706a2.489,2.489,0,0,0,2.3,2.405h0a2.433,2.433,0,0,0-2.405,2.405,2.405,2.405,0,0,0,4.811,0h0a2.489,2.489,0,0,0-2.3-2.405h0a2.433,2.433,0,0,0,2.405-2.405,2.405,2.405,0,0,0-4.811,0h0m42.042,0a2.433,2.433,0,0,0,2.405,2.405,2.367,2.367,0,0,0,2.405-2.405,2.433,2.433,0,0,0-2.405-2.405h0a2.489,2.489,0,0,0-2.405,2.3h0m-70.175.1a7.112,7.112,0,1,0,7.112-7.112h0a7.119,7.119,0,0,0-7.112,7.112m42.147-4.811a2.489,2.489,0,0,0,2.3,2.405h0a2.405,2.405,0,1,0,2.3,3.033,2.385,2.385,0,1,0,1.673-2.928,2.27,2.27,0,0,0-1.673,1.673,2.449,2.449,0,0,0-2.3-1.778,2.405,2.405,0,1,0,0-4.811,2.367,2.367,0,0,0-2.405,2.405h0m9.412,0a2.433,2.433,0,0,0,2.405,2.405,2.367,2.367,0,0,0,2.405-2.405,2.433,2.433,0,0,0-2.405-2.405h0a2.489,2.489,0,0,0-2.405,2.3h0m14.014.1a2.433,2.433,0,0,0,2.405,2.405,2.367,2.367,0,0,0,2.405-2.405,2.433,2.433,0,0,0-2.405-2.405h0a2.489,2.489,0,0,0-2.405,2.3h0m28.237.1a2.489,2.489,0,0,0,2.3,2.405h0a2.433,2.433,0,0,0-2.405,2.405,2.367,2.367,0,0,0,2.405,2.405,2.405,2.405,0,1,0,0,4.811A2.367,2.367,0,0,0,223.7,449.6h0a2.489,2.489,0,0,0-2.3-2.405h0a2.354,2.354,0,0,0,.1-4.706h0a2.405,2.405,0,1,0,0-4.811,2.367,2.367,0,0,0-2.405,2.405h0m13.909-.1a2.489,2.489,0,0,0,2.3,2.405h0a2.405,2.405,0,1,0,0,4.811,2.367,2.367,0,0,0,2.405-2.405h0a2.489,2.489,0,0,0-2.3-2.405h0a2.405,2.405,0,1,0,0-4.811,2.367,2.367,0,0,0-2.405,2.405h0m9.308-.523a2.385,2.385,0,0,0-4.6,1.255,2.449,2.449,0,0,0,2.3,1.778,2.433,2.433,0,0,0-2.405,2.405,2.367,2.367,0,0,0,2.405,2.405,2.414,2.414,0,0,0-2.3,2.405,2.321,2.321,0,0,0,2.3,2.3,2.405,2.405,0,1,0,0,4.811,2.261,2.261,0,0,0,2.3-1.882,2.353,2.353,0,0,0,2.3,1.673,2.405,2.405,0,1,0,0,4.811,2.367,2.367,0,0,0,2.405-2.405h0a2.489,2.489,0,0,0-2.3-2.405h0a2.405,2.405,0,1,0,0-4.811,2.261,2.261,0,0,0-2.3,1.882,2.353,2.353,0,0,0-2.3-1.673,2.354,2.354,0,1,0,.1-4.706h0a2.354,2.354,0,0,0,.1-4.706h0a2.449,2.449,0,0,0,2.3-1.778,2.385,2.385,0,1,0,1.673-2.928,2.27,2.27,0,0,0-1.673,1.673m9.1.418a2.433,2.433,0,0,0,2.405,2.405,2.367,2.367,0,0,0,2.405-2.405,2.433,2.433,0,0,0-2.405-2.405h0a2.489,2.489,0,0,0-2.405,2.3h0m4.706.1a2.489,2.489,0,0,0,2.3,2.405h0a2.405,2.405,0,1,0,2.3,3.033,2.385,2.385,0,1,0,1.673-2.928,2.27,2.27,0,0,0-1.673,1.673,2.449,2.449,0,0,0-2.3-1.778,2.405,2.405,0,0,0,0-4.811,2.367,2.367,0,0,0-2.405,2.405h0m9.412,0a2.489,2.489,0,0,0,2.3,2.405h0a2.405,2.405,0,0,0,0,4.811,2.367,2.367,0,0,0,2.405-2.405h0a2.489,2.489,0,0,0-2.3-2.405h0a2.405,2.405,0,0,0,0-4.811,2.367,2.367,0,0,0-2.405,2.405h0m-70.279-4.5a2.433,2.433,0,0,0,2.405,2.405,2.367,2.367,0,0,0,2.405-2.405,2.433,2.433,0,0,0-2.405-2.405h0a2.489,2.489,0,0,0-2.405,2.3h0m-79.482,9.308a16.426,16.426,0,1,1,4.811,11.713,16.448,16.448,0,0,1-4.811-11.713M132.4,456.291a11.609,11.609,0,1,0-11.609-11.609A11.649,11.649,0,0,0,132.4,456.291m39.637-25.518a2.433,2.433,0,0,0,2.405,2.405,2.367,2.367,0,0,0,2.405-2.405,2.433,2.433,0,0,0-2.405-2.405h0a2.489,2.489,0,0,0-2.405,2.3h0m4.706.1a2.433,2.433,0,0,0,2.405,2.405,2.367,2.367,0,0,0,2.405-2.405,2.433,2.433,0,0,0-2.405-2.405h0a2.489,2.489,0,0,0-2.405,2.3h0m14.119-.523a2.385,2.385,0,1,0-1.673,2.928,2.27,2.27,0,0,0,1.673-1.673,2.385,2.385,0,1,0,1.673-2.928,2.27,2.27,0,0,0-1.673,1.673m14.119.628a2.489,2.489,0,0,0,2.3,2.405h0a2.405,2.405,0,1,0,2.3,3.033,2.385,2.385,0,1,0,1.673-2.928,2.27,2.27,0,0,0-1.673,1.673,2.356,2.356,0,0,0-2.3-1.778,2.405,2.405,0,1,0,0-4.811,2.367,2.367,0,0,0-2.405,2.405h0m32.839,0a2.433,2.433,0,0,0,2.405,2.405,2.367,2.367,0,0,0,2.405-2.405,2.433,2.433,0,0,0-2.405-2.405h0a2.489,2.489,0,0,0-2.405,2.3h0m14.014.1a2.433,2.433,0,0,0,2.405,2.405,2.367,2.367,0,0,0,2.405-2.405,2.433,2.433,0,0,0-2.405-2.405h0a2.489,2.489,0,0,0-2.405,2.3h0m-70.279-4.706a2.489,2.489,0,0,0,2.3,2.405h0a2.433,2.433,0,0,0-2.405,2.405,2.367,2.367,0,0,0,2.405,2.405h0a2.354,2.354,0,0,0-.1,4.706h0a2.354,2.354,0,1,0-.1,4.706h0a2.354,2.354,0,0,0-.1,4.706h0a2.354,2.354,0,0,0-.1,4.706h0a2.405,2.405,0,1,0,0,4.811,2.367,2.367,0,0,0,2.405-2.405h0a2.489,2.489,0,0,0-2.3-2.405h0a2.433,2.433,0,0,0,2.405-2.405,2.367,2.367,0,0,0-2.405-2.405,2.414,2.414,0,0,0,2.3-2.405,2.321,2.321,0,0,0-2.3-2.3,2.354,2.354,0,1,0,.1-4.706h0a2.414,2.414,0,0,0,2.3-2.405,2.321,2.321,0,0,0-2.3-2.3,2.354,2.354,0,0,0,.1-4.706h0a2.405,2.405,0,1,0,0-4.811,2.367,2.367,0,0,0-2.405,2.405h0m18.929,0a2.433,2.433,0,0,0,2.405,2.405,2.367,2.367,0,0,0,2.405-2.405,2.433,2.433,0,0,0-2.405-2.405h0a2.489,2.489,0,0,0-2.405,2.3h0m14.014.1a2.489,2.489,0,0,0,2.3,2.405h0a2.405,2.405,0,1,0,0,4.811,2.367,2.367,0,0,0,2.405-2.405h0a2.489,2.489,0,0,0-2.3-2.405h0a2.405,2.405,0,1,0-2.405-2.405m-70.175-4.706a2.433,2.433,0,0,0,2.405,2.405,2.367,2.367,0,0,0,2.405-2.405,2.433,2.433,0,0,0-2.405-2.405h0a2.489,2.489,0,0,0-2.405,2.3h0m4.706.1a2.433,2.433,0,0,0,2.405,2.405,2.367,2.367,0,0,0,2.405-2.405,2.433,2.433,0,0,0-2.405-2.405h0a2.489,2.489,0,0,0-2.405,2.3h0m7.112,11.922a2.449,2.449,0,0,0,2.3-1.778,2.356,2.356,0,0,0,2.3,1.778,2.449,2.449,0,0,0-2.3,1.778,2.356,2.356,0,0,0-2.3-1.778m0-4.706a2.449,2.449,0,0,0,2.3-1.778,2.449,2.449,0,0,0,2.3,1.778,2.449,2.449,0,0,0-2.3,1.778,2.449,2.449,0,0,0-2.3-1.778m2.2-7.112a2.489,2.489,0,0,0,2.3,2.405h0a2.449,2.449,0,0,0-2.3,1.778,2.385,2.385,0,1,0-4.6,1.255,2.449,2.449,0,0,0,2.3,1.778,2.354,2.354,0,1,0-.1,4.706h0a2.405,2.405,0,1,0,2.3,3.033,2.385,2.385,0,1,0,4.6-1.255,2.449,2.449,0,0,0-2.3-1.778,2.354,2.354,0,1,0,.1-4.706h0a2.414,2.414,0,0,0,2.3-2.405,2.321,2.321,0,0,0-2.3-2.3,2.433,2.433,0,0,0,2.405-2.405,2.405,2.405,0,0,0-4.811,0m4.811-.1a2.489,2.489,0,0,0,2.3,2.405h0a2.354,2.354,0,0,0-.1,4.706h0a2.414,2.414,0,0,0-2.3,2.405,2.321,2.321,0,0,0,2.3,2.3,2.354,2.354,0,0,0-.1,4.706h0a2.433,2.433,0,0,0-2.405,2.405,2.405,2.405,0,0,0,4.811,0h0a2.489,2.489,0,0,0-2.3-2.405h0a2.433,2.433,0,0,0,2.405-2.405,2.367,2.367,0,0,0-2.405-2.405,2.414,2.414,0,0,0,2.3-2.405,2.321,2.321,0,0,0-2.3-2.3,2.354,2.354,0,0,0,.1-4.706h0a2.433,2.433,0,0,0,2.405-2.405,2.405,2.405,0,0,0-4.811,0h0m56.37.1a2.489,2.489,0,0,0,2.3,2.405h0a2.354,2.354,0,0,0-.1,4.706h0a2.405,2.405,0,1,0,0,4.811,2.367,2.367,0,0,0,2.405-2.405h0a2.489,2.489,0,0,0-2.3-2.405h0a2.354,2.354,0,0,0,.1-4.706h0a2.405,2.405,0,1,0,0-4.811,2.367,2.367,0,0,0-2.405,2.405h0m14.014,0a2.433,2.433,0,0,0,2.405,2.405,2.367,2.367,0,0,0,2.405-2.405,2.433,2.433,0,0,0-2.405-2.405h0a2.489,2.489,0,0,0-2.405,2.3h0m9.308-.418a2.385,2.385,0,1,0-1.673,2.928,2.27,2.27,0,0,0,1.673-1.673,2.385,2.385,0,1,0,1.673-2.928,2.27,2.27,0,0,0-1.673,1.673m4.706.523a2.489,2.489,0,0,0,2.3,2.405h0a2.354,2.354,0,0,0-.1,4.706h0a2.414,2.414,0,0,0-2.3,2.405,2.321,2.321,0,0,0,2.3,2.3,2.354,2.354,0,1,0-.1,4.706h0a2.414,2.414,0,0,0-2.3,2.405,2.321,2.321,0,0,0,2.3,2.3,2.405,2.405,0,1,0,0,4.811,2.367,2.367,0,0,0,2.405-2.405h0a2.489,2.489,0,0,0-2.3-2.405h0a2.354,2.354,0,1,0,.1-4.706h0a2.354,2.354,0,0,0,.1-4.706h0a2.354,2.354,0,0,0,.1-4.706h0a2.354,2.354,0,1,0,.1-4.706h0a2.405,2.405,0,1,0,0-4.811,2.367,2.367,0,0,0-2.405,2.405h0m18.511,0a2.489,2.489,0,0,0,2.3,2.405h0a2.354,2.354,0,0,0-.1,4.706h0a2.405,2.405,0,1,0,0,4.811,2.367,2.367,0,0,0,2.405-2.405h0a2.489,2.489,0,0,0-2.3-2.405h0a2.354,2.354,0,1,0,.1-4.706h0a2.405,2.405,0,1,0,0-4.811,2.367,2.367,0,0,0-2.405,2.405h0m-140.454-4.5a2.433,2.433,0,0,0,2.405,2.405,2.367,2.367,0,0,0,2.405-2.405,2.433,2.433,0,0,0-2.405-2.405h0a2.489,2.489,0,0,0-2.405,2.3h0m4.706.1a2.433,2.433,0,0,0,2.405,2.405,2.367,2.367,0,0,0,2.405-2.405,2.433,2.433,0,0,0-2.405-2.405h0a2.489,2.489,0,0,0-2.405,2.3h0m39.846,2.405a2.449,2.449,0,0,0,2.3-1.778,2.449,2.449,0,0,0,2.3,1.778,2.449,2.449,0,0,0-2.3,1.778,2.449,2.449,0,0,0-2.3-1.778m2.3-2.928a2.385,2.385,0,0,0-4.6,1.255,2.449,2.449,0,0,0,2.3,1.778,2.405,2.405,0,1,0,2.3,3.033,2.385,2.385,0,1,0,4.6-1.255,2.449,2.449,0,0,0-2.3-1.778,2.405,2.405,0,1,0-2.3-3.033m23.322.628a2.489,2.489,0,0,0,2.3,2.405h0a2.354,2.354,0,0,0-.1,4.706h0a2.405,2.405,0,1,0,0,4.811,2.367,2.367,0,0,0,2.405-2.405h0a2.489,2.489,0,0,0-2.3-2.405h0a2.354,2.354,0,0,0,.1-4.706h0a2.405,2.405,0,1,0,0-4.811,2.367,2.367,0,0,0-2.405,2.405h0M226,442.382a2.353,2.353,0,0,0,2.3-1.673,2.173,2.173,0,0,0,2.3,1.882,2.353,2.353,0,0,0-2.3,1.673,2.173,2.173,0,0,0-2.3-1.882m2.2-25.623a2.489,2.489,0,0,0,2.3,2.405h0a2.353,2.353,0,0,0-2.3,1.673,2.359,2.359,0,1,0-1.778,2.824,2.589,2.589,0,0,0,1.778-1.673,2.359,2.359,0,0,0,2.3,1.882,2.354,2.354,0,1,0-.1,4.706h0a2.353,2.353,0,0,0-2.3,1.673,2.359,2.359,0,1,0-1.778,2.824,2.589,2.589,0,0,0,1.778-1.673,2.359,2.359,0,0,0,2.3,1.882,2.354,2.354,0,0,0-.1,4.706h0a2.353,2.353,0,0,0-2.3,1.673,2.339,2.339,0,0,0-4.6.837,2.261,2.261,0,0,0,2.3,1.882,2.405,2.405,0,1,0,0,4.811,2.231,2.231,0,0,0,2.2-1.673,2.339,2.339,0,1,0,4.6-.837,2.261,2.261,0,0,0-2.3-1.882,2.354,2.354,0,0,0,.1-4.706h0a2.354,2.354,0,1,0,.1-4.706h0a2.354,2.354,0,0,0,.1-4.706h0a2.354,2.354,0,0,0,.1-4.706h0a2.354,2.354,0,1,0,.1-4.706h0a2.405,2.405,0,1,0,0-4.811,2.367,2.367,0,0,0-2.405,2.405h0m23.426-.1a2.489,2.489,0,0,0,2.3,2.405h0a2.405,2.405,0,1,0,0,4.811,2.367,2.367,0,0,0,2.405-2.405h0a2.489,2.489,0,0,0-2.3-2.405h0a2.405,2.405,0,1,0,0-4.811,2.367,2.367,0,0,0-2.405,2.405h0m9.308,0a2.489,2.489,0,0,0,2.3,2.405h0a2.353,2.353,0,0,0-2.3,1.673,2.36,2.36,0,1,0-2.3,2.928,2.405,2.405,0,1,0,2.405,2.405h0a2.489,2.489,0,0,0-2.3-2.405h0a2.353,2.353,0,0,0,2.3-1.673,2.36,2.36,0,1,0,2.3-2.928,2.405,2.405,0,1,0,0-4.811,2.367,2.367,0,0,0-2.405,2.405h0m-117.027-4.811a2.433,2.433,0,0,0,2.405,2.405,2.367,2.367,0,0,0,2.405-2.405,2.433,2.433,0,0,0-2.405-2.405h0a2.489,2.489,0,0,0-2.405,2.3h0m14.014.1a2.433,2.433,0,0,0,2.405,2.405,2.367,2.367,0,0,0,2.405-2.405,2.433,2.433,0,0,0-2.405-2.405h0a2.489,2.489,0,0,0-2.405,2.3h0m42.147.1a2.433,2.433,0,0,0,2.405,2.405,2.367,2.367,0,0,0,2.405-2.405,2.433,2.433,0,0,0-2.405-2.405h0a2.489,2.489,0,0,0-2.405,2.3h0m7.112,7.216a2.449,2.449,0,0,0,2.3-1.778,2.449,2.449,0,0,0,2.3,1.778,2.449,2.449,0,0,0-2.3,1.778,2.449,2.449,0,0,0-2.3-1.778m2.2-7.112a2.489,2.489,0,0,0,2.3,2.405h0a2.449,2.449,0,0,0-2.3,1.778,2.385,2.385,0,0,0-4.6,1.255,2.449,2.449,0,0,0,2.3,1.778,2.405,2.405,0,1,0,2.3,3.033,2.356,2.356,0,0,0,2.3,1.778,2.405,2.405,0,1,0,0,4.811,2.367,2.367,0,0,0,2.405-2.405h0a2.489,2.489,0,0,0-2.3-2.405h0a2.354,2.354,0,0,0,.1-4.706h0a2.414,2.414,0,0,0,2.3-2.405,2.321,2.321,0,0,0-2.3-2.3,2.405,2.405,0,1,0,0-4.811,2.367,2.367,0,0,0-2.405,2.405h0m9.412-.209a2.433,2.433,0,0,0,2.405,2.405,2.367,2.367,0,0,0,2.405-2.405,2.433,2.433,0,0,0-2.405-2.405h0a2.489,2.489,0,0,0-2.405,2.3h0m28.028.1a2.433,2.433,0,0,0,2.405,2.405,2.367,2.367,0,0,0,2.405-2.405,2.433,2.433,0,0,0-2.405-2.405h0a2.489,2.489,0,0,0-2.405,2.3h0M130,407.242a2.433,2.433,0,0,0,2.405,2.405,2.367,2.367,0,0,0,2.405-2.405,2.433,2.433,0,0,0-2.405-2.405h0a2.489,2.489,0,0,0-2.405,2.3h0m4.706.1a2.489,2.489,0,0,0,2.3,2.405h0a2.405,2.405,0,1,0,2.3,3.033,2.356,2.356,0,0,0,2.3,1.778,2.433,2.433,0,0,0-2.405,2.405,2.405,2.405,0,0,0,4.811,0h0a2.489,2.489,0,0,0-2.3-2.405h0a2.405,2.405,0,1,0-2.3-3.033,2.449,2.449,0,0,0-2.3-1.778,2.433,2.433,0,0,0,2.405-2.405,2.405,2.405,0,0,0-4.811,0h0m18.72,0a2.433,2.433,0,0,0,2.405,2.405,2.367,2.367,0,0,0,2.405-2.405,2.433,2.433,0,0,0-2.405-2.405h0a2.489,2.489,0,0,0-2.405,2.3h0m23.322.1a2.489,2.489,0,0,0,2.3,2.405h0a2.354,2.354,0,0,0-.1,4.706h0a2.405,2.405,0,1,0,0,4.811,2.367,2.367,0,0,0,2.405-2.405h0a2.489,2.489,0,0,0-2.3-2.405h0a2.354,2.354,0,0,0,.1-4.706h0a2.405,2.405,0,1,0,0-4.811,2.367,2.367,0,0,0-2.405,2.405h0m18.72,0a2.433,2.433,0,0,0,2.405,2.405,2.367,2.367,0,0,0,2.405-2.405,2.433,2.433,0,0,0-2.405-2.405h0a2.489,2.489,0,0,0-2.405,2.3h0m32.839-.418a2.385,2.385,0,0,0-4.6,1.255,2.449,2.449,0,0,0,2.3,1.778,2.405,2.405,0,1,0,0,4.811,2.367,2.367,0,0,0,2.405-2.405h0a2.489,2.489,0,0,0-2.3-2.405h0a2.449,2.449,0,0,0,2.3-1.778,2.385,2.385,0,1,0,1.673-2.928,2.27,2.27,0,0,0-1.673,1.673m9.308.523a2.433,2.433,0,0,0,2.405,2.405,2.367,2.367,0,0,0,2.405-2.405,2.433,2.433,0,0,0-2.405-2.405h0a2.489,2.489,0,0,0-2.405,2.3h0m23.322-.418a2.385,2.385,0,0,0-4.6,1.255,2.449,2.449,0,0,0,2.3,1.778,2.405,2.405,0,1,0,0,4.811,2.367,2.367,0,0,0,2.405-2.405h0a2.489,2.489,0,0,0-2.3-2.405h0a2.449,2.449,0,0,0,2.3-1.778,2.385,2.385,0,1,0,1.673-2.928,2.27,2.27,0,0,0-1.673,1.673m-142.754,7.635a2.353,2.353,0,0,0,2.3-1.673,2.359,2.359,0,0,0,2.3,1.882,2.353,2.353,0,0,0-2.3,1.673,2.359,2.359,0,0,0-2.3-1.882m2.2-11.609a2.489,2.489,0,0,0,2.3,2.405h0a2.354,2.354,0,1,0-.1,4.706h0a2.353,2.353,0,0,0-2.3,1.673,2.36,2.36,0,1,0-2.3,2.928,2.405,2.405,0,1,0,0,4.811,2.487,2.487,0,0,0,2.3-1.673,2.36,2.36,0,1,0,2.3-2.928,2.354,2.354,0,0,0,.1-4.706h0a2.354,2.354,0,1,0,.1-4.706h0a2.433,2.433,0,0,0,2.405-2.405,2.405,2.405,0,1,0-4.811,0h0m18.72-.1a2.433,2.433,0,0,0,2.405,2.405,2.367,2.367,0,0,0,2.405-2.405,2.433,2.433,0,0,0-2.405-2.405h0a2.489,2.489,0,0,0-2.405,2.3h0m4.706.1a2.433,2.433,0,0,0,2.405,2.405,2.367,2.367,0,0,0,2.405-2.405,2.433,2.433,0,0,0-2.405-2.405h0a2.489,2.489,0,0,0-2.405,2.3h0m14.014.1a2.433,2.433,0,0,0,2.405,2.405,2.367,2.367,0,0,0,2.405-2.405,2.433,2.433,0,0,0-2.405-2.405h0a2.489,2.489,0,0,0-2.405,2.3h0m23.426.1a2.489,2.489,0,0,0,2.3,2.405h0a2.354,2.354,0,0,0-.1,4.706h0a2.354,2.354,0,0,0-.1,4.706h0a2.405,2.405,0,1,0,0,4.811,2.367,2.367,0,0,0,2.405-2.405h0a2.489,2.489,0,0,0-2.3-2.405h0a2.433,2.433,0,0,0,2.405-2.405,2.367,2.367,0,0,0-2.405-2.405,2.354,2.354,0,0,0,.1-4.706h0a2.405,2.405,0,1,0,0-4.811,2.367,2.367,0,0,0-2.405,2.405h0m23.636.1a2.489,2.489,0,0,0,2.3,2.405h0a2.405,2.405,0,1,0,0,4.811,2.367,2.367,0,0,0,2.405-2.405h0a2.489,2.489,0,0,0-2.3-2.405h0a2.405,2.405,0,1,0,0-4.811,2.367,2.367,0,0,0-2.405,2.405h0m14.014,0a2.433,2.433,0,0,0,2.405,2.405,2.367,2.367,0,0,0,2.405-2.405,2.433,2.433,0,0,0-2.405-2.405h0a2.489,2.489,0,0,0-2.405,2.3h0m46.748.1a2.489,2.489,0,0,0,2.3,2.405h0a2.405,2.405,0,0,0,0,4.811,2.367,2.367,0,0,0,2.405-2.405h0a2.489,2.489,0,0,0-2.3-2.405h0a2.405,2.405,0,0,0,0-4.811,2.367,2.367,0,0,0-2.405,2.405h0M134.7,397.935a2.433,2.433,0,0,0,2.405,2.405,2.367,2.367,0,0,0,2.405-2.405,2.433,2.433,0,0,0-2.405-2.405h0a2.489,2.489,0,0,0-2.405,2.3h0m18.72.1a2.433,2.433,0,0,0,2.405,2.405,2.367,2.367,0,0,0,2.405-2.405,2.433,2.433,0,0,0-2.405-2.405h0a2.489,2.489,0,0,0-2.405,2.3h0m9.308.1a2.489,2.489,0,0,0,2.3,2.405h0a2.354,2.354,0,0,0-.1,4.706h0a2.354,2.354,0,0,0-.1,4.706h0a2.433,2.433,0,0,0-2.405,2.405,2.405,2.405,0,0,0,4.811,0h0a2.489,2.489,0,0,0-2.3-2.405h0a2.354,2.354,0,1,0,.1-4.706h0a2.414,2.414,0,0,0,2.3-2.405,2.321,2.321,0,0,0-2.3-2.3,2.433,2.433,0,0,0,2.405-2.405,2.405,2.405,0,0,0-4.811,0h0m4.811,0a2.433,2.433,0,0,0,2.405,2.405,2.367,2.367,0,0,0,2.405-2.405,2.433,2.433,0,0,0-2.405-2.405h0a2.489,2.489,0,0,0-2.405,2.3h0m46.748.1a2.489,2.489,0,0,0,2.3,2.405h0a2.354,2.354,0,0,0-.1,4.706h0a2.354,2.354,0,1,0-.1,4.706h0a2.405,2.405,0,1,0,0,4.811,2.367,2.367,0,0,0,2.405-2.405h0a2.489,2.489,0,0,0-2.3-2.405h0a2.354,2.354,0,0,0,.1-4.706h0a2.354,2.354,0,1,0,.1-4.706h0a2.405,2.405,0,1,0,0-4.811,2.367,2.367,0,0,0-2.405,2.405h0m14.014,0a2.433,2.433,0,0,0,2.405,2.405,2.367,2.367,0,0,0,2.405-2.405,2.433,2.433,0,0,0-2.405-2.405h0a2.489,2.489,0,0,0-2.405,2.3h0m4.811.1a2.489,2.489,0,0,0,2.3,2.405h0a2.405,2.405,0,1,0,0,4.811,2.367,2.367,0,0,0,2.405-2.405h0a2.489,2.489,0,0,0-2.3-2.405h0a2.405,2.405,0,1,0,0-4.811,2.367,2.367,0,0,0-2.405,2.405h0m9.2,0a2.489,2.489,0,0,0,2.3,2.405h0a2.405,2.405,0,1,0,0,4.811,2.367,2.367,0,0,0,2.405-2.405h0a2.489,2.489,0,0,0-2.3-2.405h0a2.405,2.405,0,1,0,0-4.811,2.367,2.367,0,0,0-2.405,2.405h0m4.811,0a2.433,2.433,0,0,0,2.405,2.405,2.367,2.367,0,0,0,2.405-2.405,2.433,2.433,0,0,0-2.405-2.405h0a2.489,2.489,0,0,0-2.405,2.3h0m-131.041-4.6a2.489,2.489,0,0,0,2.3,2.405h0a2.433,2.433,0,0,0-2.405,2.405,2.405,2.405,0,0,0,4.811,0h0a2.489,2.489,0,0,0-2.3-2.405h0a2.433,2.433,0,0,0,2.405-2.405,2.405,2.405,0,0,0-4.811,0h0m28.028,0a2.433,2.433,0,0,0,2.405,2.405,2.367,2.367,0,0,0,2.405-2.405,2.433,2.433,0,0,0-2.405-2.405h0a2.489,2.489,0,0,0-2.405,2.3h0m74.985.1a2.433,2.433,0,0,0,2.405,2.405,2.367,2.367,0,0,0,2.405-2.405,2.433,2.433,0,0,0-2.405-2.405h0a2.489,2.489,0,0,0-2.405,2.3h0m18.72.1a2.433,2.433,0,0,0,2.405,2.405,2.367,2.367,0,0,0,2.405-2.405,2.433,2.433,0,0,0-2.405-2.405h0a2.489,2.489,0,0,0-2.405,2.3h0m18.72.1a2.433,2.433,0,0,0,2.405,2.405,2.367,2.367,0,0,0,2.405-2.405,2.433,2.433,0,0,0-2.405-2.405h0a2.489,2.489,0,0,0-2.405,2.3h0m-135.852-4.6a2.433,2.433,0,0,0,2.405,2.405,2.367,2.367,0,0,0,2.405-2.405,2.433,2.433,0,0,0-2.405-2.405h0a2.489,2.489,0,0,0-2.405,2.3h0m4.706.1a2.433,2.433,0,0,0,2.405,2.405,2.367,2.367,0,0,0,2.405-2.405,2.433,2.433,0,0,0-2.405-2.405h0a2.489,2.489,0,0,0-2.405,2.3h0m4.706.1a2.433,2.433,0,0,0,2.405,2.405,2.367,2.367,0,0,0,2.405-2.405,2.433,2.433,0,0,0-2.405-2.405h0a2.489,2.489,0,0,0-2.405,2.3h0m18.72.1a2.489,2.489,0,0,0,2.3,2.405h0a2.354,2.354,0,0,0-.1,4.706h0a2.414,2.414,0,0,0-2.3,2.405,2.321,2.321,0,0,0,2.3,2.3,2.354,2.354,0,1,0-.1,4.706h0a2.433,2.433,0,0,0-2.405,2.405,2.405,2.405,0,0,0,4.811,0h0a2.489,2.489,0,0,0-2.3-2.405h0a2.354,2.354,0,0,0,.1-4.706h0a2.354,2.354,0,1,0,.1-4.706h0a2.354,2.354,0,0,0,.1-4.706h0a2.433,2.433,0,0,0,2.405-2.405,2.405,2.405,0,0,0-4.811,0h0m56.161,0a2.433,2.433,0,0,0,2.405,2.405,2.367,2.367,0,0,0,2.405-2.405,2.433,2.433,0,0,0-2.405-2.405h0a2.489,2.489,0,0,0-2.405,2.3h0m28.028.1a2.433,2.433,0,0,0,2.405,2.405,2.367,2.367,0,0,0,2.405-2.405,2.433,2.433,0,0,0-2.405-2.405h0a2.489,2.489,0,0,0-2.405,2.3h0m9.2.1a2.433,2.433,0,0,0,2.405,2.405,2.367,2.367,0,0,0,2.405-2.405,2.433,2.433,0,0,0-2.405-2.405h0a2.489,2.489,0,0,0-2.405,2.3h0m-126.231-4.5a2.433,2.433,0,0,0,2.405,2.405,2.367,2.367,0,0,0,2.405-2.405,2.433,2.433,0,0,0-2.405-2.405h0a2.489,2.489,0,0,0-2.405,2.3h0m28.028.1a2.433,2.433,0,0,0,2.405,2.405,2.367,2.367,0,0,0,2.405-2.405,2.433,2.433,0,0,0-2.405-2.405h0a2.489,2.489,0,0,0-2.405,2.3h0m14.119-.418a2.385,2.385,0,1,0-1.673,2.928,2.27,2.27,0,0,0,1.673-1.673,2.385,2.385,0,1,0,1.673-2.928,2.27,2.27,0,0,0-1.673,1.673m4.6.523a2.489,2.489,0,0,0,2.3,2.405h0a2.433,2.433,0,0,0-2.405,2.405,2.405,2.405,0,1,0,4.811,0h0a2.489,2.489,0,0,0-2.3-2.405h0a2.433,2.433,0,0,0,2.405-2.405,2.405,2.405,0,0,0-4.811,0h0m9.412-.523a2.385,2.385,0,0,0-4.6,1.255,2.449,2.449,0,0,0,2.3,1.778,2.433,2.433,0,0,0-2.405,2.405,2.405,2.405,0,0,0,4.811,0h0a2.489,2.489,0,0,0-2.3-2.405h0a2.449,2.449,0,0,0,2.3-1.778,2.385,2.385,0,1,0,1.673-2.928,2.27,2.27,0,0,0-1.673,1.673m23.217.523a2.433,2.433,0,0,0,2.405,2.405,2.367,2.367,0,0,0,2.405-2.405,2.433,2.433,0,0,0-2.405-2.405h0a2.489,2.489,0,0,0-2.405,2.3h0m18.72.1a2.433,2.433,0,0,0,2.405,2.405,2.367,2.367,0,0,0,2.405-2.405,2.433,2.433,0,0,0-2.405-2.405h0a2.489,2.489,0,0,0-2.405,2.3h0m23.531.1a2.433,2.433,0,0,0,2.405,2.405,2.367,2.367,0,0,0,2.405-2.405,2.433,2.433,0,0,0-2.405-2.405h0a2.489,2.489,0,0,0-2.405,2.3h0m9.308.1a2.489,2.489,0,0,0,2.3,2.405h0a2.405,2.405,0,1,0,0,4.811,2.367,2.367,0,0,0,2.405-2.405h0a2.489,2.489,0,0,0-2.3-2.405h0a2.405,2.405,0,1,0,0-4.811,2.367,2.367,0,0,0-2.405,2.405h0m4.706,0a2.489,2.489,0,0,0,2.3,2.405h0a2.354,2.354,0,0,0-.1,4.706h0a2.354,2.354,0,0,0-.1,4.706h0a2.354,2.354,0,1,0-.1,4.706h0a2.414,2.414,0,0,0-2.3,2.405,2.321,2.321,0,0,0,2.3,2.3,2.405,2.405,0,1,0,0,4.811,2.367,2.367,0,0,0,2.405-2.405h0a2.489,2.489,0,0,0-2.3-2.405h0a2.433,2.433,0,0,0,2.405-2.405,2.367,2.367,0,0,0-2.405-2.405,2.414,2.414,0,0,0,2.3-2.405,2.321,2.321,0,0,0-2.3-2.3,2.354,2.354,0,1,0,.1-4.706h0a2.414,2.414,0,0,0,2.3-2.405,2.321,2.321,0,0,0-2.3-2.3,2.405,2.405,0,1,0,0-4.811,2.367,2.367,0,0,0-2.405,2.405h0m14.223.1a2.489,2.489,0,0,0,2.3,2.405h0a2.405,2.405,0,0,0,0,4.811,2.367,2.367,0,0,0,2.405-2.405h0a2.489,2.489,0,0,0-2.3-2.405h0a2.405,2.405,0,0,0,0-4.811,2.367,2.367,0,0,0-2.405,2.405h0m-145.16-4.706a2.433,2.433,0,0,0,2.405,2.405,2.367,2.367,0,0,0,2.405-2.405,2.433,2.433,0,0,0-2.405-2.405h0a2.489,2.489,0,0,0-2.405,2.3h0m18.72.1a2.489,2.489,0,0,0,2.3,2.405h0a2.449,2.449,0,0,0-2.3,1.778,2.385,2.385,0,1,0-1.673,2.928,2.27,2.27,0,0,0,1.673-1.673,2.385,2.385,0,0,0,4.6-1.255,2.449,2.449,0,0,0-2.3-1.778,2.433,2.433,0,0,0,2.405-2.405,2.405,2.405,0,0,0-4.811,0h0m42.251,0a2.489,2.489,0,0,0,2.3,2.405h0a2.405,2.405,0,1,0,0,4.811,2.367,2.367,0,0,0,2.405-2.405h0a2.489,2.489,0,0,0-2.3-2.405h0a2.405,2.405,0,1,0,0-4.811,2.367,2.367,0,0,0-2.405,2.405h0m7.112,30.433a2.353,2.353,0,0,0,2.3-1.673,2.173,2.173,0,0,0,2.3,1.882,2.353,2.353,0,0,0-2.3,1.673,2.173,2.173,0,0,0-2.3-1.882m0-23.322a2.449,2.449,0,0,0,2.3-1.778,2.449,2.449,0,0,0,2.3,1.778,2.449,2.449,0,0,0-2.3,1.778,2.449,2.449,0,0,0-2.3-1.778m-2.405-7.112a2.489,2.489,0,0,0,2.3,2.405h0a2.354,2.354,0,1,0-.1,4.706h0a2.405,2.405,0,1,0,2.3,3.033,2.449,2.449,0,0,0,2.3,1.778,2.354,2.354,0,0,0-.1,4.706h0a2.353,2.353,0,0,0-2.3,1.673,2.359,2.359,0,1,0-1.778,2.824,2.589,2.589,0,0,0,1.778-1.673,2.359,2.359,0,0,0,2.3,1.882,2.354,2.354,0,1,0-.1,4.706h0a2.353,2.353,0,0,0-2.3,1.673,2.339,2.339,0,0,0-4.6.837,2.261,2.261,0,0,0,2.3,1.882,2.405,2.405,0,1,0,0,4.811,2.231,2.231,0,0,0,2.2-1.673,2.173,2.173,0,0,0,2.3,1.882,2.354,2.354,0,0,0-.1,4.706h0a2.261,2.261,0,0,0-2.2,1.569,2.322,2.322,0,1,0-1.987,2.615,2.4,2.4,0,0,0,1.882-1.569,2.38,2.38,0,0,0,2.719,1.987,2.308,2.308,0,0,0,1.987-2.719,2.352,2.352,0,0,0-2.3-1.987,2.354,2.354,0,1,0,.1-4.706h0a2.414,2.414,0,0,0,2.3-2.405,2.321,2.321,0,0,0-2.3-2.3,2.354,2.354,0,0,0,.1-4.706h0a2.414,2.414,0,0,0,2.3-2.405,2.321,2.321,0,0,0-2.3-2.3,2.354,2.354,0,1,0,.1-4.706h0a2.354,2.354,0,0,0,.1-4.706h-.1a2.433,2.433,0,0,0,2.405-2.405,2.367,2.367,0,0,0-2.405-2.405,2.405,2.405,0,1,0-2.3-3.033,2.449,2.449,0,0,0-2.3-1.778,2.405,2.405,0,1,0,0-4.811,2.367,2.367,0,0,0-2.405,2.405h0m19.034.209a2.433,2.433,0,0,0,2.405,2.405,2.367,2.367,0,0,0,2.405-2.405,2.433,2.433,0,0,0-2.405-2.405h0a2.489,2.489,0,0,0-2.405,2.3h0m14.014.1a2.433,2.433,0,0,0,2.405,2.405,2.367,2.367,0,0,0,2.405-2.405,2.433,2.433,0,0,0-2.405-2.405h0a2.489,2.489,0,0,0-2.405,2.3h0m9.308-.418a2.385,2.385,0,1,0-4.6,1.255,2.449,2.449,0,0,0,2.3,1.778,2.354,2.354,0,0,0-.1,4.706h0a2.414,2.414,0,0,0-2.3,2.405,2.321,2.321,0,0,0,2.3,2.3,2.405,2.405,0,1,0,0,4.811,2.367,2.367,0,0,0,2.405-2.405h0a2.489,2.489,0,0,0-2.3-2.405h0a2.261,2.261,0,0,0,2.3-1.882,2.349,2.349,0,1,0,1.569-2.928A2.406,2.406,0,0,0,228.2,388.1a2.353,2.353,0,0,0-2.3-1.673,2.354,2.354,0,1,0,.1-4.706h0a2.449,2.449,0,0,0,2.3-1.778,2.385,2.385,0,1,0,1.673-2.928,2.27,2.27,0,0,0-1.673,1.673m-103.013-4.183a2.433,2.433,0,0,0,2.405,2.405,2.367,2.367,0,0,0,2.405-2.405,2.433,2.433,0,0,0-2.405-2.405h0a2.489,2.489,0,0,0-2.405,2.3h0m18.72.1a2.433,2.433,0,0,0,2.405,2.405,2.367,2.367,0,0,0,2.405-2.405,2.433,2.433,0,0,0-2.405-2.405h0a2.489,2.489,0,0,0-2.405,2.3h0m4.706.1a2.433,2.433,0,0,0,2.405,2.405,2.367,2.367,0,0,0,2.405-2.405,2.433,2.433,0,0,0-2.405-2.405h0a2.489,2.489,0,0,0-2.405,2.3h0m28.028.1a2.489,2.489,0,0,0,2.3,2.405h0a2.354,2.354,0,0,0-.1,4.706h0a2.405,2.405,0,1,0,0,4.811,2.367,2.367,0,0,0,2.405-2.405h0a2.489,2.489,0,0,0-2.3-2.405h0a2.354,2.354,0,0,0,.1-4.706h0a2.405,2.405,0,1,0,0-4.811,2.367,2.367,0,0,0-2.405,2.405h0m23.426,0a2.489,2.489,0,0,0,2.3,2.405h0a2.405,2.405,0,1,0,0,4.811,2.367,2.367,0,0,0,2.405-2.405h0a2.489,2.489,0,0,0-2.3-2.405h0a2.405,2.405,0,1,0,0-4.811,2.367,2.367,0,0,0-2.405,2.405h0m9.308,0a2.433,2.433,0,0,0,2.405,2.405,2.367,2.367,0,0,0,2.405-2.405,2.433,2.433,0,0,0-2.405-2.405h0a2.489,2.489,0,0,0-2.405,2.3h0m37.545.1a2.433,2.433,0,0,0,2.405,2.405,2.367,2.367,0,0,0,2.405-2.405,2.433,2.433,0,0,0-2.405-2.405h0a2.489,2.489,0,0,0-2.405,2.3h0m18.72.1a2.433,2.433,0,0,0,2.405,2.405,2.367,2.367,0,0,0,2.405-2.405,2.433,2.433,0,0,0-2.405-2.405h0a2.489,2.489,0,0,0-2.405,2.3h0M162.73,369.8a2.433,2.433,0,0,0,2.405,2.405,2.367,2.367,0,0,0,2.405-2.405,2.433,2.433,0,0,0-2.405-2.405h0a2.489,2.489,0,0,0-2.405,2.3h0m9.412-.523a2.385,2.385,0,1,0-1.673,2.928,2.27,2.27,0,0,0,1.673-1.673,2.449,2.449,0,0,0,2.3,1.778,2.405,2.405,0,1,0,0,4.811,2.367,2.367,0,0,0,2.405-2.405h0a2.489,2.489,0,0,0-2.3-2.405h0a2.405,2.405,0,1,0-2.3-3.033m9.2.627a2.433,2.433,0,0,0,2.405,2.405,2.367,2.367,0,0,0,2.405-2.405,2.433,2.433,0,0,0-2.405-2.405h0a2.489,2.489,0,0,0-2.405,2.3h0m14.014.1a2.489,2.489,0,0,0,2.3,2.405h0a2.405,2.405,0,1,0,0,4.811,2.367,2.367,0,0,0,2.405-2.405h0a2.489,2.489,0,0,0-2.3-2.405h0a2.405,2.405,0,1,0,0-4.811,2.367,2.367,0,0,0-2.405,2.405h0m9.412,0a2.433,2.433,0,0,0,2.405,2.405,2.367,2.367,0,0,0,2.405-2.405,2.433,2.433,0,0,0-2.405-2.405h0a2.489,2.489,0,0,0-2.405,2.3h0m14.014.1a2.433,2.433,0,0,0,2.405,2.405A2.367,2.367,0,0,0,223.7,369.8,2.433,2.433,0,0,0,221.3,367.4h0a2.489,2.489,0,0,0-2.405,2.3h0m14.014.1a2.489,2.489,0,0,0,2.3,2.405h0a2.354,2.354,0,1,0-.1,4.706h0a2.405,2.405,0,1,0,0,4.811,2.367,2.367,0,0,0,2.405-2.405h0a2.489,2.489,0,0,0-2.3-2.405h0a2.354,2.354,0,0,0,.1-4.706h0a2.405,2.405,0,1,0,0-4.811A2.367,2.367,0,0,0,232.9,369.8h0m18.825,0a2.433,2.433,0,0,0,2.405,2.405,2.367,2.367,0,0,0,2.405-2.405,2.433,2.433,0,0,0-2.405-2.405h0a2.489,2.489,0,0,0-2.405,2.3h0m4.706.1a2.489,2.489,0,0,0,2.3,2.405h0a2.354,2.354,0,0,0-.1,4.706h0a2.354,2.354,0,0,0-.1,4.706h0a2.405,2.405,0,1,0,2.3,3.033,2.385,2.385,0,1,0,1.673-2.928,2.27,2.27,0,0,0-1.673,1.673,2.449,2.449,0,0,0-2.3-1.778,2.354,2.354,0,1,0,.1-4.706h0a2.414,2.414,0,0,0,2.3-2.405,2.321,2.321,0,0,0-2.3-2.3,2.405,2.405,0,1,0,0-4.811,2.367,2.367,0,0,0-2.405,2.405h0m-135.643-4.6a2.489,2.489,0,0,0,2.3,2.405h0a2.353,2.353,0,0,0-2.3,1.673,2.36,2.36,0,1,0-2.3,2.928,2.433,2.433,0,0,0-2.405,2.405,2.405,2.405,0,0,0,4.811,0h0a2.489,2.489,0,0,0-2.3-2.405h0a2.353,2.353,0,0,0,2.3-1.673,2.36,2.36,0,1,0,2.3-2.928,2.433,2.433,0,0,0,2.405-2.405,2.405,2.405,0,0,0-4.811,0h0m23.426,0a2.433,2.433,0,0,0,2.405,2.405,2.367,2.367,0,0,0,2.405-2.405,2.433,2.433,0,0,0-2.405-2.405h0a2.489,2.489,0,0,0-2.405,2.3h0m9.412.1a2.433,2.433,0,0,0,2.405,2.405,2.367,2.367,0,0,0,2.405-2.405,2.433,2.433,0,0,0-2.405-2.405h0a2.489,2.489,0,0,0-2.405,2.3h0m46.748.1a2.433,2.433,0,0,0,2.405,2.405,2.367,2.367,0,0,0,2.405-2.405,2.433,2.433,0,0,0-2.405-2.405h0a2.489,2.489,0,0,0-2.405,2.3h0m-84.189-4.6a2.433,2.433,0,0,0,2.405,2.405,2.367,2.367,0,0,0,2.405-2.405,2.433,2.433,0,0,0-2.405-2.405h0a2.489,2.489,0,0,0-2.405,2.3h0m14.014.1a2.489,2.489,0,0,0,2.3,2.405h0a2.433,2.433,0,0,0-2.405,2.405,2.405,2.405,0,0,0,4.811,0h0a2.489,2.489,0,0,0-2.3-2.405h0a2.433,2.433,0,0,0,2.405-2.405,2.405,2.405,0,0,0-4.811,0h0m4.706,0A2.489,2.489,0,0,0,137,362.9h0a2.354,2.354,0,1,0-.1,4.706h0a2.354,2.354,0,0,0-.1,4.706h0a2.433,2.433,0,0,0-2.405,2.405,2.405,2.405,0,0,0,4.811,0h0a2.489,2.489,0,0,0-2.3-2.405h0a2.354,2.354,0,0,0,.1-4.706h0a2.414,2.414,0,0,0,2.3-2.405,2.321,2.321,0,0,0-2.3-2.3,2.433,2.433,0,0,0,2.405-2.405,2.405,2.405,0,1,0-4.811,0h0m28.133,0a2.433,2.433,0,0,0,2.405,2.405,2.367,2.367,0,0,0,2.405-2.405,2.433,2.433,0,0,0-2.405-2.405h0a2.489,2.489,0,0,0-2.405,2.3h0m32.734.1a2.433,2.433,0,0,0,2.405,2.405,2.367,2.367,0,0,0,2.405-2.405,2.433,2.433,0,0,0-2.405-2.405h0a2.489,2.489,0,0,0-2.405,2.3h0m51.559.1a2.433,2.433,0,0,0,2.405,2.405,2.367,2.367,0,0,0,2.405-2.405,2.433,2.433,0,0,0-2.405-2.405h0a2.489,2.489,0,0,0-2.405,2.3h0m4.706.1a2.433,2.433,0,0,0,2.405,2.405,2.367,2.367,0,0,0,2.405-2.405,2.433,2.433,0,0,0-2.405-2.405h0a2.489,2.489,0,0,0-2.405,2.3h0m9.308.1a2.433,2.433,0,0,0,2.405,2.405,2.367,2.367,0,0,0,2.405-2.405,2.433,2.433,0,0,0-2.405-2.405h0a2.489,2.489,0,0,0-2.405,2.3h0m4.706.1a2.489,2.489,0,0,0,2.3,2.405h0a2.405,2.405,0,1,0,0,4.811,2.367,2.367,0,0,0,2.405-2.405h0a2.489,2.489,0,0,0-2.3-2.405h0a2.405,2.405,0,0,0,0-4.811,2.367,2.367,0,0,0-2.405,2.405h0m-145.16-4.706a2.433,2.433,0,0,0,2.405,2.405,2.367,2.367,0,0,0,2.405-2.405,2.433,2.433,0,0,0-2.405-2.405h0a2.489,2.489,0,0,0-2.405,2.3h0m23.426.1a2.433,2.433,0,0,0,2.405,2.405,2.367,2.367,0,0,0,2.405-2.405,2.433,2.433,0,0,0-2.405-2.405h0a2.489,2.489,0,0,0-2.405,2.3h0m28.028.1a2.433,2.433,0,0,0,2.405,2.405,2.367,2.367,0,0,0,2.405-2.405,2.433,2.433,0,0,0-2.405-2.405h0a2.489,2.489,0,0,0-2.405,2.3h0m28.133.1a2.433,2.433,0,0,0,2.405,2.405,2.367,2.367,0,0,0,2.405-2.405,2.433,2.433,0,0,0-2.405-2.405h0a2.489,2.489,0,0,0-2.405,2.3h0m9.308.1a2.489,2.489,0,0,0,2.3,2.405h0a2.449,2.449,0,0,0-2.3,1.778A2.385,2.385,0,1,0,207.8,362.9a2.27,2.27,0,0,0,1.673-1.673,2.385,2.385,0,0,0,4.6-1.255,2.449,2.449,0,0,0-2.3-1.778,2.405,2.405,0,1,0,0-4.811,2.367,2.367,0,0,0-2.405,2.405h0m9.622,0a2.489,2.489,0,0,0,2.3,2.405h0a2.405,2.405,0,1,0,0,4.811A2.367,2.367,0,0,0,223.7,360.6h0a2.489,2.489,0,0,0-2.3-2.405h0a2.405,2.405,0,1,0,0-4.811,2.367,2.367,0,0,0-2.405,2.405h0M226,367.606a2.449,2.449,0,0,0,2.3-1.778,2.449,2.449,0,0,0,2.3,1.778,2.449,2.449,0,0,0-2.3,1.778,2.356,2.356,0,0,0-2.3-1.778m0-4.706a2.449,2.449,0,0,0,2.3-1.778,2.449,2.449,0,0,0,2.3,1.778,2.449,2.449,0,0,0-2.3,1.778A2.356,2.356,0,0,0,226,362.9m-2.3-7.112a2.489,2.489,0,0,0,2.3,2.405h0a2.354,2.354,0,0,0-.1,4.706h0a2.414,2.414,0,0,0-2.3,2.405,2.321,2.321,0,0,0,2.3,2.3,2.405,2.405,0,1,0,2.3,3.033,2.385,2.385,0,1,0,4.6-1.255,2.449,2.449,0,0,0-2.3-1.778,2.354,2.354,0,0,0,.1-4.706h0a2.354,2.354,0,0,0-.1-4.706,2.449,2.449,0,0,0-2.3,1.778,2.449,2.449,0,0,0-2.3-1.778,2.405,2.405,0,1,0,0-4.811,2.367,2.367,0,0,0-2.405,2.405h0m-56.056-4.6a2.433,2.433,0,0,0,2.405,2.405,2.405,2.405,0,1,0,0-4.811h0a2.489,2.489,0,0,0-2.405,2.3h0m9.308.1a2.489,2.489,0,0,0,2.3,2.405h0a2.354,2.354,0,0,0-.1,4.706h0a2.405,2.405,0,1,0,0,4.811,2.367,2.367,0,0,0,2.405-2.405h0a2.489,2.489,0,0,0-2.3-2.405h0a2.354,2.354,0,1,0,.1-4.706h0a2.405,2.405,0,1,0,0-4.811,2.367,2.367,0,0,0-2.405,2.405h0m70.279,0a2.433,2.433,0,0,0,2.405,2.405,2.367,2.367,0,0,0,2.405-2.405,2.433,2.433,0,0,0-2.405-2.405h0a2.489,2.489,0,0,0-2.405,2.3h0m-131.041-4.6a2.433,2.433,0,0,0,2.405,2.405,2.405,2.405,0,1,0,0-4.811,2.489,2.489,0,0,0-2.405,2.3h0m9.308.1a2.489,2.489,0,0,0,2.3,2.405h0a2.354,2.354,0,1,0-.1,4.706h0a2.354,2.354,0,1,0-.1,4.706h0a2.433,2.433,0,0,0-2.405,2.405,2.405,2.405,0,0,0,4.811,0h0a2.489,2.489,0,0,0-2.3-2.405h0a2.354,2.354,0,1,0,.1-4.706h0a2.354,2.354,0,0,0,.1-4.706h0a2.433,2.433,0,0,0,2.405-2.405,2.367,2.367,0,0,0-2.405-2.405,2.433,2.433,0,0,0-2.405,2.405m4.706,0a2.489,2.489,0,0,0,2.3,2.405h0a2.433,2.433,0,0,0-2.405,2.405,2.405,2.405,0,0,0,4.811,0h0a2.489,2.489,0,0,0-2.3-2.405h0a2.433,2.433,0,0,0,2.405-2.405,2.367,2.367,0,0,0-2.405-2.405A2.433,2.433,0,0,0,130,346.48m9.308,0a2.433,2.433,0,0,0,2.405,2.405,2.405,2.405,0,1,0,0-4.811,2.489,2.489,0,0,0-2.405,2.3h0m4.706.1a2.433,2.433,0,0,0,2.405,2.405,2.405,2.405,0,1,0,0-4.811,2.489,2.489,0,0,0-2.405,2.3h0m4.706.1a2.489,2.489,0,0,0,2.3,2.405h0a2.433,2.433,0,0,0-2.405,2.405,2.405,2.405,0,0,0,4.811,0h0a2.489,2.489,0,0,0-2.3-2.405h0a2.433,2.433,0,0,0,2.405-2.405,2.367,2.367,0,0,0-2.405-2.405,2.433,2.433,0,0,0-2.405,2.405m14.014,0a2.489,2.489,0,0,0,2.3,2.405h0a2.433,2.433,0,0,0-2.405,2.405,2.405,2.405,0,0,0,4.811,0h0a2.489,2.489,0,0,0-2.3-2.405h0a2.433,2.433,0,0,0,2.405-2.405,2.367,2.367,0,0,0-2.405-2.405,2.433,2.433,0,0,0-2.405,2.405m18.72,0a2.489,2.489,0,0,0,2.3,2.405h0a2.354,2.354,0,0,0-.1,4.706h0a2.354,2.354,0,1,0-.1,4.706h0a2.405,2.405,0,1,0,0,4.811,2.367,2.367,0,0,0,2.405-2.405h0a2.489,2.489,0,0,0-2.3-2.405h0a2.354,2.354,0,0,0,.1-4.706h0a2.414,2.414,0,0,0,2.3-2.405,2.321,2.321,0,0,0-2.3-2.3,2.405,2.405,0,1,0-2.405-2.405m32.839,0a2.489,2.489,0,0,0,2.3,2.405h0a2.354,2.354,0,0,0-.1,4.706h0a2.354,2.354,0,1,0-.1,4.706h0a2.354,2.354,0,0,0-.1,4.706h0a2.354,2.354,0,0,0-.1,4.706h0a2.405,2.405,0,1,0,0,4.811,2.367,2.367,0,0,0,2.405-2.405h0a2.489,2.489,0,0,0-2.3-2.405h0a2.354,2.354,0,1,0,.1-4.706h0a2.354,2.354,0,0,0,.1-4.706h0a2.354,2.354,0,0,0,.1-4.706h0a2.354,2.354,0,1,0,.1-4.706h0a2.405,2.405,0,1,0-2.405-2.405m4.811,0a2.433,2.433,0,0,0,2.405,2.405,2.367,2.367,0,0,0,2.405-2.405,2.433,2.433,0,0,0-2.405-2.405,2.489,2.489,0,0,0-2.405,2.3h0m4.706.1a2.433,2.433,0,0,0,2.405,2.405,2.367,2.367,0,0,0,2.405-2.405,2.433,2.433,0,0,0-2.405-2.405,2.489,2.489,0,0,0-2.405,2.3h0m9.308.1a2.433,2.433,0,0,0,2.405,2.405,2.367,2.367,0,0,0,2.405-2.405,2.433,2.433,0,0,0-2.405-2.405,2.489,2.489,0,0,0-2.405,2.3h0m7.007,21.335a2.261,2.261,0,0,0,2.3-1.882,2.353,2.353,0,0,0,2.3,1.673,2.261,2.261,0,0,0-2.3,1.882,2.353,2.353,0,0,0-2.3-1.673m0-4.706a2.261,2.261,0,0,0,2.3-1.882,2.353,2.353,0,0,0,2.3,1.673,2.261,2.261,0,0,0-2.3,1.882,2.353,2.353,0,0,0-2.3-1.673m0-4.706a2.261,2.261,0,0,0,2.3-1.882,2.353,2.353,0,0,0,2.3,1.673,2.261,2.261,0,0,0-2.3,1.882,2.353,2.353,0,0,0-2.3-1.673m2.3-12.445a2.385,2.385,0,0,0-4.6,1.255,2.449,2.449,0,0,0,2.3,1.778,2.354,2.354,0,1,0-.1,4.706h0a2.414,2.414,0,0,0-2.3,2.405,2.321,2.321,0,0,0,2.3,2.3,2.354,2.354,0,0,0-.1,4.706h0a2.354,2.354,0,0,0-.1,4.706h0a2.354,2.354,0,0,0-.1,4.706h0a2.405,2.405,0,1,0,0,4.811A2.367,2.367,0,0,0,242,374.822h0a2.489,2.489,0,0,0-2.3-2.405h0a2.261,2.261,0,0,0,2.3-1.882,2.349,2.349,0,0,0,4.5-1.36,2.353,2.353,0,0,0-2.3-1.673,2.354,2.354,0,1,0,.1-4.706h0a2.354,2.354,0,0,0,.1-4.706h0a2.405,2.405,0,1,0,0-4.811,2.261,2.261,0,0,0-2.3,1.882,2.353,2.353,0,0,0-2.3-1.673,2.354,2.354,0,0,0,.1-4.706h0a2.449,2.449,0,0,0,2.3-1.778,2.385,2.385,0,1,0,1.673-2.928,2.27,2.27,0,0,0-1.673,1.673m9.517.732a2.433,2.433,0,0,0,2.405,2.405,2.367,2.367,0,0,0,2.405-2.405,2.433,2.433,0,0,0-2.405-2.405,2.489,2.489,0,0,0-2.405,2.3h0m9.308.1a2.489,2.489,0,0,0,2.3,2.405h0a2.449,2.449,0,0,0-2.3,1.778,2.385,2.385,0,1,0-1.673,2.928,2.27,2.27,0,0,0,1.673-1.673,2.385,2.385,0,0,0,4.6-1.255,2.449,2.449,0,0,0-2.3-1.778,2.405,2.405,0,1,0-2.405-2.405m-72.371,2.405a2.449,2.449,0,0,0,2.3-1.778,2.449,2.449,0,0,0,2.3,1.778,2.449,2.449,0,0,0-2.3,1.778,2.449,2.449,0,0,0-2.3-1.778m-2.3-7.112a2.489,2.489,0,0,0,2.3,2.405h0a2.354,2.354,0,0,0-.1,4.706h0a2.405,2.405,0,1,0,2.3,3.033,2.356,2.356,0,0,0,2.3,1.778,2.354,2.354,0,0,0-.1,4.706h0a2.414,2.414,0,0,0-2.3,2.405,2.321,2.321,0,0,0,2.3,2.3,2.354,2.354,0,0,0-.1,4.706h0a2.354,2.354,0,0,0-.1,4.706h0a2.405,2.405,0,1,0,0,4.811,2.367,2.367,0,0,0,2.405-2.405h0a2.489,2.489,0,0,0-2.3-2.405h0a2.354,2.354,0,1,0,.1-4.706h0a2.354,2.354,0,1,0,.1-4.706h0a2.354,2.354,0,0,0,.1-4.706h0a2.414,2.414,0,0,0,2.3-2.405,2.321,2.321,0,0,0-2.3-2.3,2.354,2.354,0,1,0,.1-4.706h0a2.433,2.433,0,0,0,2.405-2.405,2.367,2.367,0,0,0-2.405-2.405,2.449,2.449,0,0,0-2.3,1.778,2.356,2.356,0,0,0-2.3-1.778,2.405,2.405,0,1,0-2.405-2.405m9.2,0a2.489,2.489,0,0,0,2.3,2.405h0a2.433,2.433,0,0,0-2.405,2.405,2.367,2.367,0,0,0,2.405,2.405,2.405,2.405,0,1,0,0,4.811,2.367,2.367,0,0,0,2.405-2.405h0a2.489,2.489,0,0,0-2.3-2.405h0a2.433,2.433,0,0,0,2.405-2.405,2.367,2.367,0,0,0-2.405-2.405,2.405,2.405,0,1,0-2.405-2.405m4.811-4.706a2.489,2.489,0,0,0,2.3,2.405h0a2.405,2.405,0,1,0,2.405,2.405,2.489,2.489,0,0,0-2.3-2.405h0a2.405,2.405,0,1,0-2.405-2.405m9.2,0a2.489,2.489,0,0,0,2.3,2.405h0a2.354,2.354,0,0,0-.1,4.706h0a2.449,2.449,0,0,0-2.3,1.778,2.385,2.385,0,1,0-4.6,1.255,2.449,2.449,0,0,0,2.3,1.778,2.405,2.405,0,1,0,0,4.811,2.367,2.367,0,0,0,2.405-2.405h0a2.489,2.489,0,0,0-2.3-2.405h0a2.449,2.449,0,0,0,2.3-1.778,2.385,2.385,0,1,0,4.6-1.255,2.449,2.449,0,0,0-2.3-1.778,2.433,2.433,0,0,0,2.405-2.405,2.367,2.367,0,0,0-2.405-2.405,2.405,2.405,0,1,0-2.405-2.405m9.622.1a2.433,2.433,0,0,0,2.405,2.405,2.367,2.367,0,0,0,2.405-2.405,2.433,2.433,0,0,0-2.405-2.405h0a2.489,2.489,0,0,0-2.405,2.3h0m9.2.1a2.489,2.489,0,0,0,2.3,2.405h0a2.405,2.405,0,1,0,2.405,2.405,2.489,2.489,0,0,0-2.3-2.405h0a2.405,2.405,0,1,0-2.405-2.405M155.827,353.7a2.261,2.261,0,0,0,2.3-1.882,2.353,2.353,0,0,0,2.3,1.673,2.261,2.261,0,0,0-2.3,1.882,2.353,2.353,0,0,0-2.3-1.673m2.3-21.858a2.385,2.385,0,0,0-4.6,1.255,2.449,2.449,0,0,0,2.3,1.778,2.405,2.405,0,1,0,0,4.811h0a2.343,2.343,0,0,0-2.405,2.3,2.282,2.282,0,0,0,2.3,2.405h.1a2.433,2.433,0,0,0-2.405,2.405,2.367,2.367,0,0,0,2.405,2.405,2.354,2.354,0,0,0-.1,4.706h0a2.405,2.405,0,1,0,0,4.811,2.261,2.261,0,0,0,2.3-1.882,2.353,2.353,0,0,0,2.3,1.673,2.433,2.433,0,0,0-2.405,2.405,2.405,2.405,0,0,0,4.811,0h0a2.489,2.489,0,0,0-2.3-2.405h0a2.354,2.354,0,0,0,.1-4.706h0a2.405,2.405,0,1,0,0-4.811,2.261,2.261,0,0,0-2.3,1.882,2.353,2.353,0,0,0-2.3-1.673,2.433,2.433,0,0,0,2.405-2.405,2.367,2.367,0,0,0-2.405-2.405,2.354,2.354,0,0,0,.1-4.706h0a2.433,2.433,0,0,0,2.405-2.405,2.367,2.367,0,0,0-2.405-2.405,2.449,2.449,0,0,0,2.3-1.778,2.385,2.385,0,1,0,1.673-2.928,2.27,2.27,0,0,0-1.673,1.673m13.7.628a2.489,2.489,0,0,0,2.3,2.405h0a2.354,2.354,0,0,0-.1,4.706h0a2.354,2.354,0,1,0-.1,4.706h.1a2.405,2.405,0,1,0,0,4.811,2.367,2.367,0,0,0,2.405-2.405,2.489,2.489,0,0,0-2.3-2.405h0a2.433,2.433,0,0,0,2.405-2.405,2.367,2.367,0,0,0-2.405-2.405,2.354,2.354,0,0,0,.1-4.706h-.1a2.405,2.405,0,1,0-2.405-2.405m18.825.1a2.489,2.489,0,0,0,2.3,2.405h0a2.405,2.405,0,1,0,2.405,2.405,2.489,2.489,0,0,0-2.3-2.405h0a2.405,2.405,0,1,0-2.405-2.405M162.73,327.76a2.489,2.489,0,0,0,2.3,2.405h0a2.433,2.433,0,0,0-2.405,2.405,2.367,2.367,0,0,0,2.405,2.405,2.433,2.433,0,0,0-2.405,2.405,2.367,2.367,0,0,0,2.405,2.405,2.433,2.433,0,0,0,2.405-2.405,2.489,2.489,0,0,0-2.3-2.405h0a2.433,2.433,0,0,0,2.405-2.405,2.367,2.367,0,0,0-2.405-2.405,2.433,2.433,0,0,0,2.405-2.405,2.367,2.367,0,0,0-2.405-2.405,2.433,2.433,0,0,0-2.405,2.405m4.706,0a2.405,2.405,0,1,0,2.405-2.405,2.489,2.489,0,0,0-2.405,2.3h0m9.308.1a2.489,2.489,0,0,0,2.3,2.405h0a2.405,2.405,0,1,0,2.405,2.405,2.489,2.489,0,0,0-2.3-2.405h0a2.405,2.405,0,1,0-2.405-2.405m28.133,0a2.405,2.405,0,1,0,2.405-2.405,2.489,2.489,0,0,0-2.405,2.3h0m18.825.1a2.489,2.489,0,0,0,2.3,2.405h0a2.405,2.405,0,1,0,2.405,2.405,2.489,2.489,0,0,0-2.3-2.405h0a2.405,2.405,0,1,0-2.405-2.405m-70.279-4.706a2.405,2.405,0,0,0,4.811,0,2.367,2.367,0,0,0-2.405-2.405,2.489,2.489,0,0,0-2.405,2.3h0m18.616.1a2.405,2.405,0,1,0,2.405-2.405,2.489,2.489,0,0,0-2.405,2.3h0m23.426.1a2.489,2.489,0,0,0,2.3,2.405h0a2.405,2.405,0,1,0,2.405,2.405,2.489,2.489,0,0,0-2.3-2.405h0a2.405,2.405,0,1,0-2.405-2.405m4.706,0a2.489,2.489,0,0,0,2.3,2.405h0a2.405,2.405,0,1,0,2.405,2.405,2.489,2.489,0,0,0-2.3-2.405h0a2.405,2.405,0,1,0-2.405-2.405m18.72,0a2.489,2.489,0,0,0,2.3,2.405h0a2.405,2.405,0,1,0,2.405,2.405,2.489,2.489,0,0,0-2.3-2.405h0a2.405,2.405,0,1,0-2.405-2.405m-93.6,0a7.112,7.112,0,1,0,7.112-7.112,7.119,7.119,0,0,0-7.112,7.112m32.734-4.706a2.405,2.405,0,0,0,4.811,0,2.367,2.367,0,0,0-2.405-2.405,2.489,2.489,0,0,0-2.405,2.3h0m18.72.1a2.405,2.405,0,1,0,2.405-2.405,2.489,2.489,0,0,0-2.405,2.3h0m14.014.1a2.489,2.489,0,0,0,2.3,2.405h0a2.405,2.405,0,1,0,2.405,2.405,2.489,2.489,0,0,0-2.3-2.405h0a2.405,2.405,0,1,0-2.405-2.405m14.223,0a2.405,2.405,0,1,0,2.405-2.405,2.489,2.489,0,0,0-2.405,2.3h0m9.2.1a2.405,2.405,0,1,0,2.405-2.405,2.489,2.489,0,0,0-2.405,2.3h0m32.839,4.811a7.112,7.112,0,1,0,7.112-7.112,7.119,7.119,0,0,0-7.112,7.112m-93.6-9.308a2.405,2.405,0,1,0,4.811,0,2.367,2.367,0,0,0-2.405-2.405h0a2.489,2.489,0,0,0-2.405,2.3h0m56.056.1a2.405,2.405,0,1,0,2.405-2.405,2.489,2.489,0,0,0-2.405,2.3h0m14.223.1a2.489,2.489,0,0,0,2.3,2.405h0a2.405,2.405,0,1,0,2.405,2.405,2.489,2.489,0,0,0-2.3-2.405h0a2.405,2.405,0,1,0-2.405-2.405m-91.614-1.569a11.295,11.295,0,1,1-11.295,11.295,11.314,11.314,0,0,1,11.295-11.295m-16.106,10.877A16.419,16.419,0,1,0,132.4,306.634h0a16.447,16.447,0,0,0-16.419,16.419h0M162.73,309.04a2.489,2.489,0,0,0,2.3,2.405h0a2.433,2.433,0,0,0-2.405,2.405,2.367,2.367,0,0,0,2.405,2.405h0a2.433,2.433,0,0,0-2.405,2.405,2.367,2.367,0,0,0,2.405,2.405,2.433,2.433,0,0,0,2.405-2.405,2.489,2.489,0,0,0-2.3-2.405h0a2.433,2.433,0,0,0,2.405-2.405,2.367,2.367,0,0,0-2.405-2.405,2.433,2.433,0,0,0,2.405-2.405,2.367,2.367,0,0,0-2.405-2.405,2.433,2.433,0,0,0-2.405,2.405m9.412-.628a2.385,2.385,0,0,0-4.6,1.255,2.449,2.449,0,0,0,2.3,1.778,2.354,2.354,0,1,0-.1,4.706h0a2.433,2.433,0,0,0-2.405,2.405,2.367,2.367,0,0,0,2.405,2.405,2.433,2.433,0,0,0,2.405-2.405h0a2.489,2.489,0,0,0-2.3-2.405h0a2.433,2.433,0,0,0,2.405-2.405,2.367,2.367,0,0,0-2.405-2.405,2.449,2.449,0,0,0,2.3-1.778,2.385,2.385,0,1,0,1.673-2.928,2.27,2.27,0,0,0-1.673,1.673m9.308.732a2.489,2.489,0,0,0,2.3,2.405h0a2.405,2.405,0,1,0,0,4.811h0a2.354,2.354,0,0,0-.1,4.706h.1a2.433,2.433,0,0,0-2.405,2.405,2.367,2.367,0,0,0,2.405,2.405,2.354,2.354,0,0,0-.1,4.706h.1a2.433,2.433,0,0,0-2.405,2.405,2.367,2.367,0,0,0,2.405,2.405,2.405,2.405,0,1,0,2.405,2.405,2.489,2.489,0,0,0-2.3-2.405h0a2.433,2.433,0,0,0,2.405-2.405,2.367,2.367,0,0,0-2.405-2.405,2.414,2.414,0,0,0,2.3-2.405,2.321,2.321,0,0,0-2.3-2.3,2.354,2.354,0,0,0,.1-4.706h0a2.414,2.414,0,0,0,2.3-2.405,2.321,2.321,0,0,0-2.3-2.3,2.433,2.433,0,0,0,2.405-2.405,2.367,2.367,0,0,0-2.405-2.405,2.405,2.405,0,1,0-2.405-2.405m9.308-.732a2.385,2.385,0,1,0-1.673,2.928,2.27,2.27,0,0,0,1.673-1.673,2.385,2.385,0,1,0,1.673-2.928,2.27,2.27,0,0,0-1.673,1.673m4.6.628a2.405,2.405,0,1,0,2.405-2.405,2.489,2.489,0,0,0-2.405,2.3h0m4.706.1a2.405,2.405,0,1,0,2.405-2.405,2.489,2.489,0,0,0-2.405,2.3h0m18.825.1a2.489,2.489,0,0,0,2.3,2.405h0a2.405,2.405,0,1,0,2.405,2.405,2.489,2.489,0,0,0-2.3-2.405h0a2.405,2.405,0,1,0-2.405-2.405m9.2,0a2.405,2.405,0,1,0,2.405-2.405,2.489,2.489,0,0,0-2.405,2.3h0m14.223,14.119a11.609,11.609,0,1,1,11.609,11.609,11.582,11.582,0,0,1-11.609-11.609h0m-4.706,0a16.419,16.419,0,1,0,16.419-16.419,16.447,16.447,0,0,0-16.419,16.419h0" transform="translate(-115.772 -306.562)"/>
</svg>
