<svg xmlns="http://www.w3.org/2000/svg" xmlns:xlink="http://www.w3.org/1999/xlink" width="163.253" height="163.253" viewBox="0 0 163.253 163.253">
  <defs>
    <clipPath id="clip-path">
      <path id="Trazado_2013" data-name="Trazado 2013" d="M467.168,457.86a2.19,2.19,0,0,0,2.092,2.2h0a2.2,2.2,0,1,0-2.2-2.2m4.706,0a2.19,2.19,0,0,0,2.092,2.2h0a2.2,2.2,0,1,0-2.2-2.2m9.2,0a2.19,2.19,0,0,0,2.092,2.2h0a2.2,2.2,0,1,0-2.2-2.2m23.113,0a2.19,2.19,0,0,0,2.092,2.2h0a2.2,2.2,0,1,0-2.2-2.2m4.706,0a2.19,2.19,0,0,0,2.092,2.2h0a2.2,2.2,0,1,0-2.2-2.2m18.406,0a2.19,2.19,0,0,0,2.092,2.2h0a2.2,2.2,0,1,0-2.2-2.2m9.412,0a2.19,2.19,0,0,0,2.092,2.2h0a2.2,2.2,0,1,0-2.2-2.2m9.2,0a2.19,2.19,0,0,0,2.092,2.2h0a2.2,2.2,0,1,0-2.2-2.2m18.406,0a2.19,2.19,0,0,0,2.092,2.2h0a2.2,2.2,0,1,0-2.2-2.2m-77.7-4.6a2.4,2.4,0,0,0,2.2,2.405,2.19,2.19,0,0,0-2.2,2.092h0a2.4,2.4,0,0,0,2.2,2.405,2.327,2.327,0,0,0,2.2-2.405,2.19,2.19,0,0,0-2.092-2.2h0a2.145,2.145,0,0,0,2.2-2.2v-.1a2.19,2.19,0,0,0-2.092-2.2h0a2.209,2.209,0,0,0-2.2,2.2m8.889,0a2.254,2.254,0,0,0,4.5.314v-.314a2.19,2.19,0,0,0-2.092-2.2h0a2.209,2.209,0,0,0-2.2,2.2m45.7,0a2.4,2.4,0,0,0,2.2,2.405,2.19,2.19,0,0,0-2.2,2.092h0a2.4,2.4,0,0,0,2.2,2.405,2.327,2.327,0,0,0,2.2-2.405,2.19,2.19,0,0,0-2.092-2.2h0a2.145,2.145,0,0,0,2.2-2.2v-.1a2.19,2.19,0,0,0-2.092-2.2h0a2.209,2.209,0,0,0-2.2,2.2m18.093,0a2.254,2.254,0,0,0,4.5.314v-.314a2.19,2.19,0,0,0-2.092-2.2h0a2.209,2.209,0,0,0-2.2,2.2m17.988,0a2.254,2.254,0,1,0,4.5.314v-.314a2.19,2.19,0,0,0-2.092-2.2h0a2.209,2.209,0,0,0-2.2,2.2m-101.026-4.706a2.19,2.19,0,0,0,2.092,2.2h0a2.19,2.19,0,0,0-2.2,2.092h0a2.2,2.2,0,1,0,2.2-2.2,2.19,2.19,0,0,0,2.2-2.092h0a2.249,2.249,0,0,0-4.5-.1h0m14.014.1a2.19,2.19,0,0,0,2.092,2.2h0a2.19,2.19,0,0,0-2.2,2.092h0a2.145,2.145,0,1,1,0,4.288h0a2.2,2.2,0,1,0,2.2-2.2,2.19,2.19,0,0,0,2.2-2.092h0a2.145,2.145,0,1,1,0-4.288h0a2.249,2.249,0,0,0-4.5-.1h0m23.113.1a2.19,2.19,0,0,0,2.092,2.2h0a2.2,2.2,0,1,0-2.2-2.2m18.511,0a2.19,2.19,0,0,0,2.092,2.2h0a2.19,2.19,0,0,0-2.2,2.092h0a2.2,2.2,0,1,0,2.2-2.2,2.19,2.19,0,0,0,2.2-2.092h0a2.249,2.249,0,1,0-4.5-.1h0m4.811.1a2.19,2.19,0,0,0,2.092,2.2h0a2.2,2.2,0,1,0-2.2-2.2m9.2,0a2.19,2.19,0,0,0,2.092,2.2h0a2.2,2.2,0,1,0-2.2-2.2m4.706,0a2.19,2.19,0,0,0,2.092,2.2h0a2.19,2.19,0,0,0-2.2,2.092h0a2.2,2.2,0,1,0,2.2-2.2,2.19,2.19,0,0,0,2.2-2.092h0a2.2,2.2,0,1,0-4.392,0h0m-77.914-4.6a2.19,2.19,0,0,0,2.092,2.2h0a2.19,2.19,0,0,0-2.2,2.092h0a2.2,2.2,0,1,0,2.2-2.2,2.19,2.19,0,0,0,2.2-2.092h0a2.2,2.2,0,1,0-4.392,0h0m27.714,0a2.19,2.19,0,0,0,2.092,2.2h0a2.19,2.19,0,0,0-2.2,2.092h0a2.2,2.2,0,1,0,2.2-2.2,2.19,2.19,0,0,0,2.2-2.092h0a2.2,2.2,0,1,0-4.392,0h0m9.2,0a2.19,2.19,0,0,0,2.092,2.2h0a2.19,2.19,0,0,0-2.2,2.092h0a2.2,2.2,0,1,0,2.2-2.2,2.19,2.19,0,0,0,2.2-2.092h0a2.249,2.249,0,1,0-4.5-.1h0m18.511.1a2.19,2.19,0,0,0,2.092,2.2h0a2.2,2.2,0,1,0-2.2-2.2m41.414,0a2.19,2.19,0,0,0,2.092,2.2h0a2.2,2.2,0,1,0-2.2-2.2m-128.218,0a6.9,6.9,0,1,0,6.9-6.9,7.147,7.147,0,0,0-4.915,1.987,6.96,6.96,0,0,0-1.987,4.915m36.6-4.5a2.19,2.19,0,0,0,2.092,2.2h0a2.209,2.209,0,0,0,2.2-2.2,2.4,2.4,0,0,0-2.2-2.405,2.327,2.327,0,0,0-2.2,2.405m4.6,0a2.19,2.19,0,0,0,2.092,2.2h0a2.145,2.145,0,0,0-2.2,2.2v.1a2.19,2.19,0,0,0,2.092,2.2h0a2.145,2.145,0,0,0-2.2,2.2v.1a2.19,2.19,0,0,0,2.092,2.2h0a2.209,2.209,0,0,0,2.2-2.2,2.4,2.4,0,0,0-2.2-2.405,2.19,2.19,0,0,0,2.2-2.092h0a2.4,2.4,0,0,0-2.2-2.405,2.19,2.19,0,0,0,2.2-2.092h0a2.4,2.4,0,0,0-2.2-2.405,2.327,2.327,0,0,0-2.2,2.405m5.125,0a2.19,2.19,0,0,0,2.092,2.2h0a2.145,2.145,0,0,0-2.2,2.2v.1a2.19,2.19,0,0,0,2.092,2.2h0a2.209,2.209,0,0,0,2.2-2.2,2.4,2.4,0,0,0-2.2-2.405,2.19,2.19,0,0,0,2.2-2.092h0a2.4,2.4,0,0,0-2.2-2.405,2.327,2.327,0,0,0-2.2,2.405m9.308,0a2.19,2.19,0,0,0,2.092,2.2h0a2.145,2.145,0,0,0-2.2,2.2v.1a2.19,2.19,0,0,0,2.092,2.2h0a2.209,2.209,0,0,0,2.2-2.2,2.4,2.4,0,0,0-2.2-2.405,2.19,2.19,0,0,0,2.2-2.092h0a2.4,2.4,0,0,0-2.2-2.405,2.327,2.327,0,0,0-2.2,2.405m27.61,0a2.19,2.19,0,0,0,2.092,2.2h0a2.145,2.145,0,0,0-2.2,2.2v.1a2.19,2.19,0,0,0,2.092,2.2h0a2.209,2.209,0,0,0,2.2-2.2,2.4,2.4,0,0,0-2.2-2.405,2.19,2.19,0,0,0,2.2-2.092h0a2.4,2.4,0,0,0-2.2-2.405,2.327,2.327,0,0,0-2.2,2.405m23.217,0a2.19,2.19,0,0,0,2.092,2.2h0a2.209,2.209,0,0,0,2.2-2.2,2.4,2.4,0,0,0-2.2-2.405,2.326,2.326,0,0,0-2.2,2.405m4.706,0a2.19,2.19,0,0,0,2.092,2.2h0a2.209,2.209,0,0,0,2.2-2.2,2.4,2.4,0,0,0-2.2-2.405,2.326,2.326,0,0,0-2.2,2.405m4.706,0a2.19,2.19,0,0,0,2.092,2.2h0a2.145,2.145,0,0,0-2.2,2.2v.1a2.19,2.19,0,0,0,2.092,2.2h0a2.145,2.145,0,0,0-2.2,2.2v.1a2.19,2.19,0,0,0,2.092,2.2h0a2.145,2.145,0,0,0-2.2,2.2v.1a2.19,2.19,0,0,0,2.092,2.2h0a2.209,2.209,0,0,0,2.2-2.2,2.4,2.4,0,0,0-2.2-2.405,2.19,2.19,0,0,0,2.2-2.092h0a2.4,2.4,0,0,0-2.2-2.405,2.19,2.19,0,0,0,2.2-2.092h0a2.4,2.4,0,0,0-2.2-2.405,2.19,2.19,0,0,0,2.2-2.092h0a2.4,2.4,0,0,0-2.2-2.405,2.326,2.326,0,0,0-2.2,2.405m9.517,0a2.19,2.19,0,0,0,2.092,2.2h0a2.145,2.145,0,0,0-2.2,2.2v.1a2.19,2.19,0,0,0,2.092,2.2h0a2.209,2.209,0,0,0,2.2-2.2,2.4,2.4,0,0,0-2.2-2.405,2.19,2.19,0,0,0,2.2-2.092h0a2.4,2.4,0,0,0-2.2-2.405,2.327,2.327,0,0,0-2.2,2.405m9.412,0a2.19,2.19,0,0,0,2.092,2.2h0a2.145,2.145,0,0,0-2.2,2.2v.1a2.19,2.19,0,0,0,2.092,2.2h0a2.145,2.145,0,0,0-2.2,2.2v.1a2.19,2.19,0,0,0,2.092,2.2h0a2.209,2.209,0,0,0,2.2-2.2,2.4,2.4,0,0,0-2.2-2.405,2.19,2.19,0,0,0,2.2-2.092h0a2.4,2.4,0,0,0-2.2-2.405,2.19,2.19,0,0,0,2.2-2.092h0a2.4,2.4,0,0,0-2.2-2.405,2.327,2.327,0,0,0-2.2,2.405m-105.21-4.6a2.19,2.19,0,0,0,2.092,2.2h0a2.145,2.145,0,0,0-2.2,2.2v.1a2.19,2.19,0,0,0,2.092,2.2h0a2.209,2.209,0,0,0,2.2-2.2,2.4,2.4,0,0,0-2.2-2.405,2.19,2.19,0,0,0,2.2-2.092h0a2.4,2.4,0,0,0-2.2-2.405,2.327,2.327,0,0,0-2.2,2.405m36.917,0a2.19,2.19,0,0,0,2.092,2.2h0a2.145,2.145,0,0,0-2.2,2.2v.1a2.19,2.19,0,0,0,2.092,2.2h0a2.209,2.209,0,0,0,2.2-2.2,2.4,2.4,0,0,0-2.2-2.405,2.19,2.19,0,0,0,2.2-2.092h0a2.4,2.4,0,0,0-2.2-2.405,2.327,2.327,0,0,0-2.2,2.405m27.819,0a2.19,2.19,0,0,0,2.092,2.2h0a2.145,2.145,0,0,0-2.2,2.2v.1a2.19,2.19,0,0,0,2.092,2.2h0a2.209,2.209,0,0,0,2.2-2.2,2.4,2.4,0,0,0-2.2-2.405,2.19,2.19,0,0,0,2.2-2.092h0a2.4,2.4,0,0,0-2.2-2.405,2.327,2.327,0,0,0-2.2,2.405m4.811,0a2.19,2.19,0,0,0,2.092,2.2h0a2.145,2.145,0,0,0-2.2,2.2v.1a2.19,2.19,0,0,0,2.092,2.2h0a2.209,2.209,0,0,0,2.2-2.2,2.4,2.4,0,0,0-2.2-2.405,2.19,2.19,0,0,0,2.2-2.092h0a2.4,2.4,0,0,0-2.2-2.405,2.327,2.327,0,0,0-2.2,2.405m41.31,0a2.19,2.19,0,0,0,2.092,2.2h0a2.209,2.209,0,0,0,2.2-2.2,2.4,2.4,0,0,0-2.2-2.405,2.327,2.327,0,0,0-2.2,2.405m-105.314-4.6a2.19,2.19,0,0,0,2.092,2.2h0a2.19,2.19,0,0,0-2.2,2.092h0a2.2,2.2,0,1,0,2.2-2.2,2.19,2.19,0,0,0,2.2-2.092h0a2.249,2.249,0,1,0-4.5-.1h0m18.616.1a2.19,2.19,0,0,0,2.092,2.2h0a2.2,2.2,0,1,0-2.2-2.2m36.708,0a2.19,2.19,0,0,0,2.092,2.2h0a2.2,2.2,0,1,0-2.2-2.2m23.113,0a2.19,2.19,0,0,0,2.092,2.2h0a2.2,2.2,0,1,0-2.2-2.2m18.406,0a2.19,2.19,0,0,0,2.092,2.2h0a2.19,2.19,0,0,0-2.2,2.092h0a2.2,2.2,0,1,0,2.2-2.2,2.19,2.19,0,0,0,2.2-2.092h0a2.249,2.249,0,1,0-4.5-.1h0m-132.819,13.8a11.5,11.5,0,1,1,11.5,11.5,11.471,11.471,0,0,1-11.5-11.5m-4.6,0a16.106,16.106,0,1,0,16.106-16.106,16.113,16.113,0,0,0-16.106,16.106m78.018-18.3a2.19,2.19,0,0,0,2.092,2.2h0a2.19,2.19,0,0,0-2.2,2.092h0a2.209,2.209,0,0,0,2.2,2.2,2.19,2.19,0,0,0-2.2,2.092h0a2.2,2.2,0,1,0,2.2-2.2,2.19,2.19,0,0,0,2.2-2.092h0a2.209,2.209,0,0,0-2.2-2.2,2.19,2.19,0,0,0,2.2-2.092h0a2.2,2.2,0,1,0-4.392,0h0m4.706,0a2.19,2.19,0,0,0,2.092,2.2h0a2.19,2.19,0,0,0-2.2,2.092h0a2.209,2.209,0,0,0,2.2,2.2,2.19,2.19,0,0,0-2.2,2.092h0a2.209,2.209,0,0,0,2.2,2.2,2.19,2.19,0,0,0-2.2,2.092h0a2.2,2.2,0,1,0,2.2-2.2,2.19,2.19,0,0,0,2.2-2.092h0a2.209,2.209,0,0,0-2.2-2.2,2.19,2.19,0,0,0,2.2-2.092h0a2.209,2.209,0,0,0-2.2-2.2,2.19,2.19,0,0,0,2.2-2.092h0a2.249,2.249,0,0,0-4.5-.1h0m4.811.1a2.19,2.19,0,0,0,2.092,2.2h0a2.19,2.19,0,0,0-2.2,2.092h0a2.209,2.209,0,0,0,2.2,2.2,2.19,2.19,0,0,0-2.2,2.092h0a2.209,2.209,0,0,0,2.2,2.2,2.19,2.19,0,0,0-2.2,2.092h0a2.145,2.145,0,1,1,0,4.288h0a2.145,2.145,0,1,1,0,4.288h0a2.145,2.145,0,1,1,0,4.288h0a2.145,2.145,0,1,1,0,4.288h0a2.2,2.2,0,1,0,2.2-2.2,2.19,2.19,0,0,0,2.2-2.092h0a2.145,2.145,0,1,1,0-4.288h0a2.145,2.145,0,1,1,0-4.288h0a2.145,2.145,0,1,1,0-4.288h0a2.209,2.209,0,0,0-2.2-2.2,2.19,2.19,0,0,0,2.2-2.092h0a2.209,2.209,0,0,0-2.2-2.2,2.19,2.19,0,0,0,2.2-2.092h0a2.209,2.209,0,0,0-2.2-2.2,2.19,2.19,0,0,0,2.2-2.092h0a2.249,2.249,0,1,0-4.5-.1h0m4.706.1a2.19,2.19,0,0,0,2.092,2.2h0a2.2,2.2,0,1,0-2.2-2.2m50.618,0a2.19,2.19,0,0,0,2.092,2.2h0a2.19,2.19,0,0,0-2.2,2.092h0a2.2,2.2,0,1,0,2.2-2.2,2.19,2.19,0,0,0,2.2-2.092h0a2.249,2.249,0,1,0-4.5-.1h0m-132.715-4.392a2.19,2.19,0,0,0,2.092,2.2h0a2.2,2.2,0,1,0-2.2-2.2m4.706,0a2.19,2.19,0,0,0,2.092,2.2h0a2.2,2.2,0,1,0-2.2-2.2m13.8,0a2.19,2.19,0,0,0,2.092,2.2h0a2.2,2.2,0,1,0-2.2-2.2m36.813,0a2.19,2.19,0,0,0,2.092,2.2h0a2.19,2.19,0,0,0-2.2,2.092h0a2.209,2.209,0,0,0,2.2,2.2,2.19,2.19,0,0,0-2.2,2.092h0a2.2,2.2,0,1,0,2.2-2.2,2.19,2.19,0,0,0,2.2-2.092h0a2.209,2.209,0,0,0-2.2-2.2,2.19,2.19,0,0,0,2.2-2.092h0a2.249,2.249,0,0,0-4.5-.1h0m4.811.1a2.19,2.19,0,0,0,2.092,2.2h0a2.19,2.19,0,0,0-2.2,2.092h0a2.209,2.209,0,0,0,2.2,2.2,2.19,2.19,0,0,0-2.2,2.092h0a2.209,2.209,0,0,0,2.2,2.2,2.19,2.19,0,0,0-2.2,2.092h0a2.2,2.2,0,1,0,2.2-2.2,2.19,2.19,0,0,0,2.2-2.092h0a2.209,2.209,0,0,0-2.2-2.2,2.19,2.19,0,0,0,2.2-2.092h0a2.209,2.209,0,0,0-2.2-2.2,2.19,2.19,0,0,0,2.2-2.092h0a2.249,2.249,0,0,0-4.5-.1h0m4.706.1a2.19,2.19,0,0,0,2.092,2.2h0a2.19,2.19,0,0,0-2.2,2.092h0a2.2,2.2,0,1,0,2.2-2.2,2.19,2.19,0,0,0,2.2-2.092h0a2.249,2.249,0,0,0-4.5-.1h0m27.819.1a2.19,2.19,0,0,0,2.092,2.2h0a2.2,2.2,0,1,0-2.2-2.2m9.308,0a2.19,2.19,0,0,0,2.092,2.2h0a2.19,2.19,0,0,0-2.2,2.092h0a2.209,2.209,0,0,0,2.2,2.2,2.19,2.19,0,0,0-2.2,2.092h0a2.209,2.209,0,0,0,2.2,2.2,2.19,2.19,0,0,0-2.2,2.092h0a2.209,2.209,0,0,0,2.2,2.2,2.19,2.19,0,0,0-2.2,2.092h0a2.2,2.2,0,1,0,2.2-2.2,2.19,2.19,0,0,0,2.2-2.092h0a2.209,2.209,0,0,0-2.2-2.2,2.19,2.19,0,0,0,2.2-2.092h0a2.209,2.209,0,0,0-2.2-2.2,2.19,2.19,0,0,0,2.2-2.092h0a2.209,2.209,0,0,0-2.2-2.2,2.19,2.19,0,0,0,2.2-2.092h0a2.249,2.249,0,0,0-4.5-.1h0m4.706.1a2.19,2.19,0,0,0,2.092,2.2h0a2.2,2.2,0,1,0-2.2-2.2m13.909,0a2.19,2.19,0,0,0,2.092,2.2h0a2.19,2.19,0,0,0-2.2,2.092h0a2.209,2.209,0,0,0,2.2,2.2,2.19,2.19,0,0,0-2.2,2.092h0a2.209,2.209,0,0,0,2.2,2.2,2.19,2.19,0,0,0-2.2,2.092h0a2.209,2.209,0,0,0,2.2,2.2,2.19,2.19,0,0,0-2.2,2.092h0a2.145,2.145,0,1,1,0,4.288h0a2.2,2.2,0,1,0,2.2-2.2,2.19,2.19,0,0,0,2.2-2.092h0a2.209,2.209,0,0,0-2.2-2.2,2.19,2.19,0,0,0,2.2-2.092h0a2.209,2.209,0,0,0-2.2-2.2,2.19,2.19,0,0,0,2.2-2.092h0a2.209,2.209,0,0,0-2.2-2.2,2.19,2.19,0,0,0,2.2-2.092h0a2.209,2.209,0,0,0-2.2-2.2,2.19,2.19,0,0,0,2.2-2.092h0a2.249,2.249,0,1,0-4.5-.1h0m9.308.1a2.19,2.19,0,0,0,2.092,2.2h0a2.2,2.2,0,1,0-2.2-2.2m-119.119-4.6a2.254,2.254,0,1,0,4.5.314v-.314a2.19,2.19,0,0,0-2.092-2.2h0a2.209,2.209,0,0,0-2.2,2.2m13.6,0a2.254,2.254,0,0,0,4.5.314v-.314a2.19,2.19,0,0,0-2.092-2.2h0a2.209,2.209,0,0,0-2.2,2.2m8.889,0a2.254,2.254,0,0,0,4.5.314v-.314a2.19,2.19,0,0,0-2.092-2.2h0a2.209,2.209,0,0,0-2.2,2.2m8.889,0a2.254,2.254,0,0,0,4.5.314v-.314a2.19,2.19,0,0,0-2.092-2.2h0a2.209,2.209,0,0,0-2.2,2.2m27.4,0a2.254,2.254,0,0,0,4.5.314v-.314a2.19,2.19,0,0,0-2.092-2.2h0a2.209,2.209,0,0,0-2.2,2.2m18.093,0a2.254,2.254,0,1,0,4.5.314v-.314a2.19,2.19,0,0,0-2.092-2.2h0a2.209,2.209,0,0,0-2.2,2.2m22.8,0a2.4,2.4,0,0,0,2.2,2.405,2.19,2.19,0,0,0-2.2,2.092h0a2.4,2.4,0,0,0,2.2,2.405,2.327,2.327,0,0,0,2.2-2.405,2.19,2.19,0,0,0-2.092-2.2h0a2.145,2.145,0,0,0,2.2-2.2v-.1a2.19,2.19,0,0,0-2.092-2.2h0a2.209,2.209,0,0,0-2.2,2.2m13.491,0a2.4,2.4,0,0,0,2.2,2.405,2.19,2.19,0,0,0-2.2,2.092h0a2.4,2.4,0,0,0,2.2,2.405,2.19,2.19,0,0,0-2.2,2.092h0a2.4,2.4,0,0,0,2.2,2.405,2.326,2.326,0,0,0,2.2-2.405,2.19,2.19,0,0,0-2.092-2.2h0a2.145,2.145,0,0,0,2.2-2.2v-.1a2.19,2.19,0,0,0-2.092-2.2h0a2.145,2.145,0,0,0,2.2-2.2v-.1a2.19,2.19,0,0,0-2.092-2.2h0a2.209,2.209,0,0,0-2.2,2.2m-133.342-4.6a2.4,2.4,0,0,0,2.2,2.405,2.19,2.19,0,0,0-2.2,2.092h0a2.4,2.4,0,0,0,2.2,2.405,2.327,2.327,0,0,0,2.2-2.405,2.19,2.19,0,0,0-2.092-2.2h0a2.145,2.145,0,0,0,2.2-2.2v-.1a2.19,2.19,0,0,0-2.092-2.2h0a2.209,2.209,0,0,0-2.2,2.2m13.7,0a2.254,2.254,0,1,0,4.5.314v-.314a2.19,2.19,0,0,0-2.092-2.2h0a2.209,2.209,0,0,0-2.2,2.2m13.491,0a2.254,2.254,0,1,0,4.5.314v-.314a2.19,2.19,0,0,0-2.092-2.2h0a2.209,2.209,0,0,0-2.2,2.2m8.889,0a2.4,2.4,0,0,0,2.2,2.405,2.19,2.19,0,0,0-2.2,2.092h0a2.4,2.4,0,0,0,2.2,2.405,2.19,2.19,0,0,0-2.2,2.092h0a2.4,2.4,0,0,0,2.2,2.405,2.327,2.327,0,0,0,2.2-2.405,2.19,2.19,0,0,0-2.092-2.2h0a2.145,2.145,0,0,0,2.2-2.2v-.1a2.19,2.19,0,0,0-2.092-2.2h0a2.145,2.145,0,0,0,2.2-2.2v-.1a2.19,2.19,0,0,0-2.092-2.2h0a2.209,2.209,0,0,0-2.2,2.2m8.889,0a2.254,2.254,0,1,0,4.5.314v-.314a2.19,2.19,0,0,0-2.092-2.2h0a2.209,2.209,0,0,0-2.2,2.2m9.1,0a2.4,2.4,0,0,0,2.2,2.405,2.19,2.19,0,0,0-2.2,2.092h0a2.4,2.4,0,0,0,2.2,2.405,2.327,2.327,0,0,0,2.2-2.405,2.19,2.19,0,0,0-2.092-2.2h0a2.145,2.145,0,0,0,2.2-2.2v-.1a2.19,2.19,0,0,0-2.092-2.2h0a2.209,2.209,0,0,0-2.2,2.2m17.988,0a2.254,2.254,0,1,0,4.5.314v-.314a2.19,2.19,0,0,0-2.092-2.2h0a2.209,2.209,0,0,0-2.2,2.2m18.093,0a2.254,2.254,0,1,0,4.5.314v-.314a2.19,2.19,0,0,0-2.092-2.2h0a2.209,2.209,0,0,0-2.2,2.2m9.1,0a2.254,2.254,0,1,0,4.5.314v-.314a2.19,2.19,0,0,0-2.092-2.2h0a2.209,2.209,0,0,0-2.2,2.2m8.994,0a2.254,2.254,0,1,0,4.5.314v-.314a2.19,2.19,0,0,0-2.092-2.2h0a2.209,2.209,0,0,0-2.2,2.2m18.093,0a2.254,2.254,0,1,0,4.5.314v-.314a2.19,2.19,0,0,0-2.092-2.2h0a2.209,2.209,0,0,0-2.2,2.2m17.988,0a2.4,2.4,0,0,0,2.2,2.405,2.19,2.19,0,0,0-2.2,2.092h0a2.4,2.4,0,0,0,2.2,2.405,2.19,2.19,0,0,0-2.2,2.092h0a2.4,2.4,0,0,0,2.2,2.405,2.19,2.19,0,0,0-2.2,2.092h0a2.4,2.4,0,0,0,2.2,2.405,2.327,2.327,0,0,0,2.2-2.405,2.19,2.19,0,0,0-2.092-2.2h0a2.145,2.145,0,0,0,2.2-2.2v-.1a2.19,2.19,0,0,0-2.092-2.2h0a2.145,2.145,0,0,0,2.2-2.2v-.1a2.19,2.19,0,0,0-2.092-2.2h0a2.145,2.145,0,0,0,2.2-2.2v-.1a2.19,2.19,0,0,0-2.092-2.2h0a2.209,2.209,0,0,0-2.2,2.2m-137.839-4.5a2.19,2.19,0,0,0,2.092,2.2h0a2.19,2.19,0,0,0-2.2,2.092h0a2.2,2.2,0,1,0,2.2-2.2,2.19,2.19,0,0,0,2.2-2.092h0a2.249,2.249,0,1,0-4.5-.1h0m23.113.1a2.19,2.19,0,0,0,2.092,2.2h0a2.2,2.2,0,1,0-2.2-2.2m32.211,0a2.19,2.19,0,0,0,2.092,2.2h0a2.2,2.2,0,1,0-2.2-2.2m18.406,0a2.19,2.19,0,0,0,2.092,2.2h0a2.2,2.2,0,1,0-2.2-2.2m59.716,0a2.19,2.19,0,0,0,2.092,2.2h0a2.19,2.19,0,0,0-2.2,2.092h0a2.2,2.2,0,1,0,2.2-2.2,2.19,2.19,0,0,0,2.2-2.092h0a2.249,2.249,0,1,0-4.5-.1h0m-137.316-4.5a2.19,2.19,0,0,0,2.092,2.2h0a2.145,2.145,0,0,0-2.2,2.2v.1a2.19,2.19,0,0,0,2.092,2.2h0a2.209,2.209,0,0,0,2.2-2.2,2.4,2.4,0,0,0-2.2-2.405,2.19,2.19,0,0,0,2.2-2.092h0a2.4,2.4,0,0,0-2.2-2.405,2.327,2.327,0,0,0-2.2,2.405m9.412,0a2.19,2.19,0,0,0,2.092,2.2h0a2.209,2.209,0,0,0,2.2-2.2,2.4,2.4,0,0,0-2.2-2.405,2.327,2.327,0,0,0-2.2,2.405m13.8,0a2.19,2.19,0,0,0,2.092,2.2h0a2.209,2.209,0,0,0,2.2-2.2,2.4,2.4,0,0,0-2.2-2.405,2.327,2.327,0,0,0-2.2,2.405m18.406,0a2.19,2.19,0,0,0,2.092,2.2h0a2.209,2.209,0,0,0,2.2-2.2,2.4,2.4,0,0,0-2.2-2.405,2.327,2.327,0,0,0-2.2,2.405m4.6,0a2.19,2.19,0,0,0,2.092,2.2h0a2.145,2.145,0,0,0-2.2,2.2v.1a2.19,2.19,0,0,0,2.092,2.2h0a2.209,2.209,0,0,0,2.2-2.2,2.4,2.4,0,0,0-2.2-2.405,2.19,2.19,0,0,0,2.2-2.092h0a2.4,2.4,0,0,0-2.2-2.405,2.327,2.327,0,0,0-2.2,2.405m37.022,0a2.19,2.19,0,0,0,2.092,2.2h0a2.145,2.145,0,0,0-2.2,2.2v.1a2.19,2.19,0,0,0,2.092,2.2h0a2.145,2.145,0,0,0-2.2,2.2v.1a2.19,2.19,0,0,0,2.092,2.2h0a2.145,2.145,0,0,0-2.2,2.2v.1a2.19,2.19,0,0,0,2.092,2.2h0a2.209,2.209,0,0,0,2.2-2.2,2.4,2.4,0,0,0-2.2-2.405,2.19,2.19,0,0,0,2.2-2.092h0a2.4,2.4,0,0,0-2.2-2.405,2.19,2.19,0,0,0,2.2-2.092h0a2.4,2.4,0,0,0-2.2-2.405,2.19,2.19,0,0,0,2.2-2.092h0a2.4,2.4,0,0,0-2.2-2.405,2.327,2.327,0,0,0-2.2,2.405m14.223,0a2.19,2.19,0,0,0,2.092,2.2h0a2.209,2.209,0,0,0,2.2-2.2,2.4,2.4,0,0,0-2.2-2.405,2.327,2.327,0,0,0-2.2,2.405m18.406,0a2.19,2.19,0,0,0,2.092,2.2h0a2.209,2.209,0,0,0,2.2-2.2,2.4,2.4,0,0,0-2.2-2.405,2.327,2.327,0,0,0-2.2,2.405m4.706,0a2.19,2.19,0,0,0,2.092,2.2h0a2.145,2.145,0,0,0-2.2,2.2v.1a2.19,2.19,0,0,0,2.092,2.2h0a2.145,2.145,0,0,0-2.2,2.2v.1a2.19,2.19,0,0,0,2.092,2.2h0a2.145,2.145,0,0,0-2.2,2.2v.1a2.19,2.19,0,0,0,2.092,2.2h0a2.145,2.145,0,0,0-2.2,2.2v.1a2.19,2.19,0,0,0,2.092,2.2h0a2.209,2.209,0,0,0,2.2-2.2,2.4,2.4,0,0,0-2.2-2.405,2.19,2.19,0,0,0,2.2-2.092h0a2.4,2.4,0,0,0-2.2-2.405,2.19,2.19,0,0,0,2.2-2.092h0a2.4,2.4,0,0,0-2.2-2.405,2.19,2.19,0,0,0,2.2-2.092h0a2.4,2.4,0,0,0-2.2-2.405,2.19,2.19,0,0,0,2.2-2.092h0a2.4,2.4,0,0,0-2.2-2.405,2.326,2.326,0,0,0-2.2,2.405m14.223,0a2.19,2.19,0,0,0,2.092,2.2h0a2.209,2.209,0,0,0,2.2-2.2,2.4,2.4,0,0,0-2.2-2.405,2.327,2.327,0,0,0-2.2,2.405m-128.218-4.6a2.19,2.19,0,0,0,2.092,2.2h0a2.209,2.209,0,0,0,2.2-2.2,2.4,2.4,0,0,0-2.2-2.405,2.327,2.327,0,0,0-2.2,2.405m9.2,0a2.19,2.19,0,0,0,2.092,2.2h0a2.145,2.145,0,0,0-2.2,2.2v.1a2.19,2.19,0,0,0,2.092,2.2h0a2.145,2.145,0,0,0-2.2,2.2v.1a2.19,2.19,0,0,0,2.092,2.2h0a2.209,2.209,0,0,0,2.2-2.2,2.4,2.4,0,0,0-2.2-2.405,2.19,2.19,0,0,0,2.2-2.092h0a2.4,2.4,0,0,0-2.2-2.405,2.19,2.19,0,0,0,2.2-2.092h0a2.4,2.4,0,0,0-2.2-2.405,2.327,2.327,0,0,0-2.2,2.405m18.616,0a2.19,2.19,0,0,0,2.092,2.2h0a2.145,2.145,0,0,0-2.2,2.2v.1a2.19,2.19,0,0,0,2.092,2.2h0a2.209,2.209,0,0,0,2.2-2.2,2.4,2.4,0,0,0-2.2-2.405,2.19,2.19,0,0,0,2.2-2.092h0a2.4,2.4,0,0,0-2.2-2.405,2.327,2.327,0,0,0-2.2,2.405m4.811,0a2.19,2.19,0,0,0,2.092,2.2h0a2.145,2.145,0,0,0-2.2,2.2v.1a2.19,2.19,0,0,0,2.092,2.2h0a2.209,2.209,0,0,0,2.2-2.2,2.4,2.4,0,0,0-2.2-2.405,2.19,2.19,0,0,0,2.2-2.092h0a2.4,2.4,0,0,0-2.2-2.405,2.327,2.327,0,0,0-2.2,2.405m55.219,0a2.19,2.19,0,0,0,2.092,2.2h0a2.209,2.209,0,0,0,2.2-2.2,2.4,2.4,0,0,0-2.2-2.405,2.327,2.327,0,0,0-2.2,2.405m14.014,0a2.19,2.19,0,0,0,2.092,2.2h0a2.209,2.209,0,0,0,2.2-2.2,2.4,2.4,0,0,0-2.2-2.405,2.327,2.327,0,0,0-2.2,2.405m4.6,0a2.19,2.19,0,0,0,2.092,2.2h0a2.145,2.145,0,0,0-2.2,2.2v.1a2.19,2.19,0,0,0,2.092,2.2h0a2.145,2.145,0,0,0-2.2,2.2v.1a2.19,2.19,0,0,0,2.092,2.2h0a2.209,2.209,0,0,0,2.2-2.2,2.4,2.4,0,0,0-2.2-2.405,2.19,2.19,0,0,0,2.2-2.092h0a2.4,2.4,0,0,0-2.2-2.405,2.19,2.19,0,0,0,2.2-2.092h0a2.4,2.4,0,0,0-2.2-2.405,2.327,2.327,0,0,0-2.2,2.405m18.615,0a2.19,2.19,0,0,0,2.092,2.2h0a2.145,2.145,0,0,0-2.2,2.2v.1a2.19,2.19,0,0,0,2.092,2.2h0a2.145,2.145,0,0,0-2.2,2.2v.1a2.19,2.19,0,0,0,2.092,2.2h0a2.209,2.209,0,0,0,2.2-2.2,2.4,2.4,0,0,0-2.2-2.405,2.19,2.19,0,0,0,2.2-2.092h0a2.4,2.4,0,0,0-2.2-2.405,2.19,2.19,0,0,0,2.2-2.092h0a2.4,2.4,0,0,0-2.2-2.405,2.327,2.327,0,0,0-2.2,2.405M430.46,393.542a2.19,2.19,0,0,0,2.092,2.2h0a2.19,2.19,0,0,0-2.2,2.092h0a2.2,2.2,0,1,0,2.2-2.2,2.19,2.19,0,0,0,2.2-2.092h0a2.2,2.2,0,0,0-4.392,0h0m27.714,0a2.19,2.19,0,0,0,2.092,2.2h0a2.2,2.2,0,1,0-2.2-2.2m4.706,0a2.19,2.19,0,0,0,2.092,2.2h0a2.19,2.19,0,0,0-2.2,2.092h0a2.2,2.2,0,1,0,2.2-2.2,2.19,2.19,0,0,0,2.2-2.092h0a2.249,2.249,0,0,0-4.5-.1h0m13.909.1a2.19,2.19,0,0,0,2.092,2.2h0a2.2,2.2,0,1,0-2.2-2.2m4.6,0a2.19,2.19,0,0,0,2.092,2.2h0a2.2,2.2,0,1,0-2.2-2.2m4.915,0a2.19,2.19,0,0,0,2.092,2.2h0a2.2,2.2,0,1,0-2.2-2.2m4.6,0a2.19,2.19,0,0,0,2.092,2.2h0a2.19,2.19,0,0,0-2.2,2.092h0a2.209,2.209,0,0,0,2.2,2.2,2.19,2.19,0,0,0-2.2,2.092h0a2.209,2.209,0,0,0,2.2,2.2,2.19,2.19,0,0,0-2.2,2.092h0a2.2,2.2,0,1,0,2.2-2.2,2.19,2.19,0,0,0,2.2-2.092h0a2.209,2.209,0,0,0-2.2-2.2,2.19,2.19,0,0,0,2.2-2.092h0a2.209,2.209,0,0,0-2.2-2.2,2.19,2.19,0,0,0,2.2-2.092h0a2.2,2.2,0,0,0-4.392,0h0m23.008,0a2.19,2.19,0,0,0,2.092,2.2h0a2.2,2.2,0,1,0-2.2-2.2m9.2,0a2.19,2.19,0,0,0,2.092,2.2h0a2.19,2.19,0,0,0-2.2,2.092h0a2.2,2.2,0,1,0,2.2-2.2,2.19,2.19,0,0,0,2.2-2.092h0a2.249,2.249,0,1,0-4.5-.1h0m9.517.1a2.19,2.19,0,0,0,2.092,2.2h0a2.2,2.2,0,1,0-2.2-2.2m4.706,0a2.19,2.19,0,0,0,2.092,2.2h0a2.19,2.19,0,0,0-2.2,2.092h0a2.209,2.209,0,0,0,2.2,2.2,2.19,2.19,0,0,0-2.2,2.092h0a2.209,2.209,0,0,0,2.2,2.2,2.19,2.19,0,0,0-2.2,2.092h0a2.2,2.2,0,1,0,2.2-2.2,2.19,2.19,0,0,0,2.2-2.092h0a2.209,2.209,0,0,0-2.2-2.2,2.19,2.19,0,0,0,2.2-2.092h0a2.209,2.209,0,0,0-2.2-2.2,2.19,2.19,0,0,0,2.2-2.092h0a2.249,2.249,0,1,0-4.5-.1h0m13.909.1a2.19,2.19,0,0,0,2.092,2.2h0a2.2,2.2,0,1,0-2.2-2.2m-105.314-4.6a2.19,2.19,0,0,0,2.092,2.2h0a2.2,2.2,0,1,0-2.2-2.2m4.6,0a2.19,2.19,0,0,0,2.092,2.2h0a2.2,2.2,0,1,0-2.2-2.2m4.706,0a2.19,2.19,0,0,0,2.092,2.2h0a2.2,2.2,0,1,0-2.2-2.2m13.8,0a2.19,2.19,0,0,0,2.092,2.2h0a2.2,2.2,0,1,0-2.2-2.2m36.813,0a2.19,2.19,0,0,0,2.092,2.2h0a2.19,2.19,0,0,0-2.2,2.092h0a2.209,2.209,0,0,0,2.2,2.2,2.19,2.19,0,0,0-2.2,2.092h0a2.2,2.2,0,1,0,2.2-2.2,2.19,2.19,0,0,0,2.2-2.092h0a2.209,2.209,0,0,0-2.2-2.2,2.19,2.19,0,0,0,2.2-2.092h0a2.249,2.249,0,1,0-4.5-.1h0m4.811.1a2.19,2.19,0,0,0,2.092,2.2h0a2.19,2.19,0,0,0-2.2,2.092h0a2.209,2.209,0,0,0,2.2,2.2,2.19,2.19,0,0,0-2.2,2.092h0a2.209,2.209,0,0,0,2.2,2.2,2.19,2.19,0,0,0-2.2,2.092h0a2.2,2.2,0,1,0,2.2-2.2,2.19,2.19,0,0,0,2.2-2.092h0a2.209,2.209,0,0,0-2.2-2.2,2.19,2.19,0,0,0,2.2-2.092h0a2.209,2.209,0,0,0-2.2-2.2,2.19,2.19,0,0,0,2.2-2.092h0a2.249,2.249,0,1,0-4.5-.1h0m32.42.1a2.19,2.19,0,0,0,2.092,2.2h0a2.2,2.2,0,1,0-2.2-2.2m4.6,0a2.19,2.19,0,0,0,2.092,2.2h0a2.2,2.2,0,1,0-2.2-2.2m23.008,0a2.19,2.19,0,0,0,2.092,2.2h0a2.19,2.19,0,0,0-2.2,2.092h0a2.2,2.2,0,1,0,2.2-2.2,2.19,2.19,0,0,0,2.2-2.092h0a2.249,2.249,0,1,0-4.5-.1h0m4.811.1a2.19,2.19,0,0,0,2.092,2.2h0a2.2,2.2,0,1,0-2.2-2.2m-142.127-4.5a2.254,2.254,0,1,0,4.5.314v-.314a2.19,2.19,0,0,0-2.092-2.2h0a2.209,2.209,0,0,0-2.2,2.2m4.5,0a2.4,2.4,0,0,0,2.2,2.405,2.19,2.19,0,0,0-2.2,2.092h0a2.4,2.4,0,0,0,2.2,2.405,2.19,2.19,0,0,0-2.2,2.092h0a2.4,2.4,0,0,0,2.2,2.405,2.327,2.327,0,0,0,2.2-2.405,2.19,2.19,0,0,0-2.092-2.2h0a2.145,2.145,0,0,0,2.2-2.2v-.1a2.19,2.19,0,0,0-2.092-2.2h0a2.145,2.145,0,0,0,2.2-2.2v-.1a2.19,2.19,0,0,0-2.092-2.2h0a2.209,2.209,0,0,0-2.2,2.2m22.59,0a2.254,2.254,0,1,0,4.5.314v-.314a2.19,2.19,0,0,0-2.092-2.2h0a2.209,2.209,0,0,0-2.2,2.2m22.59,0a2.254,2.254,0,1,0,4.5.314v-.314a2.19,2.19,0,0,0-2.092-2.2h0a2.209,2.209,0,0,0-2.2,2.2m13.7,0a2.254,2.254,0,1,0,4.5.314v-.314a2.19,2.19,0,0,0-2.092-2.2h0a2.209,2.209,0,0,0-2.2,2.2m4.392,0a2.4,2.4,0,0,0,2.2,2.405,2.19,2.19,0,0,0-2.2,2.092h0a2.4,2.4,0,0,0,2.2,2.405,2.19,2.19,0,0,0-2.2,2.092h0a2.4,2.4,0,0,0,2.2,2.405,2.19,2.19,0,0,0-2.2,2.092h0a2.4,2.4,0,0,0,2.2,2.405,2.19,2.19,0,0,0-2.2,2.092h0a2.4,2.4,0,0,0,2.2,2.405,2.19,2.19,0,0,0-2.2,2.092h0a2.4,2.4,0,0,0,2.2,2.405,2.19,2.19,0,0,0-2.2,2.092h0a2.4,2.4,0,0,0,2.2,2.405,2.327,2.327,0,0,0,2.2-2.405,2.19,2.19,0,0,0-2.092-2.2h0a2.145,2.145,0,0,0,2.2-2.2v-.1a2.19,2.19,0,0,0-2.092-2.2h0a2.145,2.145,0,0,0,2.2-2.2v-.1a2.19,2.19,0,0,0-2.092-2.2h0a2.145,2.145,0,0,0,2.2-2.2v-.1a2.19,2.19,0,0,0-2.092-2.2h0a2.145,2.145,0,0,0,2.2-2.2v-.209a2.19,2.19,0,0,0-2.092-2.2h0a2.145,2.145,0,0,0,2.2-2.2v-.1a2.19,2.19,0,0,0-2.092-2.2h0a2.145,2.145,0,0,0,2.2-2.2v-.1a2.19,2.19,0,0,0-2.092-2.2h0a2.209,2.209,0,0,0-2.2,2.2m26.668.1a2.254,2.254,0,1,0,4.5.314v-.314a2.19,2.19,0,0,0-2.092-2.2h0a2.209,2.209,0,0,0-2.2,2.2m9.1,0a2.254,2.254,0,1,0,4.5.314v-.314a2.19,2.19,0,0,0-2.092-2.2h0a2.209,2.209,0,0,0-2.2,2.2m13.491,0a2.254,2.254,0,1,0,4.5.314v-.314a2.19,2.19,0,0,0-2.092-2.2h0a2.209,2.209,0,0,0-2.2,2.2m-87.326-4.6a2.254,2.254,0,0,0,4.5.314v-.314a2.19,2.19,0,0,0-2.092-2.2h0a2.209,2.209,0,0,0-2.2,2.2m22.8,0a2.4,2.4,0,0,0,2.2,2.405,2.19,2.19,0,0,0-2.2,2.092h0a2.2,2.2,0,1,0,2.2-2.2,2.145,2.145,0,0,0,2.2-2.2v-.1a2.19,2.19,0,0,0-2.092-2.2h0a2.209,2.209,0,0,0-2.2,2.2m18.093,0a2.254,2.254,0,0,0,4.5.314v-.314a2.19,2.19,0,0,0-2.092-2.2h0a2.209,2.209,0,0,0-2.2,2.2m13.6,0a2.254,2.254,0,0,0,4.5.314v-.314a2.19,2.19,0,0,0-2.092-2.2h0a2.209,2.209,0,0,0-2.2,2.2m45.6,0a2.254,2.254,0,0,0,4.5.314v-.314a2.19,2.19,0,0,0-2.092-2.2h0a2.209,2.209,0,0,0-2.2,2.2m-105.628-4.6a2.254,2.254,0,1,0,4.5.314v-.314a2.19,2.19,0,0,0-2.092-2.2h0a2.209,2.209,0,0,0-2.2,2.2m13.491,0a2.4,2.4,0,0,0,2.2,2.405,2.19,2.19,0,0,0-2.2,2.092h0a2.2,2.2,0,1,0,2.2-2.2,2.145,2.145,0,0,0,2.2-2.2v-.1a2.19,2.19,0,0,0-2.092-2.2h0a2.209,2.209,0,0,0-2.2,2.2m8.994,0a2.254,2.254,0,0,0,4.5.314v-.314a2.19,2.19,0,0,0-2.092-2.2h0a2.209,2.209,0,0,0-2.2,2.2m18.3,0a2.254,2.254,0,0,0,4.5.314v-.314a2.19,2.19,0,0,0-2.092-2.2h0a2.209,2.209,0,0,0-2.2,2.2m8.889,0a2.4,2.4,0,0,0,2.2,2.405,2.19,2.19,0,0,0-2.2,2.092h0a2.2,2.2,0,1,0,2.2-2.2,2.145,2.145,0,0,0,2.2-2.2v-.1a2.19,2.19,0,0,0-2.092-2.2h0a2.209,2.209,0,0,0-2.2,2.2m4.5,0a2.4,2.4,0,0,0,2.2,2.405,2.19,2.19,0,0,0-2.2,2.092h0a2.209,2.209,0,0,0,2.2,2.2,2.19,2.19,0,0,0-2.2,2.092h0a2.2,2.2,0,1,0,2.2-2.2,2.145,2.145,0,0,0,2.2-2.2v-.1a2.19,2.19,0,0,0-2.092-2.2h0a2.19,2.19,0,0,0,2.2-2.092h0a2.249,2.249,0,0,0-4.5-.1h0m13.7.1a2.254,2.254,0,1,0,4.5.314v-.314a2.19,2.19,0,0,0-2.092-2.2h0a2.209,2.209,0,0,0-2.2,2.2m4.5,0a2.254,2.254,0,0,0,4.5.314v-.314a2.19,2.19,0,0,0-2.092-2.2h0a2.209,2.209,0,0,0-2.2,2.2m18.093,0a2.254,2.254,0,1,0,4.5.314v-.314a2.19,2.19,0,0,0-2.092-2.2h0a2.209,2.209,0,0,0-2.2,2.2m8.994,0a2.254,2.254,0,0,0,4.5.314v-.314a2.19,2.19,0,0,0-2.092-2.2h0a2.209,2.209,0,0,0-2.2,2.2m8.889,0a2.254,2.254,0,0,0,4.5.314v-.314a2.19,2.19,0,0,0-2.092-2.2h0a2.209,2.209,0,0,0-2.2,2.2m4.392,0a2.4,2.4,0,0,0,2.2,2.405,2.19,2.19,0,0,0-2.2,2.092h0a2.2,2.2,0,1,0,2.2-2.2,2.145,2.145,0,0,0,2.2-2.2v-.1a2.19,2.19,0,0,0-2.092-2.2h0a2.209,2.209,0,0,0-2.2,2.2m4.393,0a2.4,2.4,0,0,0,2.2,2.405,2.19,2.19,0,0,0-2.2,2.092h0a2.209,2.209,0,0,0,2.2,2.2,2.19,2.19,0,0,0-2.2,2.092h0a2.209,2.209,0,0,0,2.2,2.2,2.19,2.19,0,0,0-2.2,2.092h0a2.209,2.209,0,0,0,2.2,2.2,2.19,2.19,0,0,0-2.2,2.092h0a2.209,2.209,0,0,0,2.2,2.2,2.19,2.19,0,0,0-2.2,2.092h0a2.2,2.2,0,1,0,2.2-2.2,2.19,2.19,0,0,0,2.2-2.092h0a2.209,2.209,0,0,0-2.2-2.2,2.19,2.19,0,0,0,2.2-2.092h0a2.209,2.209,0,0,0-2.2-2.2,2.19,2.19,0,0,0,2.2-2.092h0a2.209,2.209,0,0,0-2.2-2.2,2.145,2.145,0,0,0,2.2-2.2v-.1a2.19,2.19,0,0,0-2.092-2.2h0a2.19,2.19,0,0,0,2.2-2.092h0a2.2,2.2,0,1,0-4.392,0h0m-137.525-4.6a2.19,2.19,0,0,0,2.092,2.2h0a2.19,2.19,0,0,0-2.2,2.092h0a2.4,2.4,0,0,0,2.2,2.405,2.19,2.19,0,0,0-2.2,2.092h0a2.209,2.209,0,0,0,2.2,2.2,2.145,2.145,0,0,0-2.2,2.2v.1a2.19,2.19,0,0,0,2.092,2.2h0a2.209,2.209,0,0,0,2.2-2.2,2.4,2.4,0,0,0-2.2-2.405,2.19,2.19,0,0,0,2.2-2.092h0a2.209,2.209,0,0,0-2.2-2.2,2.145,2.145,0,0,0,2.2-2.2v-.1a2.19,2.19,0,0,0-2.092-2.2h0a2.19,2.19,0,0,0,2.2-2.092h0a2.249,2.249,0,1,0-4.5-.1h0m9.308.1a2.19,2.19,0,0,0,2.092,2.2h0a2.19,2.19,0,0,0-2.2,2.092h0a2.4,2.4,0,0,0,2.2,2.405,2.327,2.327,0,0,0,2.2-2.405,2.19,2.19,0,0,0-2.092-2.2h0a2.19,2.19,0,0,0,2.2-2.092h0a2.249,2.249,0,1,0-4.5-.1h0m4.706.1a2.19,2.19,0,0,0,2.092,2.2h0a2.209,2.209,0,0,0,2.2-2.2,2.282,2.282,0,0,0-2.2-2.2,2.145,2.145,0,0,0-2.2,2.2m41.414,0a2.19,2.19,0,0,0,2.092,2.2h0a2.19,2.19,0,0,0-2.2,2.092h0a2.4,2.4,0,0,0,2.2,2.405,2.327,2.327,0,0,0,2.2-2.405,2.19,2.19,0,0,0-2.092-2.2h0a2.19,2.19,0,0,0,2.2-2.092h0a2.249,2.249,0,1,0-4.5-.1h0m9.2.1a2.19,2.19,0,0,0,2.092,2.2h0a2.2,2.2,0,1,0-2.2-2.2m18.406,0a2.19,2.19,0,0,0,2.092,2.2h0a2.19,2.19,0,0,0-2.2,2.092h0a2.4,2.4,0,0,0,2.2,2.405,2.19,2.19,0,0,0-2.2,2.092h0a2.209,2.209,0,0,0,2.2,2.2,2.145,2.145,0,0,0-2.2,2.2v.1a2.19,2.19,0,0,0,2.092,2.2h0a2.209,2.209,0,0,0,2.2-2.2,2.4,2.4,0,0,0-2.2-2.405,2.19,2.19,0,0,0,2.2-2.092h0a2.209,2.209,0,0,0-2.2-2.2,2.145,2.145,0,0,0,2.2-2.2v-.1a2.19,2.19,0,0,0-2.092-2.2h0a2.19,2.19,0,0,0,2.2-2.092h0a2.249,2.249,0,1,0-4.5-.1h0m14.119.1a2.19,2.19,0,0,0,2.092,2.2h0a2.19,2.19,0,0,0-2.2,2.092h0a2.4,2.4,0,0,0,2.2,2.405,2.327,2.327,0,0,0,2.2-2.405,2.19,2.19,0,0,0-2.092-2.2h0a2.19,2.19,0,0,0,2.2-2.092h0a2.2,2.2,0,1,0-4.392,0h0m9.1,0a2.19,2.19,0,0,0,2.092,2.2h0a2.2,2.2,0,1,0-2.2-2.2m-109.916-4.5a2.19,2.19,0,0,0,2.092,2.2h0a2.19,2.19,0,0,0-2.2,2.092h0a2.4,2.4,0,0,0,2.2,2.405,2.19,2.19,0,0,0-2.2,2.092h0a2.2,2.2,0,1,0,2.2-2.2,2.145,2.145,0,0,0,2.2-2.2v-.1a2.19,2.19,0,0,0-2.092-2.2h0a2.19,2.19,0,0,0,2.2-2.092h0a2.4,2.4,0,0,0-2.2-2.405,2.327,2.327,0,0,0-2.2,2.405m22.9,0a2.19,2.19,0,0,0,2.092,2.2h0a2.209,2.209,0,0,0,2.2-2.2,2.4,2.4,0,0,0-2.2-2.405,2.327,2.327,0,0,0-2.2,2.405m13.8,0a2.19,2.19,0,0,0,2.092,2.2h0a2.209,2.209,0,0,0,2.2-2.2,2.4,2.4,0,0,0-2.2-2.405,2.327,2.327,0,0,0-2.2,2.405m18.511,0a2.19,2.19,0,0,0,2.092,2.2h0a2.19,2.19,0,0,0-2.2,2.092h0a2.4,2.4,0,0,0,2.2,2.405,2.19,2.19,0,0,0-2.2,2.092h0a2.209,2.209,0,0,0,2.2,2.2,2.19,2.19,0,0,0-2.2,2.092h0a2.209,2.209,0,0,0,2.2,2.2,2.145,2.145,0,0,0-2.2,2.2v.1a2.19,2.19,0,0,0,2.092,2.2h0a2.209,2.209,0,0,0,2.2-2.2,2.4,2.4,0,0,0-2.2-2.405,2.19,2.19,0,0,0,2.2-2.092h0a2.209,2.209,0,0,0-2.2-2.2,2.145,2.145,0,0,0,2.2-2.2v-.1a2.19,2.19,0,0,0-2.092-2.2h0a2.19,2.19,0,0,0,2.2-2.092h0a2.209,2.209,0,0,0-2.2-2.2,2.19,2.19,0,0,0,2.2-2.092h0a2.4,2.4,0,0,0-2.2-2.405,2.327,2.327,0,0,0-2.2,2.405m9.308,0a2.19,2.19,0,0,0,2.092,2.2h0a2.209,2.209,0,0,0,2.2-2.2,2.4,2.4,0,0,0-2.2-2.405,2.327,2.327,0,0,0-2.2,2.405m13.8,0a2.19,2.19,0,0,0,2.092,2.2h0a2.209,2.209,0,0,0,2.2-2.2,2.4,2.4,0,0,0-2.2-2.405,2.327,2.327,0,0,0-2.2,2.405m13.8,0a2.19,2.19,0,0,0,2.092,2.2h0a2.209,2.209,0,0,0,2.2-2.2,2.4,2.4,0,0,0-2.2-2.405,2.327,2.327,0,0,0-2.2,2.405m14.014,0a2.19,2.19,0,0,0,2.092,2.2h0a2.19,2.19,0,0,0-2.2,2.092h0a2.4,2.4,0,0,0,2.2,2.405,2.19,2.19,0,0,0-2.2,2.092h0a2.209,2.209,0,0,0,2.2,2.2,2.19,2.19,0,0,0-2.2,2.092h0a2.2,2.2,0,1,0,2.2-2.2,2.19,2.19,0,0,0,2.2-2.092h0a2.209,2.209,0,0,0-2.2-2.2,2.145,2.145,0,0,0,2.2-2.2v-.1a2.19,2.19,0,0,0-2.092-2.2h0a2.19,2.19,0,0,0,2.2-2.092h0a2.4,2.4,0,0,0-2.2-2.405,2.327,2.327,0,0,0-2.2,2.405m13.7,0a2.19,2.19,0,0,0,2.092,2.2h0a2.19,2.19,0,0,0-2.2,2.092h0a2.4,2.4,0,0,0,2.2,2.405,2.19,2.19,0,0,0-2.2,2.092h0a2.209,2.209,0,0,0,2.2,2.2,2.19,2.19,0,0,0-2.2,2.092h0a2.209,2.209,0,0,0,2.2,2.2,2.145,2.145,0,0,0-2.2,2.2v.1a2.19,2.19,0,0,0,2.092,2.2h0a2.209,2.209,0,0,0,2.2-2.2,2.4,2.4,0,0,0-2.2-2.405,2.19,2.19,0,0,0,2.2-2.092h0a2.209,2.209,0,0,0-2.2-2.2,2.145,2.145,0,0,0,2.2-2.2v-.1a2.19,2.19,0,0,0-2.092-2.2h0a2.19,2.19,0,0,0,2.2-2.092h0a2.209,2.209,0,0,0-2.2-2.2,2.19,2.19,0,0,0,2.2-2.092h0a2.4,2.4,0,0,0-2.2-2.405,2.327,2.327,0,0,0-2.2,2.405m-109.916-4.6a2.19,2.19,0,0,0,2.092,2.2h0a2.19,2.19,0,0,0-2.2,2.092h0a2.209,2.209,0,0,0,2.2,2.2,2.19,2.19,0,0,0-2.2,2.092h0a2.4,2.4,0,0,0,2.2,2.405,2.19,2.19,0,0,0-2.2,2.092h0a2.209,2.209,0,0,0,2.2,2.2,2.145,2.145,0,0,0-2.2,2.2v.1a2.19,2.19,0,0,0,2.092,2.2h0a2.209,2.209,0,0,0,2.2-2.2,2.4,2.4,0,0,0-2.2-2.405,2.19,2.19,0,0,0,2.2-2.092h0a2.209,2.209,0,0,0-2.2-2.2,2.145,2.145,0,0,0,2.2-2.2v-.1a2.19,2.19,0,0,0-2.092-2.2h0a2.19,2.19,0,0,0,2.2-2.092h0a2.209,2.209,0,0,0-2.2-2.2,2.19,2.19,0,0,0,2.2-2.092h0a2.4,2.4,0,0,0-2.2-2.405,2.327,2.327,0,0,0-2.2,2.405m4.6,0a2.19,2.19,0,0,0,2.092,2.2h0a2.209,2.209,0,0,0,2.2-2.2,2.4,2.4,0,0,0-2.2-2.405,2.327,2.327,0,0,0-2.2,2.405m18.406,0a2.19,2.19,0,0,0,2.092,2.2h0a2.19,2.19,0,0,0-2.2,2.092h0a2.2,2.2,0,1,0,2.2-2.2,2.19,2.19,0,0,0,2.2-2.092h0a2.4,2.4,0,0,0-2.2-2.405,2.327,2.327,0,0,0-2.2,2.405m9.308,0a2.19,2.19,0,0,0,2.092,2.2h0a2.19,2.19,0,0,0-2.2,2.092h0a2.209,2.209,0,0,0,2.2,2.2,2.19,2.19,0,0,0-2.2,2.092h0a2.4,2.4,0,0,0,2.2,2.405,2.19,2.19,0,0,0-2.2,2.092h0a2.2,2.2,0,1,0,2.2-2.2,2.145,2.145,0,0,0,2.2-2.2v-.1a2.19,2.19,0,0,0-2.092-2.2h0a2.19,2.19,0,0,0,2.2-2.092h0a2.209,2.209,0,0,0-2.2-2.2,2.19,2.19,0,0,0,2.2-2.092h0a2.4,2.4,0,0,0-2.2-2.405,2.327,2.327,0,0,0-2.2,2.405m4.5,0a2.19,2.19,0,0,0,2.092,2.2h0a2.209,2.209,0,0,0,2.2-2.2,2.4,2.4,0,0,0-2.2-2.405,2.327,2.327,0,0,0-2.2,2.405m69.024,0a2.19,2.19,0,0,0,2.092,2.2h0a2.209,2.209,0,0,0,2.2-2.2,2.4,2.4,0,0,0-2.2-2.405,2.326,2.326,0,0,0-2.2,2.405m13.8,0a2.19,2.19,0,0,0,2.092,2.2h0a2.209,2.209,0,0,0,2.2-2.2,2.4,2.4,0,0,0-2.2-2.405,2.327,2.327,0,0,0-2.2,2.405m-128.218-4.6a2.19,2.19,0,0,0,2.092,2.2h0a2.2,2.2,0,1,0-2.2-2.2m4.706,0a2.19,2.19,0,0,0,2.092,2.2h0a2.145,2.145,0,0,0-2.2,2.2v.1a2.19,2.19,0,0,0,2.092,2.2h0a2.209,2.209,0,0,0,2.2-2.2,2.4,2.4,0,0,0-2.2-2.405,2.19,2.19,0,0,0,2.2-2.092h0a2.249,2.249,0,1,0-4.5-.1h0m14.014.1a2.19,2.19,0,0,0,2.092,2.2h0a2.145,2.145,0,0,0-2.2,2.2v.209a2.19,2.19,0,0,0,2.092,2.2h0a2.209,2.209,0,0,0,2.2-2.2,2.4,2.4,0,0,0-2.2-2.405,2.19,2.19,0,0,0,2.2-2.092h0a2.249,2.249,0,0,0-4.5-.1h0m4.915,0a2.19,2.19,0,0,0,2.092,2.2h0a2.2,2.2,0,1,0-2.2-2.2m45.912,0a2.19,2.19,0,0,0,2.092,2.2h0a2.2,2.2,0,1,0-2.2-2.2m13.909,0a2.19,2.19,0,0,0,2.092,2.2h0a2.145,2.145,0,0,0-2.2,2.2v.1a2.19,2.19,0,0,0,2.092,2.2h0a2.19,2.19,0,0,0-2.2,2.092h0a2.209,2.209,0,0,0,2.2,2.2,2.19,2.19,0,0,0-2.2,2.092h0a2.4,2.4,0,0,0,2.2,2.405,2.327,2.327,0,0,0,2.2-2.405,2.19,2.19,0,0,0-2.092-2.2h0a2.19,2.19,0,0,0,2.2-2.092h0a2.209,2.209,0,0,0-2.2-2.2,2.19,2.19,0,0,0,2.2-2.092h0a2.4,2.4,0,0,0-2.2-2.405,2.19,2.19,0,0,0,2.2-2.092h0a2.2,2.2,0,1,0-4.392,0h0m4.6,0a2.19,2.19,0,0,0,2.092,2.2h0a2.145,2.145,0,0,0-2.2,2.2v.1a2.19,2.19,0,0,0,2.092,2.2h0a2.209,2.209,0,0,0,2.2-2.2,2.4,2.4,0,0,0-2.2-2.405,2.19,2.19,0,0,0,2.2-2.092h0a2.249,2.249,0,0,0-4.5-.1h0m14.223.1a2.19,2.19,0,0,0,2.092,2.2h0a2.145,2.145,0,0,0-2.2,2.2v.1a2.19,2.19,0,0,0,2.092,2.2h0a2.209,2.209,0,0,0,2.2-2.2,2.4,2.4,0,0,0-2.2-2.405,2.19,2.19,0,0,0,2.2-2.092h0a2.2,2.2,0,1,0-4.392,0h0m23.113,0a2.19,2.19,0,0,0,2.092,2.2h0a2.2,2.2,0,1,0-2.2-2.2m9.2,0a2.19,2.19,0,0,0,2.092,2.2h0a2.2,2.2,0,1,0-2.2-2.2m4.706,0a2.19,2.19,0,0,0,2.092,2.2h0a2.145,2.145,0,0,0-2.2,2.2v.1a2.19,2.19,0,0,0,2.092,2.2h0a2.19,2.19,0,0,0-2.2,2.092h0a2.2,2.2,0,1,0,2.2-2.2,2.19,2.19,0,0,0,2.2-2.092h0a2.4,2.4,0,0,0-2.2-2.405,2.19,2.19,0,0,0,2.2-2.092h0a2.249,2.249,0,1,0-4.5-.1h0m-109.707-4.5a2.19,2.19,0,0,0,2.092,2.2h0a2.19,2.19,0,0,0-2.2,2.092h0a2.209,2.209,0,0,0,2.2,2.2,2.145,2.145,0,0,0-2.2,2.2v.1a2.19,2.19,0,0,0,2.092,2.2h0a2.19,2.19,0,0,0-2.2,2.092h0a2.4,2.4,0,0,0,2.2,2.405,2.19,2.19,0,0,0-2.2,2.092h0a2.2,2.2,0,1,0,2.2-2.2,2.145,2.145,0,0,0,2.2-2.2v-.1a2.19,2.19,0,0,0-2.092-2.2h0a2.19,2.19,0,0,0,2.2-2.092h0a2.4,2.4,0,0,0-2.2-2.405,2.19,2.19,0,0,0,2.2-2.092h0a2.209,2.209,0,0,0-2.2-2.2,2.19,2.19,0,0,0,2.2-2.092h0a2.2,2.2,0,0,0-4.392,0h0m4.6,0a2.19,2.19,0,0,0,2.092,2.2h0a2.2,2.2,0,1,0-2.2-2.2m4.706,0a2.19,2.19,0,0,0,2.092,2.2h0a2.2,2.2,0,1,0-2.2-2.2m14.014,0a2.19,2.19,0,0,0,2.092,2.2h0a2.19,2.19,0,0,0-2.2,2.092h0a2.2,2.2,0,1,0,2.2-2.2,2.19,2.19,0,0,0,2.2-2.092h0a2.249,2.249,0,1,0-4.5-.1h0m4.706.1a2.19,2.19,0,0,0,2.092,2.2h0a2.2,2.2,0,1,0-2.2-2.2m4.706,0a2.19,2.19,0,0,0,2.092,2.2h0a2.19,2.19,0,0,0-2.2,2.092h0a2.2,2.2,0,1,0,2.2-2.2,2.19,2.19,0,0,0,2.2-2.092h0a2.249,2.249,0,0,0-4.5-.1h0m32.211.1a2.19,2.19,0,0,0,2.092,2.2h0a2.19,2.19,0,0,0-2.2,2.092h0a2.2,2.2,0,1,0,2.2-2.2,2.19,2.19,0,0,0,2.2-2.092h0a2.249,2.249,0,1,0-4.5-.1h0m4.915.1a2.19,2.19,0,0,0,2.092,2.2h0a2.2,2.2,0,1,0-2.2-2.2m45.912,0a2.19,2.19,0,0,0,2.092,2.2h0a2.19,2.19,0,0,0-2.2,2.092h0a2.2,2.2,0,1,0,2.2-2.2,2.19,2.19,0,0,0,2.2-2.092h0a2.249,2.249,0,1,0-4.5-.1h0m-146.624-4.6a2.4,2.4,0,0,0,2.2,2.405,2.19,2.19,0,0,0-2.2,2.092h0a2.209,2.209,0,0,0,2.2,2.2,2.145,2.145,0,0,0-2.2,2.2v.1a2.19,2.19,0,0,0,2.092,2.2h0a2.19,2.19,0,0,0-2.2,2.092h0a2.209,2.209,0,0,0,2.2,2.2,2.19,2.19,0,0,0-2.2,2.092h0a2.4,2.4,0,0,0,2.2,2.405,2.19,2.19,0,0,0-2.2,2.092h0a2.2,2.2,0,1,0,2.2-2.2,2.145,2.145,0,0,0,2.2-2.2v-.1a2.19,2.19,0,0,0-2.092-2.2h0a2.19,2.19,0,0,0,2.2-2.092h0a2.209,2.209,0,0,0-2.2-2.2,2.19,2.19,0,0,0,2.2-2.092h0a2.4,2.4,0,0,0-2.2-2.405,2.19,2.19,0,0,0,2.2-2.092h0a2.209,2.209,0,0,0-2.2-2.2,2.145,2.145,0,0,0,2.2-2.2v-.1a2.19,2.19,0,0,0-2.092-2.2h0a2.209,2.209,0,0,0-2.2,2.2m18.3,0a2.4,2.4,0,0,0,2.2,2.405,2.19,2.19,0,0,0-2.2,2.092h0a2.2,2.2,0,1,0,2.2-2.2,2.145,2.145,0,0,0,2.2-2.2v-.1a2.19,2.19,0,0,0-2.092-2.2h0a2.209,2.209,0,0,0-2.2,2.2m4.5,0a2.254,2.254,0,0,0,4.5.314v-.314a2.19,2.19,0,0,0-2.092-2.2h0a2.209,2.209,0,0,0-2.2,2.2m4.392,0a2.254,2.254,0,1,0,4.5.314v-.314a2.19,2.19,0,0,0-2.092-2.2h0a2.209,2.209,0,0,0-2.2,2.2m22.59,0a2.4,2.4,0,0,0,2.2,2.405,2.19,2.19,0,0,0-2.2,2.092h0a2.2,2.2,0,1,0,2.2-2.2,2.145,2.145,0,0,0,2.2-2.2v-.1a2.19,2.19,0,0,0-2.092-2.2h0a2.209,2.209,0,0,0-2.2,2.2m27.505,0a2.254,2.254,0,0,0,4.5.314v-.314a2.19,2.19,0,0,0-2.092-2.2h0a2.209,2.209,0,0,0-2.2,2.2m27.4,0a2.254,2.254,0,0,0,4.5.314v-.314a2.19,2.19,0,0,0-2.092-2.2h0a2.209,2.209,0,0,0-2.2,2.2m8.889,0a2.4,2.4,0,0,0,2.2,2.405,2.19,2.19,0,0,0-2.2,2.092h0a2.209,2.209,0,0,0,2.2,2.2,2.145,2.145,0,0,0-2.2,2.2v.1a2.19,2.19,0,0,0,2.092,2.2h0a2.209,2.209,0,0,0,2.2-2.2,2.4,2.4,0,0,0-2.2-2.405,2.19,2.19,0,0,0,2.2-2.092h0a2.209,2.209,0,0,0-2.2-2.2,2.145,2.145,0,0,0,2.2-2.2v-.1a2.19,2.19,0,0,0-2.092-2.2h0a2.209,2.209,0,0,0-2.2,2.2m4.6,0a2.4,2.4,0,0,0,2.2,2.405,2.19,2.19,0,0,0-2.2,2.092h0a2.2,2.2,0,1,0,2.2-2.2,2.145,2.145,0,0,0,2.2-2.2v-.1a2.19,2.19,0,0,0-2.092-2.2h0a2.209,2.209,0,0,0-2.2,2.2m4.5,0a2.4,2.4,0,0,0,2.2,2.405,2.19,2.19,0,0,0-2.2,2.092h0a2.209,2.209,0,0,0,2.2,2.2,2.145,2.145,0,0,0-2.2,2.2v.1a2.19,2.19,0,0,0,2.092,2.2h0a2.209,2.209,0,0,0,2.2-2.2,2.4,2.4,0,0,0-2.2-2.405,2.19,2.19,0,0,0,2.2-2.092h0a2.209,2.209,0,0,0-2.2-2.2,2.145,2.145,0,0,0,2.2-2.2v-.1a2.19,2.19,0,0,0-2.092-2.2h0a2.209,2.209,0,0,0-2.2,2.2m4.6,0a2.254,2.254,0,0,0,4.5.314v-.314a2.19,2.19,0,0,0-2.092-2.2h0a2.209,2.209,0,0,0-2.2,2.2m4.288,0a2.309,2.309,0,0,0,2.092,2.405,2.236,2.236,0,0,0,2.405-2.092v-.314a2.19,2.19,0,0,0-2.092-2.2h0a2.209,2.209,0,0,0-2.2,2.2m4.392,0a2.309,2.309,0,0,0,2.092,2.405,2.236,2.236,0,0,0,2.405-2.092v-.314a2.19,2.19,0,0,0-2.092-2.2h0a2.209,2.209,0,0,0-2.2,2.2m4.392,0a2.254,2.254,0,1,0,4.5.314v-.314a2.19,2.19,0,0,0-2.092-2.2h0a2.209,2.209,0,0,0-2.2,2.2m-101.131-4.5a2.254,2.254,0,0,0,4.5.314v-.314a2.19,2.19,0,0,0-2.092-2.2h0a2.209,2.209,0,0,0-2.2,2.2m18.2,0a2.254,2.254,0,0,0,4.5.314v-.314a2.19,2.19,0,0,0-2.092-2.2h0a2.209,2.209,0,0,0-2.2,2.2m36.395,0a2.254,2.254,0,1,0,4.5.314v-.314a2.19,2.19,0,0,0-2.092-2.2h0a2.209,2.209,0,0,0-2.2,2.2m4.5-4.6a2.19,2.19,0,0,0,2.092,2.2h0a2.19,2.19,0,0,0-2.2,2.092h0a2.4,2.4,0,0,0,2.2,2.405,2.327,2.327,0,0,0,2.2-2.405,2.19,2.19,0,0,0-2.092-2.2h0a2.19,2.19,0,0,0,2.2-2.092h0a2.249,2.249,0,1,0-4.5-.1h0m9.308.1a2.19,2.19,0,0,0,2.092,2.2h0a2.19,2.19,0,0,0-2.2,2.092h0a2.4,2.4,0,0,0,2.2,2.405,2.19,2.19,0,0,0-2.2,2.092h0a2.2,2.2,0,1,0,2.2-2.2,2.145,2.145,0,0,0,2.2-2.2v-.1a2.19,2.19,0,0,0-2.092-2.2h0a2.19,2.19,0,0,0,2.2-2.092h0a2.249,2.249,0,0,0-4.5-.1h0m-55.01-4.5a2.19,2.19,0,0,0,2.092,2.2h0a2.19,2.19,0,0,0-2.2,2.092h0a2.4,2.4,0,0,0,2.2,2.405,2.19,2.19,0,0,0-2.2,2.092h0a2.2,2.2,0,1,0,2.2-2.2,2.145,2.145,0,0,0,2.2-2.2v-.1a2.19,2.19,0,0,0-2.092-2.2h0a2.19,2.19,0,0,0,2.2-2.092h0a2.3,2.3,0,0,0-2.2-2.3,2.229,2.229,0,0,0-2.3,2.2h0m9.308.1a2.19,2.19,0,0,0,2.092,2.2h0a2.19,2.19,0,0,0-2.2,2.092h0a2.4,2.4,0,0,0,2.2,2.405,2.327,2.327,0,0,0,2.2-2.405,2.19,2.19,0,0,0-2.092-2.2h0a2.19,2.19,0,0,0,2.2-2.092h0a2.3,2.3,0,0,0-2.2-2.3,2.229,2.229,0,0,0-2.3,2.2h0m9.2.1a2.19,2.19,0,0,0,2.092,2.2h0a2.19,2.19,0,0,0-2.2,2.092h0a2.4,2.4,0,0,0,2.2,2.405,2.19,2.19,0,0,0-2.2,2.092h0a2.209,2.209,0,0,0,2.2,2.2,2.145,2.145,0,0,0-2.2,2.2v.1a2.19,2.19,0,0,0,2.092,2.2h0a2.209,2.209,0,0,0,2.2-2.2,2.4,2.4,0,0,0-2.2-2.405,2.19,2.19,0,0,0,2.2-2.092h0a2.209,2.209,0,0,0-2.2-2.2,2.145,2.145,0,0,0,2.2-2.2v-.1a2.19,2.19,0,0,0-2.092-2.2h0a2.19,2.19,0,0,0,2.2-2.092h0a2.3,2.3,0,0,0-2.2-2.3,2.229,2.229,0,0,0-2.3,2.2h0m9.412.1a2.19,2.19,0,0,0,2.092,2.2h0a2.19,2.19,0,0,0-2.2,2.092h0a2.4,2.4,0,0,0,2.2,2.405,2.19,2.19,0,0,0-2.2,2.092h0a2.209,2.209,0,0,0,2.2,2.2,2.145,2.145,0,0,0-2.2,2.2v.1a2.19,2.19,0,0,0,2.092,2.2h0a2.19,2.19,0,0,0-2.2,2.092h0a2.209,2.209,0,0,0,2.2,2.2,2.19,2.19,0,0,0-2.2,2.092h0a2.4,2.4,0,0,0,2.2,2.405,2.327,2.327,0,0,0,2.2-2.405,2.19,2.19,0,0,0-2.092-2.2h0a2.19,2.19,0,0,0,2.2-2.092h0a2.209,2.209,0,0,0-2.2-2.2,2.19,2.19,0,0,0,2.2-2.092h0a2.4,2.4,0,0,0-2.2-2.405,2.19,2.19,0,0,0,2.2-2.092h0a2.209,2.209,0,0,0-2.2-2.2,2.145,2.145,0,0,0,2.2-2.2v-.1a2.19,2.19,0,0,0-2.092-2.2h0a2.19,2.19,0,0,0,2.2-2.092h0a2.3,2.3,0,0,0-2.2-2.3,2.229,2.229,0,0,0-2.3,2.2h0m-41.205-4.5a2.19,2.19,0,0,0,2.092,2.2h0a2.209,2.209,0,0,0,2.2-2.2,2.4,2.4,0,0,0-2.2-2.405,2.327,2.327,0,0,0-2.2,2.405m18.511,0a2.19,2.19,0,0,0,2.092,2.2h0a2.209,2.209,0,0,0,2.2-2.2,2.4,2.4,0,0,0-2.2-2.405,2.327,2.327,0,0,0-2.2,2.405m18.406,0a2.19,2.19,0,0,0,2.092,2.2h0a2.209,2.209,0,0,0,2.2-2.2,2.4,2.4,0,0,0-2.2-2.405,2.327,2.327,0,0,0-2.2,2.405m9.308,0a2.19,2.19,0,0,0,2.092,2.2h0a2.209,2.209,0,0,0,2.2-2.2,2.4,2.4,0,0,0-2.2-2.405,2.327,2.327,0,0,0-2.2,2.405m13.909,0a2.19,2.19,0,0,0,2.092,2.2h0a2.209,2.209,0,0,0,2.2-2.2,2.4,2.4,0,0,0-2.2-2.405,2.327,2.327,0,0,0-2.2,2.405m-55.01-4.5a2.19,2.19,0,0,0,2.092,2.2h0a2.19,2.19,0,0,0-2.2,2.092h0a2.209,2.209,0,0,0,2.2,2.2,2.19,2.19,0,0,0-2.2,2.092h0a2.4,2.4,0,0,0,2.2,2.405,2.19,2.19,0,0,0-2.2,2.092h0a2.2,2.2,0,1,0,2.2-2.2,2.145,2.145,0,0,0,2.2-2.2v-.1a2.19,2.19,0,0,0-2.092-2.2h0a2.19,2.19,0,0,0,2.2-2.092h0a2.209,2.209,0,0,0-2.2-2.2,2.19,2.19,0,0,0,2.2-2.092h0a2.4,2.4,0,0,0-2.2-2.405,2.327,2.327,0,0,0-2.2,2.405m18.406,0a2.19,2.19,0,0,0,2.092,2.2h0a2.209,2.209,0,0,0,2.2-2.2,2.4,2.4,0,0,0-2.2-2.405,2.327,2.327,0,0,0-2.2,2.405m27.505,0a2.19,2.19,0,0,0,2.092,2.2h0a2.19,2.19,0,0,0-2.2,2.092h0a2.209,2.209,0,0,0,2.2,2.2,2.19,2.19,0,0,0-2.2,2.092h0a2.4,2.4,0,0,0,2.2,2.405,2.19,2.19,0,0,0-2.2,2.092h0a2.209,2.209,0,0,0,2.2,2.2,2.145,2.145,0,0,0-2.2,2.2v.1a2.19,2.19,0,0,0,2.092,2.2h0a2.209,2.209,0,0,0,2.2-2.2,2.4,2.4,0,0,0-2.2-2.405,2.19,2.19,0,0,0,2.2-2.092h0a2.209,2.209,0,0,0-2.2-2.2,2.145,2.145,0,0,0,2.2-2.2v-.1a2.19,2.19,0,0,0-2.092-2.2h0a2.19,2.19,0,0,0,2.2-2.092h0a2.209,2.209,0,0,0-2.2-2.2,2.19,2.19,0,0,0,2.2-2.092h0a2.4,2.4,0,0,0-2.2-2.405,2.327,2.327,0,0,0-2.2,2.405m-36.395-4.6a2.19,2.19,0,0,0,2.092,2.2h0a2.2,2.2,0,1,0-2.2-2.2m4.6,0a2.19,2.19,0,0,0,2.092,2.2h0a2.2,2.2,0,1,0-2.2-2.2m18.406,0a2.19,2.19,0,0,0,2.092,2.2h0a2.2,2.2,0,1,0-2.2-2.2m4.706,0a2.19,2.19,0,0,0,2.092,2.2h0a2.145,2.145,0,0,0-2.2,2.2v.1a2.19,2.19,0,0,0,2.092,2.2h0a2.209,2.209,0,0,0,2.2-2.2,2.4,2.4,0,0,0-2.2-2.405,2.19,2.19,0,0,0,2.2-2.092h0a2.3,2.3,0,0,0-2.2-2.3,2.229,2.229,0,0,0-2.3,2.2h0m4.915.1a2.19,2.19,0,0,0,2.092,2.2h0a2.2,2.2,0,1,0-2.2-2.2m9.2,0a2.19,2.19,0,0,0,2.092,2.2h0a2.2,2.2,0,1,0-2.2-2.2m4.811,0a2.19,2.19,0,0,0,2.092,2.2h0a2.2,2.2,0,1,0-2.2-2.2m4.706,0a2.19,2.19,0,0,0,2.092,2.2h0a2.145,2.145,0,0,0-2.2,2.2v.1a2.19,2.19,0,0,0,2.092,2.2h0a2.19,2.19,0,0,0-2.2,2.092h0a2.4,2.4,0,0,0,2.2,2.405,2.19,2.19,0,0,0-2.2,2.092h0a2.2,2.2,0,1,0,2.2-2.2,2.145,2.145,0,0,0,2.2-2.2v-.1a2.19,2.19,0,0,0-2.092-2.2h0a2.19,2.19,0,0,0,2.2-2.092h0a2.4,2.4,0,0,0-2.2-2.405,2.19,2.19,0,0,0,2.2-2.092h0a2.249,2.249,0,1,0-4.5-.1h0m4.811.1a2.19,2.19,0,0,0,2.092,2.2h0a2.2,2.2,0,1,0-2.2-2.2m-100.817,4.6a6.9,6.9,0,1,0,6.9-6.9,7.147,7.147,0,0,0-4.915,1.987,6.96,6.96,0,0,0-1.987,4.915m119.224,0a6.9,6.9,0,1,0,6.9-6.9,7.147,7.147,0,0,0-4.915,1.987,6.96,6.96,0,0,0-1.987,4.915m-91.823-9.2a2.19,2.19,0,0,0,2.092,2.2h0a2.145,2.145,0,0,0-2.2,2.2v.1a2.19,2.19,0,0,0,2.092,2.2h0a2.19,2.19,0,0,0-2.2,2.092h0a2.209,2.209,0,0,0,2.2,2.2,2.19,2.19,0,0,0-2.2,2.092h0a2.4,2.4,0,0,0,2.2,2.405,2.19,2.19,0,0,0-2.2,2.092h0a2.209,2.209,0,0,0,2.2,2.2,2.145,2.145,0,0,0-2.2,2.2v.1a2.19,2.19,0,0,0,2.092,2.2h0a2.19,2.19,0,0,0-2.2,2.092h0a2.2,2.2,0,1,0,2.2-2.2,2.19,2.19,0,0,0,2.2-2.092h0a2.4,2.4,0,0,0-2.2-2.405,2.19,2.19,0,0,0,2.2-2.092h0a2.209,2.209,0,0,0-2.2-2.2,2.145,2.145,0,0,0,2.2-2.2v-.1a2.19,2.19,0,0,0-2.092-2.2h0a2.19,2.19,0,0,0,2.2-2.092h0a2.209,2.209,0,0,0-2.2-2.2,2.19,2.19,0,0,0,2.2-2.092h0a2.4,2.4,0,0,0-2.2-2.405,2.19,2.19,0,0,0,2.2-2.092h0a2.3,2.3,0,0,0-2.2-2.3,2.229,2.229,0,0,0-2.3,2.2h0m27.923.1a2.19,2.19,0,0,0,2.092,2.2h0a2.2,2.2,0,1,0-2.2-2.2m4.706,0a2.19,2.19,0,0,0,2.092,2.2h0a2.2,2.2,0,1,0-2.2-2.2m4.706,0a2.19,2.19,0,0,0,2.092,2.2h0a2.145,2.145,0,0,0-2.2,2.2v.1a2.19,2.19,0,0,0,2.092,2.2h0a2.209,2.209,0,0,0,2.2-2.2,2.4,2.4,0,0,0-2.2-2.405,2.19,2.19,0,0,0,2.2-2.092h0a2.3,2.3,0,0,0-2.2-2.3,2.229,2.229,0,0,0-2.3,2.2h0m-31.9-4.392a2.4,2.4,0,0,0,2.2,2.405,2.19,2.19,0,0,0-2.2,2.092h0a2.209,2.209,0,0,0,2.2,2.2,2.145,2.145,0,0,0-2.2,2.2v.1a2.19,2.19,0,0,0,2.092,2.2h0a2.209,2.209,0,0,0,2.2-2.2,2.4,2.4,0,0,0-2.2-2.405,2.19,2.19,0,0,0,2.2-2.092h0a2.209,2.209,0,0,0-2.2-2.2,2.145,2.145,0,0,0,2.2-2.2v-.1a2.19,2.19,0,0,0-2.092-2.2h0a2.209,2.209,0,0,0-2.2,2.2m4.6,0a2.254,2.254,0,1,0,4.5.314v-.314a2.19,2.19,0,0,0-2.092-2.2h0a2.209,2.209,0,0,0-2.2,2.2m4.288,0a2.254,2.254,0,0,0,4.5.314v-.314a2.19,2.19,0,0,0-2.092-2.2h0a2.209,2.209,0,0,0-2.2,2.2m4.6,0a2.254,2.254,0,1,0,4.5.314v-.314a2.19,2.19,0,0,0-2.092-2.2h0a2.209,2.209,0,0,0-2.2,2.2m36.29,0a2.254,2.254,0,1,0,4.5.314v-.314a2.19,2.19,0,0,0-2.092-2.2h0a2.209,2.209,0,0,0-2.2,2.2m4.393,0a2.254,2.254,0,1,0,4.5.314v-.314a2.19,2.19,0,0,0-2.092-2.2h0a2.209,2.209,0,0,0-2.2,2.2m4.5,0a2.254,2.254,0,0,0,4.5.314v-.314a2.19,2.19,0,0,0-2.092-2.2h0a2.209,2.209,0,0,0-2.2,2.2m4.392,0a2.254,2.254,0,0,0,4.5.314v-.314a2.19,2.19,0,0,0-2.092-2.2h0a2.209,2.209,0,0,0-2.2,2.2m4.392,0a2.254,2.254,0,1,0,4.5.314v-.314a2.19,2.19,0,0,0-2.092-2.2h0a2.209,2.209,0,0,0-2.2,2.2m-105.837,13.7a11.5,11.5,0,1,1,11.5,11.5,11.471,11.471,0,0,1-11.5-11.5m-4.6,0a16.106,16.106,0,1,0,16.106-16.106,16.113,16.113,0,0,0-16.106,16.106m123.93,0a11.5,11.5,0,1,1,11.5,11.5,11.471,11.471,0,0,1-11.5-11.5m-4.6,0a16.106,16.106,0,1,0,16.106-16.106,16.113,16.113,0,0,0-16.106,16.106Z" fill="none"/>
    </clipPath>
  </defs>
  <g id="QR_MAT" transform="translate(-499.614 -616.878)">
    <rect id="Rectángulo_257" width="163.253" height="163.253" transform="translate(499.614 616.878)" fill="#fff"/>
    <g id="QR_MAt-2" data-name="QR_MAt" transform="translate(75.01 314.008)" clip-path="url(#clip-path)">
      <g id="Grupo_637">
        <rect id="Rectángulo_259" width="163.775" height="163.775" transform="translate(424.289 302.556)"/>
      </g>
    </g>
  </g>
</svg>
