<svg xmlns="http://www.w3.org/2000/svg" xmlns:xlink="http://www.w3.org/1999/xlink" width="105.358" height="105.328" viewBox="0 0 105.358 105.328">
  <defs>
    <clipPath id="clip-path">
      <path id="Trazado_1894" data-name="Trazado 1894" d="M338.668,335.878a1.59,1.59,0,1,1,1.59,1.59A1.591,1.591,0,0,1,338.668,335.878Zm-9.573,0a1.59,1.59,0,1,1,1.59,1.59A1.591,1.591,0,0,1,329.1,335.878Zm-6.392,0a1.6,1.6,0,1,1,1.605,1.59h0a1.591,1.591,0,0,1-1.59-1.59Zm-3.181,0a1.59,1.59,0,1,1,1.59,1.59,1.591,1.591,0,0,1-1.59-1.59Zm-6.392,0a1.59,1.59,0,1,1,1.59,1.59,1.591,1.591,0,0,1-1.59-1.59Zm-3.2,0a1.59,1.59,0,1,1,1.59,1.59A1.591,1.591,0,0,1,309.936,335.878Zm-9.573,0a1.59,1.59,0,1,1,1.59,1.59,1.591,1.591,0,0,1-1.59-1.59Zm-15.964,0a1.59,1.59,0,1,1,1.59,1.59A1.591,1.591,0,0,1,284.4,335.878Zm-3.2,0a1.59,1.59,0,1,1,1.59,1.59,1.591,1.591,0,0,1-1.59-1.59Zm-3.181,0a1.59,1.59,0,1,1,1.59,1.59,1.591,1.591,0,0,1-1.59-1.59Zm-3.2,0a1.59,1.59,0,1,1,1.59,1.59,1.591,1.591,0,0,1-1.59-1.59Zm-3.2,0a1.59,1.59,0,1,1,1.59,1.59,1.591,1.591,0,0,1-1.59-1.59Zm-3.2,0a1.59,1.59,0,1,1,1.59,1.59,1.591,1.591,0,0,1-1.59-1.59Zm-25.522-9.573h0a11.17,11.17,0,1,1,11.163,11.148h0A11.183,11.183,0,0,1,242.9,326.29Zm3.181,0h0a7.982,7.982,0,1,0,8-7.967h0a8,8,0,0,0-7.982,7.967Zm98.966,6.377a1.6,1.6,0,1,1-.015,0h0Zm-9.588,0a1.59,1.59,0,1,1,1.59,1.59,1.591,1.591,0,0,1-1.59-1.59Zm-6.377,0a1.59,1.59,0,1,1,1.59,1.59A1.591,1.591,0,0,1,329.1,332.682Zm-3.2,0a1.59,1.59,0,1,1,1.59,1.59A1.591,1.591,0,0,1,325.9,332.682Zm-6.377,0a1.59,1.59,0,1,1,1.59,1.59,1.591,1.591,0,0,1-1.59-1.59Zm-9.587,0a1.59,1.59,0,1,1,1.59,1.59A1.591,1.591,0,0,1,309.936,332.682Zm-3.181,0a1.59,1.59,0,1,1,1.59,1.59,1.591,1.591,0,0,1-1.59-1.59Zm-6.392,0a1.59,1.59,0,1,1,1.59,1.59,1.591,1.591,0,0,1-1.59-1.59Zm-3.2,0a1.59,1.59,0,1,1,1.59,1.59,1.591,1.591,0,0,1-1.59-1.59Zm-3.181,0a1.59,1.59,0,1,1,1.59,1.59h0a1.591,1.591,0,0,1-1.59-1.59Zm-3.2,0a1.59,1.59,0,1,1,1.59,1.59,1.591,1.591,0,0,1-1.59-1.59Zm-3.2,0a1.59,1.59,0,1,1,1.59,1.59,1.591,1.591,0,0,1-1.59-1.59Zm-3.2,0a1.6,1.6,0,1,1-.015,0h0Zm51.088-3.2a1.6,1.6,0,1,1-.015,0h0Zm-9.587,0a1.6,1.6,0,1,1-.015,0h0Zm-12.768,0a1.6,1.6,0,1,1-.015,0h0Zm-3.181,0a1.6,1.6,0,1,1-.015,0h0Zm-9.588,0a1.6,1.6,0,1,1-.015,0h0Zm-25.537,0a1.6,1.6,0,1,1-.015,0h0Zm-6.377,0a1.6,1.6,0,1,1-.015,0h0Zm-19.16-3.181a4.786,4.786,0,1,1,4.786,4.786A4.79,4.79,0,0,1,249.29,326.305Zm95.77,0a1.6,1.6,0,1,1-.015,0h0Zm-3.2,0a1.59,1.59,0,1,1,1.59,1.59A1.591,1.591,0,0,1,341.864,326.305Zm-3.2,0a1.59,1.59,0,1,1,1.59,1.59A1.591,1.591,0,0,1,338.668,326.305Zm-3.2,0a1.59,1.59,0,1,1,1.59,1.59,1.591,1.591,0,0,1-1.59-1.59Zm-3.181,0a1.59,1.59,0,1,1,1.59,1.59,1.591,1.591,0,0,1-1.59-1.59Zm-6.392,0a1.59,1.59,0,1,1,1.59,1.59A1.591,1.591,0,0,1,325.9,326.305Zm-3.2,0a1.59,1.59,0,1,1,1.59,1.59h0A1.591,1.591,0,0,1,322.7,326.305Zm-6.377,0a1.59,1.59,0,1,1,1.59,1.59A1.591,1.591,0,0,1,316.328,326.305Zm-3.2,0a1.59,1.59,0,1,1,1.59,1.59,1.591,1.591,0,0,1-1.59-1.59Zm-3.2,0a1.59,1.59,0,1,1,1.59,1.59,1.591,1.591,0,0,1-1.59-1.59Zm-12.768,0a1.59,1.59,0,1,1,1.59,1.59,1.591,1.591,0,0,1-1.59-1.59Zm-9.573,0a1.59,1.59,0,1,1,1.59,1.59,1.591,1.591,0,0,1-1.59-1.59Zm-3.2,0a1.6,1.6,0,1,1-.015,0h0Zm-3.181,0a1.59,1.59,0,1,1,1.59,1.59,1.591,1.591,0,0,1-1.59-1.59Zm-3.2,0a1.59,1.59,0,1,1,1.59,1.59,1.591,1.591,0,0,1-1.59-1.59Zm-9.573,0a1.59,1.59,0,1,1,1.59,1.59,1.591,1.591,0,0,1-1.59-1.59Zm76.61-3.2a1.6,1.6,0,1,1-.015,0h0Zm-6.392,0a1.59,1.59,0,1,1,1.59,1.59h0A1.591,1.591,0,0,1,338.668,323.109Zm-3.2,0a1.59,1.59,0,1,1,1.59,1.59h0a1.591,1.591,0,0,1-1.59-1.59Zm-3.181,0a1.59,1.59,0,1,1,1.59,1.59h0a1.591,1.591,0,0,1-1.59-1.59Zm-3.2,0a1.59,1.59,0,1,1,1.59,1.59h0a1.591,1.591,0,0,1-1.59-1.59Zm-3.2,0a1.59,1.59,0,1,1,1.59,1.59h0A1.591,1.591,0,0,1,325.9,323.109Zm-3.2,0a1.59,1.59,0,1,1,1.59,1.59h0A1.591,1.591,0,0,1,322.7,323.109Zm-3.181,0a1.59,1.59,0,1,1,1.59,1.59h0a1.591,1.591,0,0,1-1.59-1.59Zm-3.2,0a1.59,1.59,0,1,1,1.59,1.59h0a1.591,1.591,0,0,1-1.59-1.59Zm-22.341,0a1.59,1.59,0,1,1,1.59,1.59h0a1.591,1.591,0,0,1-1.59-1.59Zm-6.392,0a1.59,1.59,0,1,1,1.59,1.59h0a1.591,1.591,0,0,1-1.59-1.59Zm-3.2,0a1.59,1.59,0,1,1,1.59,1.59h0a1.6,1.6,0,0,1-1.605-1.59h0Zm-6.377,0a1.59,1.59,0,1,1,1.59,1.59h0a1.591,1.591,0,0,1-1.59-1.59Zm-3.2,0a1.59,1.59,0,1,1,1.59,1.59h0a1.591,1.591,0,0,1-1.59-1.59Zm57.465-3.2a1.59,1.59,0,1,1,1.59,1.59,1.591,1.591,0,0,1-1.59-1.59Zm-12.768,0a1.59,1.59,0,1,1,1.59,1.59,1.591,1.591,0,0,1-1.59-1.59Zm-6.392,0a1.59,1.59,0,1,1,1.59,1.59,1.591,1.591,0,0,1-1.59-1.59Zm-9.572,0a1.59,1.59,0,1,1,1.59,1.59,1.591,1.591,0,0,1-1.59-1.59Zm-6.392,0a1.59,1.59,0,1,1,1.59,1.59,1.591,1.591,0,0,1-1.59-1.59Zm-6.377,0a1.59,1.59,0,1,1,1.59,1.59,1.591,1.591,0,0,1-1.59-1.59Zm-3.2,0a1.59,1.59,0,1,1,1.59,1.59,1.591,1.591,0,0,1-1.59-1.59Zm-12.768,0a1.59,1.59,0,1,1,1.59,1.59,1.591,1.591,0,0,1-1.59-1.59Zm-3.2,0a1.59,1.59,0,1,1,1.59,1.59,1.591,1.591,0,0,1-1.59-1.59Zm-3.181,0a1.59,1.59,0,1,1,1.59,1.59,1.591,1.591,0,0,1-1.59-1.59Zm67.022-3.2a1.59,1.59,0,1,1,1.59,1.59A1.591,1.591,0,0,1,335.473,316.718Zm-3.181,0a1.59,1.59,0,1,1,1.59,1.59,1.591,1.591,0,0,1-1.59-1.59Zm-6.392,0a1.59,1.59,0,1,1,1.59,1.59,1.591,1.591,0,0,1-1.59-1.59Zm-6.377,0a1.59,1.59,0,1,1,1.59,1.59A1.591,1.591,0,0,1,319.523,316.718Zm-6.392,0a1.59,1.59,0,1,1,1.59,1.59A1.591,1.591,0,0,1,313.132,316.718Zm-3.2,0a1.59,1.59,0,1,1,1.59,1.59,1.591,1.591,0,0,1-1.59-1.59Zm-9.573,0a1.59,1.59,0,1,1,1.59,1.59A1.591,1.591,0,0,1,300.363,316.718Zm-6.377,0a1.59,1.59,0,1,1,1.59,1.59A1.591,1.591,0,0,1,293.987,316.718Zm-3.2,0a1.59,1.59,0,1,1,1.59,1.59A1.591,1.591,0,0,1,290.791,316.718Zm-3.2,0a1.59,1.59,0,1,1,1.59,1.59A1.591,1.591,0,0,1,287.6,316.718Zm-3.2,0a1.6,1.6,0,1,1-.015,0h0Zm-3.181,0a1.59,1.59,0,1,1,1.59,1.59,1.591,1.591,0,0,1-1.59-1.59Zm-6.392,0a1.59,1.59,0,1,1,1.59,1.59,1.591,1.591,0,0,1-1.59-1.59Zm-3.2,0a1.59,1.59,0,1,1,1.59,1.59,1.591,1.591,0,0,1-1.59-1.59Zm-3.181,0a1.59,1.59,0,1,1,1.59,1.59,1.591,1.591,0,0,1-1.59-1.59Zm73.414-3.2a1.59,1.59,0,1,1,1.59,1.59A1.591,1.591,0,0,1,341.864,313.522Zm-3.2,0a1.59,1.59,0,1,1,1.59,1.59A1.591,1.591,0,0,1,338.668,313.522Zm-6.377,0a1.59,1.59,0,1,1,1.59,1.59A1.591,1.591,0,0,1,332.292,313.522Zm-12.768,0a1.59,1.59,0,1,1,1.59,1.59,1.591,1.591,0,0,1-1.59-1.59Zm-9.587,0a1.59,1.59,0,1,1,1.59,1.59A1.591,1.591,0,0,1,309.936,313.522Zm-3.181,0a1.59,1.59,0,1,1,1.59,1.59A1.591,1.591,0,0,1,306.755,313.522Zm-3.2,0a1.6,1.6,0,1,1-.015,0h0Zm-15.964,0a1.6,1.6,0,1,1-.015,0h0Zm-6.377,0a1.6,1.6,0,1,1-.015,0h0Zm-6.392,0a1.6,1.6,0,1,1-.015,0h0Zm-3.181,0a1.6,1.6,0,1,1-.015,0h0Zm-3.2,0a1.6,1.6,0,1,1-.015,0h0Zm76.61-3.2a1.6,1.6,0,1,1,0,.015h0Zm-3.2,0a1.6,1.6,0,1,1-.015,0h0Zm-3.2,0a1.6,1.6,0,1,1-.015,0h0Zm-3.181,0a1.6,1.6,0,1,1-.015,0h0Zm-3.2,0a1.6,1.6,0,1,1-.015,0h0Zm-3.2,0a1.6,1.6,0,1,1-.015,0h0Zm-3.2,0a1.6,1.6,0,1,1-.015,0h0Zm-3.181,0a1.6,1.6,0,1,1,1.59,1.605h0a1.591,1.591,0,0,1-1.59-1.59h0Zm-3.2,0a1.6,1.6,0,1,1-.015,0h0Zm-3.2,0a1.6,1.6,0,1,1-.015,0h0Zm-6.377,0a1.6,1.6,0,1,1-.015,0h0Zm-3.2,0a1.59,1.59,0,1,1,1.59,1.59,1.591,1.591,0,0,1-1.59-1.59Zm-3.2,0a1.6,1.6,0,1,1-.015,0h0Zm-9.573,0a1.6,1.6,0,1,1,0,.015h0Zm-3.2,0a1.6,1.6,0,1,1-.015,0h0Zm-6.377,0a1.6,1.6,0,1,1-.015,0h0Zm-3.2,0a1.6,1.6,0,1,1-.015,0h0Zm-3.2,0a1.6,1.6,0,1,1-.015,0h0Zm-3.2,0a1.6,1.6,0,1,1-.015,0h0Zm-3.181,0a1.6,1.6,0,1,1-.015,0h0Zm-9.587,0a1.6,1.6,0,1,1-.015,0h0Zm-3.181,0a1.6,1.6,0,1,1-.015,0h0Zm-12.768,0a1.6,1.6,0,1,1,0,.015h0Zm95.755-3.181a1.6,1.6,0,1,1-.015,0h0Zm-3.2,0a1.6,1.6,0,1,1-.015,0h0Zm-3.181,0a1.6,1.6,0,1,1-.015,0h0Zm-28.733,0a1.6,1.6,0,1,1-.015,0h0Zm-9.572,0a1.6,1.6,0,1,1-.015,0h0Zm-3.2,0a1.6,1.6,0,1,1,1.59,1.605h0a1.591,1.591,0,0,1-1.59-1.59h0Zm-3.2,0a1.6,1.6,0,1,1-.015,0h0Zm-3.181,0a1.6,1.6,0,1,1-.015,0h0Zm-6.392,0a1.6,1.6,0,1,1-.015,0h0Zm-3.2,0a1.6,1.6,0,1,1,1.59,1.605h0a1.591,1.591,0,0,1-1.59-1.59h0Zm-12.753,0a1.6,1.6,0,1,1,1.59,1.605h0a1.594,1.594,0,0,1-1.605-1.59h0Zm-9.588,0a1.6,1.6,0,1,1-.015,0h0Zm-3.181,0a1.6,1.6,0,1,1-.015,0h0Zm-3.2,0a1.6,1.6,0,1,1-.015,0h0Zm-3.2,0a1.6,1.6,0,1,1,1.59,1.605h0a1.591,1.591,0,0,1-1.59-1.59h0Zm-3.2,0a1.6,1.6,0,1,1,1.59,1.605h0a1.591,1.591,0,0,1-1.59-1.59h0Zm102.147-3.2a1.6,1.6,0,1,1,1.59,1.605h0a1.6,1.6,0,0,1-1.605-1.59h0Zm-3.2,0a1.6,1.6,0,1,1-.015,0h0Zm-9.573,0a1.6,1.6,0,1,1-.015,0h0Zm-9.573,0a1.6,1.6,0,1,1,1.59,1.605h0a1.591,1.591,0,0,1-1.59-1.59h0Zm-6.377,0a1.6,1.6,0,1,1-.015,0h0Zm-9.587,0a1.6,1.6,0,1,1-.015,0h0Zm-12.768,0a1.6,1.6,0,1,1,1.59,1.605h0a1.591,1.591,0,0,1-1.59-1.59h0Zm-9.573,0a1.125,1.125,0,1,1-.015.015h.015Zm-3.2,0a1.6,1.6,0,1,1-.015,0h0Zm-3.181,0a1.6,1.6,0,1,1-.015,0h0Zm-3.2,0a1.6,1.6,0,1,1-.015,0h0Zm-6.392,0a1.6,1.6,0,1,1-.015,0h0Zm-6.377,0a1.6,1.6,0,1,1-.015,0h0Zm-9.573,0a1.6,1.6,0,1,1-.015,0h0Zm-6.392,0a1.6,1.6,0,1,1,1.59,1.605h0a1.591,1.591,0,0,1-1.59-1.59h0Zm-3.2,0a1.6,1.6,0,1,1,1.59,1.605h0a1.591,1.591,0,0,1-1.59-1.59h0Zm102.147-3.2a1.6,1.6,0,1,1,1.59,1.605h0a1.6,1.6,0,0,1-1.605-1.59h0Zm-3.181,0a1.6,1.6,0,1,1-.015,0h0Zm-15.964,0a1.6,1.6,0,1,1-.015,0h0Zm-6.392,0a1.6,1.6,0,1,1-.015,0h0Zm-3.181,0a1.6,1.6,0,1,1-.015,0h0Zm-3.2,0a1.6,1.6,0,1,1-.015,0h0Zm-3.2,0a1.6,1.6,0,1,1-.015,0h0Zm-6.377,0a1.6,1.6,0,1,1-.015,0h0Zm-3.2,0a1.6,1.6,0,1,1-.015,0h0Zm-6.392,0a1.6,1.6,0,1,1,1.59,1.605h0a1.591,1.591,0,0,1-1.59-1.59h0Zm-3.181,0a1.6,1.6,0,1,1-.015,0h0Zm-3.2,0a1.6,1.6,0,1,1-.015,0h0Zm-6.392,0a1.6,1.6,0,1,1-.015,0h0Zm-3.181,0a1.6,1.6,0,1,1-.015,0h0Zm-3.2,0a1.6,1.6,0,1,1-.015,0h0Zm-6.392,0a1.6,1.6,0,1,1-.015,0h0Zm-3.181,0a1.6,1.6,0,1,1,1.59,1.605h0a1.6,1.6,0,0,1-1.605-1.59h0Zm70.2-3.181a1.59,1.59,0,1,1,1.59,1.59A1.591,1.591,0,0,1,335.473,297.573Zm-6.377,0a1.59,1.59,0,1,1,1.59,1.59,1.591,1.591,0,0,1-1.59-1.59Zm-3.2,0a1.59,1.59,0,1,1,1.59,1.59,1.591,1.591,0,0,1-1.59-1.59Zm-3.2,0a1.59,1.59,0,1,1,1.59,1.59h0a1.591,1.591,0,0,1-1.59-1.59Zm-3.181,0a1.59,1.59,0,1,1,1.59,1.59A1.591,1.591,0,0,1,319.523,297.573Zm-6.392,0a1.59,1.59,0,1,1,1.59,1.59A1.591,1.591,0,0,1,313.132,297.573Zm-3.2,0a1.59,1.59,0,1,1,1.59,1.59,1.591,1.591,0,0,1-1.59-1.59Zm-15.949,0a1.59,1.59,0,1,1,1.59,1.59,1.591,1.591,0,0,1-1.59-1.59Zm-6.392,0a1.59,1.59,0,1,1,1.59,1.59A1.591,1.591,0,0,1,287.6,297.573Zm-9.572,0a1.59,1.59,0,1,1,1.59,1.59A1.591,1.591,0,0,1,278.023,297.573Zm-6.392,0a1.59,1.59,0,1,1,1.59,1.59A1.591,1.591,0,0,1,271.631,297.573Zm-6.377,0a1.6,1.6,0,1,1-.015,0h0Zm-3.2,0a1.59,1.59,0,1,1,1.59,1.59A1.591,1.591,0,0,1,262.058,297.573Zm-3.2,0a1.59,1.59,0,1,1,1.59,1.59A1.591,1.591,0,0,1,258.863,297.573Zm-9.572,0a1.59,1.59,0,1,1,1.59,1.59A1.591,1.591,0,0,1,249.29,297.573Zm86.183-3.2a186775530926.786,186775530926.786,0,1,0,.015.015h0Zm-12.768,0a1.6,1.6,0,1,1,1.59,1.605,1.594,1.594,0,0,1-1.59-1.605Zm-3.181,0a1107.72,1107.72,0,1,0,.015.015h0Zm-9.587,0a1.6,1.6,0,1,1,1.605,1.605,1.591,1.591,0,0,1-1.59-1.59h0Zm-6.377,0a118321.311,118321.311,0,1,0,.015.015h0Zm-9.573,0a118321.311,118321.311,0,1,0,.015.015h0Zm-3.2,0a1.6,1.6,0,1,1,1.605,1.605,1.6,1.6,0,0,1-1.59-1.59h0Zm-12.768,0a118321.385,118321.385,0,1,0,.015.015h0Zm-3.2,0a1.6,1.6,0,1,1,1.605,1.605,1.6,1.6,0,0,1-1.59-1.59h0Zm-6.377,0a118321.385,118321.385,0,1,0,.015.015h0Zm-3.2,0a1.6,1.6,0,1,1,0,.015h0Zm-9.572,0a2214.326,2214.326,0,1,0,.015.015h0Zm-12.768,0a1.6,1.6,0,1,1,1.59,1.605A1.594,1.594,0,0,1,242.913,294.377Zm102.147-3.2a1.6,1.6,0,1,1-.015,0h0Zm-3.2,0a1.59,1.59,0,1,1,1.59,1.59A1.591,1.591,0,0,1,341.864,291.181Zm-6.392,0a1.59,1.59,0,1,1,1.59,1.59,1.591,1.591,0,0,1-1.59-1.59Zm-3.181,0a1.59,1.59,0,1,1,1.59,1.59,1.591,1.591,0,0,1-1.59-1.59Zm-3.2,0a1.59,1.59,0,1,1,1.59,1.59A1.591,1.591,0,0,1,329.1,291.181Zm-6.392,0a1.59,1.59,0,1,1,1.59,1.59h0A1.591,1.591,0,0,1,322.7,291.181Zm-6.377,0a1.59,1.59,0,1,1,1.59,1.59A1.591,1.591,0,0,1,316.328,291.181Zm-3.2,0a1.59,1.59,0,1,1,1.59,1.59,1.591,1.591,0,0,1-1.59-1.59Zm-3.2,0a1.59,1.59,0,1,1,1.59,1.59,1.591,1.591,0,0,1-1.59-1.59Zm-3.181,0a1.59,1.59,0,1,1,1.59,1.59,1.591,1.591,0,0,1-1.59-1.59Zm-12.768,0a1.59,1.59,0,1,1,1.59,1.59h0a1.591,1.591,0,0,1-1.59-1.59Zm-3.2,0a1.59,1.59,0,1,1,1.59,1.59,1.591,1.591,0,0,1-1.59-1.59Zm-25.537,0a1.6,1.6,0,1,1-.015,0h0Zm-3.2,0a1.59,1.59,0,1,1,1.59,1.59h0a1.591,1.591,0,0,1-1.59-1.59Zm-3.2,0a1.59,1.59,0,1,1,1.59,1.59,1.591,1.591,0,0,1-1.59-1.59Zm-15.949,0a1.59,1.59,0,1,1,1.59,1.59h0a1.591,1.591,0,0,1-1.59-1.59ZM345.06,288a1.6,1.6,0,1,1-.015,0h0Zm-12.768,0a1.59,1.59,0,1,1,1.59,1.59,1.591,1.591,0,0,1-1.59-1.59Zm-3.2,0a1.59,1.59,0,1,1,1.59,1.59A1.591,1.591,0,0,1,329.1,288Zm-6.392,0a1.59,1.59,0,1,1,1.59,1.59h0A1.591,1.591,0,0,1,322.7,288Zm-3.181,0a1.6,1.6,0,1,1-.015,0h0Zm-3.2,0a1.59,1.59,0,1,1,1.59,1.59,1.591,1.591,0,0,1-1.59-1.59Zm-3.2,0a1.6,1.6,0,1,1-.015,0h0Zm-6.377,0a1.59,1.59,0,1,1,1.59,1.59,1.591,1.591,0,0,1-1.59-1.59Zm-3.2,0a1.6,1.6,0,1,1-.015,0h0Zm-6.392,0a1.6,1.6,0,1,1-.015,0h0Zm-6.377,0a1.6,1.6,0,1,1-.015,0h0Zm-6.392,0a1.6,1.6,0,1,1-.015,0h0Zm-6.377,0a1.6,1.6,0,1,1-.015,0h0Zm-3.2,0a1.6,1.6,0,1,1-.015,0h0Zm-9.573,0a1.6,1.6,0,1,1-.015,0h0Zm-12.768,0a1.6,1.6,0,1,1-.015,0h0Zm-3.2,0a1.6,1.6,0,1,1-.015,0h0Zm-3.181,0a1.59,1.59,0,1,1,1.59,1.59h0a1.591,1.591,0,0,1-1.59-1.59Zm98.951-3.2a1.6,1.6,0,1,1-.015,0h0Zm-3.2,0a1.59,1.59,0,1,1,1.59,1.59A1.591,1.591,0,0,1,341.864,284.8Zm-3.2,0a1.59,1.59,0,1,1,1.59,1.59A1.591,1.591,0,0,1,338.668,284.8Zm-3.2,0a1.59,1.59,0,1,1,1.59,1.59A1.591,1.591,0,0,1,335.473,284.8Zm-3.181,0a1.59,1.59,0,1,1,1.59,1.59,1.591,1.591,0,0,1-1.59-1.59Zm-6.392,0a1.59,1.59,0,1,1,1.59,1.59,1.591,1.591,0,0,1-1.59-1.59Zm-3.2,0a1.59,1.59,0,1,1,1.59,1.59h0a1.591,1.591,0,0,1-1.59-1.59Zm-3.181,0a1.59,1.59,0,1,1,1.59,1.59A1.591,1.591,0,0,1,319.523,284.8Zm-6.392,0a1.59,1.59,0,1,1,1.59,1.59A1.591,1.591,0,0,1,313.132,284.8Zm-6.377,0a1.59,1.59,0,1,1,1.59,1.59A1.591,1.591,0,0,1,306.755,284.8Zm-3.2,0a1.59,1.59,0,1,1,1.59,1.59A1.591,1.591,0,0,1,303.559,284.8Zm-6.392,0a1.59,1.59,0,1,1,1.59,1.59A1.591,1.591,0,0,1,297.168,284.8Zm-6.377,0a1.59,1.59,0,1,1,1.59,1.59A1.591,1.591,0,0,1,290.791,284.8Zm-3.2,0a1.59,1.59,0,1,1,1.59,1.59A1.591,1.591,0,0,1,287.6,284.8Zm-3.2,0a1.59,1.59,0,1,1,1.59,1.59A1.591,1.591,0,0,1,284.4,284.8Zm-3.2,0a1.59,1.59,0,1,1,1.59,1.59,1.591,1.591,0,0,1-1.59-1.59Zm-3.181,0a1.59,1.59,0,1,1,1.59,1.59,1.591,1.591,0,0,1-1.59-1.59Zm-3.2,0a1.59,1.59,0,1,1,1.59,1.59,1.591,1.591,0,0,1-1.59-1.59Zm-6.392,0a1.59,1.59,0,1,1,1.59,1.59,1.591,1.591,0,0,1-1.59-1.59Zm-6.377,0a1.59,1.59,0,1,1,1.59,1.59,1.591,1.591,0,0,1-1.59-1.59Zm-3.2,0a1.59,1.59,0,1,1,1.59,1.59,1.591,1.591,0,0,1-1.59-1.59Zm-3.181,0a1.59,1.59,0,1,1,1.59,1.59A1.591,1.591,0,0,1,255.682,284.8Zm-3.2,0a1.59,1.59,0,1,1,1.59,1.59A1.591,1.591,0,0,1,252.486,284.8Zm-6.392,0a1.59,1.59,0,1,1,1.59,1.59A1.591,1.591,0,0,1,246.094,284.8Zm79.806-3.2a1.59,1.59,0,1,1,1.59,1.59,1.591,1.591,0,0,1-1.59-1.59Zm-6.377,0a1.59,1.59,0,1,1,1.59,1.59,1.591,1.591,0,0,1-1.59-1.59Zm-12.768,0a1.59,1.59,0,1,1,1.59,1.59A1.591,1.591,0,0,1,306.755,281.609Zm-6.392,0a1.6,1.6,0,1,1-.015,0h0Zm-6.377,0a1.59,1.59,0,1,1,1.59,1.59h0a1.591,1.591,0,0,1-1.59-1.59Zm-6.392,0a1.6,1.6,0,1,1-.015,0h0Zm-15.949,0a1.6,1.6,0,1,1-.015,0h0Zm-3.2,0a1.6,1.6,0,1,1-.015,0h0Zm-12.768,0a1.6,1.6,0,1,1-.015,0h0Zm-3.2,0a1.6,1.6,0,1,1-.015,0h0Zm-3.2,0a1.6,1.6,0,1,1-.015,0h0Zm-3.181,0a1.59,1.59,0,1,1,1.59,1.59h0a1.591,1.591,0,0,1-1.59-1.59Zm92.559-3.2a1.6,1.6,0,1,1-.015,0h0Zm-6.377,0a1.6,1.6,0,1,1-.015,0h0Zm-3.2,0a1.6,1.6,0,1,1-.015,0h0Zm-3.2,0a1.6,1.6,0,1,1-.015,0h0Zm-6.377,0a1.6,1.6,0,1,1-.015,0h0Zm-12.768,0a1.59,1.59,0,1,1,1.59,1.59A1.591,1.591,0,0,1,306.755,278.413Zm-6.392,0a1.6,1.6,0,1,1-.015,0h0Zm-3.181,0a1.6,1.6,0,1,1-.015,0h0Zm-9.588,0a1.6,1.6,0,1,1-.015,0h0Zm-9.572,0a1.6,1.6,0,1,1-.015,0h0Zm-3.2,0a1.6,1.6,0,1,1-.015,0h0Zm-12.768,0a1.6,1.6,0,1,1-.015,0h0Zm-3.181,0a1.6,1.6,0,1,1-.015,0h0Zm-3.2,0a1.6,1.6,0,1,1-.015,0h0Zm-3.2,0a1.6,1.6,0,1,1-.015,0h0Zm-3.2,0a1.6,1.6,0,1,1-.015,0h0Zm-3.181,0A1.59,1.59,0,1,1,247.7,280h0a1.591,1.591,0,0,1-1.59-1.59Zm98.951-3.181a1.59,1.59,0,1,1,1.59,1.59h0a1.6,1.6,0,0,1-1.605-1.59h0Zm-3.2,0a1.6,1.6,0,1,1-.015,0h0Zm-6.377,0a1.6,1.6,0,1,1-.015,0h0Zm-12.768,0a1.59,1.59,0,1,1,1.59,1.59h0a1.591,1.591,0,0,1-1.59-1.59Zm-3.2,0a1.6,1.6,0,1,1-.015,0h0Zm-22.341,0a1.6,1.6,0,1,1-.015,0h0Zm-6.392,0a1.6,1.6,0,1,1-.015,0h0Zm-3.2,0a1.6,1.6,0,1,1-.015,0h0Zm-3.181,0a1.6,1.6,0,1,1-.015,0h0Zm-3.2,0a1.6,1.6,0,1,1-.015,0h0Zm-3.2,0a1.59,1.59,0,1,1,1.59,1.59h0a1.591,1.591,0,0,1-1.59-1.59Zm-3.2,0a1.6,1.6,0,1,1-.015,0h0Zm-15.949,0a1.6,1.6,0,1,1-.015,0h0Zm-3.2,0a1.6,1.6,0,1,1-.015,0h0Zm-6.392,0a1.6,1.6,0,1,1-.015,0h0Zm-6.377,0a1.59,1.59,0,1,1,1.59,1.59h0a1.591,1.591,0,0,1-1.59-1.59Zm102.147-3.2a1.6,1.6,0,1,1,1.605,1.59h0a1.6,1.6,0,0,1-1.605-1.59Zm-3.2,0a1.6,1.6,0,1,1,1.605,1.59h0a1.582,1.582,0,0,1-1.59-1.59h0Zm-3.2,0a1.6,1.6,0,1,1,1.605,1.59h0a1.582,1.582,0,0,1-1.59-1.59h0Zm-9.573,0a1.6,1.6,0,1,1,1.605,1.59h0a1.582,1.582,0,0,1-1.59-1.59h0Zm-6.377,0a1.6,1.6,0,1,1,1.605,1.59h-.015a1.6,1.6,0,0,1-1.59-1.59h0Zm-6.392,0a1.6,1.6,0,1,1,1.605,1.59h0a1.582,1.582,0,0,1-1.59-1.59h0Zm-6.377,0a1.6,1.6,0,1,1,1.605,1.59h0a1.582,1.582,0,0,1-1.59-1.59h0Zm-6.392,0a1.6,1.6,0,1,1,1.605,1.59h0a1.582,1.582,0,0,1-1.59-1.59h0Zm-6.377,0a1.6,1.6,0,1,1,1.605,1.59h0a1.582,1.582,0,0,1-1.59-1.59h0Zm-3.2,0a1.6,1.6,0,1,1,1.605,1.59h0a1.582,1.582,0,0,1-1.59-1.59h0Zm-3.2,0a1.6,1.6,0,1,1,1.605,1.59h0a1.582,1.582,0,0,1-1.59-1.59h0Zm-3.181,0a1.6,1.6,0,1,1,1.605,1.59h0a1.582,1.582,0,0,1-1.59-1.59h0Zm-6.392,0a1.6,1.6,0,1,1,1.605,1.59h0a1.582,1.582,0,0,1-1.59-1.59h0Zm-9.572,0a1.6,1.6,0,1,1,1.605,1.59h0a1.582,1.582,0,0,1-1.59-1.59h0Zm-9.573,0a1.6,1.6,0,1,1,1.605,1.59h0a1.582,1.582,0,0,1-1.59-1.59h0Zm-6.392,0a1.6,1.6,0,1,1,1.605,1.59h0a1.582,1.582,0,0,1-1.59-1.59h0Zm-3.2,0a1.6,1.6,0,1,1,1.605,1.59h0a1.582,1.582,0,0,1-1.59-1.59h0Zm-3.181,0a1.6,1.6,0,1,1,1.605,1.59h0a1.582,1.582,0,0,1-1.59-1.59h0Zm89.363-3.2a1.59,1.59,0,1,1,1.59,1.59,1.591,1.591,0,0,1-1.59-1.59Zm-3.2,0a1.59,1.59,0,1,1,1.59,1.59,1.591,1.591,0,0,1-1.59-1.59Zm-3.181,0a1.59,1.59,0,1,1,1.59,1.59,1.591,1.591,0,0,1-1.59-1.59Zm-3.2,0a1.59,1.59,0,1,1,1.59,1.59A1.591,1.591,0,0,1,329.1,268.84Zm-9.573,0a1.59,1.59,0,1,1,1.59,1.59,1.591,1.591,0,0,1-1.59-1.59Zm-3.2,0a1.59,1.59,0,1,1,1.59,1.59A1.591,1.591,0,0,1,316.328,268.84Zm-9.573,0a1.59,1.59,0,1,1,1.59,1.59,1.591,1.591,0,0,1-1.59-1.59Zm-3.2,0a1.6,1.6,0,1,1-.015,0h0Zm-3.2,0a1.6,1.6,0,1,1-.015,0h0Zm-6.377,0a1.59,1.59,0,1,1,1.59,1.59h0a1.591,1.591,0,0,1-1.59-1.59Zm-6.392,0a1.6,1.6,0,1,1-.015,0h0Zm-12.768,0a1.6,1.6,0,1,1-.015,0h0Zm-3.181,0a1.6,1.6,0,1,1-.015,0h0Zm-22.356,0a1.6,1.6,0,1,1-.015,0h0Zm-3.181,0a1.59,1.59,0,1,1,1.59,1.59h0a1.591,1.591,0,0,1-1.59-1.59Zm-3.2,0a1.59,1.59,0,1,1,1.59,1.59h0a1.591,1.591,0,0,1-1.59-1.59Zm102.147-3.2a1.59,1.59,0,1,1,1.59,1.59h0a1.6,1.6,0,0,1-1.605-1.59h0Zm-6.392,0a1.6,1.6,0,1,1-.015,0h0Zm-6.377,0a1.6,1.6,0,1,1-.015,0h0Zm-12.768,0a1.6,1.6,0,1,1-.015,0h0Zm-15.964,0a1.6,1.6,0,1,1-.015,0h0Zm-3.2,0a1.6,1.6,0,1,1-.015,0h0Zm-6.377,0a1.59,1.59,0,1,1,1.59,1.59h0a1.591,1.591,0,0,1-1.59-1.59Zm-6.392,0a1.6,1.6,0,1,1-.015,0h0Zm-3.181,0a1.6,1.6,0,1,1-.015,0h0Zm-3.2,0a1.6,1.6,0,1,1-.015,0h0Zm-6.392,0a1.6,1.6,0,1,1-.015,0h0Zm-3.181,0a1.6,1.6,0,1,1-.015,0h0Zm-3.2,0a1.6,1.6,0,1,1-.015,0h0Zm-3.2,0a1.59,1.59,0,1,1,1.59,1.59h0a1.594,1.594,0,0,1-1.605-1.59h0Zm-3.2,0a1.6,1.6,0,1,1-.015,0h0Zm-6.377,0a1.6,1.6,0,1,1-.015,0h0Zm-9.572,0a1.59,1.59,0,1,1,1.59,1.59h0a1.591,1.591,0,0,1-1.59-1.59Zm98.951-3.181a1.59,1.59,0,1,1,1.59,1.59h0a1.6,1.6,0,0,1-1.605-1.59h0Zm-3.2,0a1.6,1.6,0,1,1-.015,0h0Zm-9.573,0a1.6,1.6,0,1,1-.015,0h0Zm-12.768,0a1.6,1.6,0,1,1-.015,0h0Zm-6.392,0a1.6,1.6,0,1,1-.015,0h0Zm-3.181,0a1.6,1.6,0,1,1-.015,0h0Zm-3.2,0a1.6,1.6,0,1,1-.015,0h0Zm-6.392,0a1.6,1.6,0,1,1-.015,0h0Zm-6.377,0a1.59,1.59,0,1,1,1.59,1.59h0a1.591,1.591,0,0,1-1.59-1.59Zm-9.573,0a1.6,1.6,0,1,1-.015,0h0Zm-3.2,0a1.6,1.6,0,1,1-.015,0h0Zm-6.377,0a1.6,1.6,0,1,1-.015,0h0Zm-3.2,0a1.6,1.6,0,1,1-.015,0h0Zm-3.2,0a1.6,1.6,0,1,1-.015,0h0Zm-3.2,0a1.59,1.59,0,1,1,1.59,1.59h0a1.594,1.594,0,0,1-1.605-1.59h0Zm-6.377,0a1.6,1.6,0,1,1-.015,0h0Zm-3.2,0a1.6,1.6,0,1,1-.015,0h0Zm-6.377,0a1.6,1.6,0,1,1-.015,0h0Zm-6.392,0a1.59,1.59,0,1,1,1.59,1.59h0a1.591,1.591,0,0,1-1.59-1.59Zm98.951-3.2a1.6,1.6,0,1,1-.015,0h0Zm-6.377,0a1.6,1.6,0,1,1-.015,0h0Zm-6.392,0a1.6,1.6,0,1,1-.015,0h0Zm-3.181,0a1.6,1.6,0,1,1-.015,0h0Zm-3.2,0a1.59,1.59,0,1,1,1.59,1.59h0a1.591,1.591,0,0,1-1.59-1.59Zm-3.2,0a1.6,1.6,0,1,1-.015,0h0Zm-3.2,0a1.6,1.6,0,1,1-.015,0h0Zm-6.377,0a1.6,1.6,0,1,1-.015,0h0Zm-19.16,0a1.6,1.6,0,1,1-.015,0h0Zm-3.181,0a1.6,1.6,0,1,1-.015,0h0Zm-9.587,0a1.59,1.59,0,1,1,1.59,1.59h0a1.591,1.591,0,0,1-1.59-1.59Zm-3.181,0a1.6,1.6,0,1,1-.015,0h0Zm-6.392,0a1.6,1.6,0,1,1-.015,0h0Zm-3.2,0a1.59,1.59,0,1,1,1.59,1.59h0a1.6,1.6,0,0,1-1.605-1.59h0Zm-3.181,0a1.59,1.59,0,1,1,1.59,1.59h0a1.591,1.591,0,0,1-1.59-1.59Zm-3.2,0a1.6,1.6,0,1,1-.015,0h0Zm-6.392,0a1.6,1.6,0,1,1-.015,0h0Zm-3.181,0a1.6,1.6,0,1,1-.015,0h0Zm-6.392,0a1.59,1.59,0,1,1,1.59,1.59h0a1.591,1.591,0,0,1-1.59-1.59Zm76.61-3.2a1.59,1.59,0,1,1,1.59,1.59A1.591,1.591,0,0,1,319.523,256.072Zm-12.768,0a1.59,1.59,0,1,1,1.59,1.59A1.591,1.591,0,0,1,306.755,256.072Zm-6.392,0a1.6,1.6,0,1,1-.015,0h0Zm-6.377,0a1.6,1.6,0,1,1,1.605,1.59h0a1.582,1.582,0,0,1-1.59-1.59h0Zm-3.2,0a1.6,1.6,0,1,1-.015,0h0Zm-15.964,0a1.6,1.6,0,1,1-.015,0h0Zm-6.377,0a1.6,1.6,0,1,1-.015,0h0Zm68.628-1.575A11.178,11.178,0,1,1,348.256,243.3h0a11.177,11.177,0,0,1-11.178,11.178Zm0-19.175a7.975,7.975,0,1,0,7.982,7.982v-.03a7.975,7.975,0,0,0-7.982-7.967h0Zm-17.555,17.555a1.59,1.59,0,1,1,1.59,1.59A1.591,1.591,0,0,1,319.523,252.876Zm-6.392,0a1.59,1.59,0,1,1,1.59,1.59A1.591,1.591,0,0,1,313.132,252.876Zm-6.377,0a1.59,1.59,0,1,1,1.59,1.59A1.591,1.591,0,0,1,306.755,252.876Zm-6.392,0a1.6,1.6,0,1,1-.015,0h0Zm-6.377,0a1.59,1.59,0,1,1,1.59,1.59h0a1.591,1.591,0,0,1-1.59-1.59Zm-6.392,0a1.6,1.6,0,1,1-.015,0h0Zm-6.377,0a1.6,1.6,0,1,1-.015,0h0Zm-6.392,0a1.6,1.6,0,1,1-.015,0h0Zm-6.377,0a1.6,1.6,0,1,1-.015,0h0Zm-25.537-9.557a11.183,11.183,0,0,1,11.163-11.178h.015A11.17,11.17,0,1,1,242.913,243.3Zm3.181,0a7.975,7.975,0,1,0,7.982-7.982h-.03a7.975,7.975,0,0,0-7.967,7.982Zm70.233,6.377a1.59,1.59,0,1,1,1.59,1.59A1.591,1.591,0,0,1,316.328,249.7Zm-6.392,0a1.59,1.59,0,1,1,1.59,1.59A1.591,1.591,0,0,1,309.936,249.7Zm-19.145,0a1.59,1.59,0,1,1,1.59,1.59,1.591,1.591,0,0,1-1.59-1.59Zm-3.2,0a1.59,1.59,0,1,1,1.59,1.59,1.591,1.591,0,0,1-1.59-1.59Zm-3.2,0a1.6,1.6,0,1,1-.015,0h0Zm-6.377,0a1.59,1.59,0,1,1,1.59,1.59,1.591,1.591,0,0,1-1.59-1.59Zm-9.573,0a1.59,1.59,0,1,1,1.59,1.59,1.591,1.591,0,0,1-1.59-1.59Zm63.842-6.392a4.786,4.786,0,1,1,4.786,4.786A4.79,4.79,0,0,1,332.292,243.3Zm-12.768,3.2a1.59,1.59,0,1,1,1.59,1.59A1.591,1.591,0,0,1,319.523,246.5Zm-6.392,0a1.59,1.59,0,1,1,1.59,1.59A1.591,1.591,0,0,1,313.132,246.5Zm-3.2,0a1.59,1.59,0,1,1,1.59,1.59,1.591,1.591,0,0,1-1.59-1.59Zm-6.377,0a1.59,1.59,0,1,1,1.59,1.59A1.591,1.591,0,0,1,303.559,246.5Zm-3.2,0a1.59,1.59,0,1,1,1.59,1.59A1.591,1.591,0,0,1,300.363,246.5Zm-9.573,0a1.59,1.59,0,1,1,1.59,1.59A1.591,1.591,0,0,1,290.791,246.5Zm-6.392,0a1.6,1.6,0,1,1-.015,0h0Zm-3.181,0a1.59,1.59,0,1,1,1.59,1.59A1.591,1.591,0,0,1,281.218,246.5Zm-3.2,0a1.59,1.59,0,1,1,1.59,1.59A1.591,1.591,0,0,1,278.023,246.5Zm-28.733-3.2a4.786,4.786,0,1,1,4.786,4.786,4.79,4.79,0,0,1-4.786-4.786Zm70.233,0a1.59,1.59,0,1,1,1.59,1.59h0a1.591,1.591,0,0,1-1.59-1.59Zm-3.2,0a1.59,1.59,0,1,1,1.59,1.59h0a1.591,1.591,0,0,1-1.59-1.59Zm-12.768,0a1.59,1.59,0,1,1,1.59,1.59h0a1.591,1.591,0,0,1-1.59-1.59Zm-12.768,0a1.59,1.59,0,1,1,1.59,1.59h0a1.591,1.591,0,0,1-1.59-1.59Zm-12.768,0a1.59,1.59,0,1,1,1.59,1.59h0a1.591,1.591,0,0,1-1.59-1.59Zm-3.2,0a1.59,1.59,0,1,1,1.59,1.59h0a1.591,1.591,0,0,1-1.59-1.59Zm-6.377,0a1.59,1.59,0,1,1,1.59,1.59h0a1.591,1.591,0,0,1-1.59-1.59Zm47.878-3.2a1.6,1.6,0,1,1-.015,0h0Zm-3.2,0a1.6,1.6,0,1,1-.015,0h0Zm-6.377,0a1.59,1.59,0,1,1,1.59,1.59A1.591,1.591,0,0,1,306.755,240.108Zm-3.2,0a1.6,1.6,0,1,1-.015,0h0Zm-3.2,0a1.6,1.6,0,1,1-.015,0h0Zm-3.181,0a1.6,1.6,0,1,1-.015,0h0Zm-3.2,0a1.59,1.59,0,1,1,1.59,1.59h0a1.591,1.591,0,0,1-1.59-1.59Zm-3.2,0a1.6,1.6,0,1,1-.015,0h0Zm-3.2,0a1.6,1.6,0,1,1-.015,0h0Zm-3.181,0a1.6,1.6,0,1,1-.015,0h0Zm-6.392,0a1.6,1.6,0,1,1-.015,0h0Zm-3.2,0a1.6,1.6,0,1,1-.015,0h0Zm-3.181,0a1.6,1.6,0,1,1-.015,0h0Zm44.682-3.181a1.59,1.59,0,1,1,1.59,1.59A1.591,1.591,0,0,1,316.328,236.927Zm-3.2,0a1.59,1.59,0,1,1,1.59,1.59,1.591,1.591,0,0,1-1.59-1.59Zm-28.733,0a1.59,1.59,0,1,1,1.59,1.59A1.591,1.591,0,0,1,284.4,236.927Zm-12.768,0a1.59,1.59,0,1,1,1.59,1.59,1.591,1.591,0,0,1-1.59-1.59Zm-3.2,0a1.59,1.59,0,1,1,1.59,1.59,1.591,1.591,0,0,1-1.59-1.59Zm51.088-3.2a1.59,1.59,0,1,1,1.59,1.59A1.591,1.591,0,0,1,319.523,233.731Zm-6.392,0a1.59,1.59,0,1,1,1.59,1.59A1.591,1.591,0,0,1,313.132,233.731Zm-9.572,0a1.59,1.59,0,1,1,1.59,1.59A1.591,1.591,0,0,1,303.559,233.731Zm-6.392,0a1.59,1.59,0,1,1,1.59,1.59A1.591,1.591,0,0,1,297.168,233.731Zm-6.377,0a1.59,1.59,0,1,1,1.59,1.59A1.591,1.591,0,0,1,290.791,233.731Zm-6.392,0a1.59,1.59,0,1,1,1.59,1.59A1.591,1.591,0,0,1,284.4,233.731Zm-6.377,0a236640.833,236640.833,0,1,0,.015.015h0Zm-3.2,0a1.59,1.59,0,1,1,1.59,1.59,1.591,1.591,0,0,1-1.59-1.59Zm-3.2,0a1.59,1.59,0,1,1,1.59,1.59,1.591,1.591,0,0,1-1.59-1.59Z" fill="none"/>
    </clipPath>
  </defs>
  <g id="Grupo_2572" data-name="Grupo 2572" transform="translate(-242.898 -232.141)" clip-path="url(#clip-path)">
    <rect id="Rectángulo_1269" data-name="Rectángulo 1269" width="114" height="114" transform="translate(238.577 227.805)"/>
  </g>
</svg>
