<svg xmlns="http://www.w3.org/2000/svg" xmlns:xlink="http://www.w3.org/1999/xlink" width="112.499" height="150.499" viewBox="0 0 112.499 150.499">
  <defs>
    <clipPath id="clip-path">
      <path id="Trazado_1895" data-name="Trazado 1895" d="M660.383,338.443a1.005,1.005,0,1,1,1.005,1.005A1.005,1.005,0,0,1,660.383,338.443Zm-2.026,0a1.005,1.005,0,1,1,1.005,1.005A1.005,1.005,0,0,1,658.357,338.443Zm-8.1,0a1.005,1.005,0,1,1,1.005,1.005A1.005,1.005,0,0,1,650.255,338.443Zm-4.051,0a1.005,1.005,0,1,1,1.005,1.005A1.005,1.005,0,0,1,646.2,338.443Zm-10.113,0a1.005,1.005,0,1,1,1.005,1.005A1.005,1.005,0,0,1,636.091,338.443Zm-2.026,0a1.005,1.005,0,1,1,1.005,1.005,1.018,1.018,0,0,1-1.02-1.005h0Zm-4.051,0a1.005,1.005,0,1,1,1.005,1.005,1.018,1.018,0,0,1-1.02-1.005h0Zm-4.051,0a1.005,1.005,0,1,1,1.005,1.005,1.018,1.018,0,0,1-1.02-1.005h0Zm-2.026,0a1.005,1.005,0,1,1,1.005,1.005,1.005,1.005,0,0,1-1.005-1.005Zm-2.026,0a1.005,1.005,0,1,1,1.005,1.005,1.018,1.018,0,0,1-1.02-1.005h0Zm-8.1,0a1.005,1.005,0,1,1,1.005,1.005,1.018,1.018,0,0,1-1.02-1.005h0Zm-2.026,0a1.005,1.005,0,1,1,1.005,1.005,1.018,1.018,0,0,1-1.02-1.005h0Zm-2.026,0a1.005,1.005,0,1,1,1.005,1.005,1.018,1.018,0,0,1-1.02-1.005h0Zm-2.026,0a1.005,1.005,0,1,1,1.005,1.005,1.018,1.018,0,0,1-1.02-1.005h0Zm-2.026,0a1.005,1.005,0,1,1,1.005,1.005,1.018,1.018,0,0,1-1.02-1.005h0Zm-4.051,0a1.005,1.005,0,1,1,1.005,1.005,1.018,1.018,0,0,1-1.02-1.005h0Zm-4.051,0a1.005,1.005,0,1,1,1.005,1.005,1.018,1.018,0,0,1-1.02-1.005h0Zm-6.077,0a1.005,1.005,0,1,1,1.005,1.005,1.018,1.018,0,0,1-1.02-1.005h0Zm-2.026,0a1.005,1.005,0,1,1,1.005,1.005,1.018,1.018,0,0,1-1.02-1.005h0Zm-2.026,0a1.005,1.005,0,1,1,1.005,1.005,1.018,1.018,0,0,1-1.02-1.005h0Zm-2.026,0a1.005,1.005,0,1,1,1.005,1.005,1.018,1.018,0,0,1-1.02-1.005h0Zm-8.1,0a1.005,1.005,0,1,1,1.005,1.005,1.018,1.018,0,0,1-1.02-1.005h0Zm-18.215-6.077h0a7.089,7.089,0,1,1,7.1,7.082h0a7.076,7.076,0,0,1-7.082-7.082Zm2.026,0h0a5.064,5.064,0,1,0,5.071-5.056h0a5.059,5.059,0,0,0-5.056,5.056Zm103.272,4.051a1.005,1.005,0,1,1,1.005,1.005A1.005,1.005,0,0,1,664.434,336.418Zm-2.026,0a1.005,1.005,0,1,1,1.005,1.005A1.005,1.005,0,0,1,662.408,336.418Zm-2.025,0a1.005,1.005,0,1,1,1.005,1.005A1.005,1.005,0,0,1,660.383,336.418Zm-2.026,0a1.005,1.005,0,1,1,1.005,1.005A1.005,1.005,0,0,1,658.357,336.418Zm-2.026,0a1.005,1.005,0,1,1,1.005,1.005A1.005,1.005,0,0,1,656.331,336.418Zm-4.051,0a1.005,1.005,0,1,1,1.005,1.005,1.018,1.018,0,0,1-1.02-1.005h0Zm-2.026,0a1.005,1.005,0,1,1,1.005,1.005,1.005,1.005,0,0,1-1.005-1.005Zm-2.026,0a1.005,1.005,0,1,1,1.005,1.005,1.005,1.005,0,0,1-1.005-1.005Zm-10.113,0a1.005,1.005,0,1,1,1.005,1.005,1.005,1.005,0,0,1-1.005-1.005Zm-2.026,0a1.005,1.005,0,1,1,1.005,1.005,1.005,1.005,0,0,1-1.005-1.005Zm-4.051,0a1.005,1.005,0,1,1,1.005,1.005,1.018,1.018,0,0,1-1.02-1.005h0Zm-2.026,0a1.005,1.005,0,1,1,1.005,1.005,1.018,1.018,0,0,1-1.02-1.005h0Zm-2.026,0a1.005,1.005,0,1,1,1.005,1.005,1.018,1.018,0,0,1-1.02-1.005h0Zm-2.025,0a1.005,1.005,0,1,1,1.005,1.005,1.018,1.018,0,0,1-1.02-1.005h0Zm-2.026,0a1.005,1.005,0,1,1,1.005,1.005A1.005,1.005,0,0,1,623.938,336.418Zm-18.23,0a1.005,1.005,0,1,1,1.005,1.005,1.018,1.018,0,0,1-1.02-1.005h0Zm-14.179,0a1.005,1.005,0,1,1,1.005,1.005,1.018,1.018,0,0,1-1.02-1.005h0Zm-4.036,0a1.005,1.005,0,1,1,1.005,1.005,1.018,1.018,0,0,1-1.02-1.005h0Zm-2.026,0a1.005,1.005,0,1,1,1.005,1.005,1.018,1.018,0,0,1-1.02-1.005h0Zm-2.026,0a1.005,1.005,0,1,1,1.005,1.005,1.018,1.018,0,0,1-1.02-1.005h0Zm-2.025,0a1.005,1.005,0,1,1,1.005,1.005,1.018,1.018,0,0,1-1.02-1.005h0Zm-2.026,0a1.005,1.005,0,1,1,1.005,1.005,1.018,1.018,0,0,1-1.02-1.005h0Zm-2.026,0a1.005,1.005,0,1,1,1.005,1.005,1.018,1.018,0,0,1-1.02-1.005h0Zm-2.026,0a1.005,1.005,0,1,1,1.005,1.005,1.018,1.018,0,0,1-1.02-1.005h0Zm83.032-2.026a1.005,1.005,0,1,1,1.005,1.005,1.018,1.018,0,0,1-1.02-1.005h0Zm-2.025,0a1.005,1.005,0,1,1,1.005,1.005,1.018,1.018,0,0,1-1.02-1.005h0Zm-4.051,0A1.005,1.005,0,1,1,653.3,335.4a1.018,1.018,0,0,1-1.02-1.005h0Zm-4.051,0a1.005,1.005,0,1,1,1.005,1.005,1.018,1.018,0,0,1-1.02-1.005h0Zm-2.026,0a1.005,1.005,0,1,1,1.005,1.005,1.018,1.018,0,0,1-1.02-1.005h0Zm-2.026,0A1.005,1.005,0,1,1,645.2,335.4a1.018,1.018,0,0,1-1.02-1.005h0Zm-2.026,0a1.005,1.005,0,1,1,1.005,1.005,1.018,1.018,0,0,1-1.02-1.005h0Zm-10.128,0a1.005,1.005,0,1,1,1.005,1.005,1.018,1.018,0,0,1-1.02-1.005h0Zm-8.1,0a1.005,1.005,0,1,1,1.005,1.005,1.018,1.018,0,0,1-1.02-1.005h0Zm-2.026,0a1.005,1.005,0,1,1,1.005,1.005,1.018,1.018,0,0,1-1.02-1.005h0Zm-4.051,0a1.005,1.005,0,1,1,1.005,1.005,1.018,1.018,0,0,1-1.02-1.005h0Zm-6.077,0a1.005,1.005,0,1,1,1.005,1.005,1.018,1.018,0,0,1-1.02-1.005h0Zm-2.026,0a1.005,1.005,0,1,1,1.005,1.005,1.018,1.018,0,0,1-1.02-1.005h0Zm-2.026,0a1.005,1.005,0,1,1,1.005,1.005,1.018,1.018,0,0,1-1.02-1.005h0Zm-4.051,0a1.005,1.005,0,1,1,1.005,1.005,1.018,1.018,0,0,1-1.02-1.005h0Zm-2.026,0a1.005,1.005,0,1,1,1.005,1.005,1.018,1.018,0,0,1-1.02-1.005h0Zm-2.026,0a1.005,1.005,0,1,1,1.005,1.005,1.018,1.018,0,0,1-1.02-1.005h0Zm-2.026,0a1.005,1.005,0,1,1,1.005,1.005,1.018,1.018,0,0,1-1.02-1.005h0Zm-4.036,0a1.005,1.005,0,1,1,1.005,1.005,1.018,1.018,0,0,1-1.02-1.005h0Zm-10.128,0a1.005,1.005,0,1,1,1.005,1.005,1.018,1.018,0,0,1-1.02-1.005h0Zm-4.051,0A1.005,1.005,0,1,1,580.4,335.4a1.018,1.018,0,0,1-1.02-1.005h0Zm-2.026,0a1.005,1.005,0,1,1,1.005,1.005,1.018,1.018,0,0,1-1.02-1.005h0Zm-2.026,0a1.005,1.005,0,1,1,1.005,1.005,1.018,1.018,0,0,1-1.02-1.005h0Zm-12.153-2.026a3.031,3.031,0,1,1,3.031,3.031A3.032,3.032,0,0,1,563.187,332.367Zm99.221,0a1.005,1.005,0,1,1,1.005,1.005A1.005,1.005,0,0,1,662.408,332.367Zm-2.025,0a1.005,1.005,0,1,1,1.005,1.005A1.005,1.005,0,0,1,660.383,332.367Zm-2.026,0a1.005,1.005,0,1,1,1.005,1.005A1.005,1.005,0,0,1,658.357,332.367Zm-6.077,0a1.005,1.005,0,1,1,1.005,1.005,1.018,1.018,0,0,1-1.02-1.005h0Zm-2.026,0a1.005,1.005,0,1,1,1.005,1.005A1.005,1.005,0,0,1,650.255,332.367Zm-2.026,0a1.005,1.005,0,1,1,1.005,1.005A1.005,1.005,0,0,1,648.229,332.367Zm-2.026,0a1.005,1.005,0,1,1,1.005,1.005A1.005,1.005,0,0,1,646.2,332.367Zm-2.026,0a1.005,1.005,0,1,1,1.005,1.005A1.005,1.005,0,0,1,644.178,332.367Zm-8.087,0a1.005,1.005,0,1,1,1.005,1.005A1.005,1.005,0,0,1,636.091,332.367Zm-2.026,0a1.005,1.005,0,1,1,1.005,1.005,1.018,1.018,0,0,1-1.02-1.005h0Zm-6.077,0a1.005,1.005,0,1,1,1.005,1.005,1.018,1.018,0,0,1-1.02-1.005h0Zm-6.077,0a1.005,1.005,0,1,1,1.005,1.005,1.018,1.018,0,0,1-1.02-1.005h0Zm-4.051,0a1.005,1.005,0,1,1,1.005,1.005,1.018,1.018,0,0,1-1.02-1.005h0Zm-2.026,0a1.005,1.005,0,1,1,1.005,1.005,1.018,1.018,0,0,1-1.02-1.005h0Zm-4.051,0a1.005,1.005,0,1,1,1.005,1.005,1.018,1.018,0,0,1-1.02-1.005h0Zm-4.051,0a1.005,1.005,0,1,1,1.005,1.005,1.018,1.018,0,0,1-1.02-1.005h0Zm-4.051,0a1.005,1.005,0,1,1,1.005,1.005,1.018,1.018,0,0,1-1.02-1.005h0Zm-2.026,0a1.005,1.005,0,1,1,1.005,1.005,1.018,1.018,0,0,1-1.02-1.005h0Zm-2.026,0a1.005,1.005,0,1,1,1.005,1.005,1.018,1.018,0,0,1-1.02-1.005h0Zm-2.026,0a1.005,1.005,0,1,1,1.005,1.005,1.018,1.018,0,0,1-1.02-1.005h0Zm-2.025,0a1.005,1.005,0,1,1,1.005,1.005,1.018,1.018,0,0,1-1.02-1.005h0Zm-2.026,0a1.005,1.005,0,1,1,1.005,1.005,1.018,1.018,0,0,1-1.02-1.005h0Zm-4.051,0a1.005,1.005,0,1,1,1.005,1.005,1.018,1.018,0,0,1-1.02-1.005h0Zm-2.026,0a1.005,1.005,0,1,1,1.005,1.005,1.018,1.018,0,0,1-1.02-1.005h0Zm-2.026,0a1.005,1.005,0,1,1,1.005,1.005,1.018,1.018,0,0,1-1.02-1.005h0Zm-8.1,0a1.005,1.005,0,1,1,1.005,1.005,1.018,1.018,0,0,1-1.02-1.005h0Zm87.083-2.026a1.005,1.005,0,1,1,1.005,1.005,1.018,1.018,0,0,1-1.02-1.005h0Zm-2.026,0a1.005,1.005,0,1,1,1.005,1.005,1.018,1.018,0,0,1-1.02-1.005h0Zm-4.051,0a1.005,1.005,0,1,1,1.005,1.005,1.018,1.018,0,0,1-1.02-1.005h0Zm-2.026,0a1.005,1.005,0,1,1,1.005,1.005,1.018,1.018,0,0,1-1.02-1.005h0Zm-2.026,0a1.005,1.005,0,1,1,1.005,1.005,1.018,1.018,0,0,1-1.02-1.005h0Zm-2.026,0a1.005,1.005,0,1,1,1.005,1.005,1.018,1.018,0,0,1-1.02-1.005h0Zm-2.026,0a1.005,1.005,0,1,1,1.005,1.005,1.018,1.018,0,0,1-1.02-1.005h0Zm-2.011,0a1.005,1.005,0,1,1,1.005,1.005,1.018,1.018,0,0,1-1.02-1.005h0Zm-4.051,0a1.005,1.005,0,1,1,1.005,1.005,1.018,1.018,0,0,1-1.02-1.005h0Zm-4.051,0a1.005,1.005,0,1,1,1.005,1.005,1.018,1.018,0,0,1-1.02-1.005h0Zm-2.026,0a1.005,1.005,0,1,1,1.005,1.005,1.018,1.018,0,0,1-1.02-1.005h0Zm-12.153,0a1.005,1.005,0,1,1,1.005,1.005,1.018,1.018,0,0,1-1.02-1.005h0Zm-2.026,0a1.005,1.005,0,1,1,1.005,1.005,1.005,1.005,0,0,1-1.005-1.005Zm-2.026,0a1.005,1.005,0,1,1,1.005,1.005,1.018,1.018,0,0,1-1.02-1.005h0Zm-6.077,0a1.005,1.005,0,1,1,1.005,1.005,1.018,1.018,0,0,1-1.02-1.005h0Zm-2.026,0a1.005,1.005,0,1,1,1.005,1.005,1.018,1.018,0,0,1-1.02-1.005h0Zm-2.026,0a1.005,1.005,0,1,1,1.005,1.005,1.018,1.018,0,0,1-1.02-1.005h0Zm-2.026,0a1.005,1.005,0,1,1,1.005,1.005,1.018,1.018,0,0,1-1.02-1.005h0Zm-2.026,0a1.005,1.005,0,1,1,1.005,1.005,1.018,1.018,0,0,1-1.02-1.005h0Zm-2.026,0a1.005,1.005,0,1,1,1.005,1.005,1.018,1.018,0,0,1-1.02-1.005h0Zm-4.051,0a1.005,1.005,0,1,1,1.005,1.005,1.018,1.018,0,0,1-1.02-1.005h0Zm-4.051,0a1.005,1.005,0,1,1,1.005,1.005,1.018,1.018,0,0,1-1.02-1.005h0Zm-4.051,0a1.005,1.005,0,1,1,1.005,1.005,1.018,1.018,0,0,1-1.02-1.005h0Zm-10.128,0a1.005,1.005,0,1,1,1.005,1.005,1.018,1.018,0,0,1-1.02-1.005h0Zm-2.026,0a1.005,1.005,0,1,1,1.005,1.005,1.018,1.018,0,0,1-1.02-1.005h0Zm-2.01,0a1.005,1.005,0,1,1,1.005,1.005,1.018,1.018,0,0,1-1.02-1.005h0Zm-2.026,0a1.005,1.005,0,1,1,1.005,1.005,1.018,1.018,0,0,1-1.02-1.005h0Zm87.068-2.026a1.005,1.005,0,1,1,1.005,1.005,1.018,1.018,0,0,1-1.02-1.005h0Zm-2.026,0a1.005,1.005,0,1,1,1.005,1.005,1.018,1.018,0,0,1-1.02-1.005h0Zm-4.051,0a1.005,1.005,0,1,1,1.005,1.005,1.018,1.018,0,0,1-1.02-1.005h0Zm-2.026,0a1.005,1.005,0,1,1,1.005,1.005,1.018,1.018,0,0,1-1.02-1.005h0Zm-8.087,0a1.005,1.005,0,1,1,1.005,1.005,1.018,1.018,0,0,1-1.02-1.005h0Zm-2.026,0a1.005,1.005,0,1,1,1.005,1.005,1.018,1.018,0,0,1-1.02-1.005h0Zm-8.1,0a1.005,1.005,0,1,1,1.005,1.005,1.018,1.018,0,0,1-1.02-1.005h0Zm-6.077,0a1.005,1.005,0,1,1,1.005,1.005,1.018,1.018,0,0,1-1.02-1.005h0Zm-6.077,0a1.005,1.005,0,1,1,1.005,1.005,1.018,1.018,0,0,1-1.02-1.005h0Zm-6.077,0a1.005,1.005,0,1,1,1.005,1.005,1.018,1.018,0,0,1-1.02-1.005h0Zm-2.026,0a1.005,1.005,0,1,1,1.005,1.005,1.018,1.018,0,0,1-1.02-1.005h0Zm-2.026,0a1.005,1.005,0,1,1,1.005,1.005,1.018,1.018,0,0,1-1.02-1.005h0Zm-8.1,0a1.005,1.005,0,1,1,1.005,1.005,1.018,1.018,0,0,1-1.02-1.005h0Zm-2.026,0a1.005,1.005,0,1,1,1.005,1.005,1.018,1.018,0,0,1-1.02-1.005h0Zm-2.026,0a1.005,1.005,0,1,1,1.005,1.005,1.018,1.018,0,0,1-1.02-1.005h0Zm-2.026,0a1.005,1.005,0,1,1,1.005,1.005,1.018,1.018,0,0,1-1.02-1.005h0Zm-2.026,0a1.005,1.005,0,1,1,1.005,1.005,1.018,1.018,0,0,1-1.02-1.005h0Zm-2.026,0a1.005,1.005,0,1,1,1.005,1.005,1.018,1.018,0,0,1-1.02-1.005h0Zm-2.025,0a1.005,1.005,0,1,1,1.005,1.005,1.018,1.018,0,0,1-1.02-1.005h0Zm-12.138,0a1.005,1.005,0,1,1,1.005,1.005,1.018,1.018,0,0,1-1.02-1.005h0Zm-6.077,0a1.005,1.005,0,1,1,1.005,1.005,1.018,1.018,0,0,1-1.02-1.005h0Zm87.068-2.026a1.005,1.005,0,1,1,1.005,1.005,1.018,1.018,0,0,1-1.02-1.005h0Zm-4.051,0a1.005,1.005,0,1,1,1.005,1.005,1.018,1.018,0,0,1-1.02-1.005h0Zm-4.036,0a1.005,1.005,0,1,1,1.005,1.005,1.018,1.018,0,0,1-1.02-1.005h0Zm-4.051,0A1.005,1.005,0,1,1,653.3,327.3a1.018,1.018,0,0,1-1.02-1.005h0Zm-4.051,0a1.005,1.005,0,1,1,1.005,1.005,1.018,1.018,0,0,1-1.02-1.005h0Zm-2.026,0a1.005,1.005,0,1,1,1.005,1.005,1.018,1.018,0,0,1-1.02-1.005h0Zm-4.051,0a1.005,1.005,0,1,1,1.005,1.005,1.018,1.018,0,0,1-1.02-1.005h0Zm-4.051,0a1.005,1.005,0,1,1,1.005,1.005,1.018,1.018,0,0,1-1.02-1.005h0Zm-2.026,0A1.005,1.005,0,1,1,637.1,327.3a1.018,1.018,0,0,1-1.02-1.005h0Zm-12.153,0a1.005,1.005,0,1,1,1.005,1.005A1.005,1.005,0,0,1,623.938,326.29Zm-2.026,0a1.005,1.005,0,1,1,1.005,1.005,1.018,1.018,0,0,1-1.02-1.005h0Zm-6.077,0a1.005,1.005,0,1,1,1.005,1.005,1.018,1.018,0,0,1-1.02-1.005h0Zm-4.051,0a1.005,1.005,0,1,1,1.005,1.005,1.018,1.018,0,0,1-1.02-1.005h0Zm-4.051,0a1.005,1.005,0,1,1,1.005,1.005,1.018,1.018,0,0,1-1.02-1.005h0Zm-2.026,0a1.005,1.005,0,1,1,1.005,1.005,1.018,1.018,0,0,1-1.02-1.005h0Zm-2.026,0a1.005,1.005,0,1,1,1.005,1.005,1.018,1.018,0,0,1-1.02-1.005h0Zm-8.1,0a1.005,1.005,0,1,1,1.005,1.005,1.018,1.018,0,0,1-1.02-1.005h0Zm-2.026,0a1.005,1.005,0,1,1,1.005,1.005,1.018,1.018,0,0,1-1.02-1.005h0Zm-10.113,0a1.005,1.005,0,1,1,1.005,1.005,1.018,1.018,0,0,1-1.02-1.005h0Zm-2.025,0a1.005,1.005,0,1,1,1.005,1.005,1.018,1.018,0,0,1-1.02-1.005h0Zm83.017-2.026a1.005,1.005,0,1,1,1.005,1.005,1.018,1.018,0,0,1-1.02-1.005h0Zm-4.036,0a1.005,1.005,0,1,1,1.005,1.005,1.018,1.018,0,0,1-1.02-1.005h0Zm-2.026,0a1.005,1.005,0,1,1,1.005,1.005,1.018,1.018,0,0,1-1.02-1.005h0Zm-2.025,0a1.005,1.005,0,1,1,1.005,1.005,1.018,1.018,0,0,1-1.02-1.005h0Zm-8.1,0a1.005,1.005,0,1,1,1.005,1.005,1.018,1.018,0,0,1-1.02-1.005h0Zm-8.1,0a1.005,1.005,0,1,1,1.005,1.005,1.018,1.018,0,0,1-1.02-1.005h0Zm-2.026,0a1.005,1.005,0,1,1,1.005,1.005,1.018,1.018,0,0,1-1.02-1.005h0Zm-2.026,0a1.005,1.005,0,1,1,1.005,1.005,1.018,1.018,0,0,1-1.02-1.005h0Zm-6.077,0a1.005,1.005,0,1,1,1.005,1.005,1.018,1.018,0,0,1-1.02-1.005h0Zm-2.026,0a1.005,1.005,0,1,1,1.005,1.005,1.018,1.018,0,0,1-1.02-1.005h0Zm-2.025,0a1.005,1.005,0,1,1,1.005,1.005,1.018,1.018,0,0,1-1.02-1.005h0Zm-2.026,0a1.005,1.005,0,1,1,1.005,1.005,1.018,1.018,0,0,1-1.02-1.005h0Zm-2.026,0a1.005,1.005,0,1,1,1.005,1.005,1.018,1.018,0,0,1-1.02-1.005h0Zm-4.051,0a1.005,1.005,0,1,1,1.005,1.005,1.018,1.018,0,0,1-1.02-1.005h0Zm-2.026,0a1.005,1.005,0,1,1,1.005,1.005,1.018,1.018,0,0,1-1.02-1.005h0Zm-8.1,0a1.005,1.005,0,1,1,1.005,1.005,1.018,1.018,0,0,1-1.02-1.005h0Zm-2.026,0a1.005,1.005,0,1,1,1.005,1.005,1.018,1.018,0,0,1-1.02-1.005h0Zm-6.077,0a1.005,1.005,0,1,1,1.005,1.005,1.018,1.018,0,0,1-1.02-1.005h0Zm-6.062,0a1.005,1.005,0,1,1,1.005,1.005,1.018,1.018,0,0,1-1.02-1.005h0Zm-6.077,0a1.005,1.005,0,1,1,1.005,1.005,1.018,1.018,0,0,1-1.02-1.005h0Zm-4.051,0a1.005,1.005,0,1,1,1.005,1.005,1.018,1.018,0,0,1-1.02-1.005h0Zm81.006-2.026a1.005,1.005,0,1,1,1.005,1.005,1.018,1.018,0,0,1-1.02-1.005h0Zm-8.1,0a1.005,1.005,0,1,1,1.005,1.005,1.018,1.018,0,0,1-1.02-1.005h0Zm-2.026,0a1.005,1.005,0,1,1,1.005,1.005,1.018,1.018,0,0,1-1.02-1.005h0Zm-2.026,0a1.005,1.005,0,1,1,1.005,1.005,1.018,1.018,0,0,1-1.02-1.005h0Zm-2.026,0a1.005,1.005,0,1,1,1.005,1.005,1.018,1.018,0,0,1-1.02-1.005h0Zm-2.026,0a1.005,1.005,0,1,1,1.005,1.005,1.018,1.018,0,0,1-1.02-1.005h0Zm-4.051,0a1.005,1.005,0,1,1,1.005,1.005,1.018,1.018,0,0,1-1.02-1.005h0Zm-6.077,0a1.005,1.005,0,1,1,1.005,1.005,1.018,1.018,0,0,1-1.02-1.005h0Zm-4.051,0a1.005,1.005,0,1,1,1.005,1.005,1.018,1.018,0,0,1-1.02-1.005h0Zm-6.077,0a1.005,1.005,0,1,1,1.005,1.005,1.018,1.018,0,0,1-1.02-1.005h0Zm-4.051,0a1.005,1.005,0,1,1,1.005,1.005,1.018,1.018,0,0,1-1.02-1.005h0Zm-2.026,0a1.005,1.005,0,1,1,1.005,1.005,1.018,1.018,0,0,1-1.02-1.005h0Zm-6.077,0a1.005,1.005,0,1,1,1.005,1.005,1.018,1.018,0,0,1-1.02-1.005h0Zm-2.026,0a1.005,1.005,0,1,1,1.005,1.005,1.018,1.018,0,0,1-1.02-1.005h0Zm-2.026,0a1.005,1.005,0,1,1,1.005,1.005,1.018,1.018,0,0,1-1.02-1.005h0Zm-2.026,0a1.005,1.005,0,1,1,1.005,1.005,1.018,1.018,0,0,1-1.02-1.005h0Zm-2.026,0a1.005,1.005,0,1,1,1.005,1.005,1.018,1.018,0,0,1-1.02-1.005h0Zm-4.051,0a1.005,1.005,0,1,1,1.005,1.005,1.018,1.018,0,0,1-1.02-1.005h0Zm-4.036,0a1.005,1.005,0,1,1,1.005,1.005,1.018,1.018,0,0,1-1.02-1.005h0Zm-2.026,0a1.005,1.005,0,1,1,1.005,1.005,1.018,1.018,0,0,1-1.02-1.005h0Zm-2.026,0a1.005,1.005,0,1,1,1.005,1.005,1.018,1.018,0,0,1-1.02-1.005h0Zm-6.077,0a1.005,1.005,0,1,1,1.005,1.005,1.018,1.018,0,0,1-1.02-1.005h0Zm-2.026,0a1.005,1.005,0,1,1,1.005,1.005,1.018,1.018,0,0,1-1.02-1.005h0Zm-2.026,0a1.005,1.005,0,1,1,1.005,1.005,1.018,1.018,0,0,1-1.02-1.005h0Zm-2.026,0a1.005,1.005,0,1,1,1.005,1.005,1.018,1.018,0,0,1-1.02-1.005h0Zm-8.1,0a1.005,1.005,0,1,1,1.005,1.005,1.018,1.018,0,0,1-1.02-1.005h0Zm-2.026,0a1.005,1.005,0,1,1,1.005,1.005,1.018,1.018,0,0,1-1.02-1.005h0Zm-2.026,0a1.005,1.005,0,1,1,1.005,1.005,1.018,1.018,0,0,1-1.02-1.005h0Zm-6.077,0a1.005,1.005,0,1,1,1.005,1.005,1.018,1.018,0,0,1-1.02-1.005h0Zm99.236-2.026a1.005,1.005,0,1,1,1.005,1.005,1.018,1.018,0,0,1-1.02-1.005h0Zm-2.026,0a1.005,1.005,0,1,1,1.005,1.005,1.018,1.018,0,0,1-1.02-1.005h0Zm-2.026,0a1.005,1.005,0,1,1,1.005,1.005,1.018,1.018,0,0,1-1.02-1.005h0Zm-6.077,0a1.005,1.005,0,1,1,1.005,1.005,1.018,1.018,0,0,1-1.02-1.005h0Zm-6.077,0a1.005,1.005,0,1,1,1.005,1.005,1.018,1.018,0,0,1-1.02-1.005h0Zm-2.026,0a1.005,1.005,0,1,1,1.005,1.005,1.018,1.018,0,0,1-1.02-1.005h0Zm-4.051,0a1.005,1.005,0,1,1,1.005,1.005,1.018,1.018,0,0,1-1.02-1.005h0Zm-4.051,0a1.005,1.005,0,1,1,1.005,1.005,1.018,1.018,0,0,1-1.02-1.005h0Zm-2.026,0a1.005,1.005,0,1,1,1.005,1.005,1.018,1.018,0,0,1-1.02-1.005h0Zm-10.128,0a1.005,1.005,0,1,1,1.005,1.005,1.018,1.018,0,0,1-1.02-1.005h0Zm-2.026,0a1.005,1.005,0,1,1,1.005,1.005,1.018,1.018,0,0,1-1.02-1.005h0Zm-2.026,0a1.005,1.005,0,1,1,1.005,1.005,1.018,1.018,0,0,1-1.02-1.005h0Zm-4.051,0a1.005,1.005,0,1,1,1.005,1.005,1.018,1.018,0,0,1-1.02-1.005h0Zm-2.026,0a1.005,1.005,0,1,1,1.005,1.005,1.018,1.018,0,0,1-1.02-1.005h0Zm-6.077,0a1.005,1.005,0,1,1,1.005,1.005,1.018,1.018,0,0,1-1.02-1.005h0Zm-2.026,0a1.005,1.005,0,1,1,1.005,1.005,1.018,1.018,0,0,1-1.02-1.005h0Zm-4.036,0a1.005,1.005,0,1,1,1.005,1.005,1.018,1.018,0,0,1-1.02-1.005h0Zm-2.026,0a1.005,1.005,0,1,1,1.005,1.005,1.018,1.018,0,0,1-1.02-1.005h0Zm-6.077,0a1.005,1.005,0,1,1,1.005,1.005,1.018,1.018,0,0,1-1.02-1.005h0Zm-4.051,0a1.005,1.005,0,1,1,1.005,1.005,1.018,1.018,0,0,1-1.02-1.005h0Zm-2.026,0a1.005,1.005,0,1,1,1.005,1.005,1.018,1.018,0,0,1-1.02-1.005h0Zm-2.026,0a1.005,1.005,0,1,1,1.005,1.005,1.018,1.018,0,0,1-1.02-1.005h0Zm-2.026,0a1.005,1.005,0,1,1,1.005,1.005,1.018,1.018,0,0,1-1.02-1.005h0Zm-2.026,0a1.005,1.005,0,1,1,1.005,1.005,1.018,1.018,0,0,1-1.02-1.005h0Zm-2.025,0a1.005,1.005,0,1,1,1.005,1.005,1.018,1.018,0,0,1-1.02-1.005h0Zm-2.026,0a1.013,1.013,0,1,1-.015,0h0Zm-6.077,0a1.005,1.005,0,1,1,1.005,1.005,1.018,1.018,0,0,1-1.02-1.005h0Zm-10.128,0a1.005,1.005,0,1,1,1.005,1.005,1.018,1.018,0,0,1-1.02-1.005h0Zm-2.026,0a1.005,1.005,0,1,1,1.005,1.005h0a1.018,1.018,0,0,1-1.02-1.005h0Zm99.236-2.026a1.005,1.005,0,1,1,1.005,1.005,1.018,1.018,0,0,1-1.02-1.005h0Zm-4.051,0a1.005,1.005,0,1,1,1.005,1.005,1.018,1.018,0,0,1-1.02-1.005h0Zm-2.026,0a1.005,1.005,0,1,1,1.005,1.005,1.018,1.018,0,0,1-1.02-1.005h0Zm-2.026,0a1.005,1.005,0,1,1,1.005,1.005,1.018,1.018,0,0,1-1.02-1.005h0Zm-2.026,0a1.005,1.005,0,1,1,1.005,1.005,1.018,1.018,0,0,1-1.02-1.005h0Zm-2.026,0a1.005,1.005,0,1,1,1.005,1.005,1.018,1.018,0,0,1-1.02-1.005h0Zm-8.1,0a1.005,1.005,0,1,1,1.005,1.005,1.018,1.018,0,0,1-1.02-1.005h0Zm-2.026,0a1.005,1.005,0,1,1,1.005,1.005,1.018,1.018,0,0,1-1.02-1.005h0Zm-2.026,0a1.005,1.005,0,1,1,1.005,1.005,1.018,1.018,0,0,1-1.02-1.005h0Zm-4.051,0a1.005,1.005,0,1,1,1.005,1.005,1.018,1.018,0,0,1-1.02-1.005h0Zm-4.051,0a1.005,1.005,0,1,1,1.005,1.005,1.018,1.018,0,0,1-1.02-1.005h0Zm-2.025,0a1.005,1.005,0,1,1,1.005,1.005,1.018,1.018,0,0,1-1.02-1.005h0Zm-2.026,0a1.005,1.005,0,1,1,1.005,1.005,1.018,1.018,0,0,1-1.02-1.005h0Zm-2.026,0a1.005,1.005,0,1,1,1.005,1.005,1.018,1.018,0,0,1-1.02-1.005h0Zm-8.1,0a1.005,1.005,0,1,1,1.005,1.005,1.018,1.018,0,0,1-1.02-1.005h0Zm-2.026,0a1.005,1.005,0,1,1,1.005,1.005,1.018,1.018,0,0,1-1.02-1.005h0Zm-4.036,0a1.005,1.005,0,1,1,1.005,1.005,1.018,1.018,0,0,1-1.02-1.005h0Zm-4.051,0a1.005,1.005,0,1,1,1.005,1.005,1.018,1.018,0,0,1-1.02-1.005h0Zm-2.026,0a1.005,1.005,0,1,1,1.005,1.005,1.018,1.018,0,0,1-1.02-1.005h0Zm-2.026,0a1.005,1.005,0,1,1,1.005,1.005,1.018,1.018,0,0,1-1.02-1.005h0Zm-8.1,0a1.005,1.005,0,1,1,1.005,1.005,1.018,1.018,0,0,1-1.02-1.005h0Zm-2.026,0a1.005,1.005,0,1,1,1.005,1.005h0a1.018,1.018,0,0,1-1.02-1.005h0Zm-2.026,0a1.005,1.005,0,1,1,1.005,1.005h0a1.018,1.018,0,0,1-1.02-1.005h0Zm-6.077,0a1.005,1.005,0,1,1,1.005,1.005,1.018,1.018,0,0,1-1.02-1.005h0Zm-2.026,0a1.013,1.013,0,1,1-.015,0h0Zm-2.026,0a1.005,1.005,0,1,1,1.005,1.005,1.018,1.018,0,0,1-1.02-1.005h0Zm-4.051,0a1.005,1.005,0,1,1,1.005,1.005,1.018,1.018,0,0,1-1.02-1.005h0Zm-2.026,0a1.005,1.005,0,1,1,1.005,1.005,1.018,1.018,0,0,1-1.02-1.005h0Zm-2.026,0a1.005,1.005,0,1,1,1.005,1.005,1.018,1.018,0,0,1-1.02-1.005h0Zm-2.026,0a1.005,1.005,0,1,1,1.005,1.005,1.018,1.018,0,0,1-1.02-1.005h0Zm-2.026,0a1.005,1.005,0,1,1,1.005,1.005,1.018,1.018,0,0,1-1.02-1.005h0Zm-4.051,0a1.005,1.005,0,1,1,1.005,1.005h0a1.018,1.018,0,0,1-1.02-1.005h0Zm-2.026,0a1.005,1.005,0,1,1,1.005,1.005,1.018,1.018,0,0,1-1.02-1.005h0Zm103.287-2.026a1.005,1.005,0,1,1,1.005,1.005,1.018,1.018,0,0,1-1.02-1.005h0Zm-6.077,0a1.005,1.005,0,1,1,1.005,1.005,1.018,1.018,0,0,1-1.02-1.005h0Zm-10.128,0a1.005,1.005,0,1,1,1.005,1.005,1.018,1.018,0,0,1-1.02-1.005h0Zm-4.051,0a1.005,1.005,0,1,1,1.005,1.005,1.018,1.018,0,0,1-1.02-1.005h0Zm-10.128,0a1.005,1.005,0,1,1,1.005,1.005,1.018,1.018,0,0,1-1.02-1.005h0Zm-2.026,0a1.013,1.013,0,1,1-.015,0h0Zm-2.026,0a1.005,1.005,0,1,1,1.005,1.005,1.018,1.018,0,0,1-1.02-1.005h0Zm-6.077,0a1.005,1.005,0,1,1,1.005,1.005,1.018,1.018,0,0,1-1.02-1.005h0Zm-4.051,0a1.005,1.005,0,1,1,1.005,1.005,1.018,1.018,0,0,1-1.02-1.005h0Zm-2.01,0a1.005,1.005,0,1,1,1.005,1.005,1.018,1.018,0,0,1-1.02-1.005h0Zm-4.051,0a1.005,1.005,0,1,1,1.005,1.005,1.018,1.018,0,0,1-1.02-1.005h0Zm-6.077,0a1.005,1.005,0,1,1,1.005,1.005,1.018,1.018,0,0,1-1.02-1.005h0Zm-2.026,0a1.005,1.005,0,1,1,1.005,1.005,1.018,1.018,0,0,1-1.02-1.005h0Zm-4.051,0a1.005,1.005,0,1,1,1.005,1.005,1.018,1.018,0,0,1-1.02-1.005h0Zm-2.026,0a1.005,1.005,0,1,1,1.005,1.005,1.018,1.018,0,0,1-1.02-1.005h0Zm-4.051,0a1.005,1.005,0,1,1,1.005,1.005,1.018,1.018,0,0,1-1.02-1.005h0Zm-2.026,0a1.005,1.005,0,1,1,1.005,1.005,1.018,1.018,0,0,1-1.02-1.005h0Zm-4.051,0a1.005,1.005,0,1,1,1.005,1.005,1.018,1.018,0,0,1-1.02-1.005h0Zm-2.026,0a1.005,1.005,0,1,1,1.005,1.005,1.018,1.018,0,0,1-1.02-1.005h0Zm-2.026,0a1.005,1.005,0,1,1,1.005,1.005,1.018,1.018,0,0,1-1.02-1.005h0Zm-2.025,0a1.005,1.005,0,1,1,1.005,1.005,1.018,1.018,0,0,1-1.02-1.005h0Zm-2.026,0a1.013,1.013,0,1,1-.015,0h0Zm-2.026,0a1.005,1.005,0,1,1,1.005,1.005,1.018,1.018,0,0,1-1.02-1.005h0Zm-2.026,0a1.005,1.005,0,1,1,1.005,1.005,1.018,1.018,0,0,1-1.02-1.005h0Zm-10.128,0a1.005,1.005,0,1,1,1.005,1.005,1.018,1.018,0,0,1-1.02-1.005h0Zm-4.051,0a1.005,1.005,0,1,1,1.005,1.005h0a1.018,1.018,0,0,1-1.02-1.005h0Zm99.221-2.026a1.005,1.005,0,1,1,1.005,1.005A1.005,1.005,0,0,1,660.383,314.137Zm-12.153,0a1.005,1.005,0,1,1,1.005,1.005A1.005,1.005,0,0,1,648.229,314.137Zm-2.026,0a1.005,1.005,0,1,1,1.005,1.005A1.005,1.005,0,0,1,646.2,314.137Zm-2.026,0a1.005,1.005,0,1,1,1.005,1.005A1.005,1.005,0,0,1,644.178,314.137Zm-6.062,0a1.005,1.005,0,1,1,1.005,1.005A1.005,1.005,0,0,1,638.117,314.137Zm-10.128,0a1.005,1.005,0,1,1,1.005,1.005,1.018,1.018,0,0,1-1.02-1.005h0Zm-2.025,0a1.005,1.005,0,1,1,1.005,1.005,1.018,1.018,0,0,1-1.02-1.005h0Zm-2.026,0a1.005,1.005,0,1,1,1.005,1.005A1.005,1.005,0,0,1,623.938,314.137Zm-2.026,0a1.005,1.005,0,1,1,1.005,1.005,1.018,1.018,0,0,1-1.02-1.005h0Zm-4.051,0a1.005,1.005,0,1,1,1.005,1.005,1.018,1.018,0,0,1-1.02-1.005h0Zm-4.051,0a1.005,1.005,0,1,1,1.005,1.005,1.018,1.018,0,0,1-1.02-1.005h0Zm-4.051,0a1.005,1.005,0,1,1,1.005,1.005,1.018,1.018,0,0,1-1.02-1.005h0Zm-10.128,0a1.005,1.005,0,1,1,1.005,1.005,1.018,1.018,0,0,1-1.02-1.005h0Zm-2.026,0a1.005,1.005,0,1,1,1.005,1.005,1.018,1.018,0,0,1-1.02-1.005h0Zm-4.051,0a1.005,1.005,0,1,1,1.005,1.005,1.018,1.018,0,0,1-1.02-1.005h0Zm-4.036,0a1.005,1.005,0,1,1,1.005,1.005,1.018,1.018,0,0,1-1.02-1.005h0Zm-2.026,0a1.005,1.005,0,1,1,1.005,1.005,1.018,1.018,0,0,1-1.02-1.005h0Zm-2.026,0a1.005,1.005,0,1,1,1.005,1.005,1.018,1.018,0,0,1-1.02-1.005h0Zm-4.051,0a1.005,1.005,0,1,1,1.005,1.005,1.018,1.018,0,0,1-1.02-1.005h0Zm-2.026,0a1.005,1.005,0,1,1,1.005,1.005,1.018,1.018,0,0,1-1.02-1.005h0Zm-2.026,0a1.005,1.005,0,1,1,1.005,1.005,1.018,1.018,0,0,1-1.02-1.005h0Zm-2.026,0a1.005,1.005,0,1,1,1.005,1.005,1.018,1.018,0,0,1-1.02-1.005h0Zm-2.026,0a1.005,1.005,0,1,1,1.005,1.005A1.005,1.005,0,0,1,573.315,314.137Zm-2.026,0a1.005,1.005,0,1,1,1.005,1.005,1.018,1.018,0,0,1-1.02-1.005h0Zm-10.128,0a.716.716,0,1,1-.015.015h0Zm-2.026,0a1.005,1.005,0,1,1,1.005,1.005,1.018,1.018,0,0,1-1.02-1.005h0Zm105.3-2.026a1.005,1.005,0,1,1,1.005,1.005,1.018,1.018,0,0,1-1.02-1.005h0Zm-2.011,0a1.005,1.005,0,1,1,1.005,1.005,1.018,1.018,0,0,1-1.02-1.005h0Zm-2.026,0a1.005,1.005,0,1,1,1.005,1.005,1.018,1.018,0,0,1-1.02-1.005h0Zm-2.026,0a1.005,1.005,0,1,1,1.005,1.005,1.018,1.018,0,0,1-1.02-1.005h0Zm-6.077,0a1.005,1.005,0,1,1,1.005,1.005,1.018,1.018,0,0,1-1.02-1.005h0Zm-2.026,0a1.005,1.005,0,1,1,1.005,1.005,1.018,1.018,0,0,1-1.02-1.005h0Zm-2.026,0a1.005,1.005,0,1,1,1.005,1.005,1.018,1.018,0,0,1-1.02-1.005h0Zm-6.077,0a1.005,1.005,0,1,1,1.005,1.005,1.018,1.018,0,0,1-1.02-1.005h0Zm-4.051,0a1.005,1.005,0,1,1,1.005,1.005,1.018,1.018,0,0,1-1.02-1.005h0Zm-2.026,0a1.005,1.005,0,1,1,1.005,1.005,1.018,1.018,0,0,1-1.02-1.005h0Zm-2.026,0a1.005,1.005,0,1,1,1.005,1.005,1.018,1.018,0,0,1-1.02-1.005h0Zm-6.077,0a1.005,1.005,0,1,1,1.005,1.005,1.018,1.018,0,0,1-1.02-1.005h0Zm-4.051,0a1.005,1.005,0,1,1,1.005,1.005,1.028,1.028,0,0,1-1.02-1.005h0Zm-4.051,0a1.005,1.005,0,1,1,1.005,1.005,1.018,1.018,0,0,1-1.02-1.005h0Zm-8.1,0a1.005,1.005,0,1,1,1.005,1.005,1.018,1.018,0,0,1-1.02-1.005h0Zm-2.026,0a1.005,1.005,0,1,1,1.005,1.005,1.018,1.018,0,0,1-1.02-1.005h0Zm-2.026,0a1.005,1.005,0,1,1,1.005,1.005,1.018,1.018,0,0,1-1.02-1.005h0Zm-8.1,0a1.005,1.005,0,1,1,1.005,1.005,1.018,1.018,0,0,1-1.02-1.005h0Zm-8.087,0a1.005,1.005,0,1,1,1.005,1.005,1.018,1.018,0,0,1-1.02-1.005h0Zm-2.026,0a1.005,1.005,0,1,1,1.005,1.005,1.018,1.018,0,0,1-1.02-1.005h0Zm-2.026,0a1.005,1.005,0,1,1,1.005,1.005,1.018,1.018,0,0,1-1.02-1.005h0Zm-4.051,0a1.005,1.005,0,1,1,1.005,1.005,1.018,1.018,0,0,1-1.02-1.005h0Zm-4.051,0a1.005,1.005,0,1,1,1.005,1.005,1.018,1.018,0,0,1-1.02-1.005h0Zm-4.051,0a1.005,1.005,0,1,1,1.005,1.005,1.018,1.018,0,0,1-1.02-1.005h0Zm-2.026,0a1.005,1.005,0,1,1,1.005,1.005,1.028,1.028,0,0,1-1.02-1.005h0Zm-6.077,0a1.005,1.005,0,1,1,1.005,1.005,1.018,1.018,0,0,1-1.02-1.005h0Zm-6.077,0a.716.716,0,1,1-.015.015h0Zm-2.026,0a1.005,1.005,0,1,1,1.005,1.005,1.018,1.018,0,0,1-1.02-1.005h0Zm105.313-2.026a1.005,1.005,0,1,1,1.005,1.005,1.018,1.018,0,0,1-1.02-1.005h0Zm-4.051,0a1.005,1.005,0,1,1,1.005,1.005,1.018,1.018,0,0,1-1.02-1.005h0Zm-2.026,0a1.005,1.005,0,1,1,1.005,1.005,1.018,1.018,0,0,1-1.02-1.005h0Zm-12.153,0a1.005,1.005,0,1,1,1.005,1.005,1.018,1.018,0,0,1-1.02-1.005h0Zm-2.026,0a1.005,1.005,0,1,1,1.005,1.005,1.018,1.018,0,0,1-1.02-1.005h0Zm-4.051,0a1.005,1.005,0,1,1,1.005,1.005,1.018,1.018,0,0,1-1.02-1.005h0Zm-4.051,0a1.005,1.005,0,1,1,1.005,1.005,1.018,1.018,0,0,1-1.02-1.005h0Zm-2.026,0a1.005,1.005,0,1,1,1.005,1.005,1.018,1.018,0,0,1-1.02-1.005h0Zm-12.153,0a1.005,1.005,0,1,1,1.005,1.005,1.018,1.018,0,0,1-1.02-1.005h0Zm-2.026,0a1.005,1.005,0,1,1,1.005,1.005,1.018,1.018,0,0,1-1.02-1.005h0Zm-8.1,0a1.005,1.005,0,1,1,1.005,1.005,1.018,1.018,0,0,1-1.02-1.005h0Zm-2.026,0a1.005,1.005,0,1,1,1.005,1.005,1.018,1.018,0,0,1-1.02-1.005h0Zm-2.026,0a1.005,1.005,0,1,1,1.005,1.005,1.018,1.018,0,0,1-1.02-1.005h0Zm-4.051,0a1.005,1.005,0,1,1,1.005,1.005,1.018,1.018,0,0,1-1.02-1.005h0Zm-2.026,0a1.005,1.005,0,1,1,1.005,1.005,1.018,1.018,0,0,1-1.02-1.005h0Zm-2.01,0a1.005,1.005,0,1,1,1.005,1.005,1.018,1.018,0,0,1-1.02-1.005h0Zm-4.051,0a1.005,1.005,0,1,1,1.005,1.005,1.018,1.018,0,0,1-1.02-1.005h0Zm-4.051,0a1.005,1.005,0,1,1,1.005,1.005,1.018,1.018,0,0,1-1.02-1.005h0Zm-2.026,0a1.005,1.005,0,1,1,1.005,1.005,1.018,1.018,0,0,1-1.02-1.005h0Zm-2.026,0a1.005,1.005,0,1,1,1.005,1.005,1.018,1.018,0,0,1-1.02-1.005h0Zm-2.026,0a1.005,1.005,0,1,1,1.005,1.005,1.018,1.018,0,0,1-1.02-1.005h0Zm-2.026,0a1.005,1.005,0,1,1,1.005,1.005,1.018,1.018,0,0,1-1.02-1.005h0Zm-12.153,0a1.005,1.005,0,1,1,1.005,1.005,1.018,1.018,0,0,1-1.02-1.005h0Zm-2.026,0a1.005,1.005,0,1,1,1.005,1.005,1.018,1.018,0,0,1-1.02-1.005h0Zm-2.026,0a1.005,1.005,0,1,1,1.005,1.005,1.018,1.018,0,0,1-1.02-1.005h0Zm-2.026,0a1.005,1.005,0,1,1,1.005,1.005,1.018,1.018,0,0,1-1.02-1.005h0Zm99.236-2.026a1.005,1.005,0,1,1,1.005,1.005,1.018,1.018,0,0,1-1.02-1.005h0Zm-4.051,0a1.005,1.005,0,1,1,1.005,1.005,1.018,1.018,0,0,1-1.02-1.005h0Zm-2.026,0a1.005,1.005,0,1,1,1.005,1.005,1.018,1.018,0,0,1-1.02-1.005h0Zm-2.025,0a1.005,1.005,0,1,1,1.005,1.005,1.018,1.018,0,0,1-1.02-1.005h0Zm-2.026,0a1.005,1.005,0,1,1,1.005,1.005,1.018,1.018,0,0,1-1.02-1.005h0Zm-4.051,0a1.005,1.005,0,1,1,1.005,1.005,1.018,1.018,0,0,1-1.02-1.005h0Zm-12.153,0a1.005,1.005,0,1,1,1.005,1.005,1.018,1.018,0,0,1-1.02-1.005h0Zm-2.026,0a1.005,1.005,0,1,1,1.005,1.005,1.018,1.018,0,0,1-1.02-1.005h0Zm-10.128,0a1.005,1.005,0,1,1,1.005,1.005,1.018,1.018,0,0,1-1.02-1.005h0Zm-2.026,0a1.005,1.005,0,1,1,1.005,1.005,1.018,1.018,0,0,1-1.02-1.005h0Zm-2.026,0a1.005,1.005,0,1,1,1.005,1.005,1.018,1.018,0,0,1-1.02-1.005h0Zm-6.077,0a1.005,1.005,0,1,1,1.005,1.005,1.018,1.018,0,0,1-1.02-1.005h0Zm-4.051,0a1.005,1.005,0,1,1,1.005,1.005,1.018,1.018,0,0,1-1.02-1.005h0Zm-2.026,0a1.005,1.005,0,1,1,1.005,1.005,1.018,1.018,0,0,1-1.02-1.005h0Zm-4.051,0a1.005,1.005,0,1,1,1.005,1.005,1.018,1.018,0,0,1-1.02-1.005h0Zm-4.036,0a1.005,1.005,0,1,1,1.005,1.005,1.018,1.018,0,0,1-1.02-1.005h0Zm-2.026,0a1.005,1.005,0,1,1,1.005,1.005,1.018,1.018,0,0,1-1.02-1.005h0Zm-2.026,0a1.005,1.005,0,1,1,1.005,1.005,1.018,1.018,0,0,1-1.02-1.005h0Zm-6.077,0a1.005,1.005,0,1,1,1.005,1.005,1.018,1.018,0,0,1-1.02-1.005h0Zm-4.051,0a1.005,1.005,0,1,1,1.005,1.005,1.018,1.018,0,0,1-1.02-1.005h0Zm-2.026,0a1.005,1.005,0,1,1,1.005,1.005,1.018,1.018,0,0,1-1.02-1.005h0Zm-2.026,0a1.005,1.005,0,1,1,1.005,1.005,1.018,1.018,0,0,1-1.02-1.005h0Zm-2.025,0a1.005,1.005,0,1,1,1.005,1.005,1.018,1.018,0,0,1-1.02-1.005h0Zm-4.051,0a1.005,1.005,0,1,1,1.005,1.005,1.018,1.018,0,0,1-1.02-1.005h0Zm-4.051,0a1.005,1.005,0,1,1,1.005,1.005,1.018,1.018,0,0,1-1.02-1.005h0Zm-10.128,0a1.005,1.005,0,1,1,1.005,1.005,1.018,1.018,0,0,1-1.02-1.005h0Zm-2.026,0a1.013,1.013,0,1,1,1.005,1.02h0a1.018,1.018,0,0,1-1.02-1.005h0Zm-2.026,0a1.005,1.005,0,1,1,1.005,1.005,1.018,1.018,0,0,1-1.02-1.005h0Zm103.287-2.026a1.005,1.005,0,1,1,1.005,1.005,1.018,1.018,0,0,1-1.02-1.005h0Zm-6.077,0a1.005,1.005,0,1,1,1.005,1.005,1.018,1.018,0,0,1-1.02-1.005h0Zm-2.026,0a1.005,1.005,0,1,1,1.005,1.005,1.018,1.018,0,0,1-1.02-1.005h0Zm-2.026,0a1.005,1.005,0,1,1,1.005,1.005,1.018,1.018,0,0,1-1.02-1.005h0Zm-6.077,0a1.005,1.005,0,1,1,1.005,1.005,1.018,1.018,0,0,1-1.02-1.005h0Zm-2.026,0a1.005,1.005,0,1,1,1.005,1.005,1.018,1.018,0,0,1-1.02-1.005h0Zm-8.1,0a1.005,1.005,0,1,1,1.005,1.005,1.018,1.018,0,0,1-1.02-1.005h0Zm-2.026,0a1.005,1.005,0,1,1,1.005,1.005,1.018,1.018,0,0,1-1.02-1.005h0Zm-2.026,0a1.005,1.005,0,1,1,1.005,1.005,1.018,1.018,0,0,1-1.02-1.005h0Zm-2.026,0a1.013,1.013,0,1,1-.015,0h0Zm-4.051,0a1.005,1.005,0,1,1,1.005,1.005,1.018,1.018,0,0,1-1.02-1.005h0Zm-4.051,0a1.005,1.005,0,1,1,1.005,1.005,1.018,1.018,0,0,1-1.02-1.005h0Zm-2.026,0a1.005,1.005,0,1,1,1.005,1.005,1.018,1.018,0,0,1-1.02-1.005h0Zm-8.1,0a1.005,1.005,0,1,1,1.005,1.005,1.018,1.018,0,0,1-1.02-1.005h0Zm-2.011,0a1.005,1.005,0,1,1,1.005,1.005,1.018,1.018,0,0,1-1.02-1.005h0Zm-2.026,0a1.005,1.005,0,1,1,1.005,1.005,1.018,1.018,0,0,1-1.02-1.005h0Zm-2.026,0a1.005,1.005,0,1,1,1.005,1.005,1.018,1.018,0,0,1-1.02-1.005h0Zm-2.026,0a1.005,1.005,0,1,1,1.005,1.005,1.018,1.018,0,0,1-1.02-1.005h0Zm-4.051,0a1.005,1.005,0,1,1,1.005,1.005,1.018,1.018,0,0,1-1.02-1.005h0Zm-4.051,0a1.005,1.005,0,1,1,1.005,1.005,1.018,1.018,0,0,1-1.02-1.005h0Zm-2.026,0a1.005,1.005,0,1,1,1.005,1.005,1.018,1.018,0,0,1-1.02-1.005h0Zm-8.1,0a1.005,1.005,0,1,1,1.005,1.005,1.018,1.018,0,0,1-1.02-1.005h0Zm-2.026,0a1.005,1.005,0,1,1,1.005,1.005,1.018,1.018,0,0,1-1.02-1.005h0Zm-2.025,0a1.005,1.005,0,1,1,1.005,1.005,1.018,1.018,0,0,1-1.02-1.005h0Zm-2.026,0a1.013,1.013,0,1,1-.015,0h0Zm-6.077,0a1.005,1.005,0,1,1,1.005,1.005,1.018,1.018,0,0,1-1.02-1.005h0Zm-2.026,0a1.005,1.005,0,1,1,1.005,1.005,1.018,1.018,0,0,1-1.02-1.005h0Zm-6.077,0a1.005,1.005,0,1,1,1.005,1.005,1.018,1.018,0,0,1-1.02-1.005h0Zm-2.026,0a1.005,1.005,0,1,1,1.005,1.005,1.018,1.018,0,0,1-1.02-1.005h0Zm-2.026,0a1.013,1.013,0,1,1,1.005,1.02h0a1.018,1.018,0,0,1-1.02-1.005h0Zm-2.026,0a1.005,1.005,0,1,1,1.005,1.005,1.018,1.018,0,0,1-1.02-1.005h0Zm105.313-2.026a1.005,1.005,0,1,1,1.005,1.005,1.018,1.018,0,0,1-1.02-1.005h0Zm-2.026,0a1.005,1.005,0,1,1,1.005,1.005,1.018,1.018,0,0,1-1.02-1.005h0Zm-2.026,0a1.005,1.005,0,1,1,1.005,1.005,1.018,1.018,0,0,1-1.02-1.005h0Zm-4.051,0a1.005,1.005,0,1,1,1.005,1.005,1.018,1.018,0,0,1-1.02-1.005h0Zm-6.077,0a1.005,1.005,0,1,1,1.005,1.005,1.018,1.018,0,0,1-1.02-1.005h0Zm-2.026,0a1.005,1.005,0,1,1,1.005,1.005,1.018,1.018,0,0,1-1.02-1.005h0Zm-4.051,0a1.005,1.005,0,1,1,1.005,1.005,1.018,1.018,0,0,1-1.02-1.005h0Zm-2.026,0a1.005,1.005,0,1,1,1.005,1.005,1.018,1.018,0,0,1-1.02-1.005h0Zm-6.077,0a1.005,1.005,0,1,1,1.005,1.005,1.018,1.018,0,0,1-1.02-1.005h0Zm-6.077,0a1.013,1.013,0,1,1-.015,0h0Zm-4.051,0a1.005,1.005,0,1,1,1.005,1.005,1.018,1.018,0,0,1-1.02-1.005h0Zm-4.051,0a1.005,1.005,0,1,1,1.005,1.005,1.018,1.018,0,0,1-1.02-1.005h0Zm-2.026,0a1.005,1.005,0,1,1,1.005,1.005,1.018,1.018,0,0,1-1.02-1.005h0Zm-8.087,0a1.005,1.005,0,1,1,1.005,1.005,1.018,1.018,0,0,1-1.02-1.005h0Zm-2.026,0a1.005,1.005,0,1,1,1.005,1.005,1.018,1.018,0,0,1-1.02-1.005h0Zm-2.026,0a1.005,1.005,0,1,1,1.005,1.005,1.018,1.018,0,0,1-1.02-1.005h0Zm-2.026,0a1.005,1.005,0,1,1,1.005,1.005,1.018,1.018,0,0,1-1.02-1.005h0Zm-6.077,0a1.005,1.005,0,1,1,1.005,1.005,1.018,1.018,0,0,1-1.02-1.005h0Zm-2.026,0a1.005,1.005,0,1,1,1.005,1.005,1.018,1.018,0,0,1-1.02-1.005h0Zm-2.026,0a1.005,1.005,0,1,1,1.005,1.005,1.018,1.018,0,0,1-1.02-1.005h0Zm-2.026,0a1.005,1.005,0,1,1,1.005,1.005,1.018,1.018,0,0,1-1.02-1.005h0Zm-18.23,0a1.005,1.005,0,1,1,1.005,1.005h0a1.018,1.018,0,0,1-1.02-1.005h0Zm-12.153,0a1.005,1.005,0,1,1,1.005,1.005,1.018,1.018,0,0,1-1.02-1.005h0Zm-4.051,0a1.005,1.005,0,1,1,1.005,1.005,1.018,1.018,0,0,1-1.02-1.005h0Zm97.21-2.026a1.005,1.005,0,1,1,1.005,1.005,1.018,1.018,0,0,1-1.02-1.005h0Zm-2.026,0a1.005,1.005,0,1,1,1.005,1.005,1.018,1.018,0,0,1-1.02-1.005h0Zm-4.051,0a1.005,1.005,0,1,1,1.005,1.005,1.018,1.018,0,0,1-1.02-1.005h0Zm-4.051,0a1.005,1.005,0,1,1,1.005,1.005,1.018,1.018,0,0,1-1.02-1.005h0Zm-2.026,0a1.005,1.005,0,1,1,1.005,1.005,1.018,1.018,0,0,1-1.02-1.005h0Zm-2.026,0a1.005,1.005,0,1,1,1.005,1.005,1.018,1.018,0,0,1-1.02-1.005h0Zm-4.051,0a1.005,1.005,0,1,1,1.005,1.005,1.018,1.018,0,0,1-1.02-1.005h0Zm-10.128,0a1.013,1.013,0,1,1-.015,0h0Zm-4.051,0a1.005,1.005,0,1,1,1.005,1.005,1.018,1.018,0,0,1-1.02-1.005h0Zm-4.036,0a1.013,1.013,0,1,1-.015,0h0Zm-2.026,0a1.013,1.013,0,1,1-.015,0h0Zm-12.153,0a1.013,1.013,0,1,1-.015,0h0Zm-2.026,0a1.013,1.013,0,1,1-.015,0h0Zm-6.077,0a1.013,1.013,0,1,1-.015,0h0Zm-2.026,0a1.013,1.013,0,1,1-.015,0h0Zm-2.026,0a1.013,1.013,0,1,1-.015,0h0Zm-4.051,0a1.013,1.013,0,1,1-.015,0h0Zm-2.026,0a1.013,1.013,0,1,1-.015,0h0Zm-6.077,0a1.013,1.013,0,1,1-.015,0h0Zm-2.026,0a1.005,1.005,0,1,1,1.005,1.005,1.029,1.029,0,0,1-1.035-.99h.015Zm-4.051,0a1.013,1.013,0,1,1-.015,0h0Zm-4.051,0a1.013,1.013,0,1,1-.015,0h0Zm-8.1,0a1.013,1.013,0,1,1-.015,0h0Zm101.261-2.026a1.005,1.005,0,1,1,1.005,1.005,1.018,1.018,0,0,1-1.02-1.005h0Zm-4.051,0a1.005,1.005,0,1,1,1.005,1.005,1.018,1.018,0,0,1-1.02-1.005h0Zm-2.026,0a1.005,1.005,0,1,1,1.005,1.005,1.018,1.018,0,0,1-1.02-1.005h0Zm-12.153,0a1.005,1.005,0,1,1,1.005,1.005,1.018,1.018,0,0,1-1.02-1.005h0Zm-2.026,0a1.005,1.005,0,1,1,1.005,1.005,1.018,1.018,0,0,1-1.02-1.005h0Zm-2.026,0a1.005,1.005,0,1,1,1.005,1.005,1.018,1.018,0,0,1-1.02-1.005h0Zm-2.026,0a1.005,1.005,0,1,1,1.005,1.005,1.018,1.018,0,0,1-1.02-1.005h0Zm-2.026,0a1.005,1.005,0,1,1,1.005,1.005,1.018,1.018,0,0,1-1.02-1.005h0Zm-4.051,0a1.013,1.013,0,1,1-.015,0h0Zm-4.051,0a1.005,1.005,0,1,1,1.005,1.005,1.029,1.029,0,0,1-1.035-.99H630Zm-6.077.015a1.005,1.005,0,1,1,1.005,1.005A1.005,1.005,0,0,1,623.938,299.973Zm-4.051,0a1.005,1.005,0,1,1,1.005,1.005,1.018,1.018,0,0,1-1.02-1.005h0Zm-4.051,0a1.005,1.005,0,1,1,1.005,1.005,1.018,1.018,0,0,1-1.02-1.005h0Zm-2.026,0a1.005,1.005,0,1,1,1.005,1.005,1.018,1.018,0,0,1-1.02-1.005h0Zm-6.077,0a1.005,1.005,0,1,1,1.005,1.005,1.018,1.018,0,0,1-1.02-1.005h0Zm-2.026,0a1.005,1.005,0,1,1,1.005,1.005,1.018,1.018,0,0,1-1.02-1.005h0Zm-2.026,0a1.005,1.005,0,1,1,1.005,1.005,1.018,1.018,0,0,1-1.02-1.005h0Zm-6.077,0a1.005,1.005,0,1,1,1.005,1.005,1.018,1.018,0,0,1-1.02-1.005h0Zm-4.051,0a1.005,1.005,0,1,1,1.005,1.005,1.018,1.018,0,0,1-1.02-1.005h0Zm-2.026,0a1.005,1.005,0,1,1,1.005,1.005,1.018,1.018,0,0,1-1.02-1.005h0Zm-2.011,0a1.005,1.005,0,1,1,1.005,1.005,1.018,1.018,0,0,1-1.02-1.005h0Zm-2.026,0a1.005,1.005,0,1,1,1.005,1.005,1.018,1.018,0,0,1-1.02-1.005h0Zm-14.179,0a1.005,1.005,0,1,1,1.005,1.005A1.005,1.005,0,0,1,573.315,299.973Zm-6.077,0a1.005,1.005,0,1,1,1.005,1.005,1.018,1.018,0,0,1-1.02-1.005h0Zm-4.051,0a1.005,1.005,0,1,1,1.005,1.005,1.018,1.018,0,0,1-1.02-1.005h0Zm101.246-2.026a1.005,1.005,0,1,1,1.005,1.005,1.018,1.018,0,0,1-1.02-1.005h0Zm-2.026,0a1.005,1.005,0,1,1,1.005,1.005,1.018,1.018,0,0,1-1.02-1.005h0Zm-2.025,0a1.005,1.005,0,1,1,1.005,1.005,1.018,1.018,0,0,1-1.02-1.005h0Zm-6.062,0a1.005,1.005,0,1,1,1.005,1.005,1.018,1.018,0,0,1-1.02-1.005h0Zm-4.051,0a1.005,1.005,0,1,1,1.005,1.005,1.018,1.018,0,0,1-1.02-1.005h0Zm-4.051,0a1.005,1.005,0,1,1,1.005,1.005,1.018,1.018,0,0,1-1.02-1.005h0Zm-4.051,0a1.005,1.005,0,1,1,1.005,1.005,1.018,1.018,0,0,1-1.02-1.005h0Zm-2.026,0a1.005,1.005,0,1,1,1.005,1.005,1.018,1.018,0,0,1-1.02-1.005h0Zm-2.026,0a1.005,1.005,0,1,1,1.005,1.005,1.018,1.018,0,0,1-1.02-1.005h0Zm-2.026,0a1.005,1.005,0,1,1,1.005,1.005,1.018,1.018,0,0,1-1.02-1.005h0Zm-2.026,0a1.005,1.005,0,1,1,1.005,1.005,1.018,1.018,0,0,1-1.02-1.005h0Zm-4.051,0a1.005,1.005,0,1,1,1.005,1.005,1.018,1.018,0,0,1-1.02-1.005h0Zm-14.179,0a1.005,1.005,0,1,1,1.005,1.005,1.018,1.018,0,0,1-1.02-1.005h0Zm-6.077,0a1.005,1.005,0,1,1,1.005,1.005,1.018,1.018,0,0,1-1.02-1.005h0Zm-4.051,0a1.005,1.005,0,1,1,1.005,1.005,1.018,1.018,0,0,1-1.02-1.005h0Zm-2.026,0a1.005,1.005,0,1,1,1.005,1.005,1.018,1.018,0,0,1-1.02-1.005h0Zm-2.026,0a1.005,1.005,0,1,1,1.005,1.005,1.018,1.018,0,0,1-1.02-1.005h0Zm-10.128,0a1.005,1.005,0,1,1,1.005,1.005,1.018,1.018,0,0,1-1.02-1.005h0Zm-2.011,0a1.005,1.005,0,1,1,1.005,1.005,1.018,1.018,0,0,1-1.02-1.005h0Zm-8.1,0a1.005,1.005,0,1,1,1.005,1.005,1.018,1.018,0,0,1-1.02-1.005h0Zm-2.026,0a1.005,1.005,0,1,1,1.005,1.005,1.018,1.018,0,0,1-1.02-1.005h0Zm-8.1,0a1.005,1.005,0,1,1,1.005,1.005,1.018,1.018,0,0,1-1.02-1.005h0Zm-8.1,0a1.005,1.005,0,1,1,1.005,1.005,1.018,1.018,0,0,1-1.02-1.005h0Zm-2.026,0a1.005,1.005,0,1,1,1.005,1.005h0a1.018,1.018,0,0,1-1.02-1.005h0Zm103.272-2.026a1.005,1.005,0,1,1,1.005,1.005,1.018,1.018,0,0,1-1.02-1.005h0Zm-6.062,0a1.005,1.005,0,1,1,1.005,1.005,1.018,1.018,0,0,1-1.02-1.005h0Zm-2.025,0a1.005,1.005,0,1,1,1.005,1.005,1.018,1.018,0,0,1-1.02-1.005h0Zm-4.051,0a1.005,1.005,0,1,1,1.005,1.005,1.018,1.018,0,0,1-1.02-1.005h0Zm-2.026,0a1.005,1.005,0,1,1,1.005,1.005,1.018,1.018,0,0,1-1.02-1.005h0Zm-10.128,0a1.013,1.013,0,1,1,1.005,1.02h0a1.009,1.009,0,0,1-1.005-1.02Zm-2.026,0a1.005,1.005,0,1,1,1.005,1.005,1.018,1.018,0,0,1-1.02-1.005h0Zm-2.026,0a1.005,1.005,0,1,1,1.005,1.005,1.018,1.018,0,0,1-1.02-1.005h0Zm-2.026,0a1.005,1.005,0,1,1,1.005,1.005,1.018,1.018,0,0,1-1.02-1.005h0Zm-2.026,0a1.005,1.005,0,1,1,1.005,1.005,1.018,1.018,0,0,1-1.02-1.005h0Zm-2.026,0a1.005,1.005,0,1,1,1.005,1.005,1.018,1.018,0,0,1-1.02-1.005h0Zm-2.026,0a1.005,1.005,0,1,1,1.005,1.005,1.018,1.018,0,0,1-1.02-1.005h0Zm-14.179,0a1.005,1.005,0,1,1,1.005,1.005,1.018,1.018,0,0,1-1.02-1.005h0Zm-6.077,0a1.005,1.005,0,1,1,1.005,1.005,1.018,1.018,0,0,1-1.02-1.005h0Zm-6.077,0a1.005,1.005,0,1,1,1.005,1.005,1.018,1.018,0,0,1-1.02-1.005h0Zm-2.026,0a1.005,1.005,0,1,1,1.005,1.005,1.018,1.018,0,0,1-1.02-1.005h0Zm-4.036,0a1.013,1.013,0,1,1,1.005,1.02h0a1,1,0,0,1-1.005-1.005h0Zm-4.051,0a1.005,1.005,0,1,1,1.005,1.005,1.018,1.018,0,0,1-1.02-1.005h0Zm-2.026,0a1.013,1.013,0,1,1,1.005,1.02h0a1.009,1.009,0,0,1-1.005-1.02Zm-2.026,0a1.005,1.005,0,1,1,1.005,1.005,1.018,1.018,0,0,1-1.02-1.005h0Zm-2.026,0a1.013,1.013,0,1,1,1.005,1.02h0a1,1,0,0,1-1.005-1.005h0Zm-2.026,0a1.005,1.005,0,1,1,1.005,1.005,1.018,1.018,0,0,1-1.02-1.005h0Zm-2.025,0a1.005,1.005,0,1,1,1.005,1.005,1.018,1.018,0,0,1-1.02-1.005h0Zm-2.026,0a1.005,1.005,0,1,1,1.005,1.005,1.018,1.018,0,0,1-1.02-1.005h0Zm-10.128,0a1.005,1.005,0,1,1,1.005,1.005,1.018,1.018,0,0,1-1.02-1.005h0Zm-2.026,0a1.005,1.005,0,1,1,1.005,1.005,1.018,1.018,0,0,1-1.02-1.005h0Zm-2.026,0a1.013,1.013,0,1,1,1.005,1.02h0a1,1,0,0,1-1.005-1.005h0Zm-2.026,0a1.013,1.013,0,1,1,1.005,1.02h0a1,1,0,0,1-1.005-1.005h0Zm-2.026,0a.716.716,0,1,1-.015.015h0Zm-2.026,0a1.013,1.013,0,1,1,1.005,1.02h0a1,1,0,0,1-1.005-1.005h0ZM664.449,293.9a1.005,1.005,0,1,1,1.005,1.005,1.018,1.018,0,0,1-1.02-1.005h0Zm-2.026,0a1.005,1.005,0,1,1,1.005,1.005,1.018,1.018,0,0,1-1.02-1.005h0Zm-18.23,0A1.005,1.005,0,1,1,645.2,294.9a1.018,1.018,0,0,1-1.02-1.005h0Zm-4.051,0a1.005,1.005,0,1,1,1.005,1.005,1.018,1.018,0,0,1-1.02-1.005h0Zm-4.051,0A1.005,1.005,0,1,1,637.1,294.9a1.018,1.018,0,0,1-1.02-1.005h0Zm-2.026,0a1.005,1.005,0,1,1,1.005,1.005,1.018,1.018,0,0,1-1.02-1.005h0Zm-4.051,0a1.013,1.013,0,1,1-.015,0h0Zm-4.051,0a1.005,1.005,0,1,1,1.005,1.005,1.018,1.018,0,0,1-1.02-1.005h0Zm-2.026,0a1.005,1.005,0,1,1,1.005,1.005,1.018,1.018,0,0,1-1.02-1.005h0Zm-4.051,0a1.005,1.005,0,1,1,1.005,1.005,1.018,1.018,0,0,1-1.02-1.005h0Zm-4.051,0a1.005,1.005,0,1,1,1.005,1.005,1.018,1.018,0,0,1-1.02-1.005h0Zm-6.077,0a1.005,1.005,0,1,1,1.005,1.005,1.018,1.018,0,0,1-1.02-1.005h0Zm-4.051,0a1.005,1.005,0,1,1,1.005,1.005,1.018,1.018,0,0,1-1.02-1.005h0Zm-4.051,0a1.005,1.005,0,1,1,1.005,1.005,1.018,1.018,0,0,1-1.02-1.005h0Zm-10.113,0a1.005,1.005,0,1,1,1.005,1.005,1.018,1.018,0,0,1-1.02-1.005h0Zm-2.026,0a1.005,1.005,0,1,1,1.005,1.005h0a1.018,1.018,0,0,1-1.02-1.005h0Zm-2.026,0A1.005,1.005,0,1,1,588.5,294.9a1.018,1.018,0,0,1-1.02-1.005h0Zm-4.051,0a1.005,1.005,0,1,1,1.005,1.005,1.018,1.018,0,0,1-1.02-1.005h0Zm-4.051,0a1.013,1.013,0,1,1-.015,0h0Zm-2.026,0a1.005,1.005,0,1,1,1.005,1.005,1.018,1.018,0,0,1-1.02-1.005h0Zm-4.051,0a1.005,1.005,0,1,1,1.005,1.005,1.018,1.018,0,0,1-1.02-1.005h0Zm-2.026,0a1.005,1.005,0,1,1,1.005,1.005,1.018,1.018,0,0,1-1.02-1.005h0Zm-4.051,0a1.005,1.005,0,1,1,1.005,1.005,1.018,1.018,0,0,1-1.02-1.005h0Zm-4.051,0a1.005,1.005,0,1,1,1.005,1.005,1.018,1.018,0,0,1-1.02-1.005h0Zm-2.026,0a1.005,1.005,0,1,1,1.005,1.005h0a1.018,1.018,0,0,1-1.02-1.005h0Zm-2.026,0a1.005,1.005,0,1,1,1.005,1.005,1.018,1.018,0,0,1-1.02-1.005h0ZM660.4,291.871a1.005,1.005,0,1,1,1.005,1.005,1.018,1.018,0,0,1-1.02-1.005h0Zm-10.128,0a1.005,1.005,0,1,1,1.005,1.005,1.018,1.018,0,0,1-1.02-1.005h0Zm-4.051,0a1.005,1.005,0,1,1,1.005,1.005,1.018,1.018,0,0,1-1.02-1.005h0Zm-6.077,0a1.005,1.005,0,1,1,1.005,1.005,1.018,1.018,0,0,1-1.02-1.005h0Zm-2.026,0a1.005,1.005,0,1,1,1.005,1.005,1.018,1.018,0,0,1-1.02-1.005h0Zm-8.1,0a1.013,1.013,0,1,1-.015,0h0Zm-2.026,0a1.005,1.005,0,1,1,1.005,1.005,1.018,1.018,0,0,1-1.02-1.005h0Zm-2.025,0a1.005,1.005,0,1,1,1.005,1.005,1.018,1.018,0,0,1-1.02-1.005h0Zm-2.026,0a1.005,1.005,0,1,1,1.005,1.005,1.018,1.018,0,0,1-1.02-1.005h0Zm-8.1,0a1.005,1.005,0,1,1,1.005,1.005,1.018,1.018,0,0,1-1.02-1.005h0Zm-4.051,0a1.005,1.005,0,1,1,1.005,1.005,1.018,1.018,0,0,1-1.02-1.005h0Zm-6.077,0a1.005,1.005,0,1,1,1.005,1.005,1.018,1.018,0,0,1-1.02-1.005h0Zm-6.062,0a1.005,1.005,0,1,1,1.005,1.005,1.018,1.018,0,0,1-1.02-1.005h0Zm-2.026,0a1.005,1.005,0,1,1,1.005,1.005,1.018,1.018,0,0,1-1.02-1.005h0Zm-10.128,0a1.005,1.005,0,1,1,1.005,1.005,1.018,1.018,0,0,1-1.02-1.005h0Zm-4.051,0a1.005,1.005,0,1,1,1.005,1.005h0a1.018,1.018,0,0,1-1.02-1.005h0Zm-6.077,0a1.005,1.005,0,1,1,1.005,1.005,1.018,1.018,0,0,1-1.02-1.005h0Zm-2.026,0a1.005,1.005,0,1,1,1.005,1.005,1.018,1.018,0,0,1-1.02-1.005h0Zm-2.026,0a1.005,1.005,0,1,1,1.005,1.005,1.018,1.018,0,0,1-1.02-1.005h0Zm-10.128,0a1.005,1.005,0,1,1,1.005,1.005,1.018,1.018,0,0,1-1.02-1.005h0Zm-4.051,0a1.005,1.005,0,1,1,1.005,1.005,1.018,1.018,0,0,1-1.02-1.005h0Zm103.272-2.026a1.005,1.005,0,1,1,1.005,1.005A1.005,1.005,0,0,1,662.408,289.846Zm-2.025,0a1.005,1.005,0,1,1,1.005,1.005A1.005,1.005,0,0,1,660.383,289.846Zm-2.026,0a1.005,1.005,0,1,1,1.005,1.005A1.005,1.005,0,0,1,658.357,289.846Zm-2.026,0a1.005,1.005,0,1,1,1.005,1.005A1.005,1.005,0,0,1,656.331,289.846Zm-2.026,0a1.005,1.005,0,1,1,1.005,1.005A1.005,1.005,0,0,1,654.306,289.846Zm-2.026,0a1.005,1.005,0,1,1,1.005,1.005,1.018,1.018,0,0,1-1.02-1.005h0Zm-2.026,0a1.005,1.005,0,1,1,1.005,1.005A1.005,1.005,0,0,1,650.255,289.846Zm-2.026,0a1.005,1.005,0,1,1,1.005,1.005A1.005,1.005,0,0,1,648.229,289.846Zm-2.026,0a1.005,1.005,0,1,1,1.005,1.005A1.005,1.005,0,0,1,646.2,289.846Zm-2.026,0a1.005,1.005,0,1,1,1.005,1.005A1.005,1.005,0,0,1,644.178,289.846Zm-4.036,0a1.005,1.005,0,1,1,1.005,1.005A1.005,1.005,0,0,1,640.142,289.846Zm-4.051,0a1.005,1.005,0,1,1,1.005,1.005A1.005,1.005,0,0,1,636.091,289.846Zm-2.026,0a1.005,1.005,0,1,1,1.005,1.005,1.018,1.018,0,0,1-1.02-1.005h0Zm-2.026,0a1.005,1.005,0,1,1,1.005,1.005,1.018,1.018,0,0,1-1.02-1.005h0Zm-14.179,0a1.005,1.005,0,1,1,1.005,1.005,1.018,1.018,0,0,1-1.02-1.005h0Zm-2.026,0a1.005,1.005,0,1,1,1.005,1.005,1.018,1.018,0,0,1-1.02-1.005h0Zm-2.026,0a1.005,1.005,0,1,1,1.005,1.005,1.018,1.018,0,0,1-1.02-1.005h0Zm-2.026,0a1.005,1.005,0,1,1,1.005,1.005,1.018,1.018,0,0,1-1.02-1.005h0Zm-2.026,0a1.005,1.005,0,1,1,1.005,1.005,1.018,1.018,0,0,1-1.02-1.005h0Zm-2.026,0a1.005,1.005,0,1,1,1.005,1.005,1.018,1.018,0,0,1-1.02-1.005h0Zm-2.026,0a1.005,1.005,0,1,1,1.005,1.005,1.018,1.018,0,0,1-1.02-1.005h0Zm-2.026,0a1.005,1.005,0,1,1,1.005,1.005,1.018,1.018,0,0,1-1.02-1.005h0Zm-6.077,0a1.005,1.005,0,1,1,1.005,1.005,1.018,1.018,0,0,1-1.02-1.005h0Zm-2.025,0a1.005,1.005,0,1,1,1.005,1.005,1.018,1.018,0,0,1-1.02-1.005h0Zm-4.051,0a1.005,1.005,0,1,1,1.005,1.005,1.018,1.018,0,0,1-1.02-1.005h0Zm-6.077,0a1.005,1.005,0,1,1,1.005,1.005,1.018,1.018,0,0,1-1.02-1.005h0Zm-4.051,0a1.005,1.005,0,1,1,1.005,1.005,1.018,1.018,0,0,1-1.02-1.005h0Zm-4.051,0a1.005,1.005,0,1,1,1.005,1.005,1.018,1.018,0,0,1-1.02-1.005h0Zm-2.011,0a1.005,1.005,0,1,1,1.005,1.005,1.018,1.018,0,0,1-1.02-1.005h0Zm-2.026,0a1.005,1.005,0,1,1,1.005,1.005,1.005,1.005,0,0,1-1.005-1.005Zm-2.026,0a1.005,1.005,0,1,1,1.005,1.005,1.018,1.018,0,0,1-1.02-1.005h0Zm-2.026,0a1.005,1.005,0,1,1,1.005,1.005,1.018,1.018,0,0,1-1.02-1.005h0Zm-2.026,0a1.005,1.005,0,1,1,1.005,1.005,1.018,1.018,0,0,1-1.02-1.005h0Zm-4.051,0a1.005,1.005,0,1,1,1.005,1.005,1.018,1.018,0,0,1-1.02-1.005h0Zm-2.026,0a1.005,1.005,0,1,1,1.005,1.005,1.018,1.018,0,0,1-1.02-1.005h0Zm95.17-2.026a1.005,1.005,0,1,1,1.005,1.005,1.018,1.018,0,0,1-1.02-1.005h0Zm-8.087,0a1.005,1.005,0,1,1,1.005,1.005,1.018,1.018,0,0,1-1.02-1.005h0Zm-2.026,0a1.005,1.005,0,1,1,1.005,1.005,1.018,1.018,0,0,1-1.02-1.005h0Zm-2.026,0a1.005,1.005,0,1,1,1.005,1.005,1.018,1.018,0,0,1-1.02-1.005h0Zm-2.026,0a1.005,1.005,0,1,1,1.005,1.005,1.018,1.018,0,0,1-1.02-1.005h0Zm-2.026,0a1.005,1.005,0,1,1,1.005,1.005,1.018,1.018,0,0,1-1.02-1.005h0Zm-2.026,0a1.005,1.005,0,1,1,1.005,1.005,1.018,1.018,0,0,1-1.02-1.005h0Zm-2.026,0a1.005,1.005,0,1,1,1.005,1.005,1.018,1.018,0,0,1-1.02-1.005h0Zm-8.1,0a1.005,1.005,0,1,1,1.005,1.005,1.018,1.018,0,0,1-1.02-1.005h0Zm-2.025,0a1.005,1.005,0,1,1,1.005,1.005,1.018,1.018,0,0,1-1.02-1.005h0Zm-6.077,0a1.005,1.005,0,1,1,1.005,1.005,1.018,1.018,0,0,1-1.02-1.005h0Zm-2.026,0a1.005,1.005,0,1,1,1.005,1.005,1.018,1.018,0,0,1-1.02-1.005h0Zm-2.026,0a1.005,1.005,0,1,1,1.005,1.005,1.018,1.018,0,0,1-1.02-1.005h0Zm-8.1,0a1.005,1.005,0,1,1,1.005,1.005,1.018,1.018,0,0,1-1.02-1.005h0Zm-2.026,0a1.005,1.005,0,1,1,1.005,1.005,1.018,1.018,0,0,1-1.02-1.005h0Zm-6.077,0a1.005,1.005,0,1,1,1.005,1.005,1.018,1.018,0,0,1-1.02-1.005h0Zm-4.051,0a1.005,1.005,0,1,1,1.005,1.005,1.018,1.018,0,0,1-1.02-1.005h0Zm-4.051,0a1.005,1.005,0,1,1,1.005,1.005,1.018,1.018,0,0,1-1.02-1.005h0Zm-2.026,0a1.005,1.005,0,1,1,1.005,1.005,1.018,1.018,0,0,1-1.02-1.005h0Zm-6.077,0a1.005,1.005,0,1,1,1.005,1.005,1.018,1.018,0,0,1-1.02-1.005h0Zm-4.036,0a1.005,1.005,0,1,1,1.005,1.005,1.018,1.018,0,0,1-1.02-1.005h0Zm-2.026,0a1.005,1.005,0,1,1,1.005,1.005,1.018,1.018,0,0,1-1.02-1.005h0Zm-2.026,0a1.005,1.005,0,1,1,1.005,1.005,1.018,1.018,0,0,1-1.02-1.005h0Zm-8.1,0a1.005,1.005,0,1,1,1.005,1.005,1.018,1.018,0,0,1-1.02-1.005h0Zm-2.026,0a1.005,1.005,0,1,1,1.005,1.005,1.018,1.018,0,0,1-1.02-1.005h0Zm97.2-2.026a1.005,1.005,0,1,1,1.005,1.005A1.005,1.005,0,0,1,662.408,285.795Zm-4.051,0a1.005,1.005,0,1,1,1.005,1.005A1.005,1.005,0,0,1,658.357,285.795Zm-2.026,0a1.005,1.005,0,1,1,1.005,1.005A1.005,1.005,0,0,1,656.331,285.795Zm-4.051,0a1.005,1.005,0,1,1,1.005,1.005,1.018,1.018,0,0,1-1.02-1.005h0Zm-4.051,0a1.005,1.005,0,1,1,1.005,1.005A1.005,1.005,0,0,1,648.229,285.795Zm-2.026,0a1.005,1.005,0,1,1,1.005,1.005A1.005,1.005,0,0,1,646.2,285.795Zm-4.036,0a1.005,1.005,0,1,1,1.005,1.005A1.005,1.005,0,0,1,642.168,285.795Zm-2.026,0a1.005,1.005,0,1,1,1.005,1.005A1.005,1.005,0,0,1,640.142,285.795Zm-2.026,0a1.005,1.005,0,1,1,1.005,1.005A1.005,1.005,0,0,1,638.117,285.795Zm-2.026,0A1.005,1.005,0,1,1,637.1,286.8,1.005,1.005,0,0,1,636.091,285.795Zm-2.026,0a1.005,1.005,0,1,1,1.005,1.005,1.018,1.018,0,0,1-1.02-1.005h0Zm-2.026,0a1.005,1.005,0,1,1,1.005,1.005,1.018,1.018,0,0,1-1.02-1.005h0Zm-2.026,0a1.005,1.005,0,1,1,1.005,1.005,1.018,1.018,0,0,1-1.02-1.005h0Zm-2.026,0a1.005,1.005,0,1,1,1.005,1.005,1.018,1.018,0,0,1-1.02-1.005h0Zm-4.051,0a1.005,1.005,0,1,1,1.005,1.005A1.005,1.005,0,0,1,623.938,285.795Zm-2.026,0a1.005,1.005,0,1,1,1.005,1.005,1.018,1.018,0,0,1-1.02-1.005h0Zm-4.051,0a1.005,1.005,0,1,1,1.005,1.005,1.018,1.018,0,0,1-1.02-1.005h0Zm-2.026,0a1.005,1.005,0,1,1,1.005,1.005,1.018,1.018,0,0,1-1.02-1.005h0Zm-4.051,0a1.005,1.005,0,1,1,1.005,1.005,1.018,1.018,0,0,1-1.02-1.005h0Zm-4.051,0a1.005,1.005,0,1,1,1.005,1.005,1.018,1.018,0,0,1-1.02-1.005h0Zm-2.026,0a1.005,1.005,0,1,1,1.005,1.005,1.018,1.018,0,0,1-1.02-1.005h0Zm-2.026,0a1.005,1.005,0,1,1,1.005,1.005,1.018,1.018,0,0,1-1.02-1.005h0Zm-4.051,0a1.005,1.005,0,1,1,1.005,1.005,1.018,1.018,0,0,1-1.02-1.005h0Zm-2.026,0a1.005,1.005,0,1,1,1.005,1.005,1.018,1.018,0,0,1-1.02-1.005h0Zm-14.164,0a1.005,1.005,0,1,1,1.005,1.005,1.018,1.018,0,0,1-1.02-1.005h0Zm-2.025,0a1.005,1.005,0,1,1,1.005,1.005,1.018,1.018,0,0,1-1.02-1.005h0Zm-6.077,0a1.005,1.005,0,1,1,1.005,1.005,1.018,1.018,0,0,1-1.02-1.005h0Zm-4.051,0a1.005,1.005,0,1,1,1.005,1.005,1.018,1.018,0,0,1-1.02-1.005h0Zm-4.051,0a1.005,1.005,0,1,1,1.005,1.005,1.018,1.018,0,0,1-1.02-1.005h0Zm-6.077,0a1.013,1.013,0,1,1,1.02,1.005h0a1.018,1.018,0,0,1-1.02-1.005Zm-2.026,0a1.005,1.005,0,1,1,1.005,1.005,1.018,1.018,0,0,1-1.02-1.005h0Zm101.247-2.026a1.005,1.005,0,1,1,1.005,1.005,1.018,1.018,0,0,1-1.02-1.005h0Zm-4.036,0a1.005,1.005,0,1,1,1.005,1.005,1.018,1.018,0,0,1-1.02-1.005h0Zm-8.1,0a1.005,1.005,0,1,1,1.005,1.005,1.018,1.018,0,0,1-1.02-1.005h0Zm-4.051,0a1.005,1.005,0,1,1,1.005,1.005,1.018,1.018,0,0,1-1.02-1.005h0Zm-2.026,0a1.005,1.005,0,1,1,1.005,1.005,1.018,1.018,0,0,1-1.02-1.005h0Zm-4.051,0a1.005,1.005,0,1,1,1.005,1.005,1.018,1.018,0,0,1-1.02-1.005h0Zm-2.026,0a1.005,1.005,0,1,1,1.005,1.005,1.018,1.018,0,0,1-1.02-1.005h0Zm-12.153,0a1.005,1.005,0,1,1,1.005,1.005A1.005,1.005,0,0,1,623.938,283.769Zm-2.026,0a1.005,1.005,0,1,1,1.005,1.005,1.018,1.018,0,0,1-1.02-1.005h0Zm-2.026,0a1.005,1.005,0,1,1,1.005,1.005,1.018,1.018,0,0,1-1.02-1.005h0Zm-2.026,0a1.005,1.005,0,1,1,1.005,1.005,1.018,1.018,0,0,1-1.02-1.005h0Zm-2.026,0a1.005,1.005,0,1,1,1.005,1.005,1.018,1.018,0,0,1-1.02-1.005h0Zm-8.1,0a1.005,1.005,0,1,1,1.005,1.005,1.018,1.018,0,0,1-1.02-1.005h0Zm-2.026,0a1.005,1.005,0,1,1,1.005,1.005,1.018,1.018,0,0,1-1.02-1.005h0Zm-4.051,0a1.005,1.005,0,1,1,1.005,1.005,1.018,1.018,0,0,1-1.02-1.005h0Zm-2.026,0a1.005,1.005,0,1,1,1.005,1.005,1.018,1.018,0,0,1-1.02-1.005h0Zm-12.138,0a1.005,1.005,0,1,1,1.005,1.005,1.018,1.018,0,0,1-1.02-1.005h0Zm-4.051,0a1.005,1.005,0,1,1,1.005,1.005,1.018,1.018,0,0,1-1.02-1.005h0Zm-8.1,0a1.005,1.005,0,1,1,1.005,1.005,1.018,1.018,0,0,1-1.02-1.005h0Zm-8.1,0a1.005,1.005,0,1,1,1.005,1.005,1.018,1.018,0,0,1-1.02-1.005h0Zm-2.026,0a1.005,1.005,0,1,1,1.005,1.005,1.018,1.018,0,0,1-1.02-1.005h0Zm-2.026,0a1.005,1.005,0,1,1,1.005,1.005,1.018,1.018,0,0,1-1.02-1.005h0Zm99.236-2.026a1.005,1.005,0,1,1,1.005,1.005,1.018,1.018,0,0,1-1.02-1.005h0Zm-6.077,0a1.005,1.005,0,1,1,1.005,1.005,1.018,1.018,0,0,1-1.02-1.005h0Zm-2.026,0a1.005,1.005,0,1,1,1.005,1.005,1.018,1.018,0,0,1-1.02-1.005h0Zm-2.026,0a1.005,1.005,0,1,1,1.005,1.005,1.018,1.018,0,0,1-1.02-1.005h0Zm-2.026,0a1.005,1.005,0,1,1,1.005,1.005,1.018,1.018,0,0,1-1.02-1.005h0Zm-2.026,0a1.005,1.005,0,1,1,1.005,1.005,1.018,1.018,0,0,1-1.02-1.005h0Zm-2.026,0a1.005,1.005,0,1,1,1.005,1.005,1.018,1.018,0,0,1-1.02-1.005h0Zm-4.051,0a1.005,1.005,0,1,1,1.005,1.005,1.018,1.018,0,0,1-1.02-1.005h0Zm-6.077,0a1.005,1.005,0,1,1,1.005,1.005,1.018,1.018,0,0,1-1.02-1.005h0Zm-6.077,0a1.005,1.005,0,1,1,1.005,1.005,1.018,1.018,0,0,1-1.02-1.005h0Zm-4.051,0a1.005,1.005,0,1,1,1.005,1.005,1.018,1.018,0,0,1-1.02-1.005h0Zm-4.051,0a1.005,1.005,0,1,1,1.005,1.005,1.018,1.018,0,0,1-1.02-1.005h0Zm-6.077,0a1.005,1.005,0,1,1,1.005,1.005,1.018,1.018,0,0,1-1.02-1.005h0Zm-2.026,0a1.005,1.005,0,1,1,1.005,1.005,1.018,1.018,0,0,1-1.02-1.005h0Zm-2.026,0a1.005,1.005,0,1,1,1.005,1.005,1.018,1.018,0,0,1-1.02-1.005h0Zm-2.026,0a1.005,1.005,0,1,1,1.005,1.005,1.018,1.018,0,0,1-1.02-1.005h0Zm-2.026,0a1.005,1.005,0,1,1,1.005,1.005,1.018,1.018,0,0,1-1.02-1.005h0Zm-8.1,0a1.005,1.005,0,1,1,1.005,1.005,1.018,1.018,0,0,1-1.02-1.005h0Zm-2.026,0a1.005,1.005,0,1,1,1.005,1.005,1.018,1.018,0,0,1-1.02-1.005h0Zm-2.01,0a1.005,1.005,0,1,1,1.005,1.005,1.018,1.018,0,0,1-1.02-1.005h0Zm-2.026,0a1.005,1.005,0,1,1,1.005,1.005,1.018,1.018,0,0,1-1.02-1.005h0Zm-4.051,0a1.005,1.005,0,1,1,1.005,1.005,1.018,1.018,0,0,1-1.02-1.005h0Zm-8.1,0a1.005,1.005,0,1,1,1.005,1.005,1.018,1.018,0,0,1-1.02-1.005h0Zm-2.026,0a1.005,1.005,0,1,1,1.005,1.005,1.018,1.018,0,0,1-1.02-1.005h0Zm-4.051,0a1.005,1.005,0,1,1,1.005,1.005,1.018,1.018,0,0,1-1.02-1.005h0Zm-2.026,0a1.005,1.005,0,1,1,1.005,1.005,1.018,1.018,0,0,1-1.02-1.005h0Zm-2.026,0a1.005,1.005,0,1,1,1.005,1.005,1.018,1.018,0,0,1-1.02-1.005h0Zm-2.026,0a1.005,1.005,0,1,1,1.005,1.005,1.018,1.018,0,0,1-1.02-1.005h0Zm-2.026,0a1.005,1.005,0,1,1,1.005,1.005,1.018,1.018,0,0,1-1.02-1.005h0Zm-8.1,0a1.005,1.005,0,1,1,1.005,1.005,1.018,1.018,0,0,1-1.02-1.005h0ZM660.4,279.718a1.005,1.005,0,1,1,1.005,1.005,1.018,1.018,0,0,1-1.02-1.005h0Zm-4.051,0a1.005,1.005,0,1,1,1.005,1.005,1.018,1.018,0,0,1-1.02-1.005h0Zm-4.051,0a1.005,1.005,0,1,1,1.005,1.005,1.018,1.018,0,0,1-1.02-1.005h0Zm-4.051,0a1.005,1.005,0,1,1,1.005,1.005,1.018,1.018,0,0,1-1.02-1.005h0Zm-4.051,0a1.005,1.005,0,1,1,1.005,1.005,1.018,1.018,0,0,1-1.02-1.005h0Zm-2.026,0a1.005,1.005,0,1,1,1.005,1.005,1.018,1.018,0,0,1-1.02-1.005h0Zm-2.026,0a1.005,1.005,0,1,1,1.005,1.005,1.018,1.018,0,0,1-1.02-1.005h0Zm-2.026,0a1.005,1.005,0,1,1,1.005,1.005,1.018,1.018,0,0,1-1.02-1.005h0Zm-8.1,0a1.005,1.005,0,1,1,1.005,1.005,1.018,1.018,0,0,1-1.02-1.005h0Zm-4.051,0a1.005,1.005,0,1,1,1.005,1.005,1.018,1.018,0,0,1-1.02-1.005h0Zm-6.077,0a1.005,1.005,0,1,1,1.005,1.005,1.018,1.018,0,0,1-1.02-1.005h0Zm-4.051,0a1.005,1.005,0,1,1,1.005,1.005,1.018,1.018,0,0,1-1.02-1.005h0Zm-8.1,0a1.005,1.005,0,1,1,1.005,1.005,1.018,1.018,0,0,1-1.02-1.005h0Zm-4.051,0a1.005,1.005,0,1,1,1.005,1.005,1.018,1.018,0,0,1-1.02-1.005h0Zm-2.026,0a1.005,1.005,0,1,1,1.005,1.005,1.018,1.018,0,0,1-1.02-1.005h0Zm-2.026,0a1.005,1.005,0,1,1,1.005,1.005,1.018,1.018,0,0,1-1.02-1.005h0Zm-10.113,0a1.005,1.005,0,1,1,1.005,1.005,1.018,1.018,0,0,1-1.02-1.005h0Zm-2.026,0a1.005,1.005,0,1,1,1.005,1.005,1.018,1.018,0,0,1-1.02-1.005h0Zm-2.026,0a1.005,1.005,0,1,1,1.005,1.005,1.018,1.018,0,0,1-1.02-1.005h0Zm-4.051,0a1.005,1.005,0,1,1,1.005,1.005,1.018,1.018,0,0,1-1.02-1.005h0Zm-2.026,0a1.005,1.005,0,1,1,1.005,1.005,1.018,1.018,0,0,1-1.02-1.005h0Zm-2.026,0a1.005,1.005,0,1,1,1.005,1.005,1.018,1.018,0,0,1-1.02-1.005h0Zm-4.051,0a1.005,1.005,0,1,1,1.005,1.005,1.018,1.018,0,0,1-1.02-1.005h0Zm-8.1,0a1.005,1.005,0,1,1,1.005,1.005,1.018,1.018,0,0,1-1.02-1.005h0Zm-2.026,0a1.005,1.005,0,1,1,1.005,1.005,1.018,1.018,0,0,1-1.02-1.005h0Zm-2.026,0a1.005,1.005,0,1,1,1.005,1.005h0a1.018,1.018,0,0,1-1.02-1.005h0Zm103.287-2.026a1.005,1.005,0,1,1,1.005,1.005,1.018,1.018,0,0,1-1.02-1.005h0Zm-8.1,0a1.005,1.005,0,1,1,1.005,1.005,1.018,1.018,0,0,1-1.02-1.005h0Zm-6.077,0a1.005,1.005,0,1,1,1.005,1.005,1.018,1.018,0,0,1-1.02-1.005h0Zm-2.026,0a1.005,1.005,0,1,1,1.005,1.005,1.018,1.018,0,0,1-1.02-1.005h0Zm-2.026,0a1.005,1.005,0,1,1,1.005,1.005,1.018,1.018,0,0,1-1.02-1.005h0Zm-2.026,0A1.005,1.005,0,1,1,645.2,278.7a1.018,1.018,0,0,1-1.02-1.005h0Zm-4.051,0a1.005,1.005,0,1,1,1.005,1.005,1.018,1.018,0,0,1-1.02-1.005h0Zm-2.026,0a1.005,1.005,0,1,1,1.005,1.005,1.018,1.018,0,0,1-1.02-1.005h0Zm-4.051,0a1.005,1.005,0,1,1,1.005,1.005,1.018,1.018,0,0,1-1.02-1.005h0Zm-2.026,0a1.005,1.005,0,1,1,1.005,1.005,1.018,1.018,0,0,1-1.02-1.005h0Zm-2.026,0a1.013,1.013,0,1,1-.015,0h0Zm-2.026,0a1.005,1.005,0,1,1,1.005,1.005,1.018,1.018,0,0,1-1.02-1.005h0Zm-6.077,0a1.005,1.005,0,1,1,1.005,1.005,1.018,1.018,0,0,1-1.02-1.005h0Zm-4.051,0a1.005,1.005,0,1,1,1.005,1.005,1.018,1.018,0,0,1-1.02-1.005h0Zm-2.026,0a1.005,1.005,0,1,1,1.005,1.005,1.018,1.018,0,0,1-1.02-1.005h0Zm-2.026,0a1.005,1.005,0,1,1,1.005,1.005,1.018,1.018,0,0,1-1.02-1.005h0Zm-6.077,0a1.005,1.005,0,1,1,1.005,1.005,1.018,1.018,0,0,1-1.02-1.005h0Zm-2.026,0a1.005,1.005,0,1,1,1.005,1.005,1.018,1.018,0,0,1-1.02-1.005h0Zm-2.026,0a1.005,1.005,0,1,1,1.005,1.005,1.018,1.018,0,0,1-1.02-1.005h0Zm-8.087,0A1.005,1.005,0,1,1,596.6,278.7a1.018,1.018,0,0,1-1.02-1.005h0Zm-2.026,0a1.005,1.005,0,1,1,1.005,1.005,1.018,1.018,0,0,1-1.02-1.005h0Zm-2.026,0a1.005,1.005,0,1,1,1.005,1.005,1.018,1.018,0,0,1-1.02-1.005h0Zm-2.026,0a1.005,1.005,0,1,1,1.005,1.005,1.018,1.018,0,0,1-1.02-1.005h0Zm-2.026,0A1.005,1.005,0,1,1,588.5,278.7a1.018,1.018,0,0,1-1.02-1.005h0Zm-12.153,0a1.005,1.005,0,1,1,1.005,1.005h0a1.018,1.018,0,0,1-1.02-1.005h0Zm-4.051,0a1.005,1.005,0,1,1,1.005,1.005,1.018,1.018,0,0,1-1.02-1.005h0Zm-2.026,0a1.005,1.005,0,1,1,1.005,1.005,1.018,1.018,0,0,1-1.02-1.005h0Zm-2.026,0a1.005,1.005,0,1,1,1.005,1.005,1.018,1.018,0,0,1-1.02-1.005h0Zm95.185-2.026a1.005,1.005,0,1,1,1.005,1.005,1.018,1.018,0,0,1-1.02-1.005h0Zm-2.026,0a1.005,1.005,0,1,1,1.005,1.005,1.018,1.018,0,0,1-1.02-1.005h0Zm-2.026,0a1.005,1.005,0,1,1,1.005,1.005,1.018,1.018,0,0,1-1.02-1.005h0Zm-4.051,0a1.005,1.005,0,1,1,1.005,1.005,1.018,1.018,0,0,1-1.02-1.005h0Zm-2.026,0a1.005,1.005,0,1,1,1.005,1.005,1.018,1.018,0,0,1-1.02-1.005h0Zm-10.128,0a1.005,1.005,0,1,1,1.005,1.005,1.018,1.018,0,0,1-1.02-1.005h0Zm-2.026,0a1.005,1.005,0,1,1,1.005,1.005,1.018,1.018,0,0,1-1.02-1.005h0Zm-8.1,0a1.005,1.005,0,1,1,1.005,1.005,1.018,1.018,0,0,1-1.02-1.005h0Zm-4.051,0a1.005,1.005,0,1,1,1.005,1.005,1.018,1.018,0,0,1-1.02-1.005h0Zm-2.025,0a1.005,1.005,0,1,1,1.005,1.005,1.018,1.018,0,0,1-1.02-1.005h0Zm-10.128,0a1.005,1.005,0,1,1,1.005,1.005,1.018,1.018,0,0,1-1.02-1.005h0Zm-2.026,0a1.005,1.005,0,1,1,1.005,1.005,1.018,1.018,0,0,1-1.02-1.005h0Zm-6.077,0a1.005,1.005,0,1,1,1.005,1.005,1.018,1.018,0,0,1-1.02-1.005h0Zm-4.036,0a1.005,1.005,0,1,1,1.005,1.005,1.018,1.018,0,0,1-1.02-1.005h0Zm-2.026,0a1.005,1.005,0,1,1,1.005,1.005,1.018,1.018,0,0,1-1.02-1.005h0Zm-8.1,0a1.005,1.005,0,1,1,1.005,1.005,1.018,1.018,0,0,1-1.02-1.005h0Zm-2.026,0a1.005,1.005,0,1,1,1.005,1.005,1.018,1.018,0,0,1-1.02-1.005h0Zm-4.051,0a1.005,1.005,0,1,1,1.005,1.005,1.018,1.018,0,0,1-1.02-1.005h0Zm-2.026,0a1.005,1.005,0,1,1,1.005,1.005,1.018,1.018,0,0,1-1.02-1.005h0Zm-2.026,0a1.005,1.005,0,1,1,1.005,1.005,1.018,1.018,0,0,1-1.02-1.005h0Zm-6.077,0a1.005,1.005,0,1,1,1.005,1.005,1.018,1.018,0,0,1-1.02-1.005h0Zm-2.026,0a1.005,1.005,0,1,1,1.005,1.005,1.018,1.018,0,0,1-1.02-1.005h0Zm-8.1,0a1.005,1.005,0,1,1,1.005,1.005,1.018,1.018,0,0,1-1.02-1.005h0Zm-4.051,0a1.005,1.005,0,1,1,1.005,1.005,1.018,1.018,0,0,1-1.02-1.005h0Zm-4.051,0a1.005,1.005,0,1,1,1.005,1.005,1.018,1.018,0,0,1-1.02-1.005h0Zm105.313-2.026a1.005,1.005,0,1,1,1.005,1.005,1.018,1.018,0,0,1-1.02-1.005h0Zm-2.026,0a1.005,1.005,0,1,1,1.005,1.005,1.018,1.018,0,0,1-1.02-1.005h0Zm-2.026,0a1.005,1.005,0,1,1,1.005,1.005,1.018,1.018,0,0,1-1.02-1.005h0Zm-2.026,0a1.005,1.005,0,1,1,1.005,1.005,1.018,1.018,0,0,1-1.02-1.005h0Zm-2.025,0a1.005,1.005,0,1,1,1.005,1.005,1.018,1.018,0,0,1-1.02-1.005h0Zm-2.026,0a1.005,1.005,0,1,1,1.005,1.005,1.018,1.018,0,0,1-1.02-1.005h0Zm-2.026,0a1.005,1.005,0,1,1,1.005,1.005,1.018,1.018,0,0,1-1.02-1.005h0Zm-2.026,0a1.005,1.005,0,1,1,1.005,1.005,1.018,1.018,0,0,1-1.02-1.005h0Zm-4.051,0a1.005,1.005,0,1,1,1.005,1.005,1.018,1.018,0,0,1-1.02-1.005h0Zm-8.1,0a1.005,1.005,0,1,1,1.005,1.005,1.018,1.018,0,0,1-1.02-1.005h0Zm-2.026,0a1.005,1.005,0,1,1,1.005,1.005,1.018,1.018,0,0,1-1.02-1.005h0Zm-2.026,0a1.005,1.005,0,1,1,1.005,1.005,1.018,1.018,0,0,1-1.02-1.005h0Zm-8.1,0a1.005,1.005,0,1,1,1.005,1.005,1.018,1.018,0,0,1-1.02-1.005h0Zm-2.026,0a1.005,1.005,0,1,1,1.005,1.005,1.018,1.018,0,0,1-1.02-1.005h0Zm-4.051,0a1.005,1.005,0,1,1,1.005,1.005,1.018,1.018,0,0,1-1.02-1.005h0Zm-4.051,0a1.005,1.005,0,1,1,1.005,1.005,1.018,1.018,0,0,1-1.02-1.005h0Zm-4.051,0a1.005,1.005,0,1,1,1.005,1.005,1.018,1.018,0,0,1-1.02-1.005h0Zm-8.087,0a1.005,1.005,0,1,1,1.005,1.005,1.018,1.018,0,0,1-1.02-1.005h0Zm-2.026,0a1.005,1.005,0,1,1,1.005,1.005,1.018,1.018,0,0,1-1.02-1.005h0Zm-4.051,0a1.005,1.005,0,1,1,1.005,1.005,1.018,1.018,0,0,1-1.02-1.005h0Zm-4.051,0a1.005,1.005,0,1,1,1.005,1.005,1.018,1.018,0,0,1-1.02-1.005h0Zm-2.026,0a1.005,1.005,0,1,1,1.005,1.005,1.018,1.018,0,0,1-1.02-1.005h0Zm-4.051,0a1.005,1.005,0,1,1,1.005,1.005,1.018,1.018,0,0,1-1.02-1.005h0Zm-2.026,0a1.005,1.005,0,1,1,1.005,1.005,1.018,1.018,0,0,1-1.02-1.005h0Zm-2.026,0a1.005,1.005,0,1,1,1.005,1.005,1.018,1.018,0,0,1-1.02-1.005h0Zm-10.128,0a1.005,1.005,0,1,1,1.005,1.005,1.018,1.018,0,0,1-1.02-1.005h0Zm-2.026,0a1.005,1.005,0,1,1,1.005,1.005,1.018,1.018,0,0,1-1.02-1.005h0Zm-4.051,0a1.005,1.005,0,1,1,1.005,1.005,1.018,1.018,0,0,1-1.02-1.005h0Zm-4.051,0a1.005,1.005,0,1,1,1.005,1.005,1.018,1.018,0,0,1-1.02-1.005h0Zm-2.026,0a1.005,1.005,0,1,1,1.005,1.005h0a1.018,1.018,0,0,1-1.02-1.005h0Zm-2.026,0a1.005,1.005,0,1,1,1.005,1.005,1.018,1.018,0,0,1-1.02-1.005h0Zm97.21-2.026a1.005,1.005,0,1,1,1.005,1.005,1.018,1.018,0,0,1-1.02-1.005h0Zm-2.026,0a1.005,1.005,0,1,1,1.005,1.005,1.018,1.018,0,0,1-1.02-1.005h0Zm-12.153,0a1.005,1.005,0,1,1,1.005,1.005,1.018,1.018,0,0,1-1.02-1.005h0Zm-2.026,0a1.005,1.005,0,1,1,1.005,1.005,1.018,1.018,0,0,1-1.02-1.005h0Zm-4.051,0a1.005,1.005,0,1,1,1.005,1.005,1.018,1.018,0,0,1-1.02-1.005h0Zm-10.128,0a1.005,1.005,0,1,1,1.005,1.005,1.018,1.018,0,0,1-1.02-1.005h0Zm-2.026,0a1.005,1.005,0,1,1,1.005,1.005,1.018,1.018,0,0,1-1.02-1.005h0Zm-2.026,0a1.005,1.005,0,1,1,1.005,1.005,1.018,1.018,0,0,1-1.02-1.005h0Zm-6.062,0a1.005,1.005,0,1,1,1.005,1.005,1.018,1.018,0,0,1-1.02-1.005h0Zm-4.051,0a1.005,1.005,0,1,1,1.005,1.005,1.018,1.018,0,0,1-1.02-1.005h0Zm-2.026,0a1.005,1.005,0,1,1,1.005,1.005,1.018,1.018,0,0,1-1.02-1.005h0Zm-4.051,0a1.005,1.005,0,1,1,1.005,1.005,1.018,1.018,0,0,1-1.02-1.005h0Zm-10.128,0a1.005,1.005,0,1,1,1.005,1.005,1.018,1.018,0,0,1-1.02-1.005h0Zm-4.051,0a1.005,1.005,0,1,1,1.005,1.005,1.018,1.018,0,0,1-1.02-1.005h0Zm-2.026,0a1.005,1.005,0,1,1,1.005,1.005,1.018,1.018,0,0,1-1.02-1.005h0Zm-4.051,0a1.005,1.005,0,1,1,1.005,1.005,1.018,1.018,0,0,1-1.02-1.005h0Zm-10.128,0a1.005,1.005,0,1,1,1.005,1.005,1.018,1.018,0,0,1-1.02-1.005h0Zm-8.1,0a1.005,1.005,0,1,1,1.005,1.005,1.018,1.018,0,0,1-1.02-1.005h0Zm-8.1,0a1.005,1.005,0,1,1,1.005,1.005,1.018,1.018,0,0,1-1.02-1.005h0Zm105.3-2.026a1.005,1.005,0,1,1,1.005,1.005A1.005,1.005,0,0,1,664.434,269.59Zm-2.026,0a1.005,1.005,0,1,1,1.005,1.005A1.005,1.005,0,0,1,662.408,269.59Zm-8.1,0a1.005,1.005,0,1,1,1.005,1.005A1.005,1.005,0,0,1,654.306,269.59Zm-2.026,0a1.005,1.005,0,1,1,1.005,1.005,1.018,1.018,0,0,1-1.02-1.005h0Zm-4.051,0a1.005,1.005,0,1,1,1.005,1.005A1.005,1.005,0,0,1,648.229,269.59Zm-4.051,0a1.005,1.005,0,1,1,1.005,1.005A1.005,1.005,0,0,1,644.178,269.59Zm-10.113,0a1.005,1.005,0,1,1,1.005,1.005,1.018,1.018,0,0,1-1.02-1.005h0Zm-4.051,0a1.005,1.005,0,1,1,1.005,1.005A1.018,1.018,0,0,1,630,269.59h0Zm-6.077,0a1.005,1.005,0,1,1,1.005,1.005A1.005,1.005,0,0,1,623.938,269.59Zm-6.077,0a1.005,1.005,0,1,1,1.005,1.005,1.018,1.018,0,0,1-1.02-1.005h0Zm-10.128,0a1.005,1.005,0,1,1,1.005,1.005,1.018,1.018,0,0,1-1.02-1.005h0Zm-2.026,0a1.005,1.005,0,1,1,1.005,1.005,1.018,1.018,0,0,1-1.02-1.005h0Zm-2.026,0a1.005,1.005,0,1,1,1.005,1.005,1.018,1.018,0,0,1-1.02-1.005h0Zm-4.051,0a1.005,1.005,0,1,1,1.005,1.005,1.018,1.018,0,0,1-1.02-1.005h0Zm-10.113,0a1.005,1.005,0,1,1,1.005,1.005,1.018,1.018,0,0,1-1.02-1.005h0Zm-2.026,0A1.005,1.005,0,1,1,588.5,270.6a1.018,1.018,0,0,1-1.02-1.005h0Zm-6.077,0a1.005,1.005,0,1,1,1.005,1.005,1.018,1.018,0,0,1-1.02-1.005h0Zm-10.128,0a1.005,1.005,0,1,1,1.005,1.005,1.018,1.018,0,0,1-1.02-1.005h0Zm-2.026,0a1.005,1.005,0,1,1,1.005,1.005,1.018,1.018,0,0,1-1.02-1.005h0Zm-4.051,0a1.005,1.005,0,1,1,1.005,1.005,1.018,1.018,0,0,1-1.02-1.005h0Zm-2.026,0a1.005,1.005,0,1,1,1.005,1.005,1.018,1.018,0,0,1-1.02-1.005h0Zm-2.026,0a1.005,1.005,0,1,1,1.005,1.005h0a1.018,1.018,0,0,1-1.02-1.005h0Zm97.21-2.026a1.005,1.005,0,1,1,1.005,1.005,1.018,1.018,0,0,1-1.02-1.005h0Zm-2.025,0a1.005,1.005,0,1,1,1.005,1.005,1.018,1.018,0,0,1-1.02-1.005h0Zm-2.026,0a1.005,1.005,0,1,1,1.005,1.005,1.018,1.018,0,0,1-1.02-1.005h0Zm-2.026,0a1.005,1.005,0,1,1,1.005,1.005,1.018,1.018,0,0,1-1.02-1.005h0Zm-4.051,0a1.005,1.005,0,1,1,1.005,1.005,1.018,1.018,0,0,1-1.02-1.005h0Zm-2.026,0a1.005,1.005,0,1,1,1.005,1.005,1.018,1.018,0,0,1-1.02-1.005h0Zm-2.026,0a1.005,1.005,0,1,1,1.005,1.005,1.018,1.018,0,0,1-1.02-1.005h0Zm-2.026,0a1.005,1.005,0,1,1,1.005,1.005,1.018,1.018,0,0,1-1.02-1.005h0Zm-2.026,0a1.005,1.005,0,1,1,1.005,1.005,1.018,1.018,0,0,1-1.02-1.005h0Zm-4.051,0a1.005,1.005,0,1,1,1.005,1.005,1.018,1.018,0,0,1-1.02-1.005h0Zm-2.026,0a1.005,1.005,0,1,1,1.005,1.005,1.018,1.018,0,0,1-1.02-1.005h0Zm-6.077,0a1.005,1.005,0,1,1,1.005,1.005,1.018,1.018,0,0,1-1.02-1.005h0Zm-6.077,0a1.005,1.005,0,1,1,1.005,1.005,1.018,1.018,0,0,1-1.02-1.005h0Zm-4.051,0a1.005,1.005,0,1,1,1.005,1.005,1.018,1.018,0,0,1-1.02-1.005h0Zm-2.026,0a1.005,1.005,0,1,1,1.005,1.005,1.018,1.018,0,0,1-1.02-1.005h0Zm-2.026,0a1.005,1.005,0,1,1,1.005,1.005,1.018,1.018,0,0,1-1.02-1.005h0Zm-8.1,0a1.005,1.005,0,1,1,1.005,1.005,1.018,1.018,0,0,1-1.02-1.005h0Zm-6.077,0a1.005,1.005,0,1,1,1.005,1.005,1.018,1.018,0,0,1-1.02-1.005h0Zm-2.026,0a1.005,1.005,0,1,1,1.005,1.005,1.018,1.018,0,0,1-1.02-1.005h0Zm-2.01,0a1.005,1.005,0,1,1,1.005,1.005,1.018,1.018,0,0,1-1.02-1.005h0Zm-2.026,0a1.005,1.005,0,1,1,1.005,1.005,1.018,1.018,0,0,1-1.02-1.005h0Zm-2.026,0a1.005,1.005,0,1,1,1.005,1.005,1.018,1.018,0,0,1-1.02-1.005h0Zm-4.051,0a1.005,1.005,0,1,1,1.005,1.005,1.018,1.018,0,0,1-1.02-1.005h0Zm-4.051,0a1.005,1.005,0,1,1,1.005,1.005,1.018,1.018,0,0,1-1.02-1.005h0Zm-8.1,0a1.005,1.005,0,1,1,1.005,1.005,1.018,1.018,0,0,1-1.02-1.005h0Zm-2.026,0a1.005,1.005,0,1,1,1.005,1.005,1.018,1.018,0,0,1-1.02-1.005h0Zm-6.077,0a1.005,1.005,0,1,1,1.005,1.005,1.018,1.018,0,0,1-1.02-1.005h0Zm-4.051,0a1.005,1.005,0,1,1,1.005,1.005,1.018,1.018,0,0,1-1.02-1.005h0Zm-2.026,0a1.005,1.005,0,1,1,1.005,1.005h0a1.018,1.018,0,0,1-1.02-1.005h0Zm-2.026,0a1.005,1.005,0,1,1,1.005,1.005,1.018,1.018,0,0,1-1.02-1.005h0Zm105.313-2.026a1.005,1.005,0,1,1,1.005,1.005,1.018,1.018,0,0,1-1.02-1.005h0Zm-4.051,0a1.005,1.005,0,1,1,1.005,1.005,1.018,1.018,0,0,1-1.02-1.005h0Zm-4.051,0a1.005,1.005,0,1,1,1.005,1.005,1.018,1.018,0,0,1-1.02-1.005h0Zm-4.051,0a1.005,1.005,0,1,1,1.005,1.005,1.018,1.018,0,0,1-1.02-1.005h0Zm-2.026,0a1.005,1.005,0,1,1,1.005,1.005,1.018,1.018,0,0,1-1.02-1.005h0Zm-2.026,0a1.005,1.005,0,1,1,1.005,1.005,1.018,1.018,0,0,1-1.02-1.005h0Zm-8.1,0a1.005,1.005,0,1,1,1.005,1.005,1.018,1.018,0,0,1-1.02-1.005h0Zm-2.026,0a1.005,1.005,0,1,1,1.005,1.005,1.018,1.018,0,0,1-1.02-1.005h0Zm-2.026,0a1.005,1.005,0,1,1,1.005,1.005,1.018,1.018,0,0,1-1.02-1.005h0Zm-2.026,0a1.005,1.005,0,1,1,1.005,1.005,1.018,1.018,0,0,1-1.02-1.005h0Zm-2.026,0a1.005,1.005,0,1,1,1.005,1.005,1.018,1.018,0,0,1-1.02-1.005h0Zm-2.026,0a1.013,1.013,0,1,1-.015,0h0Zm-2.026,0a1.005,1.005,0,1,1,1.005,1.005,1.018,1.018,0,0,1-1.02-1.005h0Zm-4.051,0a1.005,1.005,0,1,1,1.005,1.005,1.018,1.018,0,0,1-1.02-1.005h0Zm-6.077,0a1.005,1.005,0,1,1,1.005,1.005,1.018,1.018,0,0,1-1.02-1.005h0Zm-4.051,0a1.005,1.005,0,1,1,1.005,1.005,1.018,1.018,0,0,1-1.02-1.005h0Zm-6.077,0a1.005,1.005,0,1,1,1.005,1.005,1.018,1.018,0,0,1-1.02-1.005h0Zm-2.026,0a1.005,1.005,0,1,1,1.005,1.005,1.018,1.018,0,0,1-1.02-1.005h0Zm-4.051,0a1.005,1.005,0,1,1,1.005,1.005,1.018,1.018,0,0,1-1.02-1.005h0Zm-4.036,0a1.005,1.005,0,1,1,1.005,1.005,1.018,1.018,0,0,1-1.02-1.005h0Zm-2.026,0a1.005,1.005,0,1,1,1.005,1.005,1.018,1.018,0,0,1-1.02-1.005h0Zm-2.026,0a1.005,1.005,0,1,1,1.005,1.005,1.018,1.018,0,0,1-1.02-1.005h0Zm-2.026,0a1.005,1.005,0,1,1,1.005,1.005,1.018,1.018,0,0,1-1.02-1.005h0Zm-6.077,0a1.005,1.005,0,1,1,1.005,1.005,1.018,1.018,0,0,1-1.02-1.005h0Zm-4.051,0a1.005,1.005,0,1,1,1.005,1.005,1.018,1.018,0,0,1-1.02-1.005h0Zm-10.128,0a1.005,1.005,0,1,1,1.005,1.005,1.018,1.018,0,0,1-1.02-1.005h0Zm-2.026,0a1.005,1.005,0,1,1,1.005,1.005,1.018,1.018,0,0,1-1.02-1.005h0Zm-2.026,0a1.005,1.005,0,1,1,1.005,1.005,1.018,1.018,0,0,1-1.02-1.005h0Zm-8.1,0a1.005,1.005,0,1,1,1.005,1.005,1.018,1.018,0,0,1-1.02-1.005h0Zm103.272-2.026a1.005,1.005,0,1,1,1.005,1.005A1.005,1.005,0,0,1,662.408,263.514Zm-4.051,0a1.005,1.005,0,1,1,1.005,1.005A1.005,1.005,0,0,1,658.357,263.514Zm-8.1,0a1.005,1.005,0,1,1,1.005,1.005A1.005,1.005,0,0,1,650.255,263.514Zm-2.026,0a1.005,1.005,0,1,1,1.005,1.005A1.005,1.005,0,0,1,648.229,263.514Zm-16.189,0a1.005,1.005,0,1,1,1.005,1.005,1.018,1.018,0,0,1-1.02-1.005h0Zm-4.051,0a1.005,1.005,0,1,1,1.005,1.005,1.018,1.018,0,0,1-1.02-1.005h0Zm-4.051,0a1.005,1.005,0,1,1,1.005,1.005A1.005,1.005,0,0,1,623.938,263.514Zm-8.1,0a1.005,1.005,0,1,1,1.005,1.005,1.018,1.018,0,0,1-1.02-1.005h0Zm-2.026,0a1.005,1.005,0,1,1,1.005,1.005,1.018,1.018,0,0,1-1.02-1.005h0Zm-2.026,0a1.005,1.005,0,1,1,1.005,1.005,1.018,1.018,0,0,1-1.02-1.005h0Zm-2.026,0a1.005,1.005,0,1,1,1.005,1.005,1.018,1.018,0,0,1-1.02-1.005h0Zm-4.051,0a1.005,1.005,0,1,1,1.005,1.005,1.018,1.018,0,0,1-1.02-1.005h0Zm-2.026,0a1.005,1.005,0,1,1,1.005,1.005,1.018,1.018,0,0,1-1.02-1.005h0Zm-4.051,0a1.005,1.005,0,1,1,1.005,1.005,1.018,1.018,0,0,1-1.02-1.005h0Zm-2.026,0a1.005,1.005,0,1,1,1.005,1.005,1.018,1.018,0,0,1-1.02-1.005h0Zm-4.051,0a1.005,1.005,0,1,1,1.005,1.005,1.018,1.018,0,0,1-1.02-1.005h0Zm-2.026,0a1.005,1.005,0,1,1,1.005,1.005,1.018,1.018,0,0,1-1.02-1.005h0Zm-4.036,0a1.005,1.005,0,1,1,1.005,1.005,1.018,1.018,0,0,1-1.02-1.005h0Zm-2.026,0a1.005,1.005,0,1,1,1.005,1.005,1.018,1.018,0,0,1-1.02-1.005h0Zm-2.026,0a1.005,1.005,0,1,1,1.005,1.005,1.018,1.018,0,0,1-1.02-1.005h0Zm-2.025,0a1.005,1.005,0,1,1,1.005,1.005,1.018,1.018,0,0,1-1.02-1.005h0Zm-4.051,0a1.005,1.005,0,1,1,1.005,1.005,1.018,1.018,0,0,1-1.02-1.005h0Zm-12.153,0a1.005,1.005,0,1,1,1.005,1.005,1.018,1.018,0,0,1-1.02-1.005h0Zm-4.051,0a.716.716,0,1,1-.015.015h0Zm-2.026,0a1.005,1.005,0,1,1,1.005,1.005,1.018,1.018,0,0,1-1.02-1.005h0Zm103.287-2.026a1.005,1.005,0,1,1,1.005,1.005,1.018,1.018,0,0,1-1.02-1.005h0Zm-8.1,0a1.005,1.005,0,1,1,1.005,1.005,1.018,1.018,0,0,1-1.02-1.005h0Zm-4.051,0a1.005,1.005,0,1,1,1.005,1.005,1.018,1.018,0,0,1-1.02-1.005h0Zm-2.026,0a1.005,1.005,0,1,1,1.005,1.005,1.018,1.018,0,0,1-1.02-1.005h0Zm-14.179,0a1.005,1.005,0,1,1,1.005,1.005,1.018,1.018,0,0,1-1.02-1.005h0Zm-8.1,0a1.005,1.005,0,1,1,1.005,1.005,1.018,1.018,0,0,1-1.02-1.005h0Zm-4.051,0a1.005,1.005,0,1,1,1.005,1.005,1.018,1.018,0,0,1-1.02-1.005h0Zm-2.026,0a1.005,1.005,0,1,1,1.005,1.005,1.018,1.018,0,0,1-1.02-1.005h0Zm-6.077,0a1.005,1.005,0,1,1,1.005,1.005,1.018,1.018,0,0,1-1.02-1.005h0Zm-2.026,0a1.005,1.005,0,1,1,1.005,1.005,1.018,1.018,0,0,1-1.02-1.005h0Zm-2.026,0a1.005,1.005,0,1,1,1.005,1.005,1.018,1.018,0,0,1-1.02-1.005h0Zm-2.026,0a1.005,1.005,0,1,1,1.005,1.005,1.018,1.018,0,0,1-1.02-1.005h0Zm-2.026,0a1.005,1.005,0,1,1,1.005,1.005,1.018,1.018,0,0,1-1.02-1.005h0Zm-6.077,0a1.005,1.005,0,1,1,1.005,1.005,1.018,1.018,0,0,1-1.02-1.005h0Zm-2.026,0a1.005,1.005,0,1,1,1.005,1.005,1.018,1.018,0,0,1-1.02-1.005h0Zm-6.062,0a1.005,1.005,0,1,1,1.005,1.005,1.018,1.018,0,0,1-1.02-1.005h0Zm-2.026,0a1.005,1.005,0,1,1,1.005,1.005,1.018,1.018,0,0,1-1.02-1.005h0Zm-2.026,0a1.005,1.005,0,1,1,1.005,1.005,1.018,1.018,0,0,1-1.02-1.005h0Zm-8.1,0a1.005,1.005,0,1,1,1.005,1.005,1.018,1.018,0,0,1-1.02-1.005h0Zm-2.026,0a1.005,1.005,0,1,1,1.005,1.005,1.018,1.018,0,0,1-1.02-1.005h0Zm-2.026,0a1.005,1.005,0,1,1,1.005,1.005,1.018,1.018,0,0,1-1.02-1.005h0Zm-2.026,0a1.005,1.005,0,1,1,1.005,1.005h0a1.028,1.028,0,0,1-1.02-1.005h0Zm-2.026,0a1.005,1.005,0,1,1,1.005,1.005,1.018,1.018,0,0,1-1.02-1.005h0Zm-2.026,0a1.005,1.005,0,1,1,1.005,1.005,1.018,1.018,0,0,1-1.02-1.005h0Zm-2.026,0a1.005,1.005,0,1,1,1.005,1.005,1.018,1.018,0,0,1-1.02-1.005h0Zm-2.026,0a1.005,1.005,0,1,1,1.005,1.005,1.018,1.018,0,0,1-1.02-1.005h0Zm-2.026,0a1.005,1.005,0,1,1,1.005,1.005,1.018,1.018,0,0,1-1.02-1.005h0Zm99.221-2.026a1.005,1.005,0,1,1,1.005,1.005A1.005,1.005,0,0,1,662.408,259.463Zm-2.025,0a1.005,1.005,0,1,1,1.005,1.005A1.005,1.005,0,0,1,660.383,259.463Zm-2.026,0a1.005,1.005,0,1,1,1.005,1.005A1.005,1.005,0,0,1,658.357,259.463Zm-2.026,0a1.005,1.005,0,1,1,1.005,1.005A1.005,1.005,0,0,1,656.331,259.463Zm-2.026,0a1.005,1.005,0,1,1,1.005,1.005A1.005,1.005,0,0,1,654.306,259.463Zm-2.026,0a1.005,1.005,0,1,1,1.005,1.005,1.018,1.018,0,0,1-1.02-1.005h0Zm-4.051,0a1.005,1.005,0,1,1,1.005,1.005A1.005,1.005,0,0,1,648.229,259.463Zm-2.026,0a1.005,1.005,0,1,1,1.005,1.005A1.005,1.005,0,0,1,646.2,259.463Zm-4.036,0a1.005,1.005,0,1,1,1.005,1.005A1.005,1.005,0,0,1,642.168,259.463Zm-4.051,0a1.005,1.005,0,1,1,1.005,1.005A1.005,1.005,0,0,1,638.117,259.463Zm-2.026,0a1.005,1.005,0,1,1,1.005,1.005A1.005,1.005,0,0,1,636.091,259.463Zm-2.026,0a1.005,1.005,0,1,1,1.005,1.005,1.018,1.018,0,0,1-1.02-1.005h0Zm-6.077,0a1.005,1.005,0,1,1,1.005,1.005,1.018,1.018,0,0,1-1.02-1.005h0Zm-2.025,0a1.005,1.005,0,1,1,1.005,1.005,1.018,1.018,0,0,1-1.02-1.005h0Zm-2.026,0a1.005,1.005,0,1,1,1.005,1.005A1.005,1.005,0,0,1,623.938,259.463Zm-2.026,0a1.005,1.005,0,1,1,1.005,1.005,1.018,1.018,0,0,1-1.02-1.005h0Zm-2.026,0a1.005,1.005,0,1,1,1.005,1.005,1.018,1.018,0,0,1-1.02-1.005h0Zm-14.179,0a1.005,1.005,0,1,1,1.005,1.005,1.018,1.018,0,0,1-1.02-1.005h0Zm-4.051,0a1.005,1.005,0,1,1,1.005,1.005,1.018,1.018,0,0,1-1.02-1.005h0Zm-4.051,0a1.005,1.005,0,1,1,1.005,1.005,1.018,1.018,0,0,1-1.02-1.005h0Zm-2.025,0a1.005,1.005,0,1,1,1.005,1.005,1.018,1.018,0,0,1-1.02-1.005h0Zm-8.087,0a1.005,1.005,0,1,1,1.005,1.005,1.018,1.018,0,0,1-1.02-1.005h0Zm-4.051,0a1.005,1.005,0,1,1,1.005,1.005,1.018,1.018,0,0,1-1.02-1.005h0Zm-2.025,0a1.005,1.005,0,1,1,1.005,1.005,1.018,1.018,0,0,1-1.02-1.005h0Zm-8.1,0a1.005,1.005,0,1,1,1.005,1.005A1.005,1.005,0,0,1,573.315,259.463Zm-6.077,0a1.005,1.005,0,1,1,1.005,1.005,1.018,1.018,0,0,1-1.02-1.005h0Zm-2.026,0a1.005,1.005,0,1,1,1.005,1.005,1.018,1.018,0,0,1-1.02-1.005h0Zm-2.026,0a1.005,1.005,0,1,1,1.005,1.005,1.018,1.018,0,0,1-1.02-1.005h0Zm101.246-2.026a1.005,1.005,0,1,1,1.005,1.005,1.018,1.018,0,0,1-1.02-1.005h0Zm-8.087,0a1.005,1.005,0,1,1,1.005,1.005,1.018,1.018,0,0,1-1.02-1.005h0Zm-2.026,0a1.005,1.005,0,1,1,1.005,1.005,1.018,1.018,0,0,1-1.02-1.005h0Zm-2.026,0a1.005,1.005,0,1,1,1.005,1.005,1.018,1.018,0,0,1-1.02-1.005h0Zm-10.128,0a1.005,1.005,0,1,1,1.005,1.005,1.018,1.018,0,0,1-1.02-1.005h0Zm-6.077,0a1.005,1.005,0,1,1,1.005,1.005,1.018,1.018,0,0,1-1.02-1.005h0Zm-2.026,0a1.005,1.005,0,1,1,1.005,1.005,1.018,1.018,0,0,1-1.02-1.005h0Zm-2.026,0a1.005,1.005,0,1,1,1.005,1.005,1.018,1.018,0,0,1-1.02-1.005h0Zm-6.077,0a1.005,1.005,0,1,1,1.005,1.005,1.018,1.018,0,0,1-1.02-1.005h0Zm-4.051,0a1.005,1.005,0,1,1,1.005,1.005,1.018,1.018,0,0,1-1.02-1.005h0Zm-2.026,0a1.005,1.005,0,1,1,1.005,1.005,1.018,1.018,0,0,1-1.02-1.005h0Zm-4.051,0a1.005,1.005,0,1,1,1.005,1.005,1.018,1.018,0,0,1-1.02-1.005h0Zm-2.026,0a1.005,1.005,0,1,1,1.005,1.005,1.018,1.018,0,0,1-1.02-1.005h0Zm-8.1,0a1.005,1.005,0,1,1,1.005,1.005,1.018,1.018,0,0,1-1.02-1.005h0Zm-6.077,0a1.005,1.005,0,1,1,1.005,1.005,1.018,1.018,0,0,1-1.02-1.005h0Zm-10.113,0a1.005,1.005,0,1,1,1.005,1.005,1.018,1.018,0,0,1-1.02-1.005h0Zm-2.026,0a1.005,1.005,0,1,1,1.005,1.005,1.018,1.018,0,0,1-1.02-1.005h0Zm-4.051,0a1.005,1.005,0,1,1,1.005,1.005,1.018,1.018,0,0,1-1.02-1.005h0Zm-4.051,0a1.005,1.005,0,1,1,1.005,1.005,1.018,1.018,0,0,1-1.02-1.005h0Zm-2.026,0a1.005,1.005,0,1,1,1.005,1.005,1.018,1.018,0,0,1-1.02-1.005h0Zm-4.051,0a1.005,1.005,0,1,1,1.005,1.005,1.005,1.005,0,0,1-1.005-1.005Zm-2.026,0a1.005,1.005,0,1,1,1.005,1.005,1.018,1.018,0,0,1-1.02-1.005h0Zm-4.051,0a1.005,1.005,0,1,1,1.005,1.005,1.018,1.018,0,0,1-1.02-1.005h0Zm-2.026,0a1.005,1.005,0,1,1,1.005,1.005,1.018,1.018,0,0,1-1.02-1.005h0Zm97.21-2.026a1.005,1.005,0,1,1,1.005,1.005,1.018,1.018,0,0,1-1.02-1.005h0Zm-4.051,0a1.005,1.005,0,1,1,1.005,1.005,1.018,1.018,0,0,1-1.02-1.005h0Zm-2.025,0a1.005,1.005,0,1,1,1.005,1.005,1.018,1.018,0,0,1-1.02-1.005h0Zm-2.026,0a1.005,1.005,0,1,1,1.005,1.005,1.018,1.018,0,0,1-1.02-1.005h0Zm-4.051,0a1.005,1.005,0,1,1,1.005,1.005,1.018,1.018,0,0,1-1.02-1.005h0Zm-2.026,0a1.005,1.005,0,1,1,1.005,1.005,1.018,1.018,0,0,1-1.02-1.005h0Zm-2.026,0a1.005,1.005,0,1,1,1.005,1.005,1.018,1.018,0,0,1-1.02-1.005h0Zm-2.026,0a1.005,1.005,0,1,1,1.005,1.005,1.018,1.018,0,0,1-1.02-1.005h0Zm-2.026,0a1.005,1.005,0,1,1,1.005,1.005,1.018,1.018,0,0,1-1.02-1.005h0Zm-6.077,0a1.005,1.005,0,1,1,1.005,1.005,1.018,1.018,0,0,1-1.02-1.005h0Zm-2.026,0a1.005,1.005,0,1,1,1.005,1.005,1.018,1.018,0,0,1-1.02-1.005h0Zm-4.051,0a1.005,1.005,0,1,1,1.005,1.005,1.018,1.018,0,0,1-1.02-1.005h0Zm-4.051,0a1.005,1.005,0,1,1,1.005,1.005,1.018,1.018,0,0,1-1.02-1.005h0Zm-6.077,0a1.005,1.005,0,1,1,1.005,1.005,1.018,1.018,0,0,1-1.02-1.005h0Zm-8.1,0a1.005,1.005,0,1,1,1.005,1.005,1.018,1.018,0,0,1-1.02-1.005h0Zm-2.026,0a1.005,1.005,0,1,1,1.005,1.005,1.018,1.018,0,0,1-1.02-1.005h0Zm-2.026,0a1.005,1.005,0,1,1,1.005,1.005,1.018,1.018,0,0,1-1.02-1.005h0Zm-4.051,0a1.005,1.005,0,1,1,1.005,1.005,1.018,1.018,0,0,1-1.02-1.005h0Zm-2.026,0a1.005,1.005,0,1,1,1.005,1.005,1.018,1.018,0,0,1-1.02-1.005h0Zm-2.026,0a1.005,1.005,0,1,1,1.005,1.005,1.018,1.018,0,0,1-1.02-1.005h0Zm-2.026,0a1.005,1.005,0,1,1,1.005,1.005,1.018,1.018,0,0,1-1.02-1.005h0Zm-4.036,0a1.005,1.005,0,1,1,1.005,1.005,1.018,1.018,0,0,1-1.02-1.005h0Zm-8.1,0a1.005,1.005,0,1,1,1.005,1.005,1.018,1.018,0,0,1-1.02-1.005h0Zm-4.051,0a1.005,1.005,0,1,1,1.005,1.005,1.018,1.018,0,0,1-1.02-1.005h0Zm-4.051,0a1.005,1.005,0,1,1,1.005,1.005,1.018,1.018,0,0,1-1.02-1.005h0Zm-2.026,0a1.005,1.005,0,1,1,1.005,1.005,1.018,1.018,0,0,1-1.02-1.005h0Zm-12.153,0a1.005,1.005,0,1,1,1.005,1.005,1.018,1.018,0,0,1-1.02-1.005h0Zm-2.026,0a1.005,1.005,0,1,1,1.005,1.005h0a1.018,1.018,0,0,1-1.02-1.005h0Zm99.236-2.026a1.005,1.005,0,1,1,1.005,1.005,1.018,1.018,0,0,1-1.02-1.005h0Zm-2.026,0a1.005,1.005,0,1,1,1.005,1.005,1.018,1.018,0,0,1-1.02-1.005h0Zm-2.025,0a1.005,1.005,0,1,1,1.005,1.005,1.018,1.018,0,0,1-1.02-1.005h0Zm-2.026,0a1.005,1.005,0,1,1,1.005,1.005,1.018,1.018,0,0,1-1.02-1.005h0Zm-2.026,0a1.005,1.005,0,1,1,1.005,1.005,1.018,1.018,0,0,1-1.02-1.005h0Zm-4.051,0a1.005,1.005,0,1,1,1.005,1.005,1.018,1.018,0,0,1-1.02-1.005h0Zm-2.026,0a1.005,1.005,0,1,1,1.005,1.005,1.018,1.018,0,0,1-1.02-1.005h0Zm-4.051,0a1.005,1.005,0,1,1,1.005,1.005,1.018,1.018,0,0,1-1.02-1.005h0Zm-12.153,0a1.013,1.013,0,1,1-.015,0h0Zm-2.026,0a1.005,1.005,0,1,1,1.005,1.005,1.018,1.018,0,0,1-1.02-1.005h0Zm-2.025,0a1.005,1.005,0,1,1,1.005,1.005,1.018,1.018,0,0,1-1.02-1.005h0Zm-2.026,0a1.005,1.005,0,1,1,1.005,1.005,1.018,1.018,0,0,1-1.02-1.005h0Zm-4.051,0a1.005,1.005,0,1,1,1.005,1.005,1.018,1.018,0,0,1-1.02-1.005h0Zm-10.128,0a1.005,1.005,0,1,1,1.005,1.005,1.018,1.018,0,0,1-1.02-1.005h0Zm-2.026,0a1.005,1.005,0,1,1,1.005,1.005,1.018,1.018,0,0,1-1.02-1.005h0Zm-4.051,0a1.005,1.005,0,1,1,1.005,1.005,1.018,1.018,0,0,1-1.02-1.005h0Zm-6.062,0a1.005,1.005,0,1,1,1.005,1.005,1.018,1.018,0,0,1-1.02-1.005h0Zm-8.1,0a1.005,1.005,0,1,1,1.005,1.005,1.018,1.018,0,0,1-1.02-1.005h0Zm-2.026,0a1.005,1.005,0,1,1,1.005,1.005,1.018,1.018,0,0,1-1.02-1.005h0Zm-6.077,0a1.005,1.005,0,1,1,1.005,1.005,1.018,1.018,0,0,1-1.02-1.005h0Zm-2.026,0a1.013,1.013,0,1,1-.015,0h0Zm-2.026,0a1.005,1.005,0,1,1,1.005,1.005,1.018,1.018,0,0,1-1.02-1.005h0Zm-2.026,0a1.005,1.005,0,1,1,1.005,1.005,1.018,1.018,0,0,1-1.02-1.005h0Zm-4.051,0a1.005,1.005,0,1,1,1.005,1.005,1.018,1.018,0,0,1-1.02-1.005h0Zm-6.077,0a1.005,1.005,0,1,1,1.005,1.005,1.018,1.018,0,0,1-1.02-1.005h0Zm-2.026,0a1.005,1.005,0,1,1,1.005,1.005,1.018,1.018,0,0,1-1.02-1.005h0Zm-2.026,0a1.005,1.005,0,1,1,1.005,1.005h0a1.018,1.018,0,0,1-1.02-1.005h0Zm-2.026,0a1.005,1.005,0,1,1,1.005,1.005,1.018,1.018,0,0,1-1.02-1.005h0Zm105.313-2.026a1.005,1.005,0,1,1,1.005,1.005,1.018,1.018,0,0,1-1.02-1.005h0Zm-4.051,0a1.005,1.005,0,1,1,1.005,1.005,1.018,1.018,0,0,1-1.02-1.005h0Zm-4.051,0a1.005,1.005,0,1,1,1.005,1.005,1.018,1.018,0,0,1-1.02-1.005h0Zm-2.026,0a1.005,1.005,0,1,1,1.005,1.005,1.018,1.018,0,0,1-1.02-1.005h0Zm-2.026,0a1.005,1.005,0,1,1,1.005,1.005,1.018,1.018,0,0,1-1.02-1.005h0Zm-4.051,0a1.005,1.005,0,1,1,1.005,1.005,1.018,1.018,0,0,1-1.02-1.005h0Zm-2.026,0a1.005,1.005,0,1,1,1.005,1.005,1.018,1.018,0,0,1-1.02-1.005h0Zm-6.077,0a1.005,1.005,0,1,1,1.005,1.005,1.018,1.018,0,0,1-1.02-1.005h0Zm-2.026,0a1.005,1.005,0,1,1,1.005,1.005,1.018,1.018,0,0,1-1.02-1.005h0Zm-4.051,0a1.005,1.005,0,1,1,1.005,1.005,1.018,1.018,0,0,1-1.02-1.005h0Zm-8.1,0a1.005,1.005,0,1,1,1.005,1.005,1.018,1.018,0,0,1-1.02-1.005h0Zm-2.026,0a1.005,1.005,0,1,1,1.005,1.005,1.018,1.018,0,0,1-1.02-1.005h0Zm-4.051,0a1.005,1.005,0,1,1,1.005,1.005,1.018,1.018,0,0,1-1.02-1.005h0Zm-4.051,0a1.005,1.005,0,1,1,1.005,1.005,1.018,1.018,0,0,1-1.02-1.005h0Zm-2.026,0a1.005,1.005,0,1,1,1.005,1.005,1.018,1.018,0,0,1-1.02-1.005h0Zm-2.026,0a1.005,1.005,0,1,1,1.005,1.005,1.018,1.018,0,0,1-1.02-1.005h0Zm-2.026,0a1.005,1.005,0,1,1,1.005,1.005,1.018,1.018,0,0,1-1.02-1.005h0Zm-2.026,0a1.005,1.005,0,1,1,1.005,1.005,1.018,1.018,0,0,1-1.02-1.005h0Zm-4.036,0a1.005,1.005,0,1,1,1.005,1.005,1.018,1.018,0,0,1-1.02-1.005h0Zm-4.051,0a1.005,1.005,0,1,1,1.005,1.005,1.018,1.018,0,0,1-1.02-1.005h0Zm-6.077,0a1.005,1.005,0,1,1,1.005,1.005,1.018,1.018,0,0,1-1.02-1.005h0Zm-2.026,0a1.005,1.005,0,1,1,1.005,1.005,1.018,1.018,0,0,1-1.02-1.005h0Zm-10.128,0a1.005,1.005,0,1,1,1.005,1.005,1.018,1.018,0,0,1-1.02-1.005h0Zm-2.026,0a1.013,1.013,0,1,1-.015,0h0Zm-2.026,0a1.005,1.005,0,1,1,1.005,1.005,1.018,1.018,0,0,1-1.02-1.005h0Zm-2.026,0a1.005,1.005,0,1,1,1.005,1.005,1.018,1.018,0,0,1-1.02-1.005h0Zm-2.026,0a1.005,1.005,0,1,1,1.005,1.005,1.018,1.018,0,0,1-1.02-1.005h0Zm-4.051,0a1.005,1.005,0,1,1,1.005,1.005,1.018,1.018,0,0,1-1.02-1.005h0Zm-2.026,0a1.005,1.005,0,1,1,1.005,1.005,1.018,1.018,0,0,1-1.02-1.005h0Zm-2.026,0a1.005,1.005,0,1,1,1.005,1.005,1.018,1.018,0,0,1-1.02-1.005h0Zm-6.077,0a1.005,1.005,0,1,1,1.005,1.005,1.018,1.018,0,0,1-1.02-1.005h0Zm103.272-2.026a1.005,1.005,0,1,1,1.005,1.005A1.005,1.005,0,0,1,662.408,249.335Zm-2.025,0a1.005,1.005,0,1,1,1.005,1.005A1.005,1.005,0,0,1,660.383,249.335Zm-2.026,0a1.005,1.005,0,1,1,1.005,1.005A1.005,1.005,0,0,1,658.357,249.335Zm-4.051,0a1.005,1.005,0,1,1,1.005,1.005A1.005,1.005,0,0,1,654.306,249.335Zm-4.051,0a1.005,1.005,0,1,1,1.005,1.005A1.005,1.005,0,0,1,650.255,249.335Zm-2.026,0a1.005,1.005,0,1,1,1.005,1.005A1.005,1.005,0,0,1,648.229,249.335Zm-6.062,0a1.005,1.005,0,1,1,1.005,1.005A1.005,1.005,0,0,1,642.168,249.335Zm-4.051,0a1.005,1.005,0,1,1,1.005,1.005A1.005,1.005,0,0,1,638.117,249.335Zm-4.051,0a1.005,1.005,0,1,1,1.005,1.005,1.018,1.018,0,0,1-1.02-1.005h0Zm-4.051,0a1.005,1.005,0,1,1,1.005,1.005,1.018,1.018,0,0,1-1.02-1.005h0Zm-2.026,0a1.005,1.005,0,1,1,1.005,1.005,1.018,1.018,0,0,1-1.02-1.005h0Zm-2.025,0a1.005,1.005,0,1,1,1.005,1.005,1.018,1.018,0,0,1-1.02-1.005h0Zm-2.026,0a1.005,1.005,0,1,1,1.005,1.005A1.005,1.005,0,0,1,623.938,249.335Zm-2.026,0a1.005,1.005,0,1,1,1.005,1.005,1.018,1.018,0,0,1-1.02-1.005h0Zm-2.026,0a1.005,1.005,0,1,1,1.005,1.005,1.018,1.018,0,0,1-1.02-1.005h0Zm-4.051,0a1.005,1.005,0,1,1,1.005,1.005,1.018,1.018,0,0,1-1.02-1.005h0Zm-2.026,0a1.005,1.005,0,1,1,1.005,1.005,1.018,1.018,0,0,1-1.02-1.005h0Zm-2.026,0a1.005,1.005,0,1,1,1.005,1.005,1.018,1.018,0,0,1-1.02-1.005h0Zm-2.026,0a1.005,1.005,0,1,1,1.005,1.005,1.018,1.018,0,0,1-1.02-1.005h0Zm-2.026,0a1.005,1.005,0,1,1,1.005,1.005,1.018,1.018,0,0,1-1.02-1.005h0Zm-4.051,0a1.005,1.005,0,1,1,1.005,1.005,1.018,1.018,0,0,1-1.02-1.005h0Zm-2.026,0a1.005,1.005,0,1,1,1.005,1.005,1.018,1.018,0,0,1-1.02-1.005h0Zm-2.026,0a1.005,1.005,0,1,1,1.005,1.005,1.018,1.018,0,0,1-1.02-1.005h0Zm-10.113,0a1.005,1.005,0,1,1,1.005,1.005,1.018,1.018,0,0,1-1.02-1.005h0Zm-2.026,0a1.005,1.005,0,1,1,1.005,1.005,1.018,1.018,0,0,1-1.02-1.005h0Zm-2.026,0a1.005,1.005,0,1,1,1.005,1.005,1.018,1.018,0,0,1-1.02-1.005h0Zm-2.026,0a1.005,1.005,0,1,1,1.005,1.005,1.018,1.018,0,0,1-1.02-1.005h0Zm-2.025,0a1.005,1.005,0,1,1,1.005,1.005,1.018,1.018,0,0,1-1.02-1.005h0Zm-2.026,0a1.005,1.005,0,1,1,1.005,1.005,1.018,1.018,0,0,1-1.02-1.005h0Zm-8.1,0a1.005,1.005,0,1,1,1.005,1.005,1.018,1.018,0,0,1-1.02-1.005h0Zm-8.1,0a1.005,1.005,0,1,1,1.005,1.005,1.018,1.018,0,0,1-1.02-1.005h0Zm-2.026,0a1.005,1.005,0,1,1,1.005,1.005h0a1.018,1.018,0,0,1-1.02-1.005h0Zm87.083-2.026a1.005,1.005,0,1,1,1.005,1.005,1.018,1.018,0,0,1-1.02-1.005h0Zm-4.051,0a1.005,1.005,0,1,1,1.005,1.005,1.018,1.018,0,0,1-1.02-1.005h0Zm-6.077,0a1.005,1.005,0,1,1,1.005,1.005,1.018,1.018,0,0,1-1.02-1.005h0Zm-2.026,0a1.005,1.005,0,1,1,1.005,1.005,1.018,1.018,0,0,1-1.02-1.005h0Zm-4.051,0a1.005,1.005,0,1,1,1.005,1.005,1.018,1.018,0,0,1-1.02-1.005h0Zm-2.026,0a1.005,1.005,0,1,1,1.005,1.005A1.018,1.018,0,0,1,630,247.31h0Zm-4.051,0a1.005,1.005,0,1,1,1.005,1.005,1.018,1.018,0,0,1-1.02-1.005h0Zm-2.026,0a1.005,1.005,0,1,1,1.005,1.005,1.018,1.018,0,0,1-1.02-1.005h0Zm-6.077,0a1.005,1.005,0,1,1,1.005,1.005,1.018,1.018,0,0,1-1.02-1.005h0Zm-2.026,0a1.005,1.005,0,1,1,1.005,1.005,1.018,1.018,0,0,1-1.02-1.005h0Zm-8.1,0a1.005,1.005,0,1,1,1.005,1.005,1.018,1.018,0,0,1-1.02-1.005h0Zm-8.1,0a1.005,1.005,0,1,1,1.005,1.005,1.018,1.018,0,0,1-1.02-1.005h0Zm-6.062,0a1.005,1.005,0,1,1,1.005,1.005,1.018,1.018,0,0,1-1.02-1.005h0Zm-4.051,0a1.005,1.005,0,1,1,1.005,1.005,1.018,1.018,0,0,1-1.02-1.005h0Zm-4.051,0a1.005,1.005,0,1,1,1.005,1.005,1.018,1.018,0,0,1-1.02-1.005h0Zm-6.077,0a1.005,1.005,0,1,1,1.005,1.005,1.018,1.018,0,0,1-1.02-1.005h0Zm79.986-.99a7.082,7.082,0,1,1,7.082-7.082h0a7.088,7.088,0,0,1-7.082,7.1h0Zm0-12.183a5.064,5.064,0,1,0,5.071,5.071h0a5.052,5.052,0,0,0-5.056-5.071h0Zm-11.148,11.148a1.005,1.005,0,1,1,1.005,1.005A1.005,1.005,0,0,1,648.229,245.284Zm-4.051,0a1.005,1.005,0,1,1,1.005,1.005A1.005,1.005,0,0,1,644.178,245.284Zm-4.036,0a1.005,1.005,0,1,1,1.005,1.005A1.005,1.005,0,0,1,640.142,245.284Zm-4.051,0a1.005,1.005,0,1,1,1.005,1.005A1.005,1.005,0,0,1,636.091,245.284Zm-4.051,0a1.005,1.005,0,1,1,1.005,1.005,1.018,1.018,0,0,1-1.02-1.005h0Zm-4.051,0a1.005,1.005,0,1,1,1.005,1.005,1.018,1.018,0,0,1-1.02-1.005h0Zm-4.051,0a1.005,1.005,0,1,1,1.005,1.005,1.005,1.005,0,0,1-1.005-1.005Zm-4.051,0a1.005,1.005,0,1,1,1.005,1.005,1.018,1.018,0,0,1-1.02-1.005h0Zm-4.051,0a1.005,1.005,0,1,1,1.005,1.005,1.018,1.018,0,0,1-1.02-1.005h0Zm-4.051,0a1.005,1.005,0,1,1,1.005,1.005,1.018,1.018,0,0,1-1.02-1.005h0Zm-4.051,0a1.005,1.005,0,1,1,1.005,1.005,1.018,1.018,0,0,1-1.02-1.005h0Zm-4.051,0a1.005,1.005,0,1,1,1.005,1.005,1.018,1.018,0,0,1-1.02-1.005h0Zm-4.051,0a1.005,1.005,0,1,1,1.005,1.005,1.018,1.018,0,0,1-1.02-1.005h0Zm-4.051,0a1.005,1.005,0,1,1,1.005,1.005,1.018,1.018,0,0,1-1.02-1.005h0Zm-4.051,0a1.005,1.005,0,1,1,1.005,1.005,1.018,1.018,0,0,1-1.02-1.005h0Zm-4.051,0a1.005,1.005,0,1,1,1.005,1.005,1.018,1.018,0,0,1-1.02-1.005h0Zm-4.051,0a1.005,1.005,0,1,1,1.005,1.005,1.018,1.018,0,0,1-1.02-1.005h0Zm-4.051,0a1.005,1.005,0,1,1,1.005,1.005,1.018,1.018,0,0,1-1.02-1.005h0Zm-4.036,0a1.005,1.005,0,1,1,1.005,1.005,1.018,1.018,0,0,1-1.02-1.005h0Zm-16.2-6.062a7.1,7.1,0,0,1,7.082-7.1h.015a7.089,7.089,0,1,1-7.1,7.1Zm2.011,0a5.064,5.064,0,1,0,5.071-5.071H566.2A5.071,5.071,0,0,0,561.147,239.223Zm83.032,4.036a1.005,1.005,0,1,1,1.005,1.005A1.005,1.005,0,0,1,644.178,243.259Zm-6.062,0a1.005,1.005,0,1,1,1.005,1.005A1.005,1.005,0,0,1,638.117,243.259Zm-2.026,0a1.005,1.005,0,1,1,1.005,1.005A1.005,1.005,0,0,1,636.091,243.259Zm-4.051,0a1.005,1.005,0,1,1,1.005,1.005,1.018,1.018,0,0,1-1.02-1.005h0Zm-2.026,0a1.005,1.005,0,1,1,1.005,1.005,1.018,1.018,0,0,1-1.02-1.005h0Zm-2.026,0a1.005,1.005,0,1,1,1.005,1.005,1.018,1.018,0,0,1-1.02-1.005h0Zm-4.051,0a1.005,1.005,0,1,1,1.005,1.005,1.005,1.005,0,0,1-1.005-1.005Zm-6.077,0a1.005,1.005,0,1,1,1.005,1.005,1.018,1.018,0,0,1-1.02-1.005h0Zm-2.026,0a1.005,1.005,0,1,1,1.005,1.005,1.018,1.018,0,0,1-1.02-1.005h0Zm-8.1,0a1.005,1.005,0,1,1,1.005,1.005,1.018,1.018,0,0,1-1.02-1.005h0Zm-12.153,0a1.005,1.005,0,1,1,1.005,1.005,1.018,1.018,0,0,1-1.02-1.005h0Zm-2.026,0a1.005,1.005,0,1,1,1.005,1.005,1.018,1.018,0,0,1-1.02-1.005h0Zm-2.026,0a1.005,1.005,0,1,1,1.005,1.005,1.018,1.018,0,0,1-1.02-1.005h0Zm-2.026,0a1.005,1.005,0,1,1,1.005,1.005,1.018,1.018,0,0,1-1.02-1.005h0Zm-2.026,0a1.005,1.005,0,1,1,1.005,1.005,1.018,1.018,0,0,1-1.02-1.005h0Zm-10.128,0a1.005,1.005,0,1,1,1.005,1.005,1.018,1.018,0,0,1-1.02-1.005h0Zm-2.011,0a1.005,1.005,0,1,1,1.005,1.005,1.018,1.018,0,0,1-1.02-1.005h0Zm80.991-4.051a3.031,3.031,0,1,1,3.031,3.031A3.032,3.032,0,0,1,656.331,239.207Zm-12.153,2.026a1.005,1.005,0,1,1,1.005,1.005A1.005,1.005,0,0,1,644.178,241.233Zm-4.036,0a1.005,1.005,0,1,1,1.005,1.005A1.005,1.005,0,0,1,640.142,241.233Zm-2.026,0a1.005,1.005,0,1,1,1.005,1.005A1.005,1.005,0,0,1,638.117,241.233Zm-2.026,0a1.005,1.005,0,1,1,1.005,1.005A1.005,1.005,0,0,1,636.091,241.233Zm-8.1,0a1.005,1.005,0,1,1,1.005,1.005,1.018,1.018,0,0,1-1.02-1.005h0Zm-2.025,0a1.005,1.005,0,1,1,1.005,1.005,1.018,1.018,0,0,1-1.02-1.005h0Zm-2.026,0a1.005,1.005,0,1,1,1.005,1.005,1.005,1.005,0,0,1-1.005-1.005Zm-8.1,0a1.005,1.005,0,1,1,1.005,1.005,1.018,1.018,0,0,1-1.02-1.005h0Zm-2.026,0a1.005,1.005,0,1,1,1.005,1.005,1.018,1.018,0,0,1-1.02-1.005h0Zm-2.026,0a1.005,1.005,0,1,1,1.005,1.005,1.018,1.018,0,0,1-1.02-1.005h0Zm-2.026,0a1.005,1.005,0,1,1,1.005,1.005,1.018,1.018,0,0,1-1.02-1.005h0Zm-2.026,0a1.005,1.005,0,1,1,1.005,1.005,1.018,1.018,0,0,1-1.02-1.005h0Zm-4.051,0a1.005,1.005,0,1,1,1.005,1.005,1.018,1.018,0,0,1-1.02-1.005h0Zm-2.026,0a1.005,1.005,0,1,1,1.005,1.005,1.018,1.018,0,0,1-1.02-1.005h0Zm-2.026,0a1.005,1.005,0,1,1,1.005,1.005,1.018,1.018,0,0,1-1.02-1.005h0Zm-12.153,0a1.005,1.005,0,1,1,1.005,1.005,1.018,1.018,0,0,1-1.02-1.005h0Zm-2.026,0a1.005,1.005,0,1,1,1.005,1.005,1.018,1.018,0,0,1-1.02-1.005h0Zm-6.077,0a1.005,1.005,0,1,1,1.005,1.005,1.018,1.018,0,0,1-1.02-1.005h0Zm-2.026,0a1.005,1.005,0,1,1,1.005,1.005,1.018,1.018,0,0,1-1.02-1.005h0Zm-14.164-2.026a3.031,3.031,0,1,1,3.031,3.031A3.032,3.032,0,0,1,563.187,239.207Zm85.042,0a1.005,1.005,0,1,1,1.005,1.005A1.005,1.005,0,0,1,648.229,239.207Zm-4.051,0a1.005,1.005,0,1,1,1.005,1.005A1.005,1.005,0,0,1,644.178,239.207Zm-2.01,0a1.005,1.005,0,1,1,1.005,1.005A1.005,1.005,0,0,1,642.168,239.207Zm-2.026,0a1.005,1.005,0,1,1,1.005,1.005A1.005,1.005,0,0,1,640.142,239.207Zm-2.026,0a1.005,1.005,0,1,1,1.005,1.005A1.005,1.005,0,0,1,638.117,239.207Zm-4.051,0a1.005,1.005,0,1,1,1.005,1.005,1.018,1.018,0,0,1-1.02-1.005h0Zm-2.026,0a1.005,1.005,0,1,1,1.005,1.005,1.018,1.018,0,0,1-1.02-1.005h0Zm-10.128,0a1.005,1.005,0,1,1,1.005,1.005,1.018,1.018,0,0,1-1.02-1.005h0Zm-2.026,0a1.005,1.005,0,1,1,1.005,1.005,1.018,1.018,0,0,1-1.02-1.005h0Zm-6.077,0a1.005,1.005,0,1,1,1.005,1.005,1.018,1.018,0,0,1-1.02-1.005h0Zm-4.051,0a1.005,1.005,0,1,1,1.005,1.005,1.018,1.018,0,0,1-1.02-1.005h0Zm-2.026,0a1.005,1.005,0,1,1,1.005,1.005,1.018,1.018,0,0,1-1.02-1.005h0Zm-12.153,0a1.005,1.005,0,1,1,1.005,1.005,1.018,1.018,0,0,1-1.02-1.005h0Zm-2.026,0a1.005,1.005,0,1,1,1.005,1.005,1.018,1.018,0,0,1-1.02-1.005h0Zm-4.051,0a1.005,1.005,0,1,1,1.005,1.005,1.018,1.018,0,0,1-1.02-1.005h0Zm-4.051,0a1.005,1.005,0,1,1,1.005,1.005,1.018,1.018,0,0,1-1.02-1.005h0Zm-10.113,0a1.005,1.005,0,1,1,1.005,1.005,1.018,1.018,0,0,1-1.02-1.005h0ZM646.2,237.2a1.005,1.005,0,1,1,1.005,1.005A1.005,1.005,0,0,1,646.2,237.2Zm-4.036,0a1.005,1.005,0,1,1,1.005,1.005A1.005,1.005,0,0,1,642.168,237.2Zm-2.026,0a1.005,1.005,0,1,1,1.005,1.005,1.005,1.005,0,0,1-1.005-1.005Zm-4.051,0A1.005,1.005,0,1,1,637.1,238.2a1.005,1.005,0,0,1-1.005-1.005Zm-2.026,0a1.005,1.005,0,1,1,1.005,1.005,1.018,1.018,0,0,1-1.02-1.005h0Zm-2.026,0a1.005,1.005,0,1,1,1.005,1.005,1.018,1.018,0,0,1-1.02-1.005h0Zm-4.051,0a1.005,1.005,0,1,1,1.005,1.005,1.018,1.018,0,0,1-1.02-1.005h0Zm-4.051,0a1.005,1.005,0,1,1,1.005,1.005A1.005,1.005,0,0,1,623.938,237.2Zm-8.1,0a1.005,1.005,0,1,1,1.005,1.005,1.018,1.018,0,0,1-1.02-1.005h0Zm-2.026,0a1.005,1.005,0,1,1,1.005,1.005,1.018,1.018,0,0,1-1.02-1.005h0Zm-4.051,0a1.005,1.005,0,1,1,1.005,1.005,1.018,1.018,0,0,1-1.02-1.005h0Zm-8.1,0a1.005,1.005,0,1,1,1.005,1.005,1.018,1.018,0,0,1-1.02-1.005h0Zm-8.1,0a1.005,1.005,0,1,1,1.005,1.005,1.018,1.018,0,0,1-1.02-1.005h0Zm-4.036,0a1.005,1.005,0,1,1,1.005,1.005,1.018,1.018,0,0,1-1.02-1.005h0Zm-2.026,0A1.005,1.005,0,1,1,588.5,238.2a1.018,1.018,0,0,1-1.02-1.005h0Zm-2.026,0a1.005,1.005,0,1,1,1.005,1.005,1.018,1.018,0,0,1-1.02-1.005h0Zm-2.026,0a1.005,1.005,0,1,1,1.005,1.005,1.018,1.018,0,0,1-1.02-1.005h0Zm-2.025,0a1.005,1.005,0,1,1,1.005,1.005,1.018,1.018,0,0,1-1.02-1.005h0Zm-2.026,0A1.005,1.005,0,1,1,580.4,238.2a1.018,1.018,0,0,1-1.02-1.005h0Zm-4.051,0a1.005,1.005,0,1,1,1.005,1.005,1.018,1.018,0,0,1-1.02-1.005h0Zm70.864-2.026a1.005,1.005,0,1,1,1.005,1.005A1.005,1.005,0,0,1,646.2,235.171Zm-2.026,0a1.005,1.005,0,1,1,1.005,1.005A1.005,1.005,0,0,1,644.178,235.171Zm-2.01,0a1.005,1.005,0,1,1,1.005,1.005A1.005,1.005,0,0,1,642.168,235.171Zm-6.077,0a1.005,1.005,0,1,1,1.005,1.005A1.005,1.005,0,0,1,636.091,235.171Zm-6.092,0A1.005,1.005,0,1,1,631,236.177,1.005,1.005,0,0,1,630,235.171Zm-4.036,0a1.005,1.005,0,1,1,1.005,1.005A1.005,1.005,0,0,1,625.964,235.171Zm-2.026,0a1.005,1.005,0,1,1,1.005,1.005A1.005,1.005,0,0,1,623.938,235.171Zm-2.026,0a1.005,1.005,0,1,1,1.005,1.005A1.005,1.005,0,0,1,621.912,235.171Zm-8.1,0a1.005,1.005,0,1,1,1.005,1.005A1.005,1.005,0,0,1,613.81,235.171Zm-2.026,0a1.005,1.005,0,1,1,1.005,1.005A1.005,1.005,0,0,1,611.785,235.171Zm-2.026,0a1.005,1.005,0,1,1,1.005,1.005A1.005,1.005,0,0,1,609.759,235.171Zm-2.026,0a1.005,1.005,0,1,1,1.005,1.005A1.005,1.005,0,0,1,607.734,235.171Zm-2.026,0a1.005,1.005,0,1,1,1.005,1.005A1.005,1.005,0,0,1,605.708,235.171Zm-10.128,0a1.005,1.005,0,1,1,1.005,1.005A1.005,1.005,0,0,1,595.581,235.171Zm-8.1,0a1.005,1.005,0,1,1,1.005,1.005A1.005,1.005,0,0,1,587.478,235.171Zm-2.026,0a1.005,1.005,0,1,1,1.005,1.005A1.005,1.005,0,0,1,585.453,235.171Zm-2.026,0a1.005,1.005,0,1,1,1.005,1.005A1.005,1.005,0,0,1,583.427,235.171Zm-8.1,0a1.005,1.005,0,1,1,1.005,1.005A1.005,1.005,0,0,1,575.325,235.171Zm68.853-2.026a1.005,1.005,0,1,1,1.005,1.005A1.005,1.005,0,0,1,644.178,233.146Zm-4.036,0a1.005,1.005,0,1,1,1.005,1.005A1.005,1.005,0,0,1,640.142,233.146Zm-6.077,0a1.005,1.005,0,1,1,1.005,1.005,1.018,1.018,0,0,1-1.02-1.005h0Zm-2.026,0a1.005,1.005,0,1,1,1.005,1.005,1.018,1.018,0,0,1-1.02-1.005h0Zm-4.051,0a1.005,1.005,0,1,1,1.005,1.005,1.018,1.018,0,0,1-1.02-1.005h0Zm-6.077,0a1.005,1.005,0,1,1,1.005,1.005,1.018,1.018,0,0,1-1.02-1.005h0Zm-4.051,0a1.005,1.005,0,1,1,1.005,1.005,1.018,1.018,0,0,1-1.02-1.005h0Zm-2.026,0a1.005,1.005,0,1,1,1.005,1.005,1.018,1.018,0,0,1-1.02-1.005h0Zm-10.128,0a1.005,1.005,0,1,1,1.005,1.005,1.018,1.018,0,0,1-1.02-1.005h0Zm-2.026,0a1.005,1.005,0,1,1,1.005,1.005,1.018,1.018,0,0,1-1.02-1.005h0Zm-4.051,0a1.005,1.005,0,1,1,1.005,1.005,1.018,1.018,0,0,1-1.02-1.005h0Zm-2.026,0a1.005,1.005,0,1,1,1.005,1.005,1.018,1.018,0,0,1-1.02-1.005h0Zm-10.128,0a1.005,1.005,0,1,1,1.005,1.005,1.018,1.018,0,0,1-1.02-1.005h0Zm-4.051,0a1.005,1.005,0,1,1,1.005,1.005,1.018,1.018,0,0,1-1.02-1.005h0Zm-2.026,0a1.005,1.005,0,1,1,1.005,1.005,1.018,1.018,0,0,1-1.02-1.005h0Zm-2.026,0a1.005,1.005,0,1,1,1.005,1.005,1.018,1.018,0,0,1-1.02-1.005h0Zm-2.026,0a1.005,1.005,0,1,1,1.005,1.005,1.018,1.018,0,0,1-1.02-1.005h0Z" fill="none"/>
    </clipPath>
  </defs>
  <g id="QR2" transform="translate(-556.66 -229.65)">
    <rect id="Rectngulo_1270" data-name="Rectngulo 1270" width="112.499" height="150.499" transform="translate(556.66 229.65)" fill="#fff"/>
    <g id="Grupo_2574" data-name="Grupo 2574" clip-path="url(#clip-path)">
      <rect id="Rectngulo_1271" data-name="Rectngulo 1271" width="112.499" height="112.499" transform="translate(556.66 229.65)"/>
    </g>
  </g>
</svg>
