<svg xmlns="http://www.w3.org/2000/svg" xmlns:xlink="http://www.w3.org/1999/xlink" width="112.499" height="124.499" viewBox="0 0 112.499 124.499">
  <defs>
    <clipPath id="clip-path">
      <path id="Trazado_1896" data-name="Trazado 1896" d="M643.5,607.689a1.8,1.8,0,1,1,1.8,1.8A1.806,1.806,0,0,1,643.5,607.689Zm-7.187,0a1.8,1.8,0,1,1,1.8,1.8A1.806,1.806,0,0,1,636.316,607.689Zm-3.6,0a1.8,1.8,0,1,1,1.8,1.8A1.806,1.806,0,0,1,632.715,607.689Zm-10.8,0a1.8,1.8,0,1,1,1.8,1.8A1.806,1.806,0,0,1,621.912,607.689Zm-3.6,0a1.8,1.8,0,1,1,1.8,1.8,1.806,1.806,0,0,1-1.8-1.8Zm-10.8,0a1.8,1.8,0,1,1,1.8,1.8,1.806,1.806,0,0,1-1.8-1.8Zm-3.6,0a1.8,1.8,0,1,1,1.8,1.8A1.806,1.806,0,0,1,603.908,607.689Zm-10.8,0a1.8,1.8,0,1,1,1.8,1.8,1.806,1.806,0,0,1-1.8-1.8Zm-3.6,0a1.8,1.8,0,1,1,1.8,1.8A1.806,1.806,0,0,1,589.5,607.689Zm-28.792-10.8h0a12.6,12.6,0,1,1,0,.015Zm3.6,0h0a9,9,0,1,0,9.017-8.987h0a9,9,0,0,0-9,8.987Zm93.594,7.2a1.8,1.8,0,1,1,1.8,1.8A1.806,1.806,0,0,1,657.907,604.088Zm-3.6,0a1.8,1.8,0,1,1,1.8,1.8A1.806,1.806,0,0,1,654.306,604.088Zm-7.2,0a1.8,1.8,0,1,1,1.8,1.8A1.806,1.806,0,0,1,647.1,604.088Zm-10.788,0a1.8,1.8,0,1,1,1.8,1.8A1.806,1.806,0,0,1,636.316,604.088Zm-3.6,0a1.8,1.8,0,1,1,1.8,1.8A1.806,1.806,0,0,1,632.715,604.088Zm-3.6,0a1.8,1.8,0,1,1,1.8,1.8A1.806,1.806,0,0,1,629.114,604.088Zm-7.2,0a1.8,1.8,0,1,1,1.8,1.8A1.806,1.806,0,0,1,621.912,604.088Zm-7.2,0a1.8,1.8,0,1,1,1.8,1.8A1.806,1.806,0,0,1,614.711,604.088Zm-3.6,0a1.8,1.8,0,1,1,1.8,1.8A1.806,1.806,0,0,1,611.11,604.088Zm-3.6,0a1.8,1.8,0,1,1,1.8,1.8,1.806,1.806,0,0,1-1.8-1.8Zm-3.6,0a1.8,1.8,0,1,1,1.8,1.8A1.806,1.806,0,0,1,603.908,604.088Zm-3.6,0a1.8,1.8,0,1,1,1.8,1.8A1.806,1.806,0,0,1,600.307,604.088Zm61.2-3.6a1.8,1.8,0,1,1,1.8,1.8,1.806,1.806,0,0,1-1.8-1.8Zm-7.2,0a1.8,1.8,0,1,1,1.8,1.8A1.806,1.806,0,0,1,654.306,600.487Zm-7.2,0a1.8,1.8,0,1,1,1.8,1.8A1.806,1.806,0,0,1,647.1,600.487Zm-14.389,0a1.8,1.8,0,1,1,1.8,1.8A1.806,1.806,0,0,1,632.715,600.487Zm-14.4,0a1.8,1.8,0,1,1,1.8,1.8,1.806,1.806,0,0,1-1.8-1.8Zm-14.4,0a1.8,1.8,0,1,1,1.8,1.8A1.806,1.806,0,0,1,603.908,600.487Zm-7.2,0a1.8,1.8,0,1,1,1.8,1.8A1.806,1.806,0,0,1,596.706,600.487Zm-3.6,0a1.8,1.8,0,1,1,1.8,1.8,1.806,1.806,0,0,1-1.8-1.8Zm-25.192-3.6a5.4,5.4,0,1,1,5.4,5.4A5.4,5.4,0,0,1,567.913,596.886Zm89.993,0a1.8,1.8,0,1,1,1.8,1.8A1.806,1.806,0,0,1,657.907,596.886Zm-3.6,0a1.8,1.8,0,1,1,1.8,1.8A1.806,1.806,0,0,1,654.306,596.886Zm-3.6,0a1.8,1.8,0,1,1,1.8,1.8,1.806,1.806,0,0,1-1.8-1.8Zm-3.6,0a1.8,1.8,0,1,1,1.8,1.8A1.806,1.806,0,0,1,647.1,596.886Zm-3.6,0a1.8,1.8,0,1,1,1.8,1.8A1.806,1.806,0,0,1,643.5,596.886Zm-7.187,0a1.8,1.8,0,1,1,1.8,1.8h0A1.806,1.806,0,0,1,636.316,596.886Zm-7.2,0a1.8,1.8,0,1,1,1.8,1.8A1.806,1.806,0,0,1,629.114,596.886Zm-3.6,0a1.8,1.8,0,1,1,1.8,1.8A1.806,1.806,0,0,1,625.513,596.886Zm-7.2,0a1.8,1.8,0,1,1,1.8,1.8,1.806,1.806,0,0,1-1.8-1.8Zm-3.6,0a1.8,1.8,0,1,1,1.8,1.8A1.806,1.806,0,0,1,614.711,596.886Zm-7.2,0a1.8,1.8,0,1,1,1.8,1.8,1.806,1.806,0,0,1-1.8-1.8Zm-7.2,0a1.8,1.8,0,1,1,1.8,1.8A1.806,1.806,0,0,1,600.307,596.886Zm-3.6,0a1.8,1.8,0,1,1,1.8,1.8h0A1.806,1.806,0,0,1,596.706,596.886Zm-3.6,0a1.8,1.8,0,1,1,1.8,1.8A1.806,1.806,0,0,1,593.1,596.886Zm68.4-3.6a1.8,1.8,0,1,1,1.8,1.8,1.806,1.806,0,0,1-1.8-1.8Zm-3.6,0a1.8,1.8,0,1,1,1.8,1.8A1.806,1.806,0,0,1,657.907,593.285Zm-3.6,0a1.8,1.8,0,1,1,1.8,1.8A1.806,1.806,0,0,1,654.306,593.285Zm-7.2,0a1.8,1.8,0,1,1,1.8,1.8A1.806,1.806,0,0,1,647.1,593.285Zm-3.6,0a1.8,1.8,0,1,1,1.8,1.8A1.806,1.806,0,0,1,643.5,593.285Zm-3.6,0a1.8,1.8,0,1,1,1.8,1.8A1.806,1.806,0,0,1,639.9,593.285Zm-3.586,0a1.8,1.8,0,1,1,1.8,1.8A1.806,1.806,0,0,1,636.316,593.285Zm-3.6,0a1.8,1.8,0,1,1,1.8,1.8A1.806,1.806,0,0,1,632.715,593.285Zm-3.6,0a1.8,1.8,0,1,1,1.8,1.8A1.806,1.806,0,0,1,629.114,593.285Zm-3.6,0a1.8,1.8,0,1,1,1.8,1.8A1.806,1.806,0,0,1,625.513,593.285Zm-3.6,0a1.8,1.8,0,1,1,1.8,1.8A1.806,1.806,0,0,1,621.912,593.285Zm-7.2,0a1.8,1.8,0,1,1,1.8,1.8A1.806,1.806,0,0,1,614.711,593.285Zm-7.2,0a1.8,1.8,0,1,1,1.8,1.8,1.806,1.806,0,0,1-1.8-1.8Zm-14.4,0a1.8,1.8,0,1,1,1.8,1.8,1.806,1.806,0,0,1-1.8-1.8Zm-3.6,0a1.8,1.8,0,1,1,1.8,1.8A1.806,1.806,0,0,1,589.5,593.285Zm64.8-3.6a1.8,1.8,0,1,1,1.8,1.8A1.806,1.806,0,0,1,654.306,589.684Zm-3.6,0a1.8,1.8,0,1,1,1.8,1.8h0A1.806,1.806,0,0,1,650.705,589.684Zm-3.6,0a1.8,1.8,0,1,1,1.8,1.8A1.806,1.806,0,0,1,647.1,589.684Zm-14.389,0a1.8,1.8,0,1,1,1.8,1.8A1.806,1.806,0,0,1,632.715,589.684Zm-3.6,0a1.8,1.8,0,1,1,1.8,1.8A1.806,1.806,0,0,1,629.114,589.684Zm-3.6,0a1.8,1.8,0,1,1,1.8,1.8h0A1.806,1.806,0,0,1,625.513,589.684Zm-3.6,0a1.8,1.8,0,1,1,1.8,1.8A1.806,1.806,0,0,1,621.912,589.684Zm-10.8,0a1.8,1.8,0,1,1,1.8,1.8A1.806,1.806,0,0,1,611.11,589.684Zm-7.2,0a1.8,1.8,0,1,1,1.8,1.8A1.806,1.806,0,0,1,603.908,589.684Zm-3.6,0a1.8,1.8,0,1,1,1.8,1.8A1.806,1.806,0,0,1,600.307,589.684Zm-7.2,0a1.8,1.8,0,1,1,1.8,1.8,1.806,1.806,0,0,1-1.8-1.8Zm-3.6,0a1.8,1.8,0,1,1,1.8,1.8A1.806,1.806,0,0,1,589.5,589.684Zm64.8-3.6a1.8,1.8,0,1,1,1.8,1.8A1.806,1.806,0,0,1,654.306,586.083Zm-7.2,0a1.8,1.8,0,1,1,1.8,1.8A1.806,1.806,0,0,1,647.1,586.083Zm-7.2,0a1.8,1.8,0,1,1,1.8,1.8A1.806,1.806,0,0,1,639.9,586.083Zm-7.187,0a1.8,1.8,0,1,1,1.8,1.8A1.806,1.806,0,0,1,632.715,586.083Zm-3.6,0a1.8,1.8,0,1,1,1.8,1.8A1.806,1.806,0,0,1,629.114,586.083Zm-3.6,0a1.8,1.8,0,1,1,1.8,1.8A1.806,1.806,0,0,1,625.513,586.083Zm-3.6,0a1.8,1.8,0,1,1,1.8,1.8A1.806,1.806,0,0,1,621.912,586.083Zm-14.4,0a1.8,1.8,0,1,1,1.8,1.8,1.806,1.806,0,0,1-1.8-1.8Zm-7.2,0a1.8,1.8,0,1,1,1.8,1.8A1.806,1.806,0,0,1,600.307,586.083Zm-3.6,0a1.8,1.8,0,1,1,1.8,1.8A1.806,1.806,0,0,1,596.706,586.083Zm-3.6,0a1.8,1.8,0,1,1,1.8,1.8,1.806,1.806,0,0,1-1.8-1.8Zm64.8-3.6a1.8,1.8,0,1,1,1.8,1.8A1.806,1.806,0,0,1,657.907,582.482Zm-3.6,0a1.8,1.8,0,1,1,1.8,1.8A1.806,1.806,0,0,1,654.306,582.482Zm-3.6,0a1.8,1.8,0,1,1,1.8,1.8h0A1.806,1.806,0,0,1,650.705,582.482Zm-3.6,0a1.8,1.8,0,1,1,1.8,1.8A1.806,1.806,0,0,1,647.1,582.482Zm-14.389,0a1.8,1.8,0,1,1,1.8,1.8A1.806,1.806,0,0,1,632.715,582.482Zm-10.8,0a1.8,1.8,0,1,1,1.8,1.8A1.806,1.806,0,0,1,621.912,582.482Zm-7.2,0a1.8,1.8,0,1,1,1.8,1.8A1.806,1.806,0,0,1,614.711,582.482Zm-7.2,0a1.8,1.8,0,1,1,1.8,1.8,1.806,1.806,0,0,1-1.8-1.8Zm-3.6,0a1.8,1.8,0,1,1,1.8,1.8A1.806,1.806,0,0,1,603.908,582.482Zm-3.6,0a1.8,1.8,0,1,1,1.8,1.8A1.806,1.806,0,0,1,600.307,582.482Zm-3.6,0a1.8,1.8,0,1,1,1.8,1.8A1.806,1.806,0,0,1,596.706,582.482Zm-3.6,0a1.8,1.8,0,1,1,1.8,1.8,1.806,1.806,0,0,1-1.8-1.8Zm61.2-3.586a1.8,1.8,0,1,1,1.8,1.8A1.806,1.806,0,0,1,654.306,578.9Zm-3.6,0a1.8,1.8,0,1,1,1.8,1.8h0A1.806,1.806,0,0,1,650.705,578.9Zm-3.6,0a1.8,1.8,0,1,1,1.8,1.8A1.806,1.806,0,0,1,647.1,578.9Zm-3.6,0a1.8,1.8,0,1,1,1.8,1.8A1.806,1.806,0,0,1,643.5,578.9Zm-3.6,0a1.8,1.8,0,1,1,1.8,1.8A1.806,1.806,0,0,1,639.9,578.9Zm-3.586,0a1.8,1.8,0,1,1,1.8,1.8A1.806,1.806,0,0,1,636.316,578.9Zm-3.6,0a1.8,1.8,0,1,1,1.8,1.8A1.806,1.806,0,0,1,632.715,578.9Zm-3.6,0a1.8,1.8,0,1,1,1.8,1.8A1.806,1.806,0,0,1,629.114,578.9Zm-7.2,0a1.8,1.8,0,1,1,1.8,1.8A1.806,1.806,0,0,1,621.912,578.9Zm-7.2,0a1.8,1.8,0,1,1,1.8,1.8A1.806,1.806,0,0,1,614.711,578.9Zm-3.6,0a1.8,1.8,0,1,1,1.8,1.8A1.806,1.806,0,0,1,611.11,578.9Zm-3.6,0a1.8,1.8,0,1,1,1.8,1.8,1.806,1.806,0,0,1-1.8-1.8Zm-3.6,0a1.8,1.8,0,1,1,1.8,1.8A1.806,1.806,0,0,1,603.908,578.9Zm-7.2,0a1.8,1.8,0,1,1,1.8,1.8A1.806,1.806,0,0,1,596.706,578.9Zm-7.2,0a1.8,1.8,0,1,1,1.8,1.8A1.806,1.806,0,0,1,589.5,578.9Zm-3.6,0a1.8,1.8,0,1,1,1.8,1.8A1.806,1.806,0,0,1,585.9,578.9Zm-3.6,0a1.8,1.8,0,1,1,1.8,1.8A1.806,1.806,0,0,1,582.3,578.9Zm-3.6,0a1.8,1.8,0,1,1,1.8,1.8A1.806,1.806,0,0,1,578.7,578.9Zm-3.6,0a1.8,1.8,0,1,1,1.8,1.8A1.806,1.806,0,0,1,575.1,578.9Zm-3.6,0a1.8,1.8,0,1,1,1.8,1.8,1.806,1.806,0,0,1-1.8-1.8Zm-3.586,0a1.8,1.8,0,1,1,1.8,1.8A1.806,1.806,0,0,1,567.913,578.9Zm-7.2,0a1.8,1.8,0,1,1,1.8,1.8h0A1.806,1.806,0,0,1,560.711,578.9Zm93.594-3.6a1.8,1.8,0,1,1,1.8,1.8A1.806,1.806,0,0,1,654.306,575.3Zm-3.6,0a1.8,1.8,0,1,1,1.8,1.8h0A1.806,1.806,0,0,1,650.705,575.3Zm-7.2,0a1.8,1.8,0,1,1,1.8,1.8A1.806,1.806,0,0,1,643.5,575.3Zm-3.6,0a1.8,1.8,0,1,1,1.8,1.8A1.806,1.806,0,0,1,639.9,575.3Zm-3.586,0a1.8,1.8,0,1,1,1.8,1.8A1.806,1.806,0,0,1,636.316,575.3Zm-3.6,0a1.8,1.8,0,1,1,1.8,1.8A1.806,1.806,0,0,1,632.715,575.3Zm-3.6,0a1.8,1.8,0,1,1,1.8,1.8A1.806,1.806,0,0,1,629.114,575.3Zm-3.6,0a1.8,1.8,0,1,1,1.8,1.8h0A1.806,1.806,0,0,1,625.513,575.3Zm-10.8,0a1.8,1.8,0,1,1,1.8,1.8A1.806,1.806,0,0,1,614.711,575.3Zm-7.2,0a1.8,1.8,0,1,1,1.8,1.8,1.806,1.806,0,0,1-1.8-1.8Zm-21.606,0a1.8,1.8,0,1,1,1.8,1.8h0A1.806,1.806,0,0,1,585.9,575.3Zm-10.8,0a1.8,1.8,0,1,1,1.8,1.8A1.806,1.806,0,0,1,575.1,575.3Zm-3.6,0a1.8,1.8,0,1,1,1.8,1.8,1.806,1.806,0,0,1-1.8-1.8Zm-3.586,0a1.8,1.8,0,1,1,1.8,1.8A1.806,1.806,0,0,1,567.913,575.3Zm-3.6,0a1.8,1.8,0,1,1,1.8,1.8A1.806,1.806,0,0,1,564.312,575.3Zm97.2-3.6a1.8,1.8,0,1,1,1.8,1.8,1.806,1.806,0,0,1-1.8-1.8Zm-7.2,0a1.8,1.8,0,1,1,1.8,1.8A1.806,1.806,0,0,1,654.306,571.694Zm-7.2,0a1.8,1.8,0,1,1,1.8,1.8A1.806,1.806,0,0,1,647.1,571.694Zm-7.2,0a1.8,1.8,0,1,1,1.8,1.8A1.806,1.806,0,0,1,639.9,571.694Zm-3.586,0a1.8,1.8,0,1,1,1.8,1.8A1.806,1.806,0,0,1,636.316,571.694Zm-14.4,0a1.8,1.8,0,1,1,1.8,1.8A1.806,1.806,0,0,1,621.912,571.694Zm-7.2,0a1.8,1.8,0,1,1,1.8,1.8A1.806,1.806,0,0,1,614.711,571.694Zm-14.4,0a1.8,1.8,0,1,1,1.8,1.8A1.806,1.806,0,0,1,600.307,571.694Zm-10.8,0a1.8,1.8,0,1,1,1.8,1.8A1.806,1.806,0,0,1,589.5,571.694Zm-7.2,0a1.8,1.8,0,1,1,1.8,1.8A1.806,1.806,0,0,1,582.3,571.694Zm-3.6,0a1.8,1.8,0,1,1,1.8,1.8A1.806,1.806,0,0,1,578.7,571.694Zm-3.6,0a1.8,1.8,0,1,1,1.8,1.8A1.806,1.806,0,0,1,575.1,571.694Zm-3.6,0a1.8,1.8,0,1,1,1.8,1.8,1.806,1.806,0,0,1-1.8-1.8Zm-10.788,0a1.8,1.8,0,1,1,1.8,1.8h0A1.806,1.806,0,0,1,560.711,571.694Zm100.8-3.6a1.8,1.8,0,1,1,1.8,1.8,1.806,1.806,0,0,1-1.8-1.8Zm-7.2,0a1.8,1.8,0,1,1,1.8,1.8A1.806,1.806,0,0,1,654.306,568.093Zm-21.591,0a1.8,1.8,0,1,1,1.8,1.8A1.806,1.806,0,0,1,632.715,568.093Zm-18,0a1.8,1.8,0,1,1,1.8,1.8A1.806,1.806,0,0,1,614.711,568.093Zm-3.6,0a1.8,1.8,0,1,1,1.8,1.8A1.806,1.806,0,0,1,611.11,568.093Zm-3.6,0a1.8,1.8,0,1,1,1.8,1.8,1.806,1.806,0,0,1-1.8-1.8Zm-3.6,0a1.8,1.8,0,1,1,1.8,1.8A1.806,1.806,0,0,1,603.908,568.093Zm-7.2,0a1.8,1.8,0,1,1,1.8,1.8A1.806,1.806,0,0,1,596.706,568.093Zm-3.6,0a1.8,1.8,0,1,1,1.8,1.8,1.806,1.806,0,0,1-1.8-1.8Zm-21.606,0a1.8,1.8,0,1,1,1.8,1.8,1.806,1.806,0,0,1-1.8-1.8Zm-7.187,0a1.8,1.8,0,1,1,1.8,1.8A1.806,1.806,0,0,1,564.312,568.093Zm93.594-3.6a1.8,1.8,0,1,1,1.8,1.8A1.806,1.806,0,0,1,657.907,564.492Zm-7.2,0a1.8,1.8,0,1,1,1.8,1.8h0A1.806,1.806,0,0,1,650.705,564.492Zm-7.2,0a1.8,1.8,0,1,1,1.8,1.8A1.806,1.806,0,0,1,643.5,564.492Zm-7.187,0a1.8,1.8,0,1,1,1.8,1.8A1.806,1.806,0,0,1,636.316,564.492Zm-10.8,0a1.8,1.8,0,1,1,1.8,1.8h0A1.806,1.806,0,0,1,625.513,564.492Zm-7.2,0a1.8,1.8,0,1,1,1.8,1.8,1.806,1.806,0,0,1-1.8-1.8Zm-3.6,0a1.8,1.8,0,1,1,1.8,1.8A1.806,1.806,0,0,1,614.711,564.492Zm-3.6,0a1.8,1.8,0,1,1,1.8,1.8A1.806,1.806,0,0,1,611.11,564.492Zm-3.6,0a1.8,1.8,0,1,1,1.8,1.8,1.806,1.806,0,0,1-1.8-1.8Zm-3.6,0a1.8,1.8,0,1,1,1.8,1.8A1.806,1.806,0,0,1,603.908,564.492Zm-7.2,0a1.8,1.8,0,1,1,1.8,1.8A1.806,1.806,0,0,1,596.706,564.492Zm-3.6,0a1.8,1.8,0,1,1,1.8,1.8,1.806,1.806,0,0,1-1.8-1.8Zm-10.8,0a1.8,1.8,0,1,1,1.8,1.8A1.806,1.806,0,0,1,582.3,564.492Zm-3.6,0a1.8,1.8,0,1,1,1.8,1.8A1.806,1.806,0,0,1,578.7,564.492Zm-14.389,0a1.8,1.8,0,1,1,1.8,1.8A1.806,1.806,0,0,1,564.312,564.492Zm-3.6,0a1.8,1.8,0,1,1,1.8,1.8h0A1.806,1.806,0,0,1,560.711,564.492Zm89.994-3.6a1.8,1.8,0,1,1,1.8,1.8,1.806,1.806,0,0,1-1.8-1.8Zm-10.8,0a1.8,1.8,0,1,1,1.8,1.8,1.806,1.806,0,0,1-1.8-1.8Zm-7.187,0a1.8,1.8,0,1,1,1.8,1.8,1.806,1.806,0,0,1-1.8-1.8Zm-3.6,0a1.8,1.8,0,1,1,1.8,1.8,1.806,1.806,0,0,1-1.8-1.8Zm-3.6,0a1.8,1.8,0,1,1,1.8,1.8,1.806,1.806,0,0,1-1.8-1.8Zm-3.6,0a1.8,1.8,0,1,1,1.8,1.8,1.806,1.806,0,0,1-1.8-1.8Zm-10.8,0a1.8,1.8,0,1,1,1.8,1.8,1.806,1.806,0,0,1-1.8-1.8Zm-3.6,0a1.8,1.8,0,1,1,1.8,1.8,1.806,1.806,0,0,1-1.8-1.8Zm-7.2,0a1.8,1.8,0,1,1,1.8,1.8,1.806,1.806,0,0,1-1.8-1.8Zm-3.6,0a1.8,1.8,0,1,1,1.8,1.8,1.806,1.806,0,0,1-1.8-1.8Zm-3.6,0a1.8,1.8,0,1,1,1.8,1.8,1.806,1.806,0,0,1-1.8-1.8Zm-18,0a1.8,1.8,0,1,1,1.8,1.8,1.806,1.806,0,0,1-1.8-1.8Zm-3.6,0a1.8,1.8,0,1,1,1.8,1.8,1.806,1.806,0,0,1-1.8-1.8Zm-7.187,0a1.8,1.8,0,1,1,1.8,1.8,1.806,1.806,0,0,1-1.8-1.8Zm-3.6,0a1.8,1.8,0,1,1,1.8,1.8,1.806,1.806,0,0,1-1.8-1.8Zm93.594-3.6a1.8,1.8,0,1,1,1.8,1.8A1.806,1.806,0,0,1,654.306,557.291Zm-3.6,0a1.8,1.8,0,1,1,1.8,1.8h0A1.806,1.806,0,0,1,650.705,557.291Zm-25.192,0a1.8,1.8,0,1,1,1.8,1.8A1.806,1.806,0,0,1,625.513,557.291Zm-3.6,0a1.8,1.8,0,1,1,1.8,1.8A1.806,1.806,0,0,1,621.912,557.291Zm-10.8,0a1.8,1.8,0,1,1,1.8,1.8A1.806,1.806,0,0,1,611.11,557.291Zm-7.2,0a1.8,1.8,0,1,1,1.8,1.8A1.806,1.806,0,0,1,603.908,557.291Zm-3.6,0a1.8,1.8,0,1,1,1.8,1.8A1.806,1.806,0,0,1,600.307,557.291Zm-3.6,0a1.8,1.8,0,1,1,1.8,1.8A1.806,1.806,0,0,1,596.706,557.291Zm-7.2,0a1.8,1.8,0,1,1,1.8,1.8A1.806,1.806,0,0,1,589.5,557.291Zm-3.6,0a1.8,1.8,0,1,1,1.8,1.8A1.806,1.806,0,0,1,585.9,557.291Zm-3.6,0a1.8,1.8,0,1,1,1.8,1.8A1.806,1.806,0,0,1,582.3,557.291Zm-3.6,0a1.8,1.8,0,1,1,1.8,1.8A1.806,1.806,0,0,1,578.7,557.291Zm-3.6,0a1.8,1.8,0,1,1,1.8,1.8A1.806,1.806,0,0,1,575.1,557.291Zm-3.6,0a1.8,1.8,0,1,1,1.8,1.8,1.806,1.806,0,0,1-1.8-1.8Zm-3.586,0a1.8,1.8,0,1,1,1.8,1.8A1.806,1.806,0,0,1,567.913,557.291Zm-7.2,0a1.8,1.8,0,1,1,1.8,1.8h0A1.806,1.806,0,0,1,560.711,557.291Zm97.2-3.6a1.8,1.8,0,1,1,1.8,1.8A1.806,1.806,0,0,1,657.907,553.69Zm-3.6,0a1.8,1.8,0,1,1,1.8,1.8A1.806,1.806,0,0,1,654.306,553.69Zm-3.6,0a1.8,1.8,0,1,1,1.8,1.8h0A1.806,1.806,0,0,1,650.705,553.69Zm-10.8,0a1.8,1.8,0,1,1,1.8,1.8A1.806,1.806,0,0,1,639.9,553.69Zm-7.187,0a1.8,1.8,0,1,1,1.8,1.8A1.806,1.806,0,0,1,632.715,553.69Zm-7.2,0a1.8,1.8,0,1,1,1.8,1.8h0A1.806,1.806,0,0,1,625.513,553.69Zm-7.2,0a1.8,1.8,0,1,1,1.8,1.8,1.806,1.806,0,0,1-1.8-1.8Zm-3.6,0a1.8,1.8,0,1,1,1.8,1.8A1.806,1.806,0,0,1,614.711,553.69Zm-3.6,0a1.8,1.8,0,1,1,1.8,1.8A1.806,1.806,0,0,1,611.11,553.69Zm-39.6,0a1.8,1.8,0,1,1,1.8,1.8,1.806,1.806,0,0,1-1.8-1.8Zm-3.6,0a1.8,1.8,0,1,1,1.8,1.8,1.806,1.806,0,0,1-1.8-1.8Zm-3.6,0a1.8,1.8,0,1,1,1.8,1.8,1.806,1.806,0,0,1-1.8-1.8Zm97.2-3.6a1.8,1.8,0,1,1,1.8,1.8h0a1.8,1.8,0,0,1-1.8-1.8Zm-3.586,0a1.8,1.8,0,1,1,1.8,1.8h0a1.806,1.806,0,0,1-1.8-1.8Zm-3.6,0a1.8,1.8,0,1,1,1.8,1.8h0a1.806,1.806,0,0,1-1.8-1.8Zm-3.6,0a1.8,1.8,0,1,1,1.8,1.8h0a1.806,1.806,0,0,1-1.8-1.8Zm-3.6,0a1.8,1.8,0,1,1,1.8,1.8h0a1.806,1.806,0,0,1-1.8-1.8Zm-10.8,0a1.8,1.8,0,1,1,1.8,1.8h0a1.806,1.806,0,0,1-1.8-1.8Zm-3.6,0a1.8,1.8,0,1,1,1.8,1.8h0a1.806,1.806,0,0,1-1.8-1.8Zm-3.6,0a1.8,1.8,0,1,1,1.8,1.8h0a1.806,1.806,0,0,1-1.8-1.8Zm-7.2,0a1.8,1.8,0,1,1,1.8,1.8h0a1.806,1.806,0,0,1-1.8-1.8Zm-3.6,0a1.8,1.8,0,1,1,1.8,1.8h0A1.806,1.806,0,0,1,618.312,550.089Zm-10.8,0a1.8,1.8,0,1,1,1.8,1.8h0a1.8,1.8,0,0,1-1.8-1.8Zm-3.6,0a1.8,1.8,0,1,1,1.8,1.8h0a1.806,1.806,0,0,1-1.8-1.8Zm-3.6,0a1.8,1.8,0,1,1,1.8,1.8h0a1.806,1.806,0,0,1-1.8-1.8Zm-3.6,0a1.8,1.8,0,1,1,1.8,1.8h0a1.806,1.806,0,0,1-1.8-1.8Zm-3.6,0a1.8,1.8,0,1,1,1.8,1.8h0a1.806,1.806,0,0,1-1.8-1.8Zm-7.187,0a1.8,1.8,0,1,1,1.8,1.8h0a1.806,1.806,0,0,1-1.8-1.8Zm-3.6,0a1.8,1.8,0,1,1,1.8,1.8h0a1.806,1.806,0,0,1-1.8-1.8Zm-3.6,0a1.8,1.8,0,1,1,1.8,1.8h0a1.806,1.806,0,0,1-1.8-1.8Zm-3.6,0a1.8,1.8,0,1,1,1.8,1.8h0a1.806,1.806,0,0,1-1.8-1.8Zm-10.8,0a1.8,1.8,0,1,1,1.8,1.8h0a1.806,1.806,0,0,1-1.8-1.8Zm-3.6,0a1.8,1.8,0,1,1,1.8,1.8h0a1.806,1.806,0,0,1-1.8-1.8Zm86.408-3.6a1.8,1.8,0,1,1,1.8,1.8h0a1.806,1.806,0,0,1-1.8-1.8Zm-18,0a1.8,1.8,0,1,1,1.8,1.8h0a1.806,1.806,0,0,1-1.8-1.8Zm-3.6,0a1.8,1.8,0,1,1,1.8,1.8,1.806,1.806,0,0,1-1.8-1.8Zm-3.6,0a1.8,1.8,0,1,1,1.8,1.8,1.806,1.806,0,0,1-1.8-1.8Zm-14.4,0a1.273,1.273,0,1,1-.015.015h0Zm-7.2,0a1.8,1.8,0,1,1,1.8,1.8,1.806,1.806,0,0,1-1.8-1.8Zm-3.6,0a1.8,1.8,0,1,1,1.8,1.8,1.806,1.806,0,0,1-1.8-1.8Zm-3.6,0a1.8,1.8,0,1,1,1.8,1.8h0a1.806,1.806,0,0,1-1.8-1.8Zm-3.586,0a1.8,1.8,0,1,1,1.8,1.8,1.806,1.806,0,0,1-1.8-1.8Zm-14.4,0a1.8,1.8,0,1,1,1.8,1.8h0a1.806,1.806,0,0,1-1.8-1.8Zm-10.8,0a1.8,1.8,0,1,1,1.8,1.8h0a1.806,1.806,0,0,1-1.8-1.8Zm97.2-3.6a1.8,1.8,0,1,1,1.8,1.8,1.806,1.806,0,0,1-1.8-1.8Zm-3.586,0a1.8,1.8,0,1,1,1.8,1.8,1.806,1.806,0,0,1-1.8-1.8Zm-7.2,0a1.8,1.8,0,1,1,1.8,1.8h0a1.806,1.806,0,0,1-1.8-1.8Zm-3.6,0a1.8,1.8,0,1,1,1.8,1.8,1.806,1.806,0,0,1-1.8-1.8Zm-10.8,0a1.8,1.8,0,1,1,1.8,1.8,1.806,1.806,0,0,1-1.8-1.8Zm-14.4,0a1.8,1.8,0,1,1,1.8,1.8,1.806,1.806,0,0,1-1.8-1.8Zm-7.2,0a1.8,1.8,0,1,1,1.8,1.8,1.806,1.806,0,0,1-1.8-1.8Zm-10.8,0a1.8,1.8,0,1,1,1.8,1.8,1.806,1.806,0,0,1-1.8-1.8Zm-3.6,0a1.8,1.8,0,1,1,1.8,1.8,1.806,1.806,0,0,1-1.8-1.8Zm-10.788,0a1.8,1.8,0,1,1,1.8,1.8,1.806,1.806,0,0,1-1.8-1.8Zm-7.2,0a1.8,1.8,0,1,1,1.8,1.8,1.806,1.806,0,0,1-1.8-1.8Zm-7.2,0a1.8,1.8,0,1,1,1.8,1.8,1.806,1.806,0,0,1-1.8-1.8Zm-3.6,0a1.8,1.8,0,1,1,1.8,1.8,1.806,1.806,0,0,1-1.8-1.8Zm-3.6,0a1.8,1.8,0,1,1,1.8,1.8,1.806,1.806,0,0,1-1.8-1.8Zm-7.2,0a1.8,1.8,0,1,1,1.8,1.8h0a1.806,1.806,0,0,1-1.8-1.8Zm90.009-3.6a1.8,1.8,0,1,1,1.8,1.8h0a1.806,1.806,0,0,1-1.8-1.8Zm-3.6,0a1.8,1.8,0,1,1,1.8,1.8,1.806,1.806,0,0,1-1.8-1.8Zm-3.6,0a1.8,1.8,0,1,1,1.8,1.8,1.806,1.806,0,0,1-1.8-1.8Zm-25.207,0a1.8,1.8,0,1,1,1.8,1.8A1.806,1.806,0,0,1,618.312,539.286Zm-14.4,0a1.8,1.8,0,1,1,1.8,1.8,1.806,1.806,0,0,1-1.8-1.8Zm-3.6,0a1.8,1.8,0,1,1,1.8,1.8,1.806,1.806,0,0,1-1.8-1.8Zm-7.2,0a1.8,1.8,0,1,1,1.8,1.8,1.806,1.806,0,0,1-1.8-1.8Zm-7.187,0a1.8,1.8,0,1,1,1.8,1.8,1.806,1.806,0,0,1-1.8-1.8Zm-7.2,0a1.8,1.8,0,1,1,1.8,1.8,1.806,1.806,0,0,1-1.8-1.8Zm-7.2,0a1.8,1.8,0,1,1,1.8,1.8,1.806,1.806,0,0,1-1.8-1.8Zm-7.2,0a1.8,1.8,0,1,1,1.8,1.8,1.806,1.806,0,0,1-1.8-1.8Zm93.594-3.6a1.8,1.8,0,1,1,1.8,1.8A1.806,1.806,0,0,1,657.907,535.685Zm-3.6,0a1.8,1.8,0,1,1,1.8,1.8A1.806,1.806,0,0,1,654.306,535.685Zm-3.6,0a1.8,1.8,0,1,1,1.8,1.8h0A1.806,1.806,0,0,1,650.705,535.685Zm-3.6,0a1.8,1.8,0,1,1,1.8,1.8A1.806,1.806,0,0,1,647.1,535.685Zm-3.6,0a1.8,1.8,0,1,1,1.8,1.8A1.806,1.806,0,0,1,643.5,535.685Zm-3.6,0a1.8,1.8,0,1,1,1.8,1.8A1.806,1.806,0,0,1,639.9,535.685Zm-3.586,0a1.8,1.8,0,1,1,1.8,1.8A1.806,1.806,0,0,1,636.316,535.685Zm-7.2,0a1.8,1.8,0,1,1,1.8,1.8A1.806,1.806,0,0,1,629.114,535.685Zm-7.2,0a1.8,1.8,0,1,1,1.8,1.8A1.806,1.806,0,0,1,621.912,535.685Zm-3.6,0a1.8,1.8,0,1,1,1.8,1.8,1.806,1.806,0,0,1-1.8-1.8Zm-3.6,0a1.8,1.8,0,1,1,1.8,1.8A1.806,1.806,0,0,1,614.711,535.685Zm-14.4,0a1.8,1.8,0,1,1,1.8,1.8A1.806,1.806,0,0,1,600.307,535.685Zm-3.6,0a1.8,1.8,0,1,1,1.8,1.8A1.806,1.806,0,0,1,596.706,535.685Zm-14.4,0a1.8,1.8,0,1,1,1.8,1.8A1.806,1.806,0,0,1,582.3,535.685Zm-3.6,0a1.8,1.8,0,1,1,1.8,1.8A1.806,1.806,0,0,1,578.7,535.685Zm-3.6,0a1.8,1.8,0,1,1,1.8,1.8A1.806,1.806,0,0,1,575.1,535.685Zm-14.389,0a1.8,1.8,0,1,1,1.8,1.8h0A1.806,1.806,0,0,1,560.711,535.685Zm68.4-3.6a1.8,1.8,0,1,1,1.8,1.8A1.806,1.806,0,0,1,629.114,532.084Zm-3.6,0a1.8,1.8,0,1,1,1.8,1.8h0A1.806,1.806,0,0,1,625.513,532.084Zm-14.4,0a1.8,1.8,0,1,1,1.8,1.8A1.806,1.806,0,0,1,611.11,532.084Zm-3.6,0a1.8,1.8,0,1,1,1.8,1.8,1.806,1.806,0,0,1-1.8-1.8Zm-3.6,0a1.8,1.8,0,1,1,1.8,1.8A1.806,1.806,0,0,1,603.908,532.084Zm-7.2,0a1.8,1.8,0,1,1,1.8,1.8A1.806,1.806,0,0,1,596.706,532.084Zm-7.2,0a1.8,1.8,0,1,1,1.8,1.8A1.806,1.806,0,0,1,589.5,532.084Zm63-1.785a12.6,12.6,0,1,1,12.6-12.618h0a12.6,12.6,0,0,1-12.6,12.6Zm0-21.621a8.995,8.995,0,1,0,8.987,9h0a9.013,9.013,0,0,0-9-9.017h0Zm-19.79,19.805a1.8,1.8,0,1,1,1.8,1.8A1.806,1.806,0,0,1,632.715,528.483Zm-7.2,0a1.8,1.8,0,1,1,1.8,1.8h0A1.806,1.806,0,0,1,625.513,528.483Zm-7.2,0a1.8,1.8,0,1,1,1.8,1.8,1.806,1.806,0,0,1-1.8-1.8Zm-7.2,0a1.8,1.8,0,1,1,1.8,1.8A1.806,1.806,0,0,1,611.11,528.483Zm-7.2,0a1.8,1.8,0,1,1,1.8,1.8A1.806,1.806,0,0,1,603.908,528.483Zm-7.2,0a1.8,1.8,0,1,1,1.8,1.8A1.806,1.806,0,0,1,596.706,528.483Zm-7.2,0a1.8,1.8,0,1,1,1.8,1.8A1.806,1.806,0,0,1,589.5,528.483ZM560.711,517.7a12.6,12.6,0,0,1,12.588-12.6h.015A12.6,12.6,0,1,1,560.7,517.7Zm3.586,0a9,9,0,1,0,9.017-9H573.3a8.987,8.987,0,0,0-8.987,9h0Zm57.615,7.187a1.8,1.8,0,1,1,1.8,1.8A1.806,1.806,0,0,1,621.912,524.882Zm-3.6,0a1.8,1.8,0,1,1,1.8,1.8,1.806,1.806,0,0,1-1.8-1.8Zm-3.6,0a1.8,1.8,0,1,1,1.8,1.8A1.806,1.806,0,0,1,614.711,524.882Zm-3.6,0a1.8,1.8,0,1,1,1.8,1.8A1.806,1.806,0,0,1,611.11,524.882Zm-18,0a1.8,1.8,0,1,1,1.8,1.8A1.806,1.806,0,0,1,593.1,524.882Zm-3.6,0a1.8,1.8,0,1,1,1.8,1.8A1.806,1.806,0,0,1,589.5,524.882Zm57.6-7.187a5.4,5.4,0,1,1,5.4,5.4A5.4,5.4,0,0,1,647.1,517.7Zm-14.389,3.586a1.8,1.8,0,1,1,1.8,1.8A1.806,1.806,0,0,1,632.715,521.281Zm-3.6,0a1.8,1.8,0,1,1,1.8,1.8A1.806,1.806,0,0,1,629.114,521.281Zm-10.8,0a1.8,1.8,0,1,1,1.8,1.8,1.806,1.806,0,0,1-1.8-1.8Zm-10.8,0a1.8,1.8,0,1,1,1.8,1.8,1.806,1.806,0,0,1-1.8-1.8Zm-3.6,0a1.8,1.8,0,1,1,1.8,1.8A1.806,1.806,0,0,1,603.908,521.281Zm-10.8,0a1.8,1.8,0,1,1,1.8,1.8,1.806,1.806,0,0,1-1.8-1.8Zm-3.6,0a1.8,1.8,0,1,1,1.8,1.8A1.806,1.806,0,0,1,589.5,521.281ZM567.913,517.7a5.4,5.4,0,1,1,5.4,5.4A5.4,5.4,0,0,1,567.913,517.7Zm57.6,0a1.8,1.8,0,1,1,1.8,1.8A1.806,1.806,0,0,1,625.513,517.7Zm-21.606,0a1.8,1.8,0,1,1,1.8,1.8A1.806,1.806,0,0,1,603.908,517.7Zm-14.4,0a1.8,1.8,0,1,1,1.8,1.8A1.806,1.806,0,0,1,589.5,517.7Zm43.211-3.6a1.8,1.8,0,1,1,1.8,1.8,1.806,1.806,0,0,1-1.8-1.8Zm-3.6,0a1.8,1.8,0,1,1,1.8,1.8,1.806,1.806,0,0,1-1.8-1.8Zm-3.6,0a1.8,1.8,0,1,1,1.8,1.8,1.806,1.806,0,0,1-1.8-1.8Zm-3.6,0a1.8,1.8,0,1,1,1.8,1.8,1.806,1.806,0,0,1-1.8-1.8Zm-7.2,0a1.8,1.8,0,1,1,1.8,1.8,1.806,1.806,0,0,1-1.8-1.8Zm-3.6,0a1.8,1.8,0,1,1,1.8,1.8h0a1.806,1.806,0,0,1-1.8-1.8Zm-3.6,0a1.8,1.8,0,1,1,1.8,1.8,1.806,1.806,0,0,1-1.8-1.8Zm-10.8,0a1.8,1.8,0,1,1,1.8,1.8,1.806,1.806,0,0,1-1.8-1.8Zm-7.2,0a1.8,1.8,0,1,1,1.8,1.8,1.806,1.806,0,0,1-1.8-1.8Zm7.2-3.6a1.8,1.8,0,1,1,1.8,1.8h0a1.806,1.806,0,0,1-1.8-1.8Zm-3.6,0a1.8,1.8,0,1,1,1.8,1.8h0a1.806,1.806,0,0,1-1.8-1.8Zm-3.6,0a1.8,1.8,0,1,1,1.8,1.8h0a1.806,1.806,0,0,1-1.8-1.8Zm43.211-3.616a1.8,1.8,0,1,1,1.8,1.8A1.806,1.806,0,0,1,632.715,506.877Zm-3.6,0a1.8,1.8,0,1,1,1.8,1.8,1.806,1.806,0,0,1-1.8-1.8Zm-3.6,0a1.8,1.8,0,1,1,1.8,1.8h0A1.806,1.806,0,0,1,625.513,506.877Zm-3.6,0a1.8,1.8,0,1,1,1.8,1.8A1.806,1.806,0,0,1,621.912,506.877Zm-3.6,0a1.8,1.8,0,1,1,1.8,1.8A1.806,1.806,0,0,1,618.312,506.877Zm-10.8,0a1.8,1.8,0,1,1,1.8,1.8A1.806,1.806,0,0,1,607.509,506.877Zm-3.6,0a1.8,1.8,0,1,1,1.8,1.8,1.806,1.806,0,0,1-1.8-1.8Z" fill="none"/>
    </clipPath>
  </defs>
  <g id="QR3" transform="translate(-624.66 -814.042)">
    <rect id="Rect치ngulo_1272" data-name="Rect치ngulo 1272" width="112.499" height="124.499" transform="translate(624.66 814.042)" fill="#fff"/>
    <g id="Grupo_2576" data-name="Grupo 2576" transform="translate(68 313.001)" clip-path="url(#clip-path)">
      <g id="Grupo_2476" data-name="Grupo 2476">
        <rect id="Rect치ngulo_1273" data-name="Rect치ngulo 1273" width="112.499" height="112.499" transform="translate(556.66 501.041)"/>
      </g>
    </g>
  </g>
</svg>
